<svg xmlns="http://www.w3.org/2000/svg" width="1281" height="3582" viewBox="0 0 1281 3582">
  <g id="Group_2125" data-name="Group 2125" transform="translate(-7299 -1635)">
    <rect id="Rectangle_1522" data-name="Rectangle 1522" width="1281" height="3582" transform="translate(7299 1635)" fill="#fffcf3"/>
    <g id="Group_2123" data-name="Group 2123" transform="translate(11210.812 3030.357)">
      <path id="Path_3338" data-name="Path 3338" d="M-2630.814,2186.643V1944.1l-280.905-137.945-265.149,112.92-134.045-61.187-180.635,90.713-194.4-111.978-224.858,134.628.093,215.39Z" transform="translate(0 0)" fill="#93b82c"/>
      <g id="Group_2031" data-name="Group 2031" transform="translate(-3910.808 1847.307)">
        <path id="Path_3339" data-name="Path 3339" d="M-2626.737,2186.919V2054.608l-3.5-9.342-70.59-188.3-70.6,188.3-39.73,105.977-.033-.09-70.591-188.3-66.677,177.835-27.432-73.171-70.59-188.3-70.6,188.3-44.76,119.4Z" transform="translate(3906.733 -1847.583)" fill="#2a8648"/>
        <path id="Path_3340" data-name="Path 3340" d="M-3186.129,2186.868l-30.165-80.463-70.592-188.3-70.6,188.3-2.306,6.145-28.762-76.722-70.589-188.3-70.6,188.3-32.152,85.764-61.45-163.912-70.6,188.294-14.44,38.522-30.525-81.423-70.591-188.3-70.593,188.3-30.718,81.934v1.86Z" transform="translate(3910.809 -1847.532)" fill="#2a8648"/>
      </g>
      <g id="Group_2032" data-name="Group 2032" transform="translate(-3851.631 1998.616)">
        <path id="Path_3341" data-name="Path 3341" d="M-3845.917,2170.771l-5.39,6.917,7.525,10.938h16.649Z" transform="translate(3851.307 -2000.599)" fill="#ef4441"/>
        <path id="Path_3342" data-name="Path 3342" d="M-3797.173,2158.925l25.3-47.392-4.953-3.538-23.472,27.588-2.785-67.88-12.564.418-3.662,119.943h22.929Z" transform="translate(3851.134 -2000.039)" fill="#ef4441"/>
        <path id="Path_3343" data-name="Path 3343" d="M-3615.322,2107.028l-12.564-.5-2.785,80.678-23.471-32.789-4.955,4.2,13.315,29.652h32.788Z" transform="translate(3850.26 -2000.25)" fill="#fa0"/>
        <path id="Path_3344" data-name="Path 3344" d="M-3405.815,2154.989l-4.581-6.542-32.264,36.022-2.46-66.083,25.3-56.331-4.954-4.2-23.472,32.791-2.79-80.681-12.562.5-3.88,135.422-35.213-40.195-5.391,8.221,38.553,61.628-.309,12.214h44.427Z" transform="translate(3849.44 -1999.724)" fill="#ef4441"/>
        <path id="Path_3345" data-name="Path 3345" d="M-3327.992,2173.33l-5.392,8.223,4.435,7.087h14.369Z" transform="translate(3848.49 -2000.613)" fill="#ef4441"/>
        <path id="Path_3346" data-name="Path 3346" d="M-3270.2,2185.506l25.295-56.333-4.953-4.2-23.472,32.789-2.785-80.678-12.564.5-3.165,110.538h21.741Z" transform="translate(3848.263 -2000.09)" fill="#ef4441"/>
        <path id="Path_3347" data-name="Path 3347" d="M-2995.212,2168.633l-4.582-6.542-23.723,26.488h16.37Z" transform="translate(3846.804 -2000.552)" fill="#fa0"/>
        <path id="Path_3348" data-name="Path 3348" d="M-3034.92,2131.273l25.3-56.331-4.953-4.2-23.473,32.79-2.794-80.68-12.563.5-3.948,137.817-35.406-40.18-5.132,5.808,35,61.03h30.08Z" transform="translate(3847.209 -1999.795)" fill="#fa0"/>
        <path id="Path_3349" data-name="Path 3349" d="M-2842.611,2156.229l-4.955-4.2-23.472,32.79-2.788-80.68-12.565.5-2.4,83.628H-2857Z" transform="translate(3846.072 -2000.238)" fill="#ef4441"/>
        <path id="Path_3350" data-name="Path 3350" d="M-2648.429,2144.7l-4.581-6.544-32.263,36.023-2.46-66.083,25.3-56.331-4.955-4.2-23.472,32.79-2.791-80.679-12.564.5-3.879,135.42-35.212-40.192-5.391,8.221,38.555,61.63-.57,22.45h38.56Z" transform="translate(3845.32 -1999.668)" fill="#fa0"/>
      </g>
    </g>
  </g>
</svg>
