<svg xmlns="http://www.w3.org/2000/svg" width="1280" height="220" viewBox="0 0 1280 220">
  <g id="グループ_2071" data-name="グループ 2071" transform="translate(0 -4270)">
    <g id="グループ_2029" data-name="グループ 2029" transform="translate(518 4376.192)">
      <path id="パス_3328" data-name="パス 3328" d="M-2068.328,1899.87c-.134.313-.27.762-.673.762s-.585-.313-1.034-1.211a8.385,8.385,0,0,0-.449-.945,7.8,7.8,0,0,1-1.035-2.471c0-.585.945-.852,2.022-1.258,4.36-2.338,4.852-2.424,4.852-4v-7.911a1.1,1.1,0,0,0-1.258-1.257h-1.53c-.852,0-1.659.136-2.468.136-1.034,0-.991-.629-.991-2.158,0-1.66-.09-2.245.991-2.245.852,0,1.616.09,2.468.09h1.846c.987,0,2.019-.09,3.053-.09,1.484,0,2.515.4,2.515,2.069,0,1.257-.087,2.514-.087,3.774v6.336c0,2.784.852,4.58,3.638,5.478,3.19,1.034,9.166.944,12.625.944,2.517,0,5.078,0,7.592-.09.675-.046,3.732-.133,4.091-.133.854,0,.9.536.9,1.257a6.753,6.753,0,0,1-.448,2.518c-.313.672-1.168.715-2.694.715h-10.742c-3.549,0-9.885,0-13.074-1.211a7.253,7.253,0,0,1-3.594-2.743,1.134,1.134,0,0,0-.855-.49.984.984,0,0,0-.671.266c-1.214.9-3.146,2.2-4.447,3.1A1.222,1.222,0,0,0-2068.328,1899.87Zm6.022-27.767c-.362,0-.719-.359-.944-.629a65.2,65.2,0,0,0-6.426-6.292c-.316-.27-.629-.539-.629-.944,0-.9,1.976-2.471,2.694-2.471.675,0,3.821,3.013,4.45,3.641.628.585,3.685,3.505,3.685,4.134C-2059.476,1870.393-2061.587,1872.1-2062.306,1872.1Zm12.4.539a1.1,1.1,0,0,0,1.26,1.257h11.547c1.527,0,3.054-.136,4.583-.136.988,0,.944.675.944,2.2,0,1.573.044,2.2-.944,2.2-1.394,0-3.01-.093-4.583-.093h-.315c-.852,0-1.257.362-1.257,1.26v7.19c0,1.976.136,3.951.136,5.93,0,1.8-.585,1.8-2.381,1.8-1.932,0-2.428-.046-2.428-1.709,0-2.022.09-4,.09-6.02v-7.19c0-.9-.359-1.26-1.258-1.26h-4.134c-.9,0-1.168.318-1.3,1.216a33.864,33.864,0,0,1-2.561,12.263c-.675,1.44-1.078,2.069-1.753,2.069-1.034,0-3.416-1.214-3.416-2.425a2.28,2.28,0,0,1,.406-.9c2.334-3.957,2.966-9.348,2.966-13.885v-9.349c0-2.335,1.168-2.245,3.054-2.471,3.911-.449,11.324-1.707,14.65-3.549.177-.089.269-.179.449-.179.582,0,1.48,1.306,1.84,1.755a9.508,9.508,0,0,1,1.573,2.648.508.508,0,0,1-.539.495,1.438,1.438,0,0,1-.585-.182.964.964,0,0,0-.582-.223,2.47,2.47,0,0,0-.539.136,64.923,64.923,0,0,1-12.4,2.923c-2.6.357-2.517.357-2.517,2.917Z" transform="translate(2071.518 -1860.868)" fill="#fffcf3"/>
      <path id="パス_3329" data-name="パス 3329" d="M-2027.825,1895.4h-13.705c-.718,0-1.034.313-1.034,1.034v.449c0,1.258-.449,1.258-2.561,1.258-1.932,0-2.561,0-2.561-1.214,0-1.886.136-3.774.136-5.617v-22.6c0-1.437-.089-2.83-.089-4.267,0-1.8.718-2.338,2.471-2.338,1.3,0,2.6.093,3.954.093h13.12c1.3,0,2.6-.093,3.908-.093,1.707,0,2.471.449,2.471,2.291,0,1.437-.09,2.876-.09,4.314v22.512c0,1.889.136,3.731.136,5.617,0,1.257-.542,1.211-2.561,1.211s-2.564,0-2.564-1.211a1.186,1.186,0,0,1,.046-.4C-2026.794,1895.716-2027.107,1895.4-2027.825,1895.4Zm-.09-19.14a1.289,1.289,0,0,0,1.257-1.26v-7.19a1.287,1.287,0,0,0-1.257-1.257h-13.525a1.287,1.287,0,0,0-1.258,1.257V1875a1.289,1.289,0,0,0,1.258,1.26ZM-2042.7,1889.7a1.287,1.287,0,0,0,1.258,1.257h13.525a1.287,1.287,0,0,0,1.257-1.257v-7.908a1.287,1.287,0,0,0-1.257-1.257h-13.525a1.287,1.287,0,0,0-1.258,1.257Z" transform="translate(2112.544 -1858.737)" fill="#fffcf3"/>
      <path id="パス_3330" data-name="パス 3330" d="M-2014.312,1862.236a7.053,7.053,0,0,1,.808.408c1.031.449,1.572.719,1.572,1.212,0,.359-.405.538-.721.631-.719.223-.719.313-1.121,1.211-2.518,5.661-6.066,11.457-10.65,15.724a2.622,2.622,0,0,1-1.573.944c-.944,0-3.01-1.66-3.01-2.6,0-.5.9-1.171,1.257-1.437a36.671,36.671,0,0,0,8.357-10.918,40.1,40.1,0,0,0,2.292-5.347c.133-.316.226-.629.629-.629A11.823,11.823,0,0,1-2014.312,1862.236Zm-9.661,37.115c-.18.27-.359.632-.765.632s-.539-.5-.762-1.394a27.356,27.356,0,0,1-.9-3.552c0-.585.405-.585,1.8-.629,1.3-.047,2.6-.133,3.908-.27a1.61,1.61,0,0,0,1.619-1.124,171.634,171.634,0,0,0,6.515-17.072c.133-.4.269-.99.762-.99a23.673,23.673,0,0,1,2.92,1.124c.5.223,1.842.629,1.842,1.258,0,.315-.359.405-.629.495-.359.09-.583.177-.719.495-1.8,4.807-3.774,9.525-5.8,14.2a1.392,1.392,0,0,0-.09.406.631.631,0,0,0,.765.629c3.907-.313,7.816-.675,11.68-1.167.359-.044.675-.223.675-.629a.926.926,0,0,0-.18-.493c-.944-1.483-1.979-2.876-3.01-4.27a2.3,2.3,0,0,1-.495-.988c0-.9,2.2-2.248,3.146-2.248a1.335,1.335,0,0,1,.988.629c1.484,1.843,3.146,4.267,4.45,6.292.629.988,4.044,6.425,4.044,7.234s-2.248,2.156-3.326,2.156c-.631,0-.855-.449-1.619-1.889-.179-.313-.4-.716-.628-1.165a1.432,1.432,0,0,0-1.347-.854h-.406c-7.909,1.078-15.861,1.932-23.813,2.7C-2023.7,1898.9-2023.75,1899.038-2023.973,1899.351Zm17.567-33.518c-.988,0-1.886.09-2.74.09-1.124,0-1.032-.585-1.032-2.294,0-1.57-.046-2.2,1.032-2.2.808,0,1.706.089,2.74.089h1.753c.718,0,1.483-.046,2.2-.046,1.889,0,2.022,1.17,2.607,3.056,1.886,5.931,5.3,10.333,9.975,14.335.316.266.944.718.944,1.167,0,.852-1.709,2.471-3.01,2.471-.944,0-2.517-1.619-3.146-2.245a32.784,32.784,0,0,1-8.178-12.941c-.4-1.3-.765-1.483-1.842-1.483Z" transform="translate(2144.703 -1859.901)" fill="#fffcf3"/>
      <path id="パス_3331" data-name="パス 3331" d="M-2002.753,1892.346c0,2.2.09,4.4.09,6.608,0,1.437-.449,1.483-2.338,1.483-1.84,0-2.335-.046-2.335-1.437,0-2.251.137-4.45.137-6.654v-24.4c0-1.39-.09-2.784-.09-4.177,0-1.8.672-2.292,2.381-2.292,1.167,0,2.289.046,3.415.046h4.985c1.124,0,2.2-.046,3.326-.046,1.753,0,2.471.449,2.471,2.248,0,1.347-.09,2.694-.09,4.044v1.842c0,1.257.09,2.517.09,3.772,0,1.706-.718,2.248-2.382,2.248-1.124,0-2.291-.092-3.415-.092h-4.985c-.9,0-1.26.362-1.26,1.26Zm7.5-26.461a.781.781,0,0,0-.854-.858h-5.794a.782.782,0,0,0-.854.858v.313a.827.827,0,0,0,.854.852h5.794a.824.824,0,0,0,.854-.852Zm-7.5,5.211a1.013,1.013,0,0,0,1.078,1.075h5.347a1.037,1.037,0,0,0,1.078-1.075V1871a1.038,1.038,0,0,0-1.078-1.078h-5.347a1.014,1.014,0,0,0-1.078,1.078Zm20.31,20.757c0,1.842.09,3.639.09,5.481,0,1.257-.5,1.3-2.2,1.3-1.842,0-2.248-.09-2.248-1.393,0-1.8.136-3.592.136-5.391V1890.6c0-.9-.406-1.258-1.26-1.258h-1.617a1.264,1.264,0,0,0-1.483,1.121,13.33,13.33,0,0,1-4.942,7.324c-.449.359-1.168,1.034-1.752,1.034-.942,0-2.83-1.932-2.83-2.694,0-.452.628-.764.988-.988a9.973,9.973,0,0,0,4.09-4.632,1.306,1.306,0,0,0,.09-.4c0-.538-.406-.718-.9-.762-1.08,0-2.158.087-3.236.087-1.034,0-.988-.672-.988-1.886,0-1.35,0-1.842,1.031-1.842.988,0,2.428.089,3.505.043.854,0,1.167-.4,1.167-1.211v-1.437c0-.811-.313-1.214-1.167-1.214-.675,0-1.347.043-2.022.043-1.078,0-1.034-.628-1.034-1.842s-.044-1.84,1.034-1.84c1.3,0,2.607.09,3.864.09h10.739c1.3,0,2.6-.09,3.908-.09,1.078,0,.991.673.991,1.84,0,1.214.087,1.842-.991,1.842-.583,0-1.168-.043-1.753-.043-.852,0-1.211.36-1.211,1.214v1.437c0,.808.269,1.211,1.124,1.211.9.046,2.468-.043,3.233-.043,1.034,0,1.034.492,1.034,1.842s0,1.886-1.034,1.886c-.449,0-2.7-.087-3.233-.087-.854.087-1.124.4-1.124,1.258Zm-5.484-6.113a1.218,1.218,0,0,0,1.26-1.211v-1.437c-.09-.765-.5-1.26-1.26-1.26h-1.391a1.257,1.257,0,0,0-1.26,1.26v1.437c.09.762.449,1.211,1.26,1.211Zm6.964-10.2c-1.121,0-2.245.092-3.37.092-1.706,0-2.424-.495-2.424-2.248,0-1.255.09-2.515.09-3.772v-1.842c0-1.35-.09-2.7-.09-4.044,0-1.753.718-2.248,2.381-2.248,1.167,0,2.291.046,3.413.046h4.988c1.124,0,2.2-.046,3.326-.046,1.706,0,2.471.449,2.471,2.248,0,1.391-.089,2.83-.089,4.22v23.5c0,1.214.089,2.471.089,3.688,0,1.57-.315,3.323-1.752,4.221a10.139,10.139,0,0,1-4.809.991c-1.57,0-2.561-.046-2.561-3.461,0-.629.136-1.124.9-1.124h.585c.406.047.988.136,1.393.136,1.886,0,1.707-1.124,1.707-2.517V1876.8c0-.9-.36-1.26-1.258-1.26Zm6.246-9.656a.781.781,0,0,0-.852-.858h-5.8a.783.783,0,0,0-.854.858v.313a.827.827,0,0,0,.854.852h5.8a.824.824,0,0,0,.852-.852Zm-7.5,5.211a1.014,1.014,0,0,0,1.08,1.075h5.345a1.037,1.037,0,0,0,1.078-1.075V1871a1.038,1.038,0,0,0-1.078-1.078h-5.345a1.015,1.015,0,0,0-1.08,1.078Z" transform="translate(2182.005 -1859.816)" fill="#fffcf3"/>
      <path id="パス_3332" data-name="パス 3332" d="M-1976.938,1891.5a3.276,3.276,0,0,1-3.415,3.415,2.867,2.867,0,0,1-3.053-2.92,3.3,3.3,0,0,1,3.369-3.549A3.013,3.013,0,0,1-1976.938,1891.5Zm-3.951-6.422c-1.127,0-1.35-.226-1.4-1.347l-.313-11.1c-.089-2.966-.315-7.954-.315-8.852,0-.765.27-.945,1.26-.945h2.92c.988,0,1.257.18,1.257.945,0,.9-.226,5.886-.313,9.165l-.27,10.785c-.046,1.121-.272,1.347-1.393,1.347Z" transform="translate(2223.199 -1857.485)" fill="#fffcf3"/>
    </g>
    <path id="パス_3524" data-name="パス 3524" d="M0,0H1280" transform="translate(0 4285.5)" fill="none" stroke="#fffcf3" stroke-width="2"/>
    <path id="パス_3526" data-name="パス 3526" d="M0,0H1280" transform="translate(0 4474.5)" fill="none" stroke="#fffcf3" stroke-width="2"/>
    <line id="線_17" data-name="線 17" x2="1280" transform="translate(0 4488.5)" fill="none" stroke="#fffcf3" stroke-width="3"/>
    <path id="パス_3525" data-name="パス 3525" d="M0,0H1280" transform="translate(0 4271.5)" fill="none" stroke="#fffcf3" stroke-width="3"/>
    <g id="グループ_2059" data-name="グループ 2059" transform="translate(6013.814 -1904.792)">
      <path id="パス_3570" data-name="パス 3570" d="M-5486.815,6242.094a8.91,8.91,0,0,1,4.139.955,6.9,6.9,0,0,1,2.874,2.671,7.5,7.5,0,0,1,1.016,3.889,7.842,7.842,0,0,1-.976,3.966,6.854,6.854,0,0,1-2.877,2.688,8.934,8.934,0,0,1-4.176.984,8.832,8.832,0,0,1-4.17-.984,6.867,6.867,0,0,1-2.853-2.687,7.851,7.851,0,0,1-.975-3.966,7.423,7.423,0,0,1,1.032-3.915,7.007,7.007,0,0,1,2.873-2.655A8.815,8.815,0,0,1-5486.815,6242.094Zm-3.967,7.516a5.346,5.346,0,0,0,1.069,3.489,3.522,3.522,0,0,0,2.865,1.3,3.7,3.7,0,0,0,2.955-1.248,5.334,5.334,0,0,0,1.077-3.578,4.964,4.964,0,0,0-1.085-3.428,3.758,3.758,0,0,0-2.946-1.211,3.561,3.561,0,0,0-2.842,1.28A5.041,5.041,0,0,0-5490.783,6249.609Z" transform="translate(0 4.522)" fill="#fffcf3"/>
      <path id="パス_3571" data-name="パス 3571" d="M-5478.083,6239.381a8.008,8.008,0,0,1,1.38.127,4.654,4.654,0,0,1,1.148.327v3.125a6.5,6.5,0,0,0-1.735-.219,2.715,2.715,0,0,0-2.068.72,3.417,3.417,0,0,0-.68,2.389v1.048h2.5v2.906h-2.5v11.681h-3.842V6249.8h-2.079V6246.9h2.079V6245.8a6.663,6.663,0,0,1,1.586-4.687A5.421,5.421,0,0,1-5478.083,6239.381Z" transform="translate(14.751 0.001)" fill="#fffcf3"/>
      <path id="パス_3572" data-name="パス 3572" d="M-5472.471,6239.381a8.029,8.029,0,0,1,1.384.127,4.661,4.661,0,0,1,1.149.327v3.125a6.53,6.53,0,0,0-1.736-.219,2.72,2.72,0,0,0-2.069.72,3.417,3.417,0,0,0-.68,2.389v1.048h2.5v2.906h-2.5v11.681h-3.841V6249.8h-2.079V6246.9h2.079V6245.8a6.673,6.673,0,0,1,1.583-4.687A5.433,5.433,0,0,1-5472.471,6239.381Z" transform="translate(24.107 0.001)" fill="#fffcf3"/>
      <path id="パス_3573" data-name="パス 3573" d="M-5471.954,6239.668a2.1,2.1,0,0,1,1.534.644,2.091,2.091,0,0,1,.639,1.53,2.147,2.147,0,0,1-.632,1.523,2.054,2.054,0,0,1-1.541.664,2.064,2.064,0,0,1-1.521-.664,2.12,2.12,0,0,1-.647-1.523,2.048,2.048,0,0,1,.655-1.537A2.122,2.122,0,0,1-5471.954,6239.668Zm1.923,6.751v14.586h-3.841v-14.586Z" transform="translate(34.466 0.479)" fill="#fffcf3"/>
      <path id="パス_3574" data-name="パス 3574" d="M-5461.285,6242.094a10.553,10.553,0,0,1,4.61.984v3.265a7.759,7.759,0,0,0-3.873-1.185,4.389,4.389,0,0,0-3.218,1.226,4.426,4.426,0,0,0-1.251,3.319,4.44,4.44,0,0,0,1.259,3.295,4.533,4.533,0,0,0,3.349,1.249,10.827,10.827,0,0,0,4-1.031v3.108a12.242,12.242,0,0,1-4.671.922,8.182,8.182,0,0,1-5.755-2.031,6.977,6.977,0,0,1-2.209-5.388,7.508,7.508,0,0,1,2.165-5.609A7.65,7.65,0,0,1-5461.285,6242.094Z" transform="translate(42.923 4.522)" fill="#fffcf3"/>
      <path id="パス_3575" data-name="パス 3575" d="M-5458.766,6239.668a2.1,2.1,0,0,1,1.533.644,2.085,2.085,0,0,1,.639,1.53,2.147,2.147,0,0,1-.631,1.523,2.054,2.054,0,0,1-1.541.664,2.063,2.063,0,0,1-1.522-.664,2.119,2.119,0,0,1-.648-1.523,2.048,2.048,0,0,1,.656-1.537A2.123,2.123,0,0,1-5458.766,6239.668Zm1.922,6.751v14.586h-3.841v-14.586Z" transform="translate(56.437 0.479)" fill="#fffcf3"/>
      <path id="パス_3576" data-name="パス 3576" d="M-5449.718,6242.094a6.722,6.722,0,0,1,4.294,1.194,4.04,4.04,0,0,1,1.486,3.334v7.14c0,.552.224.829.671.829a2.063,2.063,0,0,0,.79-.243,3.5,3.5,0,0,0,.851-.555v2.218a7.184,7.184,0,0,1-3.687,1.235,3.011,3.011,0,0,1-1.582-.344,1.874,1.874,0,0,1-.774-1.218,7.6,7.6,0,0,1-4.423,1.563,3.819,3.819,0,0,1-2.708-1.063,3.373,3.373,0,0,1-1.133-2.546,3.975,3.975,0,0,1,1.125-2.982,9.565,9.565,0,0,1,3.936-1.907l3.108-.906v-.67q0-2.143-2.592-2.141a6.238,6.238,0,0,0-2.638.607,7.488,7.488,0,0,0-2.391,1.8v-3.452A8.877,8.877,0,0,1-5449.718,6242.094Zm-2.343,10.967a1.688,1.688,0,0,0,.509,1.28,1.751,1.751,0,0,0,1.256.486,3.784,3.784,0,0,0,2.53-1.158v-3.841a17.9,17.9,0,0,0-2.522,1.028,4.662,4.662,0,0,0-1.343.984A1.812,1.812,0,0,0-5452.062,6253.061Z" transform="translate(64.766 4.522)" fill="#fffcf3"/>
      <path id="パス_3577" data-name="パス 3577" d="M-5443.55,6239.488v21.82h-3.841v-21.82Z" transform="translate(79.001 0.177)" fill="#fffcf3"/>
      <path id="パス_3578" data-name="パス 3578" d="M-5427.757,6242.2v2.717h-2.5a5.268,5.268,0,0,1,.853,1.381,3.82,3.82,0,0,1,.239,1.366,4.682,4.682,0,0,1-1.31,3.2,6.408,6.408,0,0,1-3.967,1.639,7.422,7.422,0,0,0-2.008.43.785.785,0,0,0-.493.74c0,.305.2.537.6.7a9.79,9.79,0,0,0,1.93.462,11.972,11.972,0,0,1,4.849,1.623,3.378,3.378,0,0,1,1.555,2.89,4,4,0,0,1-1.891,3.554,9.892,9.892,0,0,1-5.435,1.243,10.477,10.477,0,0,1-5.342-1.17,3.537,3.537,0,0,1-1.985-3.142q0-2.777,3.826-3.841-1.655-.721-1.656-1.891,0-1.531,2.5-2.108v-.063a5.247,5.247,0,0,1-2.71-1.671,4.254,4.254,0,0,1-1.009-2.814,4.656,4.656,0,0,1,1.782-3.8,7.144,7.144,0,0,1,4.653-1.445Zm-11.325,17.461q0,1.957,3.9,1.954a5.457,5.457,0,0,0,2.65-.537,1.606,1.606,0,0,0,.959-1.417,1.569,1.569,0,0,0-1.085-1.458,7.668,7.668,0,0,0-3.071-.493,4.7,4.7,0,0,0-2.42.554A1.618,1.618,0,0,0-5439.082,6259.661Zm.919-12.182a2.5,2.5,0,0,0,.806,1.9,2.744,2.744,0,0,0,1.958.755,2.6,2.6,0,0,0,1.954-.789,2.744,2.744,0,0,0,.765-1.991,2.341,2.341,0,0,0-.8-1.8,2.745,2.745,0,0,0-1.923-.728,2.7,2.7,0,0,0-1.958.788A2.533,2.533,0,0,0-5438.163,6247.479Z" transform="translate(86.883 4.698)" fill="#fffcf3"/>
      <path id="パス_3579" data-name="パス 3579" d="M-5426.187,6242.094a8.906,8.906,0,0,1,4.14.955,6.9,6.9,0,0,1,2.873,2.671,7.475,7.475,0,0,1,1.017,3.889,7.827,7.827,0,0,1-.976,3.966,6.845,6.845,0,0,1-2.874,2.688,8.944,8.944,0,0,1-4.18.984,8.841,8.841,0,0,1-4.17-.984,6.851,6.851,0,0,1-2.849-2.687,7.828,7.828,0,0,1-.979-3.966,7.424,7.424,0,0,1,1.033-3.915,7,7,0,0,1,2.873-2.655A8.811,8.811,0,0,1-5426.187,6242.094Zm-3.966,7.516a5.328,5.328,0,0,0,1.071,3.489,3.519,3.519,0,0,0,2.866,1.3,3.693,3.693,0,0,0,2.951-1.248,5.311,5.311,0,0,0,1.077-3.578,4.95,4.95,0,0,0-1.084-3.428,3.749,3.749,0,0,0-2.943-1.211,3.565,3.565,0,0,0-2.845,1.28A5.046,5.046,0,0,0-5430.154,6249.609Z" transform="translate(100.999 4.522)" fill="#fffcf3"/>
      <path id="パス_3580" data-name="パス 3580" d="M-5416.969,6242.094a8.9,8.9,0,0,1,4.139.955,6.907,6.907,0,0,1,2.875,2.671,7.493,7.493,0,0,1,1.015,3.889,7.842,7.842,0,0,1-.976,3.966,6.839,6.839,0,0,1-2.874,2.688,8.948,8.948,0,0,1-4.18.984,8.822,8.822,0,0,1-4.169-.984,6.876,6.876,0,0,1-2.853-2.687,7.827,7.827,0,0,1-.976-3.966,7.432,7.432,0,0,1,1.032-3.915,7.01,7.01,0,0,1,2.874-2.655A8.814,8.814,0,0,1-5416.969,6242.094Zm-3.967,7.516a5.351,5.351,0,0,0,1.068,3.489,3.523,3.523,0,0,0,2.867,1.3,3.7,3.7,0,0,0,2.953-1.248,5.329,5.329,0,0,0,1.078-3.578,4.959,4.959,0,0,0-1.085-3.428,3.756,3.756,0,0,0-2.945-1.211,3.561,3.561,0,0,0-2.842,1.28A5.046,5.046,0,0,0-5420.936,6249.609Z" transform="translate(116.358 4.522)" fill="#fffcf3"/>
      <path id="パス_3581" data-name="パス 3581" d="M-5405.124,6247.049v-7.562h3.826v21.82h-6.747a7.76,7.76,0,0,1-5.6-2.012,7.262,7.262,0,0,1-2.1-5.5,7.349,7.349,0,0,1,.978-3.748,7.016,7.016,0,0,1,2.684-2.647,7.4,7.4,0,0,1,3.7-.962A9.8,9.8,0,0,1-5405.124,6247.049Zm-2.016,11.323h2.016v-8.451a5.369,5.369,0,0,0-2.468-.611,4.04,4.04,0,0,0-3.068,1.207,4.371,4.371,0,0,0-1.149,3.153Q-5411.81,6258.373-5407.14,6258.373Z" transform="translate(131.714 0.177)" fill="#fffcf3"/>
      <path id="パス_3582" data-name="パス 3582" d="M-5401.333,6242.094a8.929,8.929,0,0,1,2.267.275,11.507,11.507,0,0,1,2.247.865v3.077a10.8,10.8,0,0,0-2.343-1.133,6.986,6.986,0,0,0-2.231-.43,2.3,2.3,0,0,0-1.3.314,1.007,1.007,0,0,0-.469.891.893.893,0,0,0,.391.657,14.836,14.836,0,0,0,2.142,1.2,13.052,13.052,0,0,1,3.505,2.336,3.613,3.613,0,0,1,1.008,2.57,4.074,4.074,0,0,1-1.47,3.319,6.059,6.059,0,0,1-3.966,1.209,11.793,11.793,0,0,1-2.914-.344,9.843,9.843,0,0,1-2.242-.829v-3.2a10.277,10.277,0,0,0,4.735,1.562,3.138,3.138,0,0,0,1.591-.352,1.047,1.047,0,0,0,.611-.928,1,1,0,0,0-.218-.627,2.919,2.919,0,0,0-.656-.575c-.294-.2-1.2-.672-2.736-1.424a7.817,7.817,0,0,1-2.607-1.834,3.516,3.516,0,0,1-.844-2.351,3.7,3.7,0,0,1,1.517-3.092A6.4,6.4,0,0,1-5401.333,6242.094Z" transform="translate(146.564 4.522)" fill="#fffcf3"/>
    </g>
  </g>
</svg>
