<svg xmlns="http://www.w3.org/2000/svg" width="1280.002" height="2865" viewBox="0 0 1280.002 2865">
  <g id="Group_2348" data-name="Group 2348" transform="translate(0.002 -71)">
    <path id="Path_1942" data-name="Path 1942" d="M0,0H1280V2865H0Z" transform="translate(0 71)" fill="#1f2e7e"/>
    <g id="Group_1820" data-name="Group 1820" transform="translate(531.152 133.215) rotate(16)">
      <g id="Group_1807" data-name="Group 1807" transform="translate(604.821 352.158)">
        <path id="Path_2012" data-name="Path 2012" d="M588.822,375.2a61.987,61.987,0,0,1-.745-14.173c.206-4.779.673-9.493,1.08-13.779.866-8.578,1.311-15.4,1.388-17.651.435,2.429,1.869,9.145,3.905,17.471,1.929,8.338,4.543,18.231,4.132,27.423a40.726,40.726,0,0,1-.792,6.412c-.593,2.717-1.683,5.326-3.265,5.458-1.6.068-3.066-2.38-4.04-5.018A40.388,40.388,0,0,1,588.822,375.2Z" transform="translate(-587.984 -329.599)" fill="#f086ab"/>
      </g>
      <g id="Group_1808" data-name="Group 1808" transform="translate(570.348 349.984)">
        <path id="Path_2013" data-name="Path 2013" d="M562.132,367.486a62.132,62.132,0,0,1,5.905-12.9c2.4-4.139,5-8.1,7.342-11.712,4.746-7.2,8.313-13.041,9.427-15-.744,2.371-2.576,8.977-4.64,17.3-2.161,8.28-4.449,18.253-9.08,26.2a41.044,41.044,0,0,1-3.674,5.314c-1.783,2.129-3.957,3.949-5.408,3.319-1.45-.68-1.607-3.523-1.247-6.309A40.461,40.461,0,0,1,562.132,367.486Z" transform="translate(-560.593 -327.872)" fill="#f086ab"/>
      </g>
      <g id="Group_1809" data-name="Group 1809" transform="translate(539.433 342.173)">
        <path id="Path_2014" data-name="Path 2014" d="M542.338,346.129a62.088,62.088,0,0,1,11.246-8.661c4.05-2.542,8.2-4.834,11.952-6.932,7.553-4.155,13.414-7.651,15.318-8.87-1.749,1.734-6.469,6.729-12.169,13.133-5.77,6.32-12.432,14.088-20.232,18.966a40.62,40.62,0,0,1-5.728,2.985c-2.576,1.057-5.333,1.632-6.351.415-.963-1.284.225-3.876,1.846-6.177A40.608,40.608,0,0,1,542.338,346.129Z" transform="translate(-536.029 -321.665)" fill="#f086ab"/>
      </g>
      <g id="Group_1810" data-name="Group 1810" transform="translate(522.865 330.372)">
        <path id="Path_2015" data-name="Path 2015" d="M533.273,316.121a62.081,62.081,0,0,1,13.994-2.46c4.765-.373,9.49-.48,13.78-.6s8.143-.22,11.192-.366c3.073-.146,5.4-.322,6.539-.41-2.366.729-8.9,2.975-16.936,6.013-4.022,1.493-8.436,3.141-12.956,4.546a62.337,62.337,0,0,1-13.77,2.887,40.182,40.182,0,0,1-6.434-.013c-2.765-.261-5.441-1.035-5.778-2.589-.379-1.564,1.934-3.321,4.444-4.611A40.859,40.859,0,0,1,533.273,316.121Z" transform="translate(-522.865 -312.289)" fill="#f086ab"/>
      </g>
      <g id="Group_1811" data-name="Group 1811" transform="translate(524.824 299.053)">
        <path id="Path_2016" data-name="Path 2016" d="M536.911,288.035a62.318,62.318,0,0,1,13.534,4.319c4.394,1.883,8.629,3.983,12.481,5.875s7.312,3.593,10.08,4.884c2.79,1.3,4.93,2.234,5.977,2.687-2.437-.453-9.267-1.494-17.8-2.55-4.259-.555-8.928-1.152-13.566-2.011a62.776,62.776,0,0,1-13.545-3.866,40.514,40.514,0,0,1-5.687-3c-2.325-1.514-4.332-3.438-3.908-4.964.394-1.553,3.252-2.03,6.074-2A41.129,41.129,0,0,1,536.911,288.035Z" transform="translate(-524.422 -287.404)" fill="#f086ab"/>
      </g>
      <g id="Group_1812" data-name="Group 1812" transform="translate(544.781 265.852)">
        <path id="Path_2017" data-name="Path 2017" d="M552.427,266.141a62.093,62.093,0,0,1,9.969,10.124c3.012,3.711,5.781,7.541,8.31,11.007s4.8,6.578,6.653,9.006c1.868,2.45,3.331,4.265,4.051,5.151-1.945-1.535-7.5-5.637-14.568-10.533-3.509-2.463-7.38-5.169-11.09-8.081a62.5,62.5,0,0,1-10.2-9.7,40.292,40.292,0,0,1-3.64-5.3c-1.354-2.423-2.235-5.064-1.147-6.224,1.075-1.2,3.831-.3,6.319,1.042A40.784,40.784,0,0,1,552.427,266.141Z" transform="translate(-540.278 -261.024)" fill="#f086ab"/>
      </g>
      <g id="Group_1813" data-name="Group 1813" transform="translate(577.519 245.186)">
        <path id="Path_2018" data-name="Path 2018" d="M576.382,254.086a62.283,62.283,0,0,1,4.144,13.6c.949,4.681,1.626,9.347,2.258,13.578.318,2.114.62,4.123.9,5.981.307,1.88.589,3.61.84,5.142.523,3.057.968,5.311,1.193,6.431-1.014-2.267-4.055-8.52-8.045-16.136-3.859-7.57-8.748-16.517-10.595-25.606a39.084,39.084,0,0,1-.778-6.406c-.073-2.763.375-5.494,1.882-5.995,1.527-.495,3.506,1.444,5.093,3.791A41.346,41.346,0,0,1,576.382,254.086Z" transform="translate(-566.291 -244.603)" fill="#f086ab"/>
      </g>
      <g id="Group_1814" data-name="Group 1814" transform="translate(609.8 242.348)">
        <path id="Path_2019" data-name="Path 2019" d="M604.538,254.509a62.5,62.5,0,0,1-2.671,13.971c-1.34,4.582-2.915,9.028-4.328,13.065-1.416,4.01-2.694,7.711-3.654,10.66s-1.622,5.142-1.946,6.237c.157-2.464.386-9.481.4-18,.123-8.505-.036-18.708,2.575-27.595a40.61,40.61,0,0,1,2.306-6.06c1.222-2.474,2.888-4.677,4.452-4.414,1.58.272,2.419,2.941,2.732,5.724A41.515,41.515,0,0,1,604.538,254.509Z" transform="translate(-591.94 -242.348)" fill="#f086ab"/>
      </g>
      <g id="Group_1815" data-name="Group 1815" transform="translate(621.721 258.074)">
        <path id="Path_2020" data-name="Path 2020" d="M632.946,267.281a62.469,62.469,0,0,1-8.849,11.136c-3.316,3.437-6.775,6.643-9.9,9.565-3.115,2.9-5.952,5.572-8.173,7.748s-3.82,3.808-4.614,4.63c1.286-2.113,4.733-8.2,8.71-15.768,4.047-7.48,8.631-16.594,15.062-23.264a39.833,39.833,0,0,1,4.847-4.293c2.23-1.627,4.732-2.805,6-1.846,1.276.977.8,3.72-.227,6.347A41.436,41.436,0,0,1,632.946,267.281Z" transform="translate(-601.412 -254.843)" fill="#f086ab"/>
      </g>
      <g id="Group_1816" data-name="Group 1816" transform="translate(629.833 288.415)">
        <path id="Path_2021" data-name="Path 2021" d="M651.185,289.549a62.639,62.639,0,0,1-13.017,5.763c-4.538,1.51-9.049,2.731-13.206,3.883-8.362,2.259-14.955,4.28-17.1,5.012,2.127-1.281,8.045-5.1,15.016-9.907,7.073-4.742,15.383-10.67,24.167-13.572a42,42,0,0,1,6.313-1.562c2.774-.429,5.482-.29,6.152,1.142.664,1.454-1.077,3.671-3.177,5.509A39.528,39.528,0,0,1,651.185,289.549Z" transform="translate(-607.858 -278.951)" fill="#f086ab"/>
      </g>
      <g id="Group_1817" data-name="Group 1817" transform="translate(632.374 323.113)">
        <path id="Path_2022" data-name="Path 2022" d="M655.031,316.966a62.555,62.555,0,0,1-14.2-.975c-4.7-.779-9.287-1.807-13.524-2.731-8.439-1.9-15.2-3.173-17.435-3.523,1.25-.083,3.623-.253,6.734-.55,3.068-.293,6.894-.725,11.136-1.213,8.484-.9,18.607-2.3,27.712-.775a41.367,41.367,0,0,1,6.3,1.562,14.692,14.692,0,0,1,3.536,1.7,2.752,2.752,0,0,1,1.42,2.195c-.1,1.6-2.686,2.756-5.407,3.4A40.1,40.1,0,0,1,655.031,316.966Z" transform="translate(-609.877 -306.521)" fill="#f086ab"/>
      </g>
      <g id="Group_1818" data-name="Group 1818" transform="translate(628.683 338.797)">
        <path id="Path_2023" data-name="Path 2023" d="M643.621,346.307a62.592,62.592,0,0,1-12.137-7.444c-3.817-2.877-7.38-5.894-10.712-8.678-6.6-5.593-12.007-9.856-13.828-11.2,1.149.507,3.32,1.45,6.227,2.634,2.865,1.166,6.448,2.547,10.433,4.082,7.936,3.128,17.549,6.589,24.917,12.155a41.356,41.356,0,0,1,4.858,4.3c1.953,2.053,3.413,4.384,2.585,5.736-.829,1.374-3.652,1.2-6.363.517A39.843,39.843,0,0,1,643.621,346.307Z" transform="translate(-606.944 -318.983)" fill="#f086ab"/>
      </g>
      <g id="Group_1819" data-name="Group 1819" transform="translate(619.699 348.055)">
        <path id="Path_2024" data-name="Path 2024" d="M619.5,367.577a62.146,62.146,0,0,1-7.249-12.19c-2.041-4.328-3.826-8.724-5.463-12.716-3.228-8.013-6.006-14.293-6.982-16.331.774.973,2.291,2.864,4.272,5.213s4.516,5.266,7.326,8.483c5.563,6.474,12.457,14.018,16.372,22.373a41.443,41.443,0,0,1,2.287,6.066c.754,2.708,1,5.519-.375,6.294-1.373.817-3.792-.663-5.871-2.538A40.4,40.4,0,0,1,619.5,367.577Z" transform="translate(-599.806 -326.339)" fill="#f086ab"/>
      </g>
    </g>
    <g id="グループ_1804" data-name="グループ 1804" transform="translate(5451.689 -1189.547)">
      <g id="グループ_1806" data-name="グループ 1806">
        <g id="グループ_1789-2" data-name="グループ 1789-2">
          <g id="グループ_1776-2" data-name="グループ 1776-2">
            <path id="パス_1986-2" data-name="パス 1986-2" d="M-4323.487,1590.827c-1.626-12.647.937-26.675,2.644-38.4,1.86-11.723,3-21.072,3.286-24.156.41,3.372,1.855,12.716,4.005,24.325,2,11.612,4.826,25.417,3.541,38.021a55.99,55.99,0,0,1-1.589,8.753c-1.026,3.691-2.727,7.2-4.914,7.25-2.21-.032-4.028-3.511-5.162-7.213A55.529,55.529,0,0,1-4323.487,1590.827Z" fill="#ef463a"/>
          </g>
          <g id="グループ_1777-2" data-name="グループ 1777-2">
            <path id="パス_1987-2" data-name="パス 1987-2" d="M-4369.283,1576.971c4.417-11.952,13.186-23.2,20.134-32.809,7.087-9.529,12.446-17.281,14.129-19.883-1.206,3.2-4.242,12.141-7.728,23.421-3.617,11.216-7.541,24.747-14.528,35.317a56.066,56.066,0,0,1-5.469,7.015c-2.617,2.791-5.748,5.121-7.692,4.145-1.941-1.049-1.936-4.971-1.222-8.773A55.975,55.975,0,0,1-4369.283,1576.971Z" fill="#ef463a"/>
          </g>
          <g id="グループ_1778-2" data-name="グループ 1778-2">
            <path id="パス_1988-2" data-name="パス 1988-2" d="M-4403.432,1543.362c9.488-8.519,22.492-14.374,33.109-19.626,10.709-5.125,19.039-9.473,21.752-11-2.54,2.247-9.42,8.747-17.756,17.106-8.425,8.242-18.191,18.4-29.295,24.5a56.4,56.4,0,0,1-8.107,3.659c-3.625,1.251-7.461,1.828-8.761.074-1.223-1.839.613-5.311,3.02-8.348A55.977,55.977,0,0,1-4403.432,1543.362Z" fill="#ef463a"/>
          </g>
          <g id="グループ_1779-2" data-name="グループ 1779-2">
            <path id="パス_1989-2" data-name="パス 1989-2" d="M-4418.047,1497.8c12.393-3.151,26.612-2.3,38.422-2.034,5.907.189,11.213.332,15.416.369,4.234.045,7.447-.019,9.023-.054-3.311.817-12.463,3.4-23.753,6.951-11.314,3.4-24.692,7.881-37.323,8.134a55.413,55.413,0,0,1-8.844-.52c-3.78-.573-7.4-1.846-7.741-4.01-.4-2.181,2.918-4.42,6.468-5.993A56.415,56.415,0,0,1-4418.047,1497.8Z" fill="#ef463a"/>
          </g>
          <g id="グループ_1780-2" data-name="グループ 1780-2">
            <path id="パス_1990-2" data-name="パス 1990-2" d="M-4409.8,1450.658c12.437,2.969,24.638,10.314,34.97,16.045,5.145,2.912,9.774,5.511,13.479,7.5,3.734,2,6.6,3.455,8.012,4.159-3.315-.812-12.623-2.776-24.271-4.894-5.812-1.093-12.184-2.279-18.5-3.822a86.455,86.455,0,0,1-18.32-6.371,56.043,56.043,0,0,1-7.583-4.573c-3.081-2.263-5.687-5.067-4.982-7.129.664-2.106,4.629-2.538,8.507-2.278A56.636,56.636,0,0,1-4409.8,1450.658Z" fill="#ef463a"/>
          </g>
          <g id="グループ_1781-2" data-name="グループ 1781-2">
            <path id="パス_1991-2" data-name="パス 1991-2" d="M-4380.593,1412.713c9.632,8.415,17,20.6,23.484,30.476,3.2,4.965,6.087,9.421,8.442,12.9,2.376,3.514,4.249,6.124,5.169,7.4-2.554-2.261-9.875-8.333-19.205-15.617-9.226-7.386-20.486-15.837-27.883-26.111a55.463,55.463,0,0,1-4.589-7.575c-1.674-3.437-2.678-7.139-1.091-8.647,1.574-1.563,5.291-.106,8.606,1.926A56.061,56.061,0,0,1-4380.593,1412.713Z" fill="#ef463a"/>
          </g>
          <g id="グループ_1782-2" data-name="グループ 1782-2">
            <path id="パス_1992-2" data-name="パス 1992-2" d="M-4337.141,1392.695c4.642,11.959,5.522,26.151,6.683,37.872.521,5.837,1.028,11.159,1.521,15.426.482,4.245.914,7.377,1.136,8.936-1.215-3.195-4.908-12.031-9.8-22.811-4.713-10.709-10.74-23.391-12.568-36.03a53.645,53.645,0,0,1-.573-8.87c.114-3.8.943-7.522,3.054-8.093,2.137-.562,4.709,2.257,6.707,5.609A57,57,0,0,1-4337.141,1392.695Z" fill="#ef463a"/>
          </g>
          <g id="グループ_1783-2" data-name="グループ 1783-2">
            <path id="パス_1993-2" data-name="パス 1993-2" d="M-4289.3,1395.189c-1.469,12.744-7.291,25.718-11.729,36.624-4.583,10.832-8.006,19.868-9.016,22.792.408-3.378,1.271-13,1.959-24.721.83-11.683,1.406-25.724,5.692-37.738a55.828,55.828,0,0,1,3.644-8.151c1.871-3.306,4.336-6.2,6.463-5.72,2.15.5,3.1,4.231,3.311,8.084A56.811,56.811,0,0,1-4289.3,1395.189Z" fill="#ef463a"/>
          </g>
          <g id="グループ_1784-2" data-name="グループ 1784-2">
            <path id="パス_1994-2" data-name="パス 1994-2" d="M-4248.128,1419.6c-7.21,10.608-18.4,19.388-27.387,27-4.507,3.741-8.618,7.195-11.842,10.018-3.213,2.8-5.551,4.939-6.7,6.007,1.932-2.806,7.148-10.908,13.2-21,6.15-9.968,13.16-22.142,22.524-30.809a54.673,54.673,0,0,1,7-5.525c3.194-2.063,6.725-3.488,8.392-2.072,1.679,1.444.8,5.179-.808,8.709A56.71,56.71,0,0,1-4248.128,1419.6Z" fill="#ef463a"/>
          </g>
          <g id="グループ_1785-2" data-name="グループ 1785-2">
            <path id="パス_1995-2" data-name="パス 1995-2" d="M-4222.989,1460.33c-11.36,6.064-25.277,8.642-36.8,11.216-11.67,2.454-20.894,4.719-23.9,5.557,3.024-1.593,11.458-6.382,21.417-12.448,10.093-5.969,21.982-13.471,34.283-16.777a57.8,57.8,0,0,1,8.8-1.654c3.849-.372,7.561.031,8.369,2.05.8,2.05-1.768,4.964-4.8,7.325A54.268,54.268,0,0,1-4222.989,1460.33Z" fill="#ef463a"/>
          </g>
          <g id="グループ_1786-2" data-name="グループ 1786-2">
            <path id="パス_1996-2" data-name="パス 1996-2" d="M-4219.672,1508.166a86.192,86.192,0,0,1-19.44-2.454c-6.407-1.436-12.628-3.206-18.382-4.809-11.452-3.269-20.643-5.546-23.693-6.2,1.726-.019,5-.065,9.3-.226,4.243-.163,9.536-.46,15.4-.8,11.732-.579,25.76-1.709,38.16,1.1a56.936,56.936,0,0,1,8.533,2.639,20.268,20.268,0,0,1,4.729,2.606c1.19.976,1.909,2.051,1.782,3.13-.263,2.194-3.907,3.578-7.693,4.259A55.174,55.174,0,0,1-4219.672,1508.166Z" fill="#ef463a"/>
          </g>
          <g id="グループ_1787-2" data-name="グループ 1787-2">
            <path id="パス_1997-2" data-name="パス 1997-2" d="M-4238.944,1551.986c-11.461-5.923-21.438-15.883-30.155-23.948-8.64-8.2-15.736-14.485-18.137-16.477,1.54.783,4.451,2.251,8.357,4.1,3.847,1.826,8.666,4.006,14.026,6.425,10.667,4.92,23.613,10.426,33.308,18.654a57.076,57.076,0,0,1,6.344,6.29c2.525,2.976,4.351,6.3,3.107,8.09-1.248,1.823-5.118,1.372-8.788.215A54.889,54.889,0,0,1-4238.944,1551.986Z" fill="#ef463a"/>
          </g>
          <g id="グループ_1788-2" data-name="グループ 1788-2">
            <path id="パス_1998-2" data-name="パス 1998-2" d="M-4276.449,1581.815c-7.3-10.411-11.579-24.033-15.533-35.232-3.813-11.268-7.14-20.12-8.327-23,2.008,2.906,7.615,10.492,14.877,19.732,7.143,9.336,16.033,20.244,20.765,32.038a56.82,56.82,0,0,1,2.67,8.518c.825,3.784.945,7.665-1,8.625-1.953,1.015-5.162-1.21-7.876-3.95A55.987,55.987,0,0,1-4276.449,1581.815Z" fill="#ef463a"/>
          </g>
        </g>
        <g id="グループ_1803-2" data-name="グループ 1803-2">
          <g id="グループ_1790-2" data-name="グループ 1790-2">
            <path id="パス_1999-2" data-name="パス 1999-2" d="M-4273.282,1699.984c-4.517-10.786-7.2-22.68-9.132-34.54s-3.094-23.7-4.135-34.456c-1.039-10.774-1.976-20.487-2.721-28.224-.8-7.744-1.485-13.472-1.831-16.323,2.483,5.887,9.683,21.591,18.846,41.181,4.527,9.82,9.4,20.483,13.679,31.6,4.26,11.114,7.9,22.676,9.463,34.19a104.727,104.727,0,0,1,1.018,16.2c-.2,6.97-1.618,13.958-5.486,14.927-3.9,1.017-8.685-4.162-12.435-10.2A104.9,104.9,0,0,1-4273.282,1699.984Z" fill="#fa0"/>
          </g>
          <g id="グループ_1791-2" data-name="グループ 1791-2">
            <path id="パス_2000-2" data-name="パス 2000-2" d="M-4374,1696.6c.994-11.646,4.124-23.432,7.9-34.839,3.8-11.4,8.238-22.44,12.3-32.459,4.077-10.033,7.752-19.062,10.679-26.261,2.886-7.241,4.941-12.629,5.96-15.317-.523,6.362-1.413,23.644-2.385,45.232-.545,10.794-1.182,22.518-2.559,34.346-1.391,11.812-3.541,23.755-7.5,34.666a104.781,104.781,0,0,1-6.608,14.826c-3.406,6.1-7.883,11.6-11.754,10.679-3.917-.907-5.748-7.679-6.261-14.8A105.052,105.052,0,0,1-4374,1696.6Z" fill="#fa0"/>
          </g>
          <g id="グループ_1792-2" data-name="グループ 1792-2">
            <path id="パス_2001-2" data-name="パス 2001-2" d="M-4461.745,1646.736c6.321-9.846,14.588-18.811,23.253-27.135s17.747-16,26.01-22.955c8.282-6.973,15.751-13.26,21.7-18.266,5.918-5.053,10.246-8.863,12.393-10.765-1.687,2.7-4.793,7.744-8.793,14.451-3.985,6.76-8.936,15.154-14.41,24.436-5.517,9.3-11.521,19.359-18.255,29.2-6.731,9.811-14.182,19.365-22.78,27.2a104.255,104.255,0,0,1-12.755,10.033c-5.845,3.788-12.411,6.592-15.4,3.959-3.055-2.637-1.478-9.536,1.341-16.022A105.243,105.243,0,0,1-4461.745,1646.736Z" fill="#fa0"/>
          </g>
          <g id="グループ_1793-2" data-name="グループ 1793-2">
            <path id="パス_2002-2" data-name="パス 2002-2" d="M-4516.262,1561.939c10.2-5.8,21.688-9.917,33.22-13.269s23.079-5.915,33.692-8.281c21.235-4.594,38.028-8.462,43.68-9.939-2.707,1.6-7.8,4.621-14.5,8.732l-24.08,14.971c-9.14,5.659-19.188,11.821-29.706,17.416s-21.528,10.584-32.766,13.533a106.043,106.043,0,0,1-16.03,3.015c-6.961.659-13.886.022-15.448-3.653-1.6-3.707,3.181-9.172,8.648-13.6A103.33,103.33,0,0,1-4516.262,1561.939Z" fill="#fa0"/>
          </g>
          <g id="グループ_1794-2" data-name="グループ 1794-2">
            <path id="パス_2003-2" data-name="パス 2003-2" d="M-4525.023,1461.472c11.725-.4,23.809,1.29,35.581,3.676,11.781,2.4,23.184,5.471,33.679,8.313,20.938,5.8,37.606,10.214,43.3,11.541-6.235.256-23.793,1.426-45.18,3.055-10.726.756-22.5,1.526-34.406,1.577-11.912.033-23.975-.669-35.291-3.287a106.2,106.2,0,0,1-15.583-4.787c-6.491-2.651-12.311-6.423-11.983-10.385.311-4.008,7.079-6.607,13.974-7.982A103.33,103.33,0,0,1-4525.023,1461.472Z" fill="#fa0"/>
          </g>
          <g id="グループ_1795-2" data-name="グループ 1795-2">
            <path id="パス_2004-2" data-name="パス 2004-2" d="M-4486.145,1368.361c10.566,5.1,20.478,12.23,29.776,19.818,9.3,7.608,17.978,15.644,25.945,23.042,15.83,14.874,28.547,26.511,32.973,30.323-2.852-1.324-8.233-3.8-15.42-6.982-7.189-3.132-16.119-7.025-25.992-11.329-9.848-4.313-20.627-9.09-31.2-14.573s-20.932-11.716-29.737-19.294a105.893,105.893,0,0,1-11.576-11.483c-4.5-5.363-7.9-11.426-5.763-14.794,2.142-3.424,9.358-2.582,16.1-.6A103.736,103.736,0,0,1-4486.145,1368.361Z" fill="#fa0"/>
          </g>
          <g id="グループ_1796-2" data-name="グループ 1796-2">
            <path id="パス_2005-2" data-name="パス 2005-2" d="M-4408.474,1304.115c6.98,9.373,12.449,20.269,17.185,31.319s8.717,22.261,12.319,32.453c7.062,20.371,13.065,36.83,15.153,42.144-3.819-5.106-14.631-18.66-28.217-35.42-6.737-8.406-14.1-17.679-20.9-27.416-6.8-9.762-13.123-20.119-17.386-30.87a104.885,104.885,0,0,1-4.905-15.49c-1.514-6.853-1.793-13.9,1.719-15.8,3.541-1.933,9.409,1.91,14.527,6.909A104.885,104.885,0,0,1-4408.474,1304.115Z" fill="#fa0"/>
          </g>
          <g id="グループ_1798-2" data-name="グループ 1798-2">
            <path id="パス_2007-2" data-name="パス 2007-2" d="M-4212.726,1310.631c-3.756,11.073-9.62,21.76-16.031,31.927s-13.38,19.807-19.725,28.559-12.087,16.654-16.65,22.941c-4.531,6.339-7.81,11.084-9.441,13.451,2.036-6.047,7.049-22.611,13.148-43.337,3.1-10.352,6.533-21.6,10.69-32.746,4.167-11.13,9.11-22.23,15.554-31.868a104.643,104.643,0,0,1,9.965-12.817c4.77-5.108,10.446-9.376,13.989-7.549,3.6,1.825,3.764,8.841,2.557,15.885A104.372,104.372,0,0,1-4212.726,1310.631Z" fill="#fa0"/>
          </g>
        </g>
      </g>
    </g>
    <g id="グループ_1821" data-name="グループ 1821" transform="translate(5451.689 -1189.547)">
      <g id="グループ_1807" data-name="グループ 1807">
        <path id="パス_2012" data-name="パス 2012" d="M-4962.016,1384.582a81.148,81.148,0,0,1-17.663-5.736c-5.741-2.493-11.281-5.274-16.326-7.781-10.073-5.08-18.2-8.824-20.915-9.974,3.172.606,12.048,2,23.175,3.422,11.09,1.553,24.4,3,35.438,7.811a53.244,53.244,0,0,1,7.462,3.975c3.042,2,5.719,4.551,5.137,6.547-.67,1.993-4.345,2.63-8.025,2.582A52.912,52.912,0,0,1-4962.016,1384.582Z" fill="#f086ab"/>
      </g>
      <g id="グループ_1808" data-name="グループ 1808">
        <path id="パス_2013" data-name="パス 2013" d="M-4987.824,1422.012a81.344,81.344,0,0,1-12.995-13.265c-3.933-4.87-7.553-9.9-10.865-14.462-6.57-9.174-12.033-16.271-13.9-18.549,2.546,2.02,9.759,7.357,18.959,13.782,9.1,6.523,20.211,13.994,27.751,23.38a53.632,53.632,0,0,1,4.769,6.979c1.765,3.177,2.969,6.685,1.519,8.163-1.511,1.455-5.057.308-8.293-1.435A52.951,52.951,0,0,1-4987.824,1422.012Z" fill="#f086ab"/>
      </g>
      <g id="グループ_1809" data-name="グループ 1809">
        <path id="パス_2014" data-name="パス 2014" d="M-5028.136,1443.183a81.259,81.259,0,0,1-5.306-17.8c-1.207-6.141-2.063-12.279-2.864-17.852-1.533-11.175-3.056-19.974-3.653-22.873,1.3,2.951,5.188,11.059,10.338,21.024,5.014,10.014,11.38,21.794,13.681,33.611a53.151,53.151,0,0,1,.961,8.4c.083,3.643-.507,7.28-2.471,7.953-2.02.574-4.63-2.094-6.68-5.153A53.1,53.1,0,0,1-5028.136,1443.183Z" fill="#f086ab"/>
      </g>
      <g id="グループ_1810" data-name="グループ 1810">
        <path id="パス_2015" data-name="パス 2015" d="M-5073.6,1443.2a81.309,81.309,0,0,1,3.556-18.249c1.78-6,3.864-11.817,5.735-17.113s3.549-10.05,4.8-13.844c1.263-3.823,2.14-6.751,2.565-8.181-.22,3.236-.537,12.262-.6,23.51-.062,5.614-.118,11.779-.522,17.959a81.606,81.606,0,0,1-2.93,18.175,52.581,52.581,0,0,1-3.032,7.854c-1.615,3.256-3.815,6.161-5.873,5.845-2.09-.267-3.15-3.921-3.549-7.591A53.463,53.463,0,0,1-5073.6,1443.2Z" fill="#f086ab"/>
      </g>
      <g id="グループ_1811" data-name="グループ 1811">
        <path id="パス_2016" data-name="パス 2016" d="M-5113.878,1422.083a81.555,81.555,0,0,1,11.623-14.508c4.361-4.485,8.912-8.674,13.03-12.492s7.817-7.249,10.694-10.024c2.9-2.8,5.04-4.975,6.085-6.042-1.7,2.764-6.171,10.62-11.462,20.548-2.675,4.942-5.593,10.367-8.818,15.628a82.086,82.086,0,0,1-11.075,14.734,52.975,52.975,0,0,1-6.335,5.54c-2.939,2.13-6.233,3.68-7.9,2.445-1.712-1.21-.954-4.925.4-8.359A53.882,53.882,0,0,1-5113.878,1422.083Z" fill="#f086ab"/>
      </g>
      <g id="グループ_1812" data-name="グループ 1812">
        <path id="パス_2017" data-name="パス 2017" d="M-5139.757,1384.655a81.215,81.215,0,0,1,17.042-7.431c5.947-1.939,11.923-3.526,17.341-4.992s10.288-2.781,14.121-3.9c3.869-1.133,6.773-2.07,8.193-2.532-2.787,1.655-10.4,6.519-19.7,12.857-4.654,3.131-9.775,6.591-15.073,9.758a81.729,81.729,0,0,1-16.639,7.906,52.631,52.631,0,0,1-8.187,1.96c-3.594.518-7.235.355-8.14-1.519-.961-1.875,1.435-4.818,4.237-7.231A53.332,53.332,0,0,1-5139.757,1384.655Z" fill="#f086ab"/>
      </g>
      <g id="グループ_1813" data-name="グループ 1813">
        <path id="パス_2018" data-name="パス 2018" d="M-5145.28,1339.527a81.51,81.51,0,0,1,18.561,1.316c6.163,1.036,12.181,2.4,17.647,3.609,2.732.6,5.332,1.177,7.727,1.707,2.44.508,4.686.972,6.676,1.384,3.98.794,6.942,1.309,8.416,1.558-3.245.176-12.31.959-23.484,2.262-11.058,1.163-24.28,2.941-36.25.934a51.094,51.094,0,0,1-8.19-2.053c-3.411-1.2-6.534-3.035-6.441-5.11.113-2.1,3.408-3.606,7.02-4.445A54.113,54.113,0,0,1-5145.28,1339.527Z" fill="#f086ab"/>
      </g>
      <g id="グループ_1814" data-name="グループ 1814">
        <path id="パス_2019" data-name="パス 2019" d="M-5129.165,1296.958a81.847,81.847,0,0,1,15.816,9.814c4.972,3.788,9.661,7.8,13.934,11.415,4.235,3.611,8.157,6.908,11.309,9.463s5.522,4.393,6.708,5.3c-2.937-1.348-11.4-4.919-21.806-8.937-10.332-4.139-22.871-8.728-32.5-16.086a53.168,53.168,0,0,1-6.322-5.658c-2.45-2.654-4.359-5.723-3.3-7.508,1.073-1.8,4.728-1.575,8.274-.653A54.219,54.219,0,0,1-5129.165,1296.958Z" fill="#f086ab"/>
      </g>
      <g id="グループ_1818" data-name="グループ 1818">
        <path id="パス_2023" data-name="パス 2023" d="M-4972.671,1296.814a81.9,81.9,0,0,1-14.783,11.338c-5.3,3.314-10.66,6.252-15.624,9.016-9.928,5.441-17.673,10.044-20.169,11.639,1.157-1.163,3.33-3.375,6.138-6.373,2.767-2.952,6.135-6.682,9.879-10.831,7.542-8.229,16.278-18.349,26.531-24.735a54.192,54.192,0,0,1,7.531-3.918c3.423-1.424,6.955-2.114,8.219-.468,1.292,1.658-.244,5.025-2.352,8.016A52.167,52.167,0,0,1-4972.671,1296.814Z" fill="#f086ab"/>
      </g>
      <g id="グループ_1819" data-name="グループ 1819">
        <path id="パス_2024" data-name="パス 2024" d="M-4956.54,1339.4a81.314,81.314,0,0,1-18.291,3.14c-6.245.464-12.451.582-18.1.711-11.3.185-20.275.635-23.225.872,1.551-.49,4.574-1.458,8.37-2.774,3.817-1.32,8.55-3.047,13.8-4.971,10.516-3.76,22.966-8.644,35.009-9.51a54.246,54.246,0,0,1,8.483.052c3.662.348,7.21,1.366,7.513,3.41.353,2.063-2.589,4.321-5.855,5.982A52.765,52.765,0,0,1-4956.54,1339.4Z" fill="#f086ab"/>
      </g>
    </g>
    <g id="Group_2037" data-name="Group 2037" transform="translate(5451.689 -1189.547)">
      <path id="Path_3351" data-name="Path 3351" d="M-5078.648,1299.374c-2.1-5.187-4.4-10.914-7.043-16.578a81.765,81.765,0,0,0-9.455-16.028,54.091,54.091,0,0,0-5.679-6.188c-.011-.011-.024-.022-.036-.033h-8.9a18.43,18.43,0,0,0,.737,4.972,52.074,52.074,0,0,0,2.971,7.934c5.132,10.983,14.119,20.854,21.357,29.309,7.376,8.408,13.2,15.475,15.177,18.037-.633-1.354-1.877-4.073-3.493-7.807S-5076.57,1304.538-5078.648,1299.374Z" fill="#f086ab"/>
      <path id="Path_3352" data-name="Path 3352" d="M-5063.762,1260.547c.172,10.96,3.077,22.35,5.3,32.081,2.606,10.772,4.493,19.791,5.061,22.99.113-2.967.737-11.97,1.9-23.245.543-5.617,1.166-11.7,1.449-17.953a81.862,81.862,0,0,0-.295-13.873Z" fill="#f086ab"/>
      <path id="Path_3353" data-name="Path 3353" d="M-5017.845,1260.547c-.212.344-.428.684-.633,1.032-6.13,10.409-9.174,23.43-12.048,34.216-1.393,5.411-2.66,10.287-3.74,14.173-1.1,3.94-2,6.919-2.485,8.485,1.476-2.569,6.2-10.229,12.479-19.647,3.117-4.747,6.522-9.862,9.68-15.244a81.859,81.859,0,0,0,7.848-16.884,52.594,52.594,0,0,0,1.506-6.131Z" fill="#f086ab"/>
    </g>
    <path id="Path_3354" data-name="Path 3354" d="M-4313.371,1267.617a42.272,42.272,0,0,0-2.945-7.07h-12.839a42.855,42.855,0,0,0-2.7,7.358,104.781,104.781,0,0,0-2.893,15.968c-1.241,11.561-.485,23.654.978,35.463,1.481,11.826,3.652,23.338,5.693,33.96,4.2,21.212,7.44,38.19,8.449,44.5.347-2.852,1.063-8.577,2.143-16.288,1.129-7.691,2.547-17.341,4.12-28.055,1.564-10.694,3.246-22.469,4.221-34.447.956-11.98,1.188-24.17-.618-35.722A105.283,105.283,0,0,0-4313.371,1267.617Z" transform="translate(5451.689 -1189.547)" fill="#fa0"/>
    <g id="Group_2038" data-name="Group 2038" transform="translate(5451.689 -1189.547)">
      <path id="Path_3355" data-name="Path 3355" d="M-4171.869,1629.484a186.3,186.3,0,0,0-16.546-16.286c-8.945-7.869-18.261-15.1-26.789-21.667-17.09-12.993-30.947-23.726-35.819-27.711,1.635,2.373,4.919,7.161,9.229,13.661,4.242,6.5,9.566,14.651,15.476,23.706,5.935,9.059,12.484,19.009,19.718,28.612s15.146,18.876,24.14,26.307a104.631,104.631,0,0,0,10.591,7.749Z" fill="#fa0"/>
      <path id="Path_3356" data-name="Path 3356" d="M-4221.813,1479.445c5.834-.073,23.091.228,44.793.873,1.692.041,3.415.08,5.151.118v-16.893c-2.3.729-4.578,1.456-6.8,2.17C-4199.046,1472.4-4215.81,1477.712-4221.813,1479.445Z" fill="#fa0"/>
      <path id="Path_3357" data-name="Path 3357" d="M-4186.753,1546.886c4.77,2.642,9.742,5.39,14.884,8.123v-20.151c-3.26-.587-6.467-1.146-9.578-1.681l-27.956-4.748c-7.742-1.358-13.563-2.462-16.647-3.059C-4220.837,1528.013-4205.713,1536.253-4186.753,1546.886Z" fill="#fa0"/>
      <path id="Path_3358" data-name="Path 3358" d="M-4171.869,1402.694v-31.139c-3.769,2.94-7.438,6.039-11,9.221-8.882,7.935-17.164,16.305-24.672,23.975-15.016,15.488-27.269,27.954-31.761,32.291,5.084-2.739,20.507-10.523,40.042-20.1C-4190.6,1412.644-4181.2,1407.946-4171.869,1402.694Z" fill="#fa0"/>
    </g>
    <g id="Group_2039" data-name="Group 2039" transform="translate(5451.689 -1189.547)">
      <path id="Path_3359" data-name="Path 3359" d="M-5346.883,1608.324c-4.573-12.252-7.944-22.169-9.038-25.769.285,3.419.831,13.838,1.052,26.985.392,13.124.289,28.926,4.491,42.406a61.449,61.449,0,0,0,3.619,9.009c1.947,3.819,4.6,7.27,7.015,6.878,2.375-.481,3.559-4.629,3.97-8.853a62.12,62.12,0,0,0,.053-9.855C-5336.74,1635.128-5342.47,1620.61-5346.883,1608.324Z" fill="#ef463a"/>
      <path id="Path_3360" data-name="Path 3360" d="M-5375.736,1581.554c-1.333,3.162-5.692,12.647-11.6,24.4-5.736,11.812-13.144,25.772-15.669,39.659a61.972,61.972,0,0,0-.968,9.657c-.049,4.285.7,8.563,3.017,9.336,2.308.692,5.277-2.452,7.6-6a62.067,62.067,0,0,0,4.613-8.7c5.6-12.873,7.279-28.387,9.073-41.318C-5378.035,1595.614-5376.438,1585.278-5375.736,1581.554Z" fill="#ef463a"/>
      <path id="Path_3361" data-name="Path 3361" d="M-5444.225,1631.529a62.288,62.288,0,0,0,8.141-5.547c10.944-8.783,19.648-21.74,27.259-32.349,7.489-10.721,13.747-19.131,16.087-22.072-2.666,2.189-10.915,8.53-21.619,16.177-10.571,7.769-23.639,16.653-32.355,27.769a61.793,61.793,0,0,0-4.977,7.426v11.095C-5449.649,1634.089-5446.85,1632.986-5444.225,1631.529Z" fill="#ef463a"/>
      <path id="Path_3362" data-name="Path 3362" d="M-5427.729,1566.808c11.637-6.041,21.125-10.614,24.582-12.14-1.71.338-5.206,1.022-9.833,1.791-4.594.767-10.41,1.628-16.891,2.557-6.784,1.032-14.321,2.025-21.818,3.569v15.606C-5443.234,1574.822-5435.077,1570.5-5427.729,1566.808Z" fill="#ef463a"/>
      <path id="Path_3363" data-name="Path 3363" d="M-5431.96,1534.3c13.115.076,23.647.432,27.419.681-1.668-.5-5.075-1.526-9.534-3-4.426-1.462-9.976-3.409-16.145-5.6-6.632-2.287-13.94-4.972-21.469-7.108v14.475C-5444.9,1534.152-5438.151,1534.224-5431.96,1534.3Z" fill="#ef463a"/>
      <path id="Path_3364" data-name="Path 3364" d="M-5420.6,1503.508c11.577,6.155,20.729,11.374,23.949,13.352-1.248-1.214-3.791-3.7-7.058-7.079-3.239-3.346-7.248-7.648-11.692-12.455-8.968-9.528-19.348-21.411-31.471-28.743-1.567-.947-3.178-1.815-4.821-2.619v18.282C-5442.214,1492.079-5430.5,1498.083-5420.6,1503.508Z" fill="#ef463a"/>
      <path id="Path_3365" data-name="Path 3365" d="M-5388.746,1478.44c-3.515-12.565-7.2-27.88-14.559-40.036a63.194,63.194,0,0,0-5.712-7.945c-2.823-3.277-6.17-5.859-8.394-4.836-2.194,1.029-2.383,5.246-1.779,9.416a59.6,59.6,0,0,0,2.323,9.568c4.421,13.439,13.429,26.117,20.627,36.9,7.409,10.823,13.131,19.754,15.071,23.006-.542-1.658-1.616-4.991-2.956-9.531C-5385.48,1490.417-5387.057,1484.708-5388.746,1478.44Z" fill="#ef463a"/>
      <path id="Path_3366" data-name="Path 3366" d="M-5361.866,1500.75c.543-3.385,2.542-13.9,5.463-26.6,2.749-12.75,6.61-28.026,5.768-42.208a63.249,63.249,0,0,0-1.343-9.7c-.975-4.16-2.723-8.051-5.164-8.183-2.413-.12-4.546,3.514-5.953,7.481a61.891,61.891,0,0,0-2.41,9.593c-2.365,13.929-.3,29.357,1.032,42.265C-5362.974,1486.32-5362.067,1496.989-5361.866,1500.75Z" fill="#ef463a"/>
      <path id="Path_3367" data-name="Path 3367" d="M-5325.727,1485.38c8.352-10.025,18.868-21.75,24.7-34.711a63,63,0,0,0,3.3-9.223c1.079-4.161,1.317-8.4-.791-9.657-2.09-1.224-5.669,1.008-8.758,3.871a60.554,60.554,0,0,0-6.574,7.375c-8.551,11.253-13.863,25.881-18.659,37.936-4.675,12.174-8.808,22.013-10.377,25.445,1.057-1.387,3.189-4.165,6.161-7.84C-5333.747,1494.885-5329.925,1490.327-5325.727,1485.38Z" fill="#ef463a"/>
      <path id="Path_3368" data-name="Path 3368" d="M-5265.781,1490.285a60.255,60.255,0,0,0,7.13-6.573c2.852-3.158,5.092-6.829,3.828-8.913-1.269-2.046-5.392-1.773-9.525-.628a64.1,64.1,0,0,0-9.286,3.494c-12.786,5.967-24.317,16.435-34.183,24.883-9.7,8.53-17.983,15.371-20.976,17.691,3.123-1.495,12.75-5.737,25.012-10.654C-5291.7,1504.564-5277.006,1499.084-5265.781,1490.285Z" fill="#ef463a"/>
      <path id="Path_3369" data-name="Path 3369" d="M-5243.647,1539.337c4-1.469,7.713-3.68,7.58-6.124-.066-1.2-1.058-2.236-2.543-3.073a22.484,22.484,0,0,0-5.66-1.935,63.053,63.053,0,0,0-9.813-1.241c-14.067-.677-29.153,3.246-41.843,6.128-6.338,1.5-12.058,2.839-16.653,3.83-4.659,1.006-8.223,1.687-10.1,2.036,3.451.132,13.92.852,27.041,2.22,6.585.643,13.712,1.38,20.978,1.718a95.5,95.5,0,0,0,21.68-1.059A61.243,61.243,0,0,0-5243.647,1539.337Z" fill="#ef463a"/>
      <path id="Path_3370" data-name="Path 3370" d="M-5316.14,1561.384c-4.616-1.276-8.073-2.316-9.9-2.876,3,1.713,11.95,7.2,22.95,14.5,11.058,7.124,23.856,16.077,37.5,20.34a60.56,60.56,0,0,0,9.437,2.111c4.226.554,8.535.309,9.547-1.92,1.012-2.2-1.616-5.467-4.942-8.23a63.439,63.439,0,0,0-8.129-5.645c-12.156-7.115-27.337-10.638-39.92-13.958C-5305.916,1564.087-5311.592,1562.637-5316.14,1561.384Z" fill="#ef463a"/>
      <path id="Path_3371" data-name="Path 3371" d="M-5293.428,1639.363c3.488,2.468,7.417,4.279,9.352,2.8,1.939-1.42,1.063-5.632-.563-9.6a62.837,62.837,0,0,0-4.549-8.781c-7.424-11.959-19.216-22.155-28.8-30.969-9.7-8.688-17.274-15.888-20.017-18.674,1.847,2.914,7.177,11.93,13.5,23.494,6.466,11.459,13.747,25.5,23.712,35.457A62.317,62.317,0,0,0-5293.428,1639.363Z" fill="#ef463a"/>
      <path id="Path_3372" data-name="Path 3372" d="M-5249.613,1749.55c-3.917-12.262-10.11-24.182-16.885-35.485-6.8-11.31-14.167-22.008-20.991-31.853-13.757-19.614-24.627-35.364-28.464-41.311.925,3.044,2.77,9.163,5.13,17.457,2.3,8.3,5.18,18.711,8.385,30.27,3.2,11.535,6.758,24.22,11.125,36.8,4.384,12.57,9.6,25.031,16.6,35.932a116.178,116.178,0,0,0,10.673,14.26c5.251,5.872,11.461,10.605,15.526,8.746,4.035-1.8,4.242-9.693,3.12-17.337A115.776,115.776,0,0,0-5249.613,1749.55Z" fill="#fa0"/>
      <path id="Path_3373" data-name="Path 3373" d="M-5359.874,1700.946c-3.082-23.737-5.428-42.764-6.08-49.806-.594,3.128-1.8,9.41-3.561,17.855-1.813,8.416-4.086,18.977-6.611,30.7-2.509,11.709-5.234,24.6-7.19,37.773-1.937,13.17-3.089,26.63-1.938,39.526a116.461,116.461,0,0,0,2.85,17.576c1.926,7.673,5.223,14.71,9.672,14.948,4.4.267,8.227-6.6,10.773-13.906a116.393,116.393,0,0,0,4.363-17.444c2.219-12.665,2.272-26.1,1.523-39.259C-5356.841,1725.74-5358.4,1712.828-5359.874,1700.946Z" fill="#fa0"/>
      <path id="Path_3374" data-name="Path 3374" d="M-5446.953,1719.351c5.457-12.025,10.078-24.149,14.312-35.358,4.19-11.179,7.984-21.29,11.032-29.429,3.073-8.083,5.494-14.18,6.816-17.454-1.978,2.493-5.967,7.481-11.454,14.13-5.533,6.6-12.468,14.891-20.17,24.093-1.723,2.06-3.488,4.174-5.272,6.325v47.558Q-5449.214,1724.329-5446.953,1719.351Z" fill="#fa0"/>
      <path id="Path_3375" data-name="Path 3375" d="M-5429.141,1462.4c-3.1-5.072-11.863-20.222-22.548-39.354v19.248C-5440.919,1451.733-5432.751,1459.005-5429.141,1462.4Z" fill="#fa0"/>
      <path id="Path_3376" data-name="Path 3376" d="M-5413.765,1357.685c3.886,12.619,8.464,24.761,12.729,35.958,8.652,22.34,15.446,40.237,17.758,46.926-.169-3.182-.487-9.562-.788-18.182-.245-8.608-.55-19.409-.891-31.4-.346-11.967-.771-25.138-2.006-38.391-1.257-13.255-3.344-26.6-7.53-38.855a116.729,116.729,0,0,0-6.951-16.4c-3.691-6.969-8.577-13.044-12.953-12.217-4.335.782-6.419,8.392-7.156,16.077a116.046,116.046,0,0,0-.088,17.977C-5420.774,1332.034-5417.629,1345.082-5413.765,1357.685Z" fill="#fa0"/>
      <path id="Path_3377" data-name="Path 3377" d="M-5310.779,1397.805c5.242-10.767,10.994-22.621,16.038-34.944s9.39-25.112,11.363-37.91a115.7,115.7,0,0,0,1.44-17.751c-.036-7.915-1.565-15.539-5.84-16.84-4.22-1.312-9.588,4.432-13.813,10.921a115.784,115.784,0,0,0-8.411,15.9c-5.18,11.755-8.444,24.81-10.853,37.757-2.4,12.963-3.973,25.889-5.378,37.779-2.677,23.783-4.966,42.817-6.027,49.8,1.322-2.9,3.992-8.7,7.719-16.488C-5320.77,1418.294-5316.022,1408.571-5310.779,1397.805Z" fill="#fa0"/>
      <path id="Path_3378" data-name="Path 3378" d="M-5248.281,1438.354c9.637-7.1,20.187-14.915,30.381-23.478,10.173-8.576,19.962-17.892,27.679-28.339a113.728,113.728,0,0,0,9.493-15.011c3.57-6.947,5.88-14.517,2.711-17.638-3.216-2.987-10.535-.484-17.281,3.3a115.259,115.259,0,0,0-14.851,10.194c-10.081,8.03-19.023,18.009-27.19,28.367s-15.6,21.085-22.315,30.893c-13.41,19.779-24.386,35.729-28.455,41.325C-5283.086,1464-5267.759,1452.551-5248.281,1438.354Z" fill="#fa0"/>
      <path id="Path_3379" data-name="Path 3379" d="M-5216.45,1487.607c-20.951,11.21-38.222,20.22-44.438,23.264,6.351-1.2,25.237-4.184,49.036-7.645,11.905-1.8,24.86-3.785,37.868-6.6,12.993-2.834,26.007-6.513,37.712-12.15a115.332,115.332,0,0,0,15.364-8.852c6.373-4.474,12.091-10.14,10.6-14.349-1.442-4.168-9.015-5.407-16.8-5.193a117.531,117.531,0,0,0-17.934,2.1c-12.639,2.4-25.18,7.084-37.237,12.446C-5194.333,1476.008-5205.913,1482.049-5216.45,1487.607Z" fill="#fa0"/>
      <path id="Path_3380" data-name="Path 3380" d="M-5112.756,1575.192a117.819,117.819,0,0,0-16.877-6.436c-12.319-3.725-25.6-5.4-38.772-6.222s-26.231-.83-38.139-.784l-31.412.185c-8.71,0-15.269-.081-18.749-.141,6.2,1.883,24.278,7.974,47,15.931,11.4,3.919,23.758,8.151,36.611,11.685,12.833,3.509,26.062,6.275,39.051,6.7a114.063,114.063,0,0,0,17.722-.726c7.726-1.014,15.383-3.4,16.04-7.814C-5099.624,1583.21-5105.8,1578.6-5112.756,1575.192Z" fill="#fa0"/>
      <path id="Path_3381" data-name="Path 3381" d="M-5167.4,1673.969c-9.145-9.035-20.109-16.713-31.379-23.583s-22.822-12.976-33.386-18.5c-21.139-10.893-38.317-19.943-44.4-23.356,2.239,2.274,6.742,6.868,12.691,13.132,5.875,6.276,13.249,14.15,21.434,22.894,8.214,8.742,17.27,18.341,27,27.431s20.147,17.686,31.386,24.068a116.016,116.016,0,0,0,16.03,7.639c7.356,2.754,15.174,4.191,17.8.588,2.613-3.544-.627-10.431-5.276-16.755A117.208,117.208,0,0,0-5167.4,1673.969Z" fill="#fa0"/>
    </g>
    <g id="Group_2033" data-name="Group 2033" transform="translate(-0.002 2555.513)">
      <path id="Path_3338" data-name="Path 3338" d="M-2630.813,2186.643V1944.1l-280.906-137.945-265.15,112.92-134.044-61.187-180.636,90.714-194.4-111.978-224.858,134.629.092,215.389Z" transform="translate(3910.812 -1806.156)" fill="#93b82c"/>
      <g id="Group_2031" data-name="Group 2031" transform="translate(0.004 41.151)">
        <path id="Path_3339" data-name="Path 3339" d="M-2626.736,2186.919V2054.609l-3.5-9.343-70.59-188.3-70.6,188.3-39.73,105.977-.034-.09-70.591-188.3-66.677,177.835-27.432-73.171-70.59-188.3-70.6,188.3-44.761,119.4Z" transform="translate(3906.734 -1847.583)" fill="#2a8648"/>
        <path id="Path_3340" data-name="Path 3340" d="M-3186.129,2186.868l-30.165-80.464-70.591-188.3-70.6,188.3-2.3,6.145-28.762-76.721-70.589-188.3-70.6,188.3-32.152,85.764-61.451-163.912-70.6,188.295-14.441,38.522-30.525-81.423-70.59-188.3-70.595,188.3-30.716,81.934v1.86Z" transform="translate(3910.808 -1847.532)" fill="#2a8648"/>
      </g>
      <g id="Group_2032" data-name="Group 2032" transform="translate(59.18 192.461)">
        <path id="Path_3341" data-name="Path 3341" d="M-3845.917,2170.771l-5.39,6.917,7.527,10.938h16.649Z" transform="translate(3851.307 -2000.599)" fill="#ef4441"/>
        <path id="Path_3342" data-name="Path 3342" d="M-3797.171,2158.925l25.3-47.393-4.954-3.538-23.472,27.588-2.785-67.88-12.564.417-3.663,119.945h22.929Z" transform="translate(3851.133 -2000.039)" fill="#ef4441"/>
        <path id="Path_3343" data-name="Path 3343" d="M-3615.322,2107.028l-12.565-.5-2.785,80.679-23.472-32.79-4.955,4.2,13.315,29.653h32.788Z" transform="translate(3850.262 -2000.25)" fill="#fa0"/>
        <path id="Path_3344" data-name="Path 3344" d="M-3405.815,2154.99l-4.581-6.542-32.264,36.022-2.459-66.083,25.3-56.331-4.954-4.2-23.472,32.79-2.79-80.68-12.563.5-3.879,135.422-35.213-40.2-5.392,8.222,38.554,61.629-.31,12.213h44.428Z" transform="translate(3849.441 -1999.725)" fill="#ef4441"/>
        <path id="Path_3345" data-name="Path 3345" d="M-3327.991,2173.33l-5.393,8.222,4.435,7.088h14.369Z" transform="translate(3848.49 -2000.613)" fill="#ef4441"/>
        <path id="Path_3346" data-name="Path 3346" d="M-3270.2,2185.506l25.3-56.332-4.954-4.2-23.472,32.79-2.785-80.679-12.565.5-3.166,110.538h21.743Z" transform="translate(3848.264 -2000.09)" fill="#ef4441"/>
        <path id="Path_3347" data-name="Path 3347" d="M-2995.212,2168.633l-4.582-6.542-23.724,26.488h16.371Z" transform="translate(3846.805 -2000.552)" fill="#fa0"/>
        <path id="Path_3348" data-name="Path 3348" d="M-3034.921,2131.273l25.3-56.331-4.954-4.2-23.472,32.79-2.795-80.68-12.563.5-3.948,137.818-35.406-40.181-5.131,5.809,35,61.03h30.079Z" transform="translate(3847.209 -1999.795)" fill="#fa0"/>
        <path id="Path_3349" data-name="Path 3349" d="M-2842.612,2156.23l-4.954-4.2-23.472,32.79-2.79-80.68-12.564.5-2.4,83.628H-2857Z" transform="translate(3846.072 -2000.237)" fill="#ef4441"/>
        <path id="Path_3350" data-name="Path 3350" d="M-2648.43,2144.7l-4.581-6.544-32.263,36.023-2.459-66.083,25.3-56.331-4.955-4.2-23.472,32.79-2.792-80.679-12.564.5-3.879,135.42-35.212-40.192-5.391,8.221,38.554,61.63-.571,22.45h38.56Z" transform="translate(3845.321 -1999.669)" fill="#fa0"/>
      </g>
    </g>
  </g>
</svg>
