<svg xmlns="http://www.w3.org/2000/svg" width="786.68" height="346.711" viewBox="0 0 786.68 346.711">
  <g id="グループ_2069" data-name="グループ 2069" transform="translate(-212 454.823)">
    <g id="グループ_2057" data-name="グループ 2057" transform="translate(961.875 -8806.691)">
      <circle id="楕円形_5" data-name="楕円形 5" cx="90.131" cy="90.131" r="90.131" transform="translate(-517.034 8404.195)" fill="#59aac3"/>
      <circle id="楕円形_6" data-name="楕円形 6" cx="90.131" cy="90.131" r="90.131" transform="translate(-314.277 8404.195)" fill="#ef4441"/>
      <path id="パス_18" data-name="パス 18" d="M-693.606,8385.074l28.133,90.168,28.133,90.17H-749.875l28.133-90.17Z" transform="translate(0 19.633)" fill="#2a8648"/>
      <path id="パス_3527" data-name="パス 3527" d="M-711.565,8495.172v-.771a9.765,9.765,0,0,1,9.766-9.766h11.112a9.765,9.765,0,0,0,9.765-9.766" transform="translate(22.65 72.724)" fill="none" stroke="#f086ab" stroke-linecap="round" stroke-miterlimit="10" stroke-width="1.889"/>
      <g id="グループ_2052" data-name="グループ 2052" transform="translate(-687.797 8535.197)">
        <rect id="長方形_1485" data-name="長方形 1485" width="26.123" height="16.704" rx="8" transform="translate(0 4.121)" fill="#f086ab"/>
        <rect id="長方形_1486" data-name="長方形 1486" width="11.788" height="19.932" transform="translate(7.167 20.824)" fill="#1f2e7e"/>
        <path id="パス_3528" data-name="パス 3528" d="M-705.229,8467.08l1.711,2.965,1.711,2.965h-6.846l1.711-2.965Z" transform="translate(712.169 -8467.08)" fill="#f086ab"/>
        <path id="パス_3529" data-name="パス 3529" d="M-697.618,8467.08l1.711,2.965,1.712,2.965h-6.846l1.711-2.965Z" transform="translate(716.669 -8467.08)" fill="#f086ab"/>
        <circle id="楕円形_82" data-name="楕円形 82" cx="2.47" cy="2.47" r="2.47" transform="translate(6.975 8.589)" fill="#fff"/>
        <circle id="楕円形_83" data-name="楕円形 83" cx="2.47" cy="2.47" r="2.47" transform="translate(14.208 8.589)" fill="#fff"/>
        <circle id="楕円形_84" data-name="楕円形 84" cx="1.584" cy="1.584" r="1.584" transform="translate(7.861 9.474)"/>
        <circle id="楕円形_85" data-name="楕円形 85" cx="1.584" cy="1.584" r="1.584" transform="translate(15.093 9.474)"/>
        <path id="パス_3530" data-name="パス 3530" d="M-704.74,8502.06h0a1.619,1.619,0,0,1-1.618-1.621v-7.745h4.075l-.846,7.918A1.622,1.622,0,0,1-704.74,8502.06Z" transform="translate(713.525 -8451.935)" fill="#f086ab"/>
        <path id="パス_3531" data-name="パス 3531" d="M-699.054,8502.06h0a1.622,1.622,0,0,1-1.61-1.448l-.846-7.918h4.075v7.745A1.619,1.619,0,0,1-699.054,8502.06Z" transform="translate(716.391 -8451.935)" fill="#f086ab"/>
        <rect id="長方形_1487" data-name="長方形 1487" width="11.788" height="2.77" transform="translate(7.167 23.738)" fill="#59aac3"/>
        <rect id="長方形_1488" data-name="長方形 1488" width="11.788" height="2.77" transform="translate(7.167 29.405)" fill="#59aac3"/>
        <rect id="長方形_1489" data-name="長方形 1489" width="11.788" height="2.77" transform="translate(7.167 35.082)" fill="#59aac3"/>
        <path id="パス_3532" data-name="パス 3532" d="M-700.482,8475.258a1.584,1.584,0,0,1-1.583,1.585,1.584,1.584,0,0,1-1.583-1.585" transform="translate(715.127 -8462.243)"/>
      </g>
      <path id="パス_3533" data-name="パス 3533" d="M-690,8495.172v-.771a9.766,9.766,0,0,1,9.765-9.766h11.113a9.766,9.766,0,0,0,9.765-9.766" transform="translate(35.401 72.724)" fill="none" stroke="#f086ab" stroke-linecap="round" stroke-miterlimit="10" stroke-width="1.889"/>
      <g id="グループ_2053" data-name="グループ 2053" transform="translate(-653.479 8535.197)">
        <rect id="長方形_1490" data-name="長方形 1490" width="26.123" height="16.704" rx="8" transform="translate(0 4.121)" fill="#f086ab"/>
        <rect id="長方形_1491" data-name="長方形 1491" width="11.788" height="19.932" transform="translate(7.167 20.824)" fill="#1f2e7e"/>
        <path id="パス_3534" data-name="パス 3534" d="M-683.662,8467.08l1.711,2.965,1.711,2.965h-6.846l1.712-2.965Z" transform="translate(690.603 -8467.08)" fill="#f086ab"/>
        <path id="パス_3535" data-name="パス 3535" d="M-676.052,8467.08l1.711,2.965,1.711,2.965h-6.846l1.711-2.965Z" transform="translate(695.102 -8467.08)" fill="#f086ab"/>
        <circle id="楕円形_86" data-name="楕円形 86" cx="2.47" cy="2.47" r="2.47" transform="translate(6.975 8.589)" fill="#fff"/>
        <circle id="楕円形_87" data-name="楕円形 87" cx="2.47" cy="2.47" r="2.47" transform="translate(14.208 8.589)" fill="#fff"/>
        <circle id="楕円形_88" data-name="楕円形 88" cx="1.584" cy="1.584" r="1.584" transform="translate(7.861 9.474)"/>
        <circle id="楕円形_89" data-name="楕円形 89" cx="1.584" cy="1.584" r="1.584" transform="translate(15.093 9.474)"/>
        <path id="パス_3536" data-name="パス 3536" d="M-683.172,8502.06h0a1.621,1.621,0,0,1-1.62-1.621v-7.745h4.077l-.848,7.918A1.62,1.62,0,0,1-683.172,8502.06Z" transform="translate(691.959 -8451.935)" fill="#f086ab"/>
        <path id="パス_3537" data-name="パス 3537" d="M-677.488,8502.06h0a1.623,1.623,0,0,1-1.61-1.448l-.847-7.918h4.077v7.745A1.621,1.621,0,0,1-677.488,8502.06Z" transform="translate(694.824 -8451.935)" fill="#f086ab"/>
        <rect id="長方形_1492" data-name="長方形 1492" width="11.788" height="2.77" transform="translate(7.167 23.738)" fill="#59aac3"/>
        <rect id="長方形_1493" data-name="長方形 1493" width="11.788" height="2.77" transform="translate(7.167 29.405)" fill="#59aac3"/>
        <rect id="長方形_1494" data-name="長方形 1494" width="11.788" height="2.77" transform="translate(7.167 35.082)" fill="#59aac3"/>
        <path id="パス_3538" data-name="パス 3538" d="M-678.915,8475.258a1.585,1.585,0,0,1-1.585,1.585,1.585,1.585,0,0,1-1.583-1.585" transform="translate(693.56 -8462.243)"/>
      </g>
      <path id="パス_37" data-name="パス 37" d="M-622.89,8385.074l28.133,90.168,28.133,90.17H-679.156l28.133-90.17Z" transform="translate(41.812 19.633)" fill="#2a8648"/>
      <path id="長方形_1495" data-name="長方形 1495" d="M0,0H17.091a0,0,0,0,1,0,0V43.19a0,0,0,0,1,0,0H6.73A6.73,6.73,0,0,1,0,36.46V0A0,0,0,0,1,0,0Z" transform="translate(-234.567 8355.526)" fill="#ef463a"/>
      <path id="長方形_1496" data-name="長方形 1496" d="M13,0h.333a0,0,0,0,1,0,0V23.293a13,13,0,0,1-13,13H0a0,0,0,0,1,0,0V13A13,13,0,0,1,13,0Z" transform="translate(-217.475 8362.423)" fill="#ef463a"/>
      <g id="グループ_2054" data-name="グループ 2054" transform="translate(-256.57 8366.357)">
        <path id="パス_3539" data-name="パス 3539" d="M-404.9,8371.162c-2.447,11.97-10.707,19.447-18.094,18.953a13.032,13.032,0,0,1-10.672-7.427,13.334,13.334,0,0,1,2.573-14.119C-425.906,8363.228-414.491,8363.312-404.9,8371.162Z" transform="translate(442.921 -8358.672)" fill="#ffb33e"/>
        <rect id="長方形_1497" data-name="長方形 1497" width="27.308" height="3.61" transform="translate(28.194 13.95) rotate(-20.606)"/>
        <path id="パス_3540" data-name="パス 3540" d="M-396.752,8366.688l-7.739,2.449-1.774-4.719,7.435-3.256Z" transform="translate(459.726 -8360.862)" fill="#ffb33e"/>
        <rect id="長方形_1498" data-name="長方形 1498" width="1.169" height="7.76" rx="0.367" transform="matrix(0.936, -0.352, 0.352, 0.936, 54.196, 1.956)" fill="#ffb33e"/>
        <rect id="長方形_1499" data-name="長方形 1499" width="1.169" height="7.76" rx="0.367" transform="translate(56.271 1.176) rotate(-20.605)" fill="#ffb33e"/>
        <rect id="長方形_1500" data-name="長方形 1500" width="1.169" height="7.76" rx="0.367" transform="translate(58.304 0.412) rotate(-20.605)" fill="#ffb33e"/>
        <circle id="楕円形_90" data-name="楕円形 90" cx="3.758" cy="3.758" r="3.758" transform="translate(22.957 12.676)"/>
        <path id="パス_3541" data-name="パス 3541" d="M-418.627,8390.193a13.165,13.165,0,0,1-16.953-7.689,13.163,13.163,0,0,1,7.689-16.953" transform="translate(441.893 -8358.266)" fill="#ef463a"/>
        <path id="パス_3542" data-name="パス 3542" d="M-430.308,8375.787l-7.979,3-1.575-4.187,9.589,1.283Z" transform="translate(439.862 -8352.917)" fill="#ef463a"/>
      </g>
      <path id="長方形_1501" data-name="長方形 1501" d="M0,0H23.51a0,0,0,0,1,0,0V10a0,0,0,0,1,0,0H7A7,7,0,0,1,0,3V0A0,0,0,0,1,0,0Z" transform="translate(-241.319 8356.594)" fill="#ef463a"/>
      <rect id="長方形_1502" data-name="長方形 1502" width="7.316" height="7.316" rx="3.658" transform="translate(-224.791 8351.868)" fill="#ef463a"/>
      <rect id="長方形_1503" data-name="長方形 1503" width="7.316" height="7.316" rx="3.658" transform="translate(-234.567 8351.868)" fill="#ef463a"/>
      <circle id="楕円形_91" data-name="楕円形 91" cx="2.296" cy="2.296" r="2.296" transform="translate(-232.31 8357.831)" fill="#fff"/>
      <circle id="楕円形_92" data-name="楕円形 92" cx="2.296" cy="2.296" r="2.296" transform="translate(-225.585 8357.831)" fill="#fff"/>
      <circle id="楕円形_93" data-name="楕円形 93" cx="1.473" cy="1.473" r="1.473" transform="translate(-231.487 8358.654)"/>
      <circle id="楕円形_94" data-name="楕円形 94" cx="1.473" cy="1.473" r="1.473" transform="translate(-224.762 8358.654)"/>
      <rect id="長方形_1504" data-name="長方形 1504" width="3.534" height="3.534" transform="translate(-241.319 8356.594)"/>
      <ellipse id="楕円形_95" data-name="楕円形 95" cx="1.669" cy="1.822" rx="1.669" ry="1.822" transform="translate(-237.785 8362.147)" fill="#f086ab"/>
      <path id="パス_3543" data-name="パス 3543" d="M-417.783,8387.975H-420v-6.7h4.083Z" transform="translate(195.033 17.385)" fill="#ef463a"/>
      <path id="パス_3544" data-name="パス 3544" d="M-415.217,8387.975h-2.219v-6.7h4.082Z" transform="translate(196.55 17.385)" fill="#ef463a"/>
      <rect id="長方形_1505" data-name="長方形 1505" width="3.455" height="11.98" rx="1.727" transform="translate(-237.38 8372.012) rotate(-22.722)" fill="#ef463a"/>
      <rect id="長方形_1506" data-name="長方形 1506" width="3.195" height="11.98" rx="1.598" transform="translate(-211.879 8386.436) rotate(-161.765)" fill="#ef463a"/>
      <rect id="長方形_1507" data-name="長方形 1507" width="19.188" height="15.071" rx="7.535" transform="translate(-435.319 8671.923)" fill="#59aac3"/>
      <path id="パス_3545" data-name="パス 3545" d="M-532.484,8574.042h-2.464v-12.006h-7.3v-2.463h9.768Z" transform="translate(122.754 122.803)" fill="#59aac3"/>
      <path id="パス_3546" data-name="パス 3546" d="M-553.519,8574.042h-2.464v-14.469h10.042v2.463h-7.578Z" transform="translate(114.636 122.803)" fill="#59aac3"/>
      <path id="パス_3547" data-name="パス 3547" d="M-539.751,8568.564h-2.464v-6.528h-2.355v-2.463h4.819Z" transform="translate(121.384 122.803)" fill="#59aac3"/>
      <path id="パス_3548" data-name="パス 3548" d="M-548.325,8573.572h-2.464v-14h4.934v2.463h-2.47Z" transform="translate(117.707 122.803)" fill="#59aac3"/>
      <path id="パス_3549" data-name="パス 3549" d="M-558.138,8576.709H-560.6V8556.59l15.892,2.1-.323,2.443-13.1-1.732Z" transform="translate(111.905 121.041)" fill="#59aac3"/>
      <path id="パス_3550" data-name="パス 3550" d="M-547.08,8570.15v-6.861h-4.236v8.285a2.354,2.354,0,0,0,2.59,2h2.845a1.646,1.646,0,0,0,1.82-1.715h0a1.645,1.645,0,0,0-1.82-1.713Z" transform="translate(117.395 125.001)" fill="#ef463a"/>
      <path id="パス_3551" data-name="パス 3551" d="M-552.519,8570.15v-6.861h-4.236v8.285a2.354,2.354,0,0,0,2.591,2h2.844a1.646,1.646,0,0,0,1.822-1.715h0a1.646,1.646,0,0,0-1.822-1.713Z" transform="translate(114.18 125.001)" fill="#ef463a"/>
      <path id="パス_3552" data-name="パス 3552" d="M-542.628,8570.15v-6.861h4.238v8.285a2.355,2.355,0,0,1-2.592,2h-2.844a1.646,1.646,0,0,1-1.822-1.715h0a1.646,1.646,0,0,1,1.822-1.713Z" transform="translate(120.746 125.001)" fill="#ef463a"/>
      <path id="パス_3553" data-name="パス 3553" d="M-537.116,8570.15v-6.861h4.236v8.285a2.354,2.354,0,0,1-2.591,2h-2.845a1.646,1.646,0,0,1-1.82-1.715h0a1.645,1.645,0,0,1,1.82-1.713Z" transform="translate(124.005 125.001)" fill="#ef463a"/>
      <path id="パス_3554" data-name="パス 3554" d="M-560.068,8570.15v-6.861h4.236v8.285a2.354,2.354,0,0,1-2.591,2h-2.845a1.646,1.646,0,0,1-1.82-1.715h0a1.645,1.645,0,0,1,1.82-1.713Z" transform="translate(110.435 125.001)" fill="#ef463a"/>
      <path id="パス_3555" data-name="パス 3555" d="M-525.628,8576.709h-2.464V8559.4l-13.105,1.732-.323-2.443,15.892-2.1Z" transform="translate(123.187 121.041)" fill="#59aac3"/>
      <path id="パス_3556" data-name="パス 3556" d="M-546.254,8564.631h-9.768V8550.16h2.464v12.006h7.3Z" transform="translate(114.613 117.239)" fill="#59aac3"/>
      <path id="パス_3557" data-name="パス 3557" d="M-532.422,8564.631h-10.042v-2.465h7.578V8550.16h2.464Z" transform="translate(122.629 117.239)" fill="#59aac3"/>
      <circle id="楕円形_96" data-name="楕円形 96" cx="1.807" cy="1.807" r="1.807" transform="translate(-430.177 8676.706)" fill="#fff"/>
      <circle id="楕円形_97" data-name="楕円形 97" cx="1.807" cy="1.807" r="1.807" transform="translate(-424.886 8676.706)" fill="#fff"/>
      <circle id="楕円形_98" data-name="楕円形 98" cx="1.159" cy="1.159" r="1.159" transform="translate(-429.529 8677.354)"/>
      <circle id="楕円形_99" data-name="楕円形 99" cx="1.159" cy="1.159" r="1.159" transform="translate(-424.238 8677.354)"/>
      <path id="パス_3558" data-name="パス 3558" d="M-552.519,8550.905v6.86h-4.236v-8.285a2.354,2.354,0,0,1,2.591-2h2.844a1.646,1.646,0,0,1,1.822,1.714h0a1.646,1.646,0,0,1-1.822,1.714Z" transform="translate(114.18 115.651)" fill="#ef463a"/>
      <path id="パス_3559" data-name="パス 3559" d="M-537.116,8550.905v6.86h4.236v-8.285a2.354,2.354,0,0,0-2.591-2h-2.845a1.646,1.646,0,0,0-1.82,1.714h0a1.645,1.645,0,0,0,1.82,1.714Z" transform="translate(124.005 115.651)" fill="#ef463a"/>
      <path id="パス_3560" data-name="パス 3560" d="M-543.129,8558.824a2.323,2.323,0,0,1-2.215,2.418,2.322,2.322,0,0,1-2.213-2.418" transform="translate(119.618 122.36)" fill="#f086ab"/>
      <path id="パス_3561" data-name="パス 3561" d="M-529.545,8570.15v-6.861h-4.237v8.285a2.354,2.354,0,0,0,2.591,2h2.845a1.646,1.646,0,0,0,1.822-1.715h0a1.646,1.646,0,0,0-1.822-1.713Z" transform="translate(127.762 125.001)" fill="#ef463a"/>
      <rect id="長方形_1508" data-name="長方形 1508" width="0.377" height="162.875" transform="translate(-425.913 8509.046)" fill="#59aac3"/>
      <path id="パス_3569" data-name="パス 3569" d="M-293.917,8564.532H-346.3v-179.78h52.381a89.53,89.53,0,0,1,57.177,20.526,89.706,89.706,0,0,1,32.712,69.362h0a89.628,89.628,0,0,1-7.064,34.992A89.917,89.917,0,0,1-293.917,8564.532Z" transform="translate(238.423 19.444)" fill="#fa0"/>
      <g id="グループ_2056" data-name="グループ 2056" transform="translate(-27.926 8545.166)">
        <path id="パス_3562" data-name="パス 3562" d="M-281.115,8505.736l1.488.623,2.556-6.1-2.737-1.147Z" transform="translate(305.074 -8458.109)" fill="#ffb33e"/>
        <path id="パス_3563" data-name="パス 3563" d="M-278.026,8506.837l-1.488-.625,2.556-6.1,2.737,1.146Z" transform="translate(306.021 -8457.52)" fill="#ffb33e"/>
        <path id="長方形_1509" data-name="長方形 1509" d="M0,0H21.53a0,0,0,0,1,0,0V21.53a0,0,0,0,1,0,0h0A21.53,21.53,0,0,1,0,0V0A0,0,0,0,1,0,0Z" transform="translate(8.317 10.561) rotate(22.725)" fill="#1f2e7e"/>
        <path id="長方形_1510" data-name="長方形 1510" d="M20.635,0h0a0,0,0,0,1,0,0V21.53a0,0,0,0,1,0,0H0a0,0,0,0,1,0,0v-.895A20.635,20.635,0,0,1,20.635,0Z" transform="translate(56.413 54.046) rotate(-157.275)" fill="#1f2e7e"/>
        <path id="長方形_1511" data-name="長方形 1511" d="M6.362,0h7.523a6.362,6.362,0,0,1,6.362,6.362v27.8a0,0,0,0,1,0,0H0a0,0,0,0,1,0,0V6.362A6.362,6.362,0,0,1,6.362,0Z" transform="translate(33.041 5.144) rotate(22.725)" fill="#ffb33e"/>
        <circle id="楕円形_100" data-name="楕円形 100" cx="2.714" cy="2.714" r="2.714" transform="translate(34.045 19.758)" fill="#1f2e7e"/>
        <path id="パス_3564" data-name="パス 3564" d="M-265.49,8512.689l-18.676-7.822,8.317-19.857,16.736,12.455Z" transform="translate(303.27 -8466.448)" fill="#1f2e7e"/>
        <path id="パス_3565" data-name="パス 3565" d="M-284.166,8503.146l18.676,7.823,8.317-19.859-20.617-3.189Z" transform="translate(303.27 -8464.726)" fill="#1f2e7e"/>
        <circle id="楕円形_101" data-name="楕円形 101" cx="2.788" cy="2.788" r="2.788" transform="translate(32.225 13.285)" fill="#fff"/>
        <circle id="楕円形_102" data-name="楕円形 102" cx="2.788" cy="2.788" r="2.788" transform="translate(39.756 16.439)" fill="#fff"/>
        <circle id="楕円形_103" data-name="楕円形 103" cx="1.788" cy="1.788" r="1.788" transform="translate(33.225 14.284)"/>
        <circle id="楕円形_104" data-name="楕円形 104" cx="1.788" cy="1.788" r="1.788" transform="translate(40.756 17.438)"/>
        <rect id="長方形_1512" data-name="長方形 1512" width="15.459" height="3.395" transform="translate(33.026 11.56) rotate(22.725)" fill="#1e9846"/>
        <path id="パス_3566" data-name="パス 3566" d="M-258.408,8493.518l-19.128-8.012c-.072-.029-.14-.062-.207-.1a2.01,2.01,0,0,1-.01-3.451l8.332-5.148a7.681,7.681,0,0,1,7-.551h0a7.681,7.681,0,0,1,4.519,5.375l2.177,9.549a2.009,2.009,0,0,1-2.466,2.414A1.923,1.923,0,0,1-258.408,8493.518Z" transform="translate(306.486 -8471.974)" fill="#1f2e7e"/>
        <g id="グループ_2055" data-name="グループ 2055" transform="translate(20.582 45.712)">
          <path id="パス_3567" data-name="パス 3567" d="M-280.783,8504.088l-.931-.389a1.164,1.164,0,0,0-1.523.625l2,.836,2.237.938.45-1.072.845-2.016-2.237-.937Z" transform="translate(283.237 -8502.072)" fill="#1f2e7e"/>
          <path id="パス_3568" data-name="パス 3568" d="M-276.289,8506.282l-.929-.39.845-2.016-2.237-.937-.845,2.017-.45,1.072,2.237.938,2,.839A1.164,1.164,0,0,0-276.289,8506.282Z" transform="translate(285.206 -8501.559)" fill="#1f2e7e"/>
        </g>
        <path id="長方形_1513" data-name="長方形 1513" d="M2.919,0H4.646a0,0,0,0,1,0,0V1.726A2.919,2.919,0,0,1,1.726,4.646H0a0,0,0,0,1,0,0V2.919A2.919,2.919,0,0,1,2.919,0Z" transform="matrix(0.922, 0.386, -0.386, 0.922, 45.859, 0)" fill="#1f2e7e"/>
      </g>
    </g>
  </g>
</svg>
