<svg xmlns="http://www.w3.org/2000/svg" width="505.794" height="20.031" viewBox="0 0 505.794 20.031">
  <g id="Group_2120" data-name="Group 2120" transform="translate(-261.36 -2329.243)">
    <path id="Path_3840" data-name="Path 3840" d="M261.36,2343h2.953v-13.162H265.6V2343h2.953l-3.595,6.078Z" transform="translate(0 0.199)" fill="#2a8648"/>
    <path id="Path_3841" data-name="Path 3841" d="M284.873,2334.582c.214.107,1.135.578,1.135.813,0,.15-.215.237-.342.3a.879.879,0,0,0-.365.427,33.134,33.134,0,0,1-4.686,6.718c-.235.278-.9,1.048-1.262,1.048-.321,0-1.82-.877-1.82-1.326a.427.427,0,0,1,.172-.3,24.28,24.28,0,0,0,5.541-7.769c.064-.149.171-.492.364-.492A5.973,5.973,0,0,1,284.873,2334.582Zm6.4,0a14.914,14.914,0,0,1,1.433,1.733c.622.834,3.445,5.008,3.445,5.821,0,.535-1.647,1.284-2.009,1.284-.258,0-.344-.194-.429-.385a30.882,30.882,0,0,0-4.194-6.935.655.655,0,0,1-.235-.428c0-.385,1.283-1.24,1.6-1.24A.511.511,0,0,1,291.272,2334.582Zm5.607-1.263a2.119,2.119,0,1,1-2.119-2.139A2.11,2.11,0,0,1,296.879,2333.319Zm-3.274,0a1.156,1.156,0,1,0,1.155-1.155A1.149,1.149,0,0,0,293.6,2333.319Z" transform="translate(5.449 0.653)" fill="#2a8648"/>
    <path id="Path_3842" data-name="Path 3842" d="M312.47,2335.726c.985,0,2.376-.064,2.654-.064.578,0,.6.171.6,1.347,0,.686-.021,1.091-.578,1.091-.9,0-1.8-.043-2.675-.043h-9.844c-.877,0-1.775.043-2.675.043-.556,0-.578-.405-.578-1.07,0-1.2.044-1.369.6-1.369.278,0,1.754.064,2.652.064Z" transform="translate(12.806 2.163)" fill="#2a8648"/>
    <path id="Path_3843" data-name="Path 3843" d="M322.251,2333.307c.3.365.9,1.328,1.176,1.755a12,12,0,0,1,1.176,2.139c0,.451-1.412,1.092-1.713,1.092-.255,0-.362-.257-.469-.471a26.782,26.782,0,0,0-1.948-3.3,1.011,1.011,0,0,1-.235-.45c0-.362,1.3-1.005,1.627-1.005A.53.53,0,0,1,322.251,2333.307Zm13.437-.62c.258.087.814.258.814.493,0,.15-.151.234-.237.3a.9.9,0,0,0-.406.557c-1.048,3.766-2.5,7.019-5.521,9.608a16.5,16.5,0,0,1-6.184,3.231,1.672,1.672,0,0,1-.469.107c-.428,0-1.413-1.433-1.413-1.777,0-.364.643-.428.9-.492a12.93,12.93,0,0,0,9.545-8.5,16.677,16.677,0,0,0,.984-3.809c.021-.15.041-.341.213-.341A14.765,14.765,0,0,1,335.688,2332.687Zm-7.981-.834c.406.536.77,1.093,1.112,1.648a11.64,11.64,0,0,1,1.2,2.183c0,.427-1.433,1.068-1.733,1.068-.235,0-.321-.234-.492-.535a27.939,27.939,0,0,0-1.925-3.253,1,1,0,0,1-.237-.449c0-.341,1.306-.984,1.627-.984C327.471,2331.532,327.6,2331.7,327.707,2331.853Z" transform="translate(19.835 0.771)" fill="#2a8648"/>
    <path id="Path_3844" data-name="Path 3844" d="M343.641,2340.828c.278,0,.344.194.385.429.451,2.246,2.247,2.568,4.258,2.568a25.9,25.9,0,0,0,6.4-.75,1.674,1.674,0,0,1,.321-.064c.362,0,.362.429.406.708.021.214.063.855.063,1.069a.7.7,0,0,1-.533.772,36.873,36.873,0,0,1-6.421.619c-2.225,0-4.622-.3-5.991-2.246a4.738,4.738,0,0,1-.834-2.076C341.7,2341.322,343.62,2340.828,343.641,2340.828Zm1.369-8.11a13.668,13.668,0,0,0,4.067.535,18.591,18.591,0,0,0,3.444-.341,1.155,1.155,0,0,1,.279-.023c.493,0,.535.793.535,1.713,0,.535-.064.663-.471.727a27.36,27.36,0,0,1-3.253.193,21.075,21.075,0,0,1-5.607-.621.5.5,0,0,1-.342-.449,10.969,10.969,0,0,1,.193-1.112c.086-.385.13-.75.515-.75A3.111,3.111,0,0,1,345.01,2332.719Zm11.855.9c0,.32-.749.963-1.027.963-.128,0-.258-.171-.513-.493-.408-.47-.857-.941-1.3-1.391-.064-.062-.215-.192-.215-.3,0-.257.814-.9,1.028-.9A8,8,0,0,1,356.866,2333.618Zm1.947-1.67c0,.321-.747.984-1.025.984-.13,0-.321-.257-.557-.535-.406-.492-.834-.92-1.262-1.37-.086-.063-.215-.192-.215-.278,0-.278.814-.9,1.051-.9A8.51,8.51,0,0,1,358.812,2331.948Z" transform="translate(27.063 0.205)" fill="#2a8648"/>
    <path id="Path_3845" data-name="Path 3845" d="M366.5,2330.63a7.952,7.952,0,0,1,1.027-.107c.6,0,.556.322.6.814a29.464,29.464,0,0,0,.664,3.83c.063.278.128.642.492.642a34.44,34.44,0,0,0,4.365-2.376,1.4,1.4,0,0,1,.556-.214c.278,0,.643.642.77.857a4.28,4.28,0,0,1,.622,1.3c0,.214-.235.278-.406.342a39.389,39.389,0,0,0-5.285,2.461,21.782,21.782,0,0,0-3.853,2.526,2.7,2.7,0,0,0-1.048,1.925c0,.77.749,1.305,1.412,1.541a8.526,8.526,0,0,0,2.846.386,32.2,32.2,0,0,0,5.585-.557.63.63,0,0,1,.191-.02c.3,0,.322.877.322,1.326v.257c0,.556-.021.792-.449.9a51.289,51.289,0,0,1-5.885.344,8.02,8.02,0,0,1-4.386-.92,3.772,3.772,0,0,1-1.969-3.3c0-2.333,1.926-3.853,3.7-5.008a.665.665,0,0,0,.364-.556.736.736,0,0,0-.086-.386c-.255-.771-.856-3.038-1.07-3.915a13.949,13.949,0,0,0-.408-1.413,1.2,1.2,0,0,1-.063-.257C365.111,2330.739,365.817,2330.739,366.5,2330.63Z" transform="translate(34.13 0.431)" fill="#2a8648"/>
    <path id="Path_3846" data-name="Path 3846" d="M386.806,2331.839c.171.064.426.151.426.364,0,.128-.084.15-.3.279-.365.191-.449.385-.663.918a16.964,16.964,0,0,0-1.2,6.077c0,.408.086,3,.578,3,.193,0,.492-.62.578-.834.128-.278.258-.513.449-.513.215,0,.771.449.771.685a16.4,16.4,0,0,0-.856,3.1c0,.214.064.706.084.9a1.782,1.782,0,0,1,.044.322c0,.535-1.219,1.048-1.668,1.048-.365,0-.622-.472-.9-1.048a14.746,14.746,0,0,1-1.306-6.569,25.557,25.557,0,0,1,1.092-7.083,9.944,9.944,0,0,0,.278-1.071c.043-.194.086-.472.321-.472C384.708,2330.939,386.505,2331.71,386.806,2331.839Zm2.652,10.23a3.672,3.672,0,0,0,3.253,1.5,17.539,17.539,0,0,0,4.708-.686,1.564,1.564,0,0,1,.449-.084c.342,0,.386.512.386,1.6,0,.257.02.642-.258.793a24.976,24.976,0,0,1-5.072.64c-3.467,0-4.9-1.8-4.9-2.141,0-.3.749-1.818,1.155-1.818A.373.373,0,0,1,389.458,2342.068Zm.771-9.353a13.736,13.736,0,0,0,2.8.322,13.919,13.919,0,0,0,3.254-.429,2.168,2.168,0,0,1,.385-.063c.3,0,.385.255.426.512a10.211,10.211,0,0,1,.087,1.156c0,.449,0,.621-.406.706a24.943,24.943,0,0,1-3.595.3,14.761,14.761,0,0,1-3.745-.429c-.237-.15-.214-.6-.214-.836,0-1.025.107-1.348.449-1.348A2.806,2.806,0,0,1,390.23,2332.716Z" transform="translate(40.927 0.571)" fill="#2a8648"/>
    <path id="Path_3847" data-name="Path 3847" d="M406.722,2338.61a2.328,2.328,0,0,1-.021.385c.021.386.171.558.556.558h2.183c.449,0,.92-.044,1.39-.044.857,0,.964.449.964,1.2,0,1.6-.406,5.285-1.135,6.676a2.087,2.087,0,0,1-1.691,1.134,10.743,10.743,0,0,1-1.861.171c-.7,0-1.177.022-1.177-1.648,0-.255.023-.513.342-.513.086,0,.237.021.3.021.278.023.727.065.985.065,1.112,0,1.326-.365,1.455-.857a20.661,20.661,0,0,0,.622-3.937c0-.321-.172-.365-.493-.365h-2.119a.575.575,0,0,0-.663.536,15.594,15.594,0,0,1-1.882,5.22c-.193.321-.729,1.285-1.135,1.285-.364,0-1.519-.6-1.519-1.028,0-.127.214-.385.3-.492,1.862-2.332,2.59-5.755,2.632-8.687,0-.385-.214-.513-.556-.513h-.214c-.9,0-1.135,0-1.135-.386,0-.321.044-.9.044-1.326v-3.788c0-.363-.044-.727-.044-1.091,0-.706.707-.77,1.242-.77.492,0,.963.02,1.454.02h3.509c.471,0,.964-.02,1.456-.02.513,0,1.219.064,1.219.749,0,.319-.023.663-.023,1.112v3.788c0,.258.023,1.263.023,1.306,0,.406-.214.406-1.112.406-.622,0-.857-.022-.964-.193-.086-.194-.15-.321-.364-.321h-3.317c-.043,0-.127.02-.127.084,0,.107.107.107.619.172.278.042.771.086.771.32,0,.13-.194.237-.322.3A.6.6,0,0,0,406.722,2338.61Zm2.333-3.231a.612.612,0,0,0,.6-.6v-1.861a.612.612,0,0,0-.6-.6H405.5a.567.567,0,0,0-.578.6v1.861a.567.567,0,0,0,.578.6Zm4.58-1.347a7.95,7.95,0,0,0-.087-1.435v-.193c0-.235.171-.278.365-.278.255,0,1.6.086,1.9.128.192.021.513.021.513.3,0,.171-.171.258-.3.342-.235.171-.257.365-.257,1.219v6.87c0,.9.064,1.818.064,2.716,0,.643-.193.686-1.135.686s-1.134-.043-1.134-.686c0-.9.065-1.818.065-2.716Zm4.344-2.5a9.811,9.811,0,0,0-.064-1.413.561.561,0,0,1-.023-.193c0-.234.194-.278.385-.278.385,0,1.436.085,1.841.108.214.02.556.043.556.321,0,.148-.15.235-.3.342-.214.15-.237.385-.237,1.239v13.055c0,.535.043,1.069.043,1.625,0,2.162-1.818,2.44-3.573,2.44-.62,0-1.2.087-1.2-1.584,0-.385.064-.726.513-.726.193,0,.706.063,1.07.063,1.005,0,.985-.364.985-1.626Z" transform="translate(47.319 0.135)" fill="#2a8648"/>
    <path id="Path_3848" data-name="Path 3848" d="M430.579,2330.31c.107.044.235.107.235.237a.472.472,0,0,1-.171.319c-.278.237-.257.3-.385,1.178-.043.365-.193,1.414-.193,1.711,0,.235.15.3.342.365a1.534,1.534,0,0,1,.727.984c0,.085-.086.171-.127.235-.107.15-.515.9-.579,1.048a1.675,1.675,0,0,0-.043.342c0,.107.043.214.171.214.064,0,.128-.064.171-.107.451-.469,1.3-1.241,1.82-1.669a5.043,5.043,0,0,1,3.1-1.52,2.316,2.316,0,0,1,1.841.941,3.884,3.884,0,0,1,.385,2.033c0,1.114-.043,2.226-.107,3.317-.043.921-.107,1.883-.107,2.782,0,.513-.021,1.264.472,1.264.576,0,1.5-.921,1.882-1.349a.612.612,0,0,1,.406-.235c.364,0,.984,1.6.984,1.947,0,.3-.791.856-1.027,1.028a5.53,5.53,0,0,1-3.017,1.242c-1.8,0-1.968-2.076-1.968-3.425,0-1.925.278-3.872.278-5.8,0-.471,0-1.22-.643-1.22a3.223,3.223,0,0,0-1.67.857,21.5,21.5,0,0,0-2.332,2.074,7.116,7.116,0,0,0-1.2,1.371c-.087.278,0,2.889,0,3.38,0,.129.043.771.064,1.134.043.877.107,2.032.107,2.269,0,.148.021.362-1.561.362-.515,0-.9,0-.9-.428,0-.191.13-2.566.13-3.529,0-.108-.044-.278-.194-.278s-.3.321-.513.642c-.237.385-.9,1.54-1.114,1.946-.064.13-.148.257-.278.257-.362,0-1.6-1.048-1.6-1.412a2.286,2.286,0,0,1,.428-.77c1.156-1.691,2.162-3.447,3.146-5.222a2,2,0,0,0,.257-1.007c0-.191.043-.385.043-.556s-.086-.321-.278-.321a1.3,1.3,0,0,0-.385.107,14.7,14.7,0,0,1-2.59.878c-.342,0-.513-.322-.62-.6a6.326,6.326,0,0,1-.449-1.455c0-.341.449-.341.706-.385.642-.086,3.36-.556,3.616-1.069a1.393,1.393,0,0,0,.108-.642c0-.579.084-1.863.084-2.8,0-.255-.021-.512-.021-.663,0-.235.107-.3.342-.3S430.366,2330.246,430.579,2330.31Z" transform="translate(54.628 0.259)" fill="#2a8648"/>
    <path id="Path_3849" data-name="Path 3849" d="M452.7,2330.236c.192.064.791.216.791.449,0,.107-.127.171-.193.214-.32.194-.342.278-.492.75-.064.235-.513,1.8-.513,1.905a.316.316,0,0,0,.321.321,15.147,15.147,0,0,0,2.483-.793,1.15,1.15,0,0,1,.449-.107c.428,0,.428,1.306.428,1.627,0,.362-.043.663-.406.77a32.064,32.064,0,0,1-3.509.834c-.622.128-.685.235-.877.834a66.789,66.789,0,0,1-3.981,9.438c-.278.513-.449.811-.77.811-.342,0-1.818-.684-1.818-1.155a1.617,1.617,0,0,1,.362-.706,42.182,42.182,0,0,0,3.789-7.917,3.252,3.252,0,0,0,.171-.556c0-.214-.171-.322-.385-.322-.3,0-1.241.108-1.905.108-.428,0-.77.02-.9-.386a9.18,9.18,0,0,1-.171-1.561c0-.235.064-.386.321-.386.193,0,1.091.087,2.012.087,1.369,0,1.69-.023,1.882-.342a19.7,19.7,0,0,0,.793-3.894c.02-.321.02-.535.235-.535C451.005,2329.724,452.417,2330.152,452.7,2330.236Zm-.3,13.8c.941,1.048,2.568,1.241,3.874,1.241a9.664,9.664,0,0,0,3.037-.428.748.748,0,0,1,.214-.043c.365,0,.365.492.365,1.349,0,.427.02.92-.237,1.068a20.43,20.43,0,0,1-3.338.278,9.079,9.079,0,0,1-4.579-.961c-.342-.237-1.048-.771-1.048-1.22,0-.321.984-1.583,1.326-1.583C452.16,2343.74,452.31,2343.931,452.4,2344.039Zm2.611-6.912a15.308,15.308,0,0,1,4.3.6.4.4,0,0,1,.3.428,5.36,5.36,0,0,1-.408,1.5c-.086.193-.171.278-.385.278a1.153,1.153,0,0,1-.449-.107,9.653,9.653,0,0,0-3.4-.535c-.278,0-.535.021-.813.021-.429,0-.536-.107-.536-.471C453.615,2337,454,2337.128,455.007,2337.128Z" transform="translate(61.733 0.162)" fill="#2a8648"/>
    <path id="Path_3850" data-name="Path 3850" d="M476.778,2331.97c.449,0,1.5,0,1.926-.043.084,0,.321-.043.385-.043.513,0,1.433,1.156,1.433,1.369s-.192.451-.364,1.371c-.727,4.129-2.247,6.976-5.714,9.416a19.905,19.905,0,0,1-4.108,2.182,2.14,2.14,0,0,1-.706.194c-.513,0-1.283-1.433-1.283-1.777,0-.235.191-.3.385-.343a15.05,15.05,0,0,0,5.327-2.825,9.946,9.946,0,0,0,3.509-6.248,3.922,3.922,0,0,0,.043-.513c0-.406-.364-.449-.749-.449h-7.6c-.9,0-1.777.043-2.675.043-.663,0-.642-.193-.642-1.155,0-.984-.021-1.221.578-1.221.92,0,1.84.043,2.761.043Z" transform="translate(68.923 0.89)" fill="#2a8648"/>
    <path id="Path_3851" data-name="Path 3851" d="M489.906,2336.946l3.594-.063c.408,0,.579-.322.579-.684v-.449a13.223,13.223,0,0,0-.107-2.055c0-.064-.021-.171-.021-.258,0-.234.171-.32.385-.32.3,0,1.176.128,1.5.171.193.041.429.085.429.342,0,.15-.064.191-.171.3-.13.128-.13.3-.13.535v1.563c0,.342.13.792.6.792h.707c.448,0,2.055-.085,2.182-.085.472,0,.513.319.513,1.134,0,.6-.084.813-.576.813h-1.071c-.342,0-.685.021-1.005.021h-.686a.614.614,0,0,0-.6.6l.065,3.6c0,.321.02.663.02.984,0,1.691-.428,2.611-3.037,2.611-.3,0-.6,0-.75-.3a4.026,4.026,0,0,1-.321-1.3.328.328,0,0,1,.365-.364c.148,0,.576.044.941.044.9,0,.92-.258.9-1.52l-.043-2.5c0-.15-.064-.3-.255-.3-.15,0-.237.128-.342.257a23.208,23.208,0,0,1-4.623,4.172,1.176,1.176,0,0,1-.578.257c-.3,0-1.262-.834-1.262-1.219,0-.194.193-.3.342-.385a20.292,20.292,0,0,0,4.237-3.359c.15-.172.727-.749.727-.943a.262.262,0,0,0-.278-.235l-2.182.021c-.3,0-1.926.086-2.1.086-.493,0-.536-.428-.536-.834v-.256c0-.535-.02-.877.557-.877.278,0,.556.02.834.02Z" transform="translate(76.049 1.305)" fill="#2a8648"/>
    <path id="Path_3852" data-name="Path 3852" d="M512.022,2332.2c.255.043.535.043.535.258,0,.107-.13.214-.214.3-.13.128-.107.492-.107.686v.47c0,4.429-.3,8.195-3.7,11.448-.171.149-.428.449-.663.449-.321,0-1.905-.792-1.905-1.177,0-.149.171-.3.278-.385,3.254-2.7,3.66-5.693,3.66-9.673,0-.642-.021-1.5-.086-2.117,0-.064-.021-.171-.021-.237,0-.192.128-.235.278-.235C510.481,2331.981,511.573,2332.131,512.022,2332.2Zm5.071,8.945c0,.663.021.984.342.984.707,0,4.921-3.766,5.607-4.472.107-.107.257-.278.428-.278.364,0,1.091,1.37,1.091,1.713,0,.321-.836,1-1.114,1.239-1.283,1.114-2.565,2.206-3.914,3.211-.579.449-1.5,1.134-2.012,1.583-.193.151-.406.385-.663.385a5.524,5.524,0,0,1-1.477-.642c-.3-.171-.683-.385-.683-.77,0-.151.084-1.542.084-2.568v-7.49a18.909,18.909,0,0,0-.084-2.183v-.107a.191.191,0,0,1,.214-.214c.127,0,.663.085.834.107,1.112.151,1.733.214,1.733.449,0,.15-.086.194-.171.3a.834.834,0,0,0-.193.556c-.021.492-.021,1.561-.021,2.1Z" transform="translate(82.403 0.771)" fill="#2a8648"/>
    <path id="Path_3853" data-name="Path 3853" d="M539.625,2333.78a5.324,5.324,0,0,0,1.048-.064.493.493,0,0,1,.191-.023c.408,0,1.263,1.177,1.263,1.563a.477.477,0,0,1-.128.278,5.427,5.427,0,0,0-.492.921,35.636,35.636,0,0,1-1.926,3.808,1.309,1.309,0,0,0-.234.6c0,.279.171.408.385.557.255.193,1.2.836,1.2,1.114,0,.341-.961,1.625-1.39,1.625a.525.525,0,0,1-.321-.171c-.428-.385-.471-.385-.856-.706a.717.717,0,0,0-.471-.236c-.3,0-.536.3-.727.513a17.5,17.5,0,0,1-4.687,3.616,10.958,10.958,0,0,1-2.568,1.092c-.556,0-1.561-1.37-1.561-1.668,0-.322.727-.429.941-.493a13.168,13.168,0,0,0,6.12-3.85.841.841,0,0,0,.322-.536.538.538,0,0,0-.344-.492c-.77-.449-1.5-.834-2.29-1.221-.148-.064-.406-.171-.406-.364,0-.3.814-1.6,1.306-1.6a17.624,17.624,0,0,1,2.631,1.3,1.018,1.018,0,0,0,.536.237c.385,0,.556-.386.727-.707A13.137,13.137,0,0,0,539,2336.3c0-.427-.535-.427-.856-.427h-4.108c-.515,0-.663.171-.943.556a31.705,31.705,0,0,1-2.761,3.3,1.137,1.137,0,0,1-.683.408c-.385,0-1.8-.9-1.8-1.264,0-.171.214-.3.342-.406a19.917,19.917,0,0,0,5.586-7.683c.063-.17.15-.535.385-.535a7.391,7.391,0,0,1,1.348.579c.364.15,1.112.512,1.112.663,0,.127-.107.192-.214.235-.321.128-.342.17-.683.77-.065.128-.172.321-.3.535a.758.758,0,0,0-.171.428c0,.215.193.3.365.322Zm3.573-1.028c0,.321-.836.857-1.114.857-.15,0-.214-.129-.278-.237a20.127,20.127,0,0,0-1.3-1.9.563.563,0,0,1-.15-.3c0-.258.877-.749,1.112-.749A8.293,8.293,0,0,1,543.2,2332.752Zm1.668-2.226a4.3,4.3,0,0,1,.642,1.05c0,.32-.857.855-1.112.855-.15,0-.237-.149-.321-.278-.408-.643-.834-1.262-1.285-1.862a.447.447,0,0,1-.148-.278c0-.278.877-.771,1.112-.771.17,0,.9.921,1,1.135C544.781,2330.421,544.824,2330.462,544.867,2330.526Z" transform="translate(89.778 0)" fill="#2a8648"/>
    <path id="Path_3854" data-name="Path 3854" d="M552.294,2331.721c.171.064.556.214.556.428,0,.128-.086.171-.193.214-.492.236-.622.428-.877,1.092a19.725,19.725,0,0,0-1.178,6.505c0,.342.064,2.374.472,2.374.148,0,.255-.278.469-.77.107-.235.321-.941.579-.941.234,0,.92.428.92.685,0,.3-1.049,2.654-1.049,3.894,0,.344.043.684.043,1.027,0,.834-1.519,1.092-1.626,1.092-.364,0-.535-.406-.685-.707a15.389,15.389,0,0,1-1.263-6.59,24.6,24.6,0,0,1,.75-5.993c.235-.941.533-1.86.77-2.8.021-.15.086-.364.278-.364a8.135,8.135,0,0,1,1.37.556C551.908,2331.55,552.165,2331.678,552.294,2331.721Zm8.516-.62c.107.02.214.064.214.191,0,.194-.128.237-.235.429a2.976,2.976,0,0,0-.235,1.519v.6c0,.3.128.556.449.556a13.441,13.441,0,0,0,2.14-.536,1.8,1.8,0,0,1,.321-.064c.428,0,.578,1.477.578,1.8,0,.406-.15.556-2.674.9-.472.065-.729.15-.729.686,0,.428.15,3.7.171,4.258.043.556.257.6.729.834a12,12,0,0,1,2.31,1.5c.258.215.556.45.556.814,0,.492-.749,1.476-1.242,1.476a.986.986,0,0,1-.6-.321,6.067,6.067,0,0,0-1.581-1.177c-.215,0-.279.171-.322.342-.385,1.369-1.82,1.8-3.1,1.8-1.711,0-3.573-.814-3.573-2.782,0-1.927,1.691-2.7,3.36-2.7a5.486,5.486,0,0,1,.834.064h.15c.3,0,.429-.171.429-.449,0-.535-.107-2.568-.128-3.188-.023-.214.021-.813-.515-.813-.171,0-1.691.084-2.546.084h-.278a4.713,4.713,0,0,1-1.627-.171c-.194-.127-.214-1.346-.214-1.625s.02-.535.342-.535c.257,0,2.162.214,3.274.214h.342c.515,0,1.007-.043,1.007-.514,0-.449-.171-2.525-.258-3.06,0-.064-.02-.15-.02-.215a.261.261,0,0,1,.3-.3A20.226,20.226,0,0,1,560.809,2331.1Zm-3.317,12c-.492,0-1.54.171-1.54.834,0,.686,1.025.921,1.561.921.813,0,1.349-.3,1.349-1.177C558.863,2343.127,557.9,2343.1,557.493,2343.1Z" transform="translate(96.72 0.497)" fill="#2a8648"/>
    <path id="Path_3855" data-name="Path 3855" d="M571.562,2340.133c.278,0,.342.194.385.407.449,2.268,2.269,2.59,4.279,2.59a26.615,26.615,0,0,0,6.378-.75,1.691,1.691,0,0,1,.321-.064c.32,0,.469.365.469,1.755a.7.7,0,0,1-.512.793,39.3,39.3,0,0,1-6.42.6c-2.226,0-4.623-.279-6.013-2.226a5.008,5.008,0,0,1-.834-2.076C569.615,2340.626,571.54,2340.133,571.562,2340.133Zm.364-7.468c.064-.364.107-.749.513-.749a3.1,3.1,0,0,1,.62.13,13.849,13.849,0,0,0,3.639.449,18.22,18.22,0,0,0,3.873-.429,1.135,1.135,0,0,1,.278-.043c.533,0,.556.964.556,1.841,0,.513-.107.556-.6.642a29.26,29.26,0,0,1-3.874.257,18.3,18.3,0,0,1-4.878-.536.442.442,0,0,1-.3-.448A7.421,7.421,0,0,1,571.925,2332.665Z" transform="translate(103.846 0.901)" fill="#2a8648"/>
    <path id="Path_3856" data-name="Path 3856" d="M597.974,2331.279a.394.394,0,0,1-.193.321,1.394,1.394,0,0,0-.448.877c-.044.129-.065.258-.13.429a2.418,2.418,0,0,0-.128.534.327.327,0,0,0,.365.321,22.886,22.886,0,0,0,4.128-.941,1.779,1.779,0,0,1,.578-.15c.28,0,.321.3.408.6a6.976,6.976,0,0,1,.191,1.328c0,.342-.234.406-.77.513-1.155.214-3.68.6-4.878.728-.707.085-.727.235-.985,1.242-.063.3-.17.683-.3,1.155a1.21,1.21,0,0,0-.064.385c0,.129.064.193.214.193a.448.448,0,0,0,.235-.085,6.9,6.9,0,0,1,3.745-1.155,4.147,4.147,0,0,1,4.345,4.429c0,2.7-1.841,4.344-4.323,5.007a19.592,19.592,0,0,1-4.472.6c-.707,0-.814-.107-.943-.556a6.622,6.622,0,0,1-.278-1.413.426.426,0,0,1,.449-.449c.278,0,.921.15,1.734.15,2.225,0,5.627-.642,5.627-3.466a2.084,2.084,0,0,0-2.118-2.225,7.041,7.041,0,0,0-5.179,2.675c-.15.191-.342.469-.6.469-.492,0-1.711-.6-1.711-1.2a3.018,3.018,0,0,1,.3-.941,21.479,21.479,0,0,0,1.178-3.553,2.376,2.376,0,0,0,.107-.535.309.309,0,0,0-.342-.32c-.128,0-.321.02-.449.02-.493.022-2.162.214-2.589.214a.5.5,0,0,1-.556-.428,6.478,6.478,0,0,1-.235-1.412c0-.556.342-.535.449-.535.3,0,1.562.085,2.418.085,1.519,0,1.754-.064,1.948-.513a21.021,21.021,0,0,0,.449-2.719c.043-.3.02-.771.362-.771C595.727,2330.187,597.974,2330.807,597.974,2331.279Z" transform="translate(110.675 0.318)" fill="#2a8648"/>
    <path id="Path_3857" data-name="Path 3857" d="M615.532,2334.65c.148.064.385.128.385.3,0,.128-.107.193-.194.236-.342.214-.364.406-.449.835-.171.983-.3,1.99-.515,2.973a3.52,3.52,0,0,0-.063.449c0,.128.063.258.214.258a.471.471,0,0,0,.278-.129c1.583-1.113,2.868-1.969,4.9-1.969a4.384,4.384,0,0,1,4.664,4.452c0,3.039-2.269,4.324-4.858,5.094a14.393,14.393,0,0,1-2.782.577c-.469,0-.6-.192-.791-.6a4.44,4.44,0,0,1-.364-1.39c0-.342.257-.364.535-.385a14.263,14.263,0,0,0,2.846-.428c1.52-.385,3.1-1.048,3.1-2.867a2.322,2.322,0,0,0-2.568-2.269c-2.247,0-4.516,1.884-5.864,3.575-.171.212-.342.449-.643.449-.191,0-1.626-.214-1.626-.836a3.3,3.3,0,0,1,.214-.749c.192-.685.364-1.392.492-2.1a34.45,34.45,0,0,0,.515-4.666c0-.171.02-.321.02-.47,0-.622.021-.941.365-.941A15.207,15.207,0,0,1,615.532,2334.65Zm.385-4.623a14.752,14.752,0,0,1,2.439,1.349c.321.193,1.563.877,1.563,1.241,0,.385-.877,1.69-1.327,1.69-.235,0-.513-.3-.685-.428a17.6,17.6,0,0,0-2.7-1.818c-.214-.129-.492-.235-.492-.471C614.718,2331.312,615.4,2330.027,615.917,2330.027Z" transform="translate(118.038 0.264)" fill="#2a8648"/>
    <path id="Path_3858" data-name="Path 3858" d="M634.32,2343h2.953v-13.162h1.283V2343h2.953l-3.6,6.078Z" transform="translate(125.644 0.199)" fill="#2a8648"/>
  </g>
</svg>
