<svg xmlns="http://www.w3.org/2000/svg" width="193.472" height="73.637" viewBox="0 0 193.472 73.637">
  <g id="Group_2121" data-name="Group 2121" transform="translate(-241.294 -2357.991)">
    <rect id="Rectangle_1521" data-name="Rectangle 1521" width="193.472" height="73.637" rx="36.819" transform="translate(241.294 2357.991)" fill="#2a8648"/>
    <g id="Group_2105" data-name="Group 2105">
      <path id="Path_3859" data-name="Path 3859" d="M275.419,2393.091c.169.085.9.456.9.642,0,.118-.169.186-.271.237a.7.7,0,0,0-.287.338,26.2,26.2,0,0,1-3.7,5.3c-.185.22-.709.827-1,.827-.253,0-1.436-.692-1.436-1.046a.342.342,0,0,1,.136-.237,19.164,19.164,0,0,0,4.375-6.132c.05-.118.135-.388.287-.388A4.7,4.7,0,0,1,275.419,2393.091Zm5.051,0a11.908,11.908,0,0,1,1.132,1.368c.489.659,2.72,3.953,2.72,4.595,0,.422-1.3,1.013-1.588,1.013-.2,0-.271-.152-.338-.3a24.323,24.323,0,0,0-3.312-5.474.52.52,0,0,1-.185-.338c0-.3,1.014-.979,1.267-.979A.408.408,0,0,1,280.47,2393.091Zm4.426-1a1.673,1.673,0,1,1-1.673-1.69A1.666,1.666,0,0,1,284.9,2392.095Zm-2.585,0a.912.912,0,1,0,.912-.912A.908.908,0,0,0,282.311,2392.095Z" fill="#fffcf3"/>
      <path id="Path_3860" data-name="Path 3860" d="M301.08,2395.185c.776,0,1.875-.05,2.094-.05.456,0,.473.135.473,1.064,0,.54-.017.861-.456.861-.71,0-1.419-.034-2.111-.034h-7.771c-.692,0-1.4.034-2.111.034-.44,0-.456-.321-.456-.844,0-.946.034-1.081.472-1.081.22,0,1.386.05,2.1.05Z" fill="#fffcf3"/>
      <path id="Path_3861" data-name="Path 3861" d="M312.415,2392.179c.236.287.709,1.047.928,1.385a9.418,9.418,0,0,1,.929,1.689c0,.355-1.114.861-1.351.861-.2,0-.288-.2-.372-.371a21.11,21.11,0,0,0-1.537-2.6.8.8,0,0,1-.185-.355c0-.287,1.03-.794,1.283-.794A.419.419,0,0,1,312.415,2392.179Zm10.607-.49c.2.068.642.2.642.388,0,.119-.119.187-.186.237a.708.708,0,0,0-.321.439,14.423,14.423,0,0,1-4.358,7.585,13,13,0,0,1-4.882,2.55,1.3,1.3,0,0,1-.372.085c-.337,0-1.114-1.132-1.114-1.4,0-.287.507-.338.709-.387a10.208,10.208,0,0,0,7.534-6.707,13.082,13.082,0,0,0,.777-3.006c.017-.119.034-.271.169-.271A11.6,11.6,0,0,1,323.022,2391.689Zm-6.3-.659c.321.422.609.862.879,1.3a9.21,9.21,0,0,1,.945,1.723c0,.338-1.131.844-1.368.844-.185,0-.253-.185-.387-.422a21.952,21.952,0,0,0-1.521-2.567.813.813,0,0,1-.186-.355c0-.27,1.031-.777,1.284-.777C316.536,2390.777,316.637,2390.912,316.721,2391.03Z" fill="#fffcf3"/>
      <path id="Path_3862" data-name="Path 3862" d="M340.016,2391.216c.356,0,1.183,0,1.521-.033.067,0,.254-.035.3-.035.407,0,1.132.912,1.132,1.081s-.151.355-.287,1.081a10.391,10.391,0,0,1-4.51,7.433,15.661,15.661,0,0,1-3.243,1.723,1.738,1.738,0,0,1-.558.152c-.4,0-1.013-1.132-1.013-1.4,0-.186.152-.237.3-.271a11.852,11.852,0,0,0,4.206-2.229,7.853,7.853,0,0,0,2.769-4.933,3.055,3.055,0,0,0,.034-.405c0-.32-.287-.355-.591-.355h-6c-.709,0-1.4.035-2.111.035-.523,0-.507-.153-.507-.913,0-.777-.016-.962.456-.962.727,0,1.453.033,2.179.033Z" fill="#fffcf3"/>
      <path id="Path_3863" data-name="Path 3863" d="M354.071,2395.473l2.838-.051c.321,0,.456-.253.456-.54v-.355a10.376,10.376,0,0,0-.085-1.622c0-.051-.017-.135-.017-.2,0-.185.136-.253.3-.253.236,0,.929.1,1.181.135.153.034.338.068.338.27,0,.119-.05.153-.134.237-.1.1-.1.236-.1.423v1.232c0,.271.1.625.473.625h.557c.355,0,1.622-.067,1.723-.067.372,0,.406.254.406.9,0,.473-.068.642-.456.642h-.845c-.27,0-.541.017-.793.017h-.542a.483.483,0,0,0-.472.473l.051,2.838c0,.253.016.523.016.776,0,1.335-.338,2.062-2.4,2.062-.237,0-.473,0-.591-.238a3.171,3.171,0,0,1-.254-1.03.259.259,0,0,1,.287-.287c.118,0,.456.034.743.034.71,0,.727-.2.71-1.2l-.034-1.977c0-.118-.051-.236-.2-.236-.118,0-.187.1-.271.2a18.274,18.274,0,0,1-3.648,3.294.929.929,0,0,1-.456.2c-.236,0-1-.659-1-.963,0-.152.152-.236.27-.3a15.983,15.983,0,0,0,3.345-2.653c.118-.134.574-.59.574-.743a.205.205,0,0,0-.219-.185l-1.723.016c-.236,0-1.521.068-1.655.068-.389,0-.423-.338-.423-.659v-.2c0-.422-.017-.692.439-.692.22,0,.44.017.658.017Z" fill="#fffcf3"/>
      <path id="Path_3864" data-name="Path 3864" d="M374.613,2391.3c.2.033.422.033.422.2,0,.085-.1.169-.169.237-.1.1-.084.388-.084.54v.372c0,3.5-.237,6.469-2.923,9.036-.135.119-.338.356-.524.356-.253,0-1.5-.625-1.5-.93,0-.118.135-.236.22-.3,2.568-2.127,2.888-4.493,2.888-7.634,0-.507-.017-1.183-.067-1.673,0-.051-.017-.135-.017-.186,0-.152.1-.185.22-.185C373.4,2391.132,374.258,2391.25,374.613,2391.3Zm4,7.06c0,.524.016.778.27.778.558,0,3.885-2.974,4.426-3.531.084-.085.2-.219.338-.219.287,0,.861,1.081.861,1.35,0,.254-.659.794-.879.981-1.013.878-2.026,1.739-3.091,2.533-.456.354-1.182.9-1.587,1.25-.153.118-.322.3-.524.3a4.4,4.4,0,0,1-1.166-.506c-.236-.136-.54-.3-.54-.609,0-.118.067-1.216.067-2.027v-5.912a14.817,14.817,0,0,0-.067-1.723v-.084a.151.151,0,0,1,.169-.169c.1,0,.523.068.658.084.879.118,1.368.169,1.368.355,0,.118-.067.152-.134.236a.668.668,0,0,0-.153.44c-.016.388-.016,1.233-.016,1.655Z" fill="#fffcf3"/>
      <path id="Path_3865" data-name="Path 3865" d="M400.289,2391.942a4.253,4.253,0,0,0,.827-.05.414.414,0,0,1,.152-.017c.321,0,1,.929,1,1.233a.377.377,0,0,1-.1.219,4.259,4.259,0,0,0-.389.727,27.674,27.674,0,0,1-1.521,3.006,1.037,1.037,0,0,0-.185.473c0,.22.135.321.3.44.2.152.946.659.946.878,0,.27-.761,1.284-1.1,1.284a.423.423,0,0,1-.254-.135c-.338-.3-.371-.3-.676-.558a.563.563,0,0,0-.371-.185c-.236,0-.422.236-.574.405a13.869,13.869,0,0,1-3.7,2.855,8.722,8.722,0,0,1-2.027.861c-.44,0-1.234-1.081-1.234-1.318,0-.253.574-.337.743-.388a10.4,10.4,0,0,0,4.831-3.04.657.657,0,0,0,.254-.423.426.426,0,0,0-.27-.389c-.609-.354-1.183-.658-1.808-.962-.118-.05-.32-.135-.32-.288,0-.236.641-1.266,1.03-1.266a13.878,13.878,0,0,1,2.077,1.03.8.8,0,0,0,.423.186c.3,0,.439-.3.574-.557a10.372,10.372,0,0,0,.878-2.028c0-.337-.422-.337-.675-.337h-3.244c-.4,0-.523.135-.743.439a25.2,25.2,0,0,1-2.179,2.6.9.9,0,0,1-.541.32c-.3,0-1.418-.709-1.418-1,0-.136.168-.237.27-.321a15.728,15.728,0,0,0,4.409-6.064c.051-.136.118-.423.3-.423a5.892,5.892,0,0,1,1.064.456c.287.118.878.406.878.524,0,.1-.084.152-.169.186-.253.1-.27.135-.54.608-.05.1-.135.254-.236.422a.6.6,0,0,0-.136.338c0,.169.153.237.287.253Zm2.82-.81c0,.253-.658.676-.878.676-.118,0-.169-.1-.22-.187a15.926,15.926,0,0,0-1.03-1.5.445.445,0,0,1-.118-.236c0-.2.692-.592.878-.592A6.557,6.557,0,0,1,403.109,2391.132Zm1.317-1.757a3.377,3.377,0,0,1,.507.828c0,.253-.676.675-.878.675-.118,0-.185-.118-.254-.219q-.48-.76-1.012-1.47a.351.351,0,0,1-.119-.219c0-.22.693-.609.878-.609.135,0,.709.727.794.9C404.359,2389.29,404.393,2389.324,404.426,2389.375Z" fill="#fffcf3"/>
    </g>
  </g>
</svg>
