<svg xmlns="http://www.w3.org/2000/svg" width="760" height="230.074" viewBox="0 0 760 230.074">
  <g id="Group_2124" data-name="Group 2124" transform="translate(-7560 -1777.463)">
    <line id="線_2" data-name="線 2" x2="130" transform="translate(7871.5 1814.896)" fill="none" stroke="#2a8648" stroke-width="3"/>
    <g id="Group_2119" data-name="Group 2119" transform="translate(7538.562 597.356)">
      <path id="Path_3253" data-name="Path 3253" d="M344.894,1185.883c.363.182,1.924.981,1.924,1.379,0,.255-.363.4-.58.51a1.5,1.5,0,0,0-.618.723,56.179,56.179,0,0,1-7.952,11.4c-.4.475-1.523,1.781-2.144,1.781-.545,0-3.087-1.491-3.087-2.252a.743.743,0,0,1,.29-.507c3.635-3.488,7.553-8.5,9.4-13.182.111-.255.293-.835.621-.835A10.161,10.161,0,0,1,344.894,1185.883Zm10.857,0a25.287,25.287,0,0,1,2.434,2.94c1.055,1.414,5.846,8.5,5.846,9.876,0,.911-2.794,2.179-3.415,2.179-.436,0-.577-.328-.723-.653a52.392,52.392,0,0,0-7.12-11.765,1.136,1.136,0,0,1-.4-.726c0-.653,2.179-2.106,2.724-2.106A.861.861,0,0,1,355.751,1185.883Zm9.513-2.144a3.6,3.6,0,1,1-3.594-3.631A3.58,3.58,0,0,1,365.264,1183.739Zm-5.553,0a1.959,1.959,0,1,0,1.959-1.959A1.95,1.95,0,0,0,359.711,1183.739Z" transform="translate(0 0)" fill="#2a8648"/>
      <path id="Path_3254" data-name="Path 3254" d="M371.142,1183.408c1.669,0,4.03-.109,4.5-.109.978,0,1.013.29,1.013,2.287,0,1.163-.035,1.854-.981,1.854-1.523,0-3.049-.077-4.536-.077H354.436c-1.485,0-3.014.077-4.536.077-.943,0-.981-.691-.981-1.819,0-2.032.07-2.323,1.016-2.323.475,0,2.979.109,4.5.109Z" transform="translate(36.021 6.977)" fill="#2a8648"/>
      <path id="Path_3255" data-name="Path 3255" d="M368.114,1183.372c.513.618,1.526,2.252,2,2.976a20.065,20.065,0,0,1,2,3.635c0,.761-2.4,1.851-2.906,1.851-.433,0-.615-.437-.8-.8a45.539,45.539,0,0,0-3.307-5.591,1.762,1.762,0,0,1-.4-.761c0-.618,2.214-1.708,2.759-1.708A.874.874,0,0,1,368.114,1183.372Zm22.807-1.051c.433.147,1.379.433,1.379.832,0,.255-.255.4-.4.513a1.5,1.5,0,0,0-.688.94c-1.778,6.391-4.25,11.915-9.369,16.308a27.956,27.956,0,0,1-10.494,5.479,2.718,2.718,0,0,1-.8.185c-.723,0-2.4-2.434-2.4-3.014,0-.618,1.09-.726,1.526-.838,8.025-1.994,13.218-6.681,16.2-14.416a28.494,28.494,0,0,0,1.669-6.464c.035-.255.073-.58.36-.58A25.07,25.07,0,0,1,390.921,1182.32Zm-13.543-1.417c.685.908,1.306,1.851,1.886,2.794.363.583,2.032,3.16,2.032,3.7,0,.726-2.434,1.819-2.94,1.819-.4,0-.545-.4-.835-.911a46.93,46.93,0,0,0-3.269-5.518,1.733,1.733,0,0,1-.4-.761c0-.583,2.217-1.673,2.759-1.673C376.977,1180.358,377.193,1180.648,377.378,1180.9Z" transform="translate(70.521 0.548)" fill="#2a8648"/>
    </g>
    <g id="Group_2114" data-name="Group 2114" transform="translate(7302.277 622.143)">
      <path id="Path_3256" data-name="Path 3256" d="M278.167,1251.7c.3.15,1.595.812,1.595,1.143,0,.21-.3.331-.481.421a1.258,1.258,0,0,0-.512.6,46.544,46.544,0,0,1-6.594,9.452c-.331.4-1.264,1.474-1.775,1.474-.451,0-2.563-1.233-2.563-1.859a.634.634,0,0,1,.241-.428,34.092,34.092,0,0,0,7.8-10.926c.09-.21.241-.692.511-.692A8.086,8.086,0,0,1,278.167,1251.7Zm9,0a20.633,20.633,0,0,1,2.022,2.437c.872,1.173,4.849,7.051,4.849,8.188,0,.752-2.322,1.811-2.834,1.811-.361,0-.481-.271-.6-.541a43.416,43.416,0,0,0-5.9-9.759.915.915,0,0,1-.331-.607c0-.535,1.8-1.745,2.256-1.745A.72.72,0,0,1,287.168,1251.7Zm7.894-1.775a2.981,2.981,0,1,1-2.984-3.014A2.968,2.968,0,0,1,295.061,1249.927Zm-4.608,0a1.627,1.627,0,1,0,1.624-1.631A1.621,1.621,0,0,0,290.453,1249.927Z" transform="translate(50.737 2.638)" fill="#2a8648"/>
      <path id="Path_3257" data-name="Path 3257" d="M293.566,1248.41c1.384,0,3.339-.1,3.736-.1.812,0,.836.241.836,1.9,0,.963-.024,1.534-.806,1.534-1.27,0-2.533-.061-3.766-.061h-13.85c-1.239,0-2.5.061-3.766.061-.782,0-.812-.571-.812-1.51,0-1.684.06-1.925.842-1.925.391,0,2.467.1,3.736.1Z" transform="translate(87.362 9.666)" fill="#2a8648"/>
      <path id="Path_3258" data-name="Path 3258" d="M284.961,1249.52c.421.518,1.263,1.871,1.655,2.473a16.814,16.814,0,0,1,1.661,3.008c0,.638-1.991,1.535-2.413,1.535-.361,0-.511-.355-.662-.656a37.648,37.648,0,0,0-2.738-4.645,1.319,1.319,0,0,1-.331-.626c0-.511,1.835-1.419,2.286-1.419A.755.755,0,0,1,284.961,1249.52Zm18.91-.867c.361.114,1.149.355,1.149.693,0,.21-.217.325-.337.415a1.267,1.267,0,0,0-.572.788c-1.474,5.3-3.52,9.879-7.767,13.519a23.331,23.331,0,0,1-8.706,4.549,2.283,2.283,0,0,1-.662.144c-.6,0-1.985-2.015-1.985-2.5,0-.511.9-.6,1.263-.692,6.654-1.654,10.962-5.541,13.429-11.954a23.335,23.335,0,0,0,1.39-5.361c.03-.211.06-.482.3-.482A19.788,19.788,0,0,1,303.87,1248.654Zm-11.233-1.179a26.974,26.974,0,0,1,1.57,2.316,16.428,16.428,0,0,1,1.685,3.074c0,.6-2.021,1.51-2.437,1.51-.337,0-.457-.337-.7-.758a39.454,39.454,0,0,0-2.707-4.579,1.373,1.373,0,0,1-.331-.625c0-.488,1.835-1.391,2.286-1.391C292.307,1247.023,292.487,1247.264,292.638,1247.475Z" transform="translate(122.452 3.19)" fill="#2a8648"/>
      <path id="Path_3259" data-name="Path 3259" d="M302.221,1248.278c0,.18-.21.3-.361.36-.481.181-.6.331-.992,1.024a2.017,2.017,0,0,0-.3.691c0,.217.15.3.331.3a22.054,22.054,0,0,0,3.5-.841,2.208,2.208,0,0,1,.752-.181c.511,0,.656.481.752.9a9.611,9.611,0,0,1,.241,1.624c0,.512-.963.638-1.594.752-1.9.4-3.8.723-5.692.939a1.057,1.057,0,0,0-.908.482,9.923,9.923,0,0,0-1.023,1.744.233.233,0,0,0,.241.211,1.164,1.164,0,0,0,.542-.181,8.355,8.355,0,0,1,3.285-.782,3.076,3.076,0,0,1,3.435,2.708c.054.277.145.517.451.517a27.176,27.176,0,0,0,3.519-1.714,2.359,2.359,0,0,1,.782-.307c.572,0,1.293,2.322,1.293,2.833,0,.362-.331.482-.9.662a4.416,4.416,0,0,1-.421.145c-1.2.457-2.376.969-3.55,1.48-.547.211-.788.392-.788.993v.39c0,.933.03,1.841.03,2.774,0,1.083-.15,1.2-1.294,1.2-1.294,0-1.835-.06-1.835-.848,0-.656.06-1.318.06-1.955,0-.271-.09-.511-.391-.511-.15,0-3.249,1.329-3.249,3.2,0,2.021,2.918,2.2,4.362,2.2a22.063,22.063,0,0,0,5.6-.752,3.682,3.682,0,0,1,.6-.06c.391,0,.6.331.6,2.051,0,.9-.03,1.137-.692,1.294a39.974,39.974,0,0,1-5.782.385,11.085,11.085,0,0,1-4.759-.782,4.565,4.565,0,0,1-3.008-4.308c0-2.707,2.2-4.181,4.278-5.415.6-.361,1.233-.692,1.865-.993.3-.151.541-.337.541-.692a4.174,4.174,0,0,0-.15-.848,1.257,1.257,0,0,0-1.324-1.024,10.071,10.071,0,0,0-5.631,2.654,19.544,19.544,0,0,0-2.527,3.525.514.514,0,0,1-.427.3c-.541,0-2.557-1.2-2.557-1.745,0-.241.241-.481.391-.662.692-.752,5.06-6.8,5.06-7.383,0-.264-.241-.355-.668-.355-.481,0-1.167.09-2.106.09-.662,0-.782-.151-.782-1.691,0-1.2.12-1.384.872-1.384.511,0,1.293.066,2.172.066h.872c.782,0,1.594-.03,1.865-.4a16.5,16.5,0,0,0,1.624-3.88c.06-.33.12-.638.427-.638C299.123,1246.437,302.221,1247.827,302.221,1248.278Z" transform="translate(157.517 0.251)" fill="#2a8648"/>
      <path id="Path_3260" data-name="Path 3260" d="M297.292,1261.106c-.572,0-1.715-1.781-1.715-2.323,0-.294.331-.632.541-.866a30.264,30.264,0,0,0,5.812-10.908c.09-.294.211-.6.571-.6.18,0,2.232.722,2.593.837.271.066.662.216.662.547,0,.2-.271.331-.451.392-.451.18-.451.294-.692.872a50.282,50.282,0,0,1-2.533,5.421c0,.06-.03.12-.03.181,0,.21.15.3.331.325.247,0,.728.036.728.4,0,.18-.1.21-.367.421-.3.241-.331.782-.331,1.932v10.781c0,1.318.09,2.641.09,3.971,0,.932-.3.963-1.624.963-1.293,0-1.595-.03-1.595-.963,0-1.329.09-2.653.09-3.971v-8.826c0-.157-.06-.3-.247-.3a.262.262,0,0,0-.241.114c-.054.06-.144.187-.241.3C298.291,1260.323,297.683,1261.106,297.292,1261.106Zm13.88-1.263c.578,0,.818-.211.848-.788a9.768,9.768,0,0,0-.12-1.618v-.337c0-.355.211-.481.542-.481.541,0,1.835.151,2.407.211.421.06.963.03.963.451,0,.217-.174.271-.415.458a1.126,1.126,0,0,0-.367,1.016v.3c0,.577.271.788.812.788h3.014c1.113,0,2.2-.066,3.285-.066.836,0,.806.4.806,1.42,0,1.059.03,1.414-.806,1.414-1.089,0-2.172-.06-3.285-.06h-1.444c-.216,0-.457.091-.457.361,0,.121.066.181.126.271a32.153,32.153,0,0,0,5.746,5.692c.187.156.457.331.457.607a2.514,2.514,0,0,1-1.865,1.745c-.4,0-1.179-.722-1.691-1.2-.12-.126-.241-.216-.331-.307a32.227,32.227,0,0,1-3.917-4.428.251.251,0,0,0-.241-.114c-.18,0-.211.145-.241.271v3.585c0,1.107.09,2.2.09,3.3,0,1.059-.361,1.029-1.564,1.029-1.173,0-1.564.03-1.564-1.029,0-1.077.06-2.2.06-3.3v-3.442c0-.114-.06-.3-.241-.3a.234.234,0,0,0-.241.127,30.919,30.919,0,0,1-5.421,5.361,1.778,1.778,0,0,1-.969.511c-.535,0-1.745-1.293-1.745-1.841,0-.331.391-.6.632-.783a35.057,35.057,0,0,0,5.932-5.48.624.624,0,0,0,.09-.271c0-.271-.2-.331-.445-.361h-1.57c-1.083,0-2.2.06-3.279.06-.818,0-.818-.33-.818-1.414s0-1.42.818-1.42c1.083,0,2.2.066,3.279.066Zm6.209-3.586h-7.713c-.361,0-.451.217-.572.512s-.3.33-1.354.33c-1.233,0-1.534,0-1.534-.692,0-.873.06-1.774.06-2.653v-3.063c0-.7-.03-1.42-.03-2.112,0-1.028.572-1.3,1.474-1.3.752,0,1.474.036,2.2.036h7.412c.722,0,1.444-.036,2.166-.036.963,0,1.5.271,1.5,1.329,0,.692-.03,1.385-.03,2.082v3.063c0,.878.06,1.75.06,2.623,0,.722-.3.722-1.474.722-1.053,0-1.2-.03-1.414-.24C317.952,1256.647,317.676,1256.286,317.381,1256.256Zm.722-5.511a.861.861,0,0,0-.843-.843h-7.322a.861.861,0,0,0-.842.843v2.075a.8.8,0,0,0,.842.818h7.322a.8.8,0,0,0,.843-.818Z" transform="translate(189.893 0.13)" fill="#2a8648"/>
      <path id="Path_3261" data-name="Path 3261" d="M310.14,1259.425a1.852,1.852,0,0,0-.457,1.39v8.489c0,1.113.1,2.2.1,3.285,0,.932-.391.9-1.57.9-1.143,0-1.594.03-1.594-.842,0-1.113.09-2.232.09-3.345v-5.241c-.03-.2-.09-.421-.331-.421a.382.382,0,0,0-.271.12c-.963.818-1.534,1.263-1.865,1.263-.542,0-1.691-1.5-1.691-1.985,0-.271.427-.656.668-.842a18.859,18.859,0,0,0,3.068-2.888,1.144,1.144,0,0,0,.361-.849v-.211a6.844,6.844,0,0,1-.06-.722c0-.361.241-.391.542-.391h.331a.793.793,0,0,0,.818-.391,32.594,32.594,0,0,0,2.076-3.556.8.8,0,0,0,.06-.271c0-.452-.451-.452-.578-.452h-2.2c-1.233,0-2.467.067-3.736.067-.722,0-.686-.367-.686-1.444,0-1.119-.036-1.486.686-1.486,1.269,0,2.5.066,3.736.066h3.285a.913.913,0,0,0,1.053-.752c.18-.572.271-1.029.361-1.384.211-.878.3-1.15.632-1.15a18.763,18.763,0,0,1,2.016.427c.812.181,1.444.295,1.444.662,0,.241-.241.362-.415.481a1.321,1.321,0,0,0-.668,1.168c0,.4.307.547.638.547h9.241c1.263,0,2.5-.066,3.766-.066.692,0,.692.367.692,1.486,0,1.077,0,1.444-.692,1.444-1.269,0-2.5-.067-3.766-.067h-10.3a1.037,1.037,0,0,0-1.143.692A33.813,33.813,0,0,1,310.14,1259.425Zm15.384,2.894c1.083,0,2.172-.06,3.255-.06.782,0,.752.361.752,1.414s.03,1.42-.752,1.42c-1.083,0-2.172-.066-3.255-.066h-2.737c-.6,0-.849.247-.849.849v2.376c0,.722.1,1.444.1,2.2,0,2.8-2.984,3.1-5.15,3.1-.361,0-1.269,0-1.54-.27a3.6,3.6,0,0,1-.566-2.112c0-.481.084-.807.632-.807a10.915,10.915,0,0,1,1.167.115,3.2,3.2,0,0,0,.517.03c1.775,0,1.715-.661,1.715-2.166v-2.467c0-.6-.271-.849-.842-.849H315.41c-1.089,0-2.172.066-3.255.066-.782,0-.752-.4-.752-1.45,0-1.023-.03-1.384.752-1.384,1.083,0,2.166.06,3.255.06h2.557c.572,0,.812-.211.812-.782,0-.421-.06-.848-.09-1.264,0-.1-.03-.21-.03-.3,0-.361.271-.421.572-.421.15,0,.271.03.421.03a1.414,1.414,0,0,0,.842-.21c.572-.3,1.781-1.119,1.781-1.5,0-.217-.241-.217-.457-.217h-4.091c-1.023,0-2.052.06-3.075.06-.752,0-.722-.331-.722-1.413,0-1.143-.03-1.475.722-1.475,1.023,0,2.052.054,3.075.054h5.391c.933,0,1.835-.024,2.768-.024a1.443,1.443,0,0,1,1.354.536,2.674,2.674,0,0,1,.722,1.215c0,.9-4.723,3.911-5.632,4.392a.679.679,0,0,0-.361.572c0,.572.307.752.818.752Z" transform="translate(224.858)" fill="#2a8648"/>
      <path id="Path_3262" data-name="Path 3262" d="M315.1,1247.525c.21.024.6.151.6.422,0,.21-.174.3-.361.451-1.053.782-1.324,10.331-1.324,12.045,0,2.353-.06,5.993,3.195,5.993a7.633,7.633,0,0,0,5.661-2.918,9.617,9.617,0,0,0,1.835-4.459c.09-.481.15-.992.6-.992.662,0,2.5,1.528,2.5,2.436a11.229,11.229,0,0,1-1.239,3.526,10.549,10.549,0,0,1-9.157,5.752,6.633,6.633,0,0,1-5.294-2.323c-1.354-1.8-1.5-4.722-1.5-6.925,0-2.383.09-4.752.271-7.135.09-1.385.361-4.278.361-5.511v-.337c0-.446.03-.752.451-.752A25.585,25.585,0,0,1,315.1,1247.525Z" transform="translate(265.351 2.057)" fill="#2a8648"/>
      <path id="Path_3263" data-name="Path 3263" d="M318.528,1249.154c4.4-.271,8.79-.716,13.188-1.233,2.256-.271,4.578-.573,6.835-.933a1.466,1.466,0,0,1,.361-.03c.451,0,.511.39.6.752a18.4,18.4,0,0,1,.241,2.2c0,.656-.632.6-1.324.626a14.6,14.6,0,0,0-5,.638,9.1,9.1,0,0,0-5.15,4.488,11.268,11.268,0,0,0-1.444,5.3c0,3.489,2.262,4.332,5.3,4.332.542,0,1.2-.03,1.5-.03.457,0,.7.03.7.518a7.137,7.137,0,0,1-.548,2.677c-.21.3-.541.3-.872.3-5.12,0-9.512-1.63-9.512-7.5a13.379,13.379,0,0,1,3.309-8.646c.151-.15.541-.542.541-.722,0-.241-.271-.367-.451-.367-.241,0-1.594.217-1.925.277a58.567,58.567,0,0,0-6.654,1.233,2.33,2.33,0,0,1-.451.06c-.722,0-.993-2.857-.993-3.159C316.783,1249.154,317.2,1249.245,318.528,1249.154Z" transform="translate(296.273 2.864)" fill="#2a8648"/>
      <path id="Path_3264" data-name="Path 3264" d="M325.669,1249.505c.692,0,5.872,4.158,5.872,4.91,0,.662-1.5,2.323-2.2,2.323-.241,0-.451-.271-.6-.458a18.655,18.655,0,0,0-4.579-4.091c-.211-.12-.542-.3-.542-.572A4.121,4.121,0,0,1,325.669,1249.505Z" transform="translate(330.585 15.642)" fill="#2a8648"/>
      <path id="Path_3265" data-name="Path 3265" d="M336.463,1250.826a1.08,1.08,0,0,0,1.209-.692,25.266,25.266,0,0,0,1.48-3.284c.084-.241.175-.452.415-.452a13.693,13.693,0,0,1,2.647.638c.427.15.752.295.752.6,0,.336-.271.336-.511.4a.526.526,0,0,0-.481.3c-.325.607-.626,1.209-.963,1.81a.429.429,0,0,0-.084.271c0,.3.241.4.505.422h4.909c.9,0,1.781-.054,2.678-.054,1.36,0,1.6.511,1.6,1.745,0,.626-.06,1.444-.06,2.467v14.512c0,1.089.06,2.135.06,3.188,0,.849-.361.849-1.685.849s-1.66,0-1.66-.849v-.415c0-.578-.241-.818-.812-.818H335.169c-.535,0-.812.21-.812.788v.385c0,.848-.391.848-1.655.848-1.293,0-1.685.03-1.685-.848,0-1.047.06-2.135.06-3.189v-14.451c0-.933-.06-1.841-.06-2.738,0-1.149.481-1.474,1.564-1.474.9,0,1.811.054,2.713.054Zm10.029,5.962a.831.831,0,0,0,.848-.843v-1.384a.831.831,0,0,0-.848-.842H335.115a.842.842,0,0,0-.848.842v1.384a.842.842,0,0,0,.848.843Zm-12.225,4.969a.862.862,0,0,0,.848.843h11.377a.849.849,0,0,0,.848-.843v-1.474a.831.831,0,0,0-.848-.842H335.115a.843.843,0,0,0-.848.842Zm0,6.053a.857.857,0,0,0,.848.842h11.377a.845.845,0,0,0,.848-.842v-1.745a.85.85,0,0,0-.848-.842H335.115a.862.862,0,0,0-.848.842Z" transform="translate(367.682 0.05)" fill="#2a8648"/>
      <path id="Path_3266" data-name="Path 3266" d="M346.99,1252.54c.566,0,.806-.265.806-.836v-2.563a15.62,15.62,0,0,0-.084-2.022.835.835,0,0,1-.036-.3c0-.356.246-.416.547-.416.355,0,2.256.175,2.707.235.241.036.692.066.692.391,0,.217-.151.271-.391.457-.3.241-.331.842-.331,1.805v2.413c0,.572.241.836.842.836h4.849c.963,0,1.931-.054,2.858-.054,1.113,0,1.624.271,1.624,1.444,0,.842-.054,1.684-.054,2.526v13.008c0,1.029.084,2.052.084,3.074,0,.872-.451.806-1.685.806-1.354,0-1.654.036-1.654-.926,0-.482-.21-.692-.692-.692h-15.45c-.481,0-.656.21-.692.692-.03.842-.3.842-1.654.842-1.2,0-1.624.03-1.624-.842,0-1,.06-2.022.06-3.045v-12.917c0-.842-.03-1.685-.03-2.526,0-1.149.512-1.444,1.564-1.444.969,0,1.961.054,2.924.054Zm.806,3.736a.792.792,0,0,0-.806-.842h-5.3a.865.865,0,0,0-.848.842v3.5a.841.841,0,0,0,.848.837h5.3c.511-.054.806-.3.806-.837Zm0,7.984a.8.8,0,0,0-.806-.848h-5.3a.871.871,0,0,0-.848.848v3.73c.06.542.337.842.848.842h5.3c.511-.06.806-.3.806-.842Zm9.217-3.651a.84.84,0,0,0,.842-.837v-3.5a.864.864,0,0,0-.842-.842h-5.27a.86.86,0,0,0-.842.842v3.5a.836.836,0,0,0,.842.837Zm-6.113,7.382c.06.542.331.842.842.842h5.27a.844.844,0,0,0,.842-.842v-3.73a.87.87,0,0,0-.842-.848h-5.27a.866.866,0,0,0-.842.848Z" transform="translate(400.966 0.08)" fill="#2a8648"/>
      <path id="Path_3267" data-name="Path 3267" d="M350.394,1248.1c.247.09.6.211.6.512,0,.18-.12.216-.421.391-.511.271-.632.547-.932,1.3a23.886,23.886,0,0,0-1.691,8.549c0,.572.126,4.218.818,4.218.271,0,.692-.878.812-1.18.181-.39.361-.722.632-.722.3,0,1.083.632,1.083.963,0,.271-1.2,3.009-1.2,4.368,0,.3.09.993.12,1.264a2.729,2.729,0,0,1,.06.451c0,.752-1.715,1.474-2.352,1.474-.511,0-.866-.661-1.263-1.474a20.744,20.744,0,0,1-1.835-9.241,35.837,35.837,0,0,1,1.54-9.969,15.366,15.366,0,0,0,.385-1.5c.066-.271.126-.662.451-.662C347.44,1246.838,349.973,1247.921,350.394,1248.1Zm3.736,14.391a5.138,5.138,0,0,0,4.572,2.113,24.4,24.4,0,0,0,6.624-.969,2.336,2.336,0,0,1,.632-.115c.481,0,.541.722.541,2.256,0,.361.036.9-.355,1.119-.848.451-5.938.9-7.142.9-4.873,0-6.889-2.527-6.889-3.008,0-.421,1.047-2.563,1.618-2.563C353.914,1262.222,354.04,1262.379,354.131,1262.492Zm1.077-13.151a19.931,19.931,0,0,0,3.953.451,19.365,19.365,0,0,0,4.573-.607,2.915,2.915,0,0,1,.541-.09c.421,0,.542.361.608.728a16.231,16.231,0,0,1,.114,1.625c0,.631,0,.873-.566.993a35.328,35.328,0,0,1-5.06.415c-.938,0-4.645-.175-5.27-.6-.337-.211-.3-.848-.3-1.174,0-1.45.144-1.9.626-1.9A3.472,3.472,0,0,1,355.208,1249.341Z" transform="translate(436.934 2.263)" fill="#2a8648"/>
      <path id="Path_3268" data-name="Path 3268" d="M359.351,1255.379c-.572,0-.842.21-.873.782a40.61,40.61,0,0,1-3.339,14.337c-.241.542-1.209,2.737-1.871,2.737-.632,0-2.052-1.173-2.052-1.841a1.3,1.3,0,0,1,.277-.626c2.707-4.223,3.676-9.669,3.971-14.608.03-.542-.241-.752-.752-.782-.451.03-1.745.06-2.136.06-.752,0-.722-.391-.722-1.5,0-1.149-.03-1.571.692-1.571.752,0,1.5.067,2.226.1.577-.03.782-.3.782-.848v-2.166a19.433,19.433,0,0,0-.09-2.256v-.3c0-.4.211-.482.572-.482.451,0,2.232.115,2.713.175.241.03.6.066.6.4,0,.265-.211.361-.391.481-.361.211-.391.536-.391,1.594v2.557c0,.608.241.848.812.848h.511c1,0,1.991-.066,2.954-.066,1.775,0,2.166.848,2.166,2.263,0,4-.181,11.563-.962,15.293-.608,2.773-2.082,3.345-4.729,3.345-.962,0-1.684,0-1.9-.541a6.6,6.6,0,0,1-.271-1.9c0-.511.09-.866.692-.866.114,0,.3.03.451.03a6.264,6.264,0,0,0,1.023.084,1.742,1.742,0,0,0,1.57-.692c.6-1.052.866-5.57.927-6.955.036-.661.15-3.218.15-4.993a6.954,6.954,0,0,0-.114-1.721c-.156-.331-.607-.36-1.2-.36Zm14.933,15.444c0-.566-.27-.776-.812-.776h-2.707c-.548,0-.788.21-.812.776,0,.271.024.512.024.782,0,.819-.325.819-1.528.819-1.149,0-1.5,0-1.5-.819,0-1.172.054-2.375.054-3.579v-13.94c0-.932-.03-1.835-.03-2.773,0-1.2.512-1.564,1.661-1.564.662,0,1.323.03,1.955.03h3.1c.626,0,1.288-.03,1.925-.03,1.474,0,1.715.571,1.715,1.865,0,.663-.06,1.474-.06,2.473v13.97c0,1.174.06,2.377.06,3.55,0,.849-.361.819-1.54.819-1.2,0-1.5,0-1.5-.789Zm-.782-3.579a.861.861,0,0,0,.843-.843v-12.893a.8.8,0,0,0-.843-.806h-2.767a.739.739,0,0,0-.812.806V1266.4a.794.794,0,0,0,.812.843Z" transform="translate(469.01 0.105)" fill="#2a8648"/>
      <path id="Path_3269" data-name="Path 3269" d="M373.205,1266.058c0,.608.277.848.848.848h6.263c1.263,0,2.527-.06,3.79-.06.782,0,.752.361.752,1.564,0,1.174.03,1.571-.752,1.571-1.264,0-2.527-.066-3.79-.066H362.791c-1.263,0-2.527.066-3.79.066-.788,0-.758-.4-.758-1.571,0-1.2,0-1.564.758-1.564,1.263,0,2.527.06,3.79.06h6.263c.6,0,.842-.24.842-.848V1250.71c0-.577-.241-.848-.842-.848h-4.879c-1.2,0-2.376.1-3.586.1-.806,0-.782-.4-.782-1.6s-.024-1.6.782-1.6c1.209,0,2.383.1,3.586.1h14.849c1.2,0,2.407-.1,3.61-.1.812,0,.782.428.782,1.6,0,1.2.03,1.6-.782,1.6-1.2,0-2.406-.1-3.61-.1h-4.97a.743.743,0,0,0-.848.848Z" transform="translate(504.25 1.856)" fill="#2a8648"/>
      <path id="Path_3270" data-name="Path 3270" d="M370.706,1247.525c.21.024.6.151.6.422,0,.21-.181.3-.361.451-1.053.782-1.324,10.331-1.324,12.045,0,2.353-.06,5.993,3.189,5.993a7.634,7.634,0,0,0,5.662-2.918,9.689,9.689,0,0,0,1.841-4.459c.09-.481.144-.992.6-.992.662,0,2.5,1.528,2.5,2.436a11.213,11.213,0,0,1-1.233,3.526,10.549,10.549,0,0,1-9.157,5.752,6.646,6.646,0,0,1-5.3-2.323c-1.348-1.8-1.5-4.722-1.5-6.925,0-2.383.09-4.752.271-7.135.09-1.385.367-4.278.367-5.511v-.337c0-.446.03-.752.451-.752A25.568,25.568,0,0,1,370.706,1247.525Z" transform="translate(544.262 2.057)" fill="#2a8648"/>
      <path id="Path_3271" data-name="Path 3271" d="M374.319,1249.505c.692,0,5.866,4.158,5.866,4.91,0,.662-1.5,2.323-2.2,2.323-.241,0-.445-.271-.6-.458a18.54,18.54,0,0,0-4.579-4.091c-.21-.12-.541-.3-.541-.572A4.122,4.122,0,0,1,374.319,1249.505Z" transform="translate(574.636 15.642)" fill="#2a8648"/>
      <path id="Path_3272" data-name="Path 3272" d="M269.678,1263.5a.91.91,0,0,0,.9-.909l-.03-1.023c-.03-1.142-.06-3.159-.211-4.181a1.875,1.875,0,0,1-.03-.421c0-.3.211-.361.481-.361a23.482,23.482,0,0,1,2.527.3c.7.115.872.181.872.416a.511.511,0,0,1-.174.336c-.337.356-.391.422-.391,1.264,0,.872,0,1.745.03,2.617l.024.993a.916.916,0,0,0,.939.878l1.594-.03c1.053-.03,3.52-.151,3.977-.151.662,0,.776.241.776,1.835,0,1.113-.054,1.354-.927,1.354h-1.661c-.692,0-1.414.03-2.106.03l-1.624.03a.884.884,0,0,0-.908.873l.156,7.016v1.233c0,3.225-.156,5.156-5.511,5.156-.668,0-.993-.1-1.209-.722a6.771,6.771,0,0,1-.421-2.021c0-.3.126-.481.421-.481.03,0,.939.06,1.63.06,1.985,0,1.985-.6,1.985-2.2v-.758l-.09-5.506c-.03-.179-.12-.391-.361-.391a.547.547,0,0,0-.451.271,45.408,45.408,0,0,1-8.1,7.768,6.218,6.218,0,0,1-1.865,1.112c-.572,0-2.2-1.444-2.2-2.051,0-.271.722-.656.993-.807a33.721,33.721,0,0,0,8.82-7.556.986.986,0,0,0,.271-.518c0-.151-.054-.361-.445-.361l-4.609.06c-1.143,0-3.165.15-3.8.15-.6,0-.812-.331-.812-1.5,0-1.414-.06-1.721.843-1.721.692,0,1.39.036,2.076.036.547,0,1.083-.036,1.66-.036Z" transform="translate(0 51.274)" fill="#2a8648"/>
      <path id="Path_3273" data-name="Path 3273" d="M268.783,1267c0,1.348.06,2.738.06,4.092,0,.939-.271,1.052-1.685,1.052s-1.8-.09-1.8-.9c0-1.414.09-2.8.09-4.218v-6.347c0-.819-.066-1.6-.09-2.383,0-.18-.03-.36-.03-.547,0-.211.054-.295.271-.295.3,0,2.166.271,2.587.331.632.12,1.053.12,1.053.391a.628.628,0,0,1-.15.325,2.8,2.8,0,0,0-.331,1.751c0,.457.03,1,.03,1.691Zm11.8-1.179a45.928,45.928,0,0,1-.331,6.42,10.217,10.217,0,0,1-3.67,6.978c-.518.421-2.774,2.106-3.315,2.106-.451,0-2.527-1.5-2.527-2.039,0-.27.571-.511.812-.638,2.948-1.534,4.849-3.249,5.355-6.654a37.024,37.024,0,0,0,.367-5.812v-6.533a15,15,0,0,0-.1-2.076,3.635,3.635,0,0,1-.054-.517c0-.235.12-.3.361-.3a27.794,27.794,0,0,1,2.978.3c.241.066.6.1.6.367,0,.18-.12.27-.271.421a2.5,2.5,0,0,0-.211,1.294Z" transform="translate(38.13 52.02)" fill="#2a8648"/>
      <path id="Path_3274" data-name="Path 3274" d="M273.568,1265.984a34.227,34.227,0,0,1,4.218,2.352c.993.632,1.9,1.089,1.9,1.54s-1.2,2.286-1.835,2.286a1.525,1.525,0,0,1-.662-.331,50.434,50.434,0,0,0-4.879-3.074c-.211-.084-.451-.241-.451-.482C271.853,1267.8,272.966,1265.984,273.568,1265.984Zm19.908-.144a11.041,11.041,0,0,1-.668,1.895,25.807,25.807,0,0,1-5.27,7.828,29.529,29.529,0,0,1-10.294,6.118,1.705,1.705,0,0,0-1,.626c-.114.157-.241.428-.445.428-.307,0-.548-.542-.632-.783-.4-.818-.758-1.63-1.119-2.443a.712.712,0,0,1-.06-.241c0-.24.391-.33.572-.36.933-.241,2.653-.878,3.586-1.234a20.551,20.551,0,0,0,7.5-4.729,22.2,22.2,0,0,0,5.06-8.465c.09-.27.211-.656.6-.656C291.785,1263.824,293.476,1265.3,293.476,1265.84Zm-12.412-4.007c.668.481,1.871,1.233,1.871,1.654,0,.542-1.264,2.2-1.835,2.2-.217,0-.547-.271-.722-.391a46,46,0,0,0-4.4-3.164c-.217-.151-.541-.3-.541-.572,0-.481,1.324-2.111,1.835-2.111C277.725,1259.451,280.523,1261.442,281.064,1261.833Zm6.329-2.917a10.718,10.718,0,0,1,1.925,1.383c.421.361,1.2,1.023,1.2,1.263,0,.451-.933,1.5-1.324,1.5-.181,0-.481-.361-.722-.571-.7-.662-1.42-1.234-2.142-1.835-.12-.091-.271-.21-.271-.361A2.561,2.561,0,0,1,287.394,1258.916Zm2.677-2.594c.331,0,3.165,2.262,3.165,2.647,0,.458-.939,1.51-1.33,1.51-.15,0-.3-.15-.391-.24a27.209,27.209,0,0,0-2.437-2.106c-.12-.126-.331-.241-.331-.427C288.747,1257.381,289.74,1256.322,290.071,1256.322Z" transform="translate(70.883 49.839)" fill="#2a8648"/>
      <path id="Path_3275" data-name="Path 3275" d="M289.214,1264.194c.842,0,.9-.752.9-1.42v-.415c0-.752-.03-4.518-.12-5.03,0-.1-.03-.27-.03-.366a.266.266,0,0,1,.3-.3c.391,0,2.677.24,3.068.325.181.03.457.156.457.366a.438.438,0,0,1-.156.3c-.271.271-.3.45-.3.993v.481c0,1.324-.024,2.646-.024,3.977,0,.572.265,1.083.9,1.083h4.007c1.324,0,2.647-.09,3.977-.09.722,0,.752.355.752,1.714,0,1.294-.181,1.6-.812,1.6-1.294,0-2.623-.066-3.917-.066h-4.272c-.668,0-.873.518-.939,1.059a15.884,15.884,0,0,1-6.353,11.136,11.209,11.209,0,0,1-2.647,1.5,4.791,4.791,0,0,1-2.467-2.2c0-.3.566-.481.806-.6a12.337,12.337,0,0,0,7.292-9.362,7.085,7.085,0,0,0,.12-.788.763.763,0,0,0-.722-.752h-5.968c-1.263,0-2.768.1-3.76.1-.722,0-.812-.427-.812-1.751,0-1.173,0-1.594.752-1.594.872,0,2.617.09,3.82.09Z" transform="translate(104.192 51.574)" fill="#2a8648"/>
      <path id="Path_3276" data-name="Path 3276" d="M293.892,1257.961c.361.06.752.06.752.362,0,.15-.181.306-.3.42-.18.181-.15.692-.15.963v.668c0,6.233-.421,11.533-5.21,16.106-.241.217-.6.631-.933.631-.451,0-2.677-1.113-2.677-1.661,0-.2.241-.415.385-.535,4.578-3.8,5.15-8.008,5.15-13.609,0-.908-.024-2.112-.12-2.984,0-.09-.024-.241-.024-.332,0-.271.174-.33.385-.33C291.726,1257.661,293.261,1257.876,293.892,1257.961Zm7.135,12.587c0,.933.03,1.384.481,1.384.993,0,6.931-5.295,7.894-6.287.15-.156.355-.4.6-.4.517,0,1.54,1.925,1.54,2.412,0,.451-1.173,1.414-1.57,1.745-1.8,1.564-3.61,3.1-5.511,4.518-.806.632-2.106,1.594-2.828,2.227-.271.21-.572.547-.933.547a7.787,7.787,0,0,1-2.076-.909c-.427-.241-.963-.542-.963-1.089,0-.21.12-2.166.12-3.61v-10.535a26.226,26.226,0,0,0-.12-3.074v-.15a.268.268,0,0,1,.295-.3c.187,0,.939.115,1.179.151,1.564.21,2.437.3,2.437.631,0,.211-.12.271-.241.422a1.175,1.175,0,0,0-.271.782c-.03.692-.03,2.2-.03,2.948Z" transform="translate(138.705 53.38)" fill="#2a8648"/>
      <path id="Path_3277" data-name="Path 3277" d="M300.566,1262.38a.784.784,0,0,0,.662-.782,2.851,2.851,0,0,0-.06-.481l-.15-.7c-.18-.812-.421-2.2-.662-2.985a1.02,1.02,0,0,1-.09-.325c0-.4.511-.4,1.263-.427.722-.03,1.444-.054,2.172-.054.181,0,.542,0,.542.265,0,.3-.361.511-.361,1.119,0,.3.3,1.955.361,2.382l.12.505a.919.919,0,0,0,.993.782l2.5-.355c.541-.1,3.856-.638,4.037-.638.542,0,.572.541.662.993a14.109,14.109,0,0,1,.21,1.5c0,.638-.391.668-2.136.878-.6.061-1.354.115-2.316.271l-2.442.361a.771.771,0,0,0-.632.932l.632,3.308a.882.882,0,0,0,.993.729l4.879-.7c.511-.054,3.947-.662,4.1-.662.571,0,.632.452.722,1.119.03.121.03.241.06.391.03.271.09.693.09.933,0,.662-.3.722-2.136.933-.608.06-1.39.151-2.413.3l-4.759.7a.753.753,0,0,0-.632.926l.361,1.992c.15.813,1.023,4.663,1.023,5.114,0,.427-.325.511-.662.638a12.147,12.147,0,0,1-1.986.361c-.571,0-.632-.571-.722-1.24a1.429,1.429,0,0,0-.06-.355c-.211-1.209-.481-2.743-.692-3.922l-.391-2.106a.934.934,0,0,0-1.029-.716l-5.295.752c-.572.084-3.676.626-3.947.626-.421,0-.542-.241-.632-.6a13.979,13.979,0,0,1-.3-1.962c0-.572.391-.632,1.986-.782.6-.06,1.414-.15,2.473-.3l5.18-.752a.753.753,0,0,0,.656-.933l-.6-3.279a.881.881,0,0,0-1.053-.758l-2.647.392c-.541.089-3.917.637-4.1.637-.391,0-.572-.367-.632-.728-.06-.422-.241-1.444-.241-1.805,0-.572.421-.632,1.985-.813.632-.066,1.5-.18,2.593-.337Z" transform="translate(174.147 51.374)" fill="#2a8648"/>
      <path id="Path_3278" data-name="Path 3278" d="M305.456,1263.6a.808.808,0,0,0,.656-1.023l-.3-1.384c-.03-.151-.271-1.21-.481-2.076-.114-.578-.271-1.059-.271-1.119,0-.271.271-.325.481-.355.6-.067,1.444-.127,2.052-.127.331,0,.842.03.842.452a1.015,1.015,0,0,1-.09.331.759.759,0,0,0-.12.337,20.576,20.576,0,0,0,.391,2.076l.271,1.354a.808.808,0,0,0,.963.667l4.879-1c.3-.061,2.527-.541,2.557-.541.481,0,1.931,1.294,1.931,1.865a.79.79,0,0,1-.331.578,20.522,20.522,0,0,0-2.172,2.918c-.331.511-1.534,2.346-1.865,2.684a.78.78,0,0,1-.632.325c-.421,0-2.052-.626-2.052-1.2,0-.24.241-.481.361-.661a18.554,18.554,0,0,0,2.022-2.8.339.339,0,0,0-.331-.337,1.068,1.068,0,0,0-.331.066l-3.465.686a.818.818,0,0,0-.662.788v.211l1.263,6.143c.15.661.722,3.014.722,3.5,0,.385-.241.481-.722.626a8.713,8.713,0,0,1-1.5.27c-.542,0-.692-.571-.9-1.985-.09-.481-.18-1.107-.331-1.841l-1.269-6.137a.794.794,0,0,0-.806-.661c-.066,0-.186.024-.216.024l-2.166.458c-.391.091-3.038.631-3.159.631-.331,0-.457-.181-.578-.452a11.185,11.185,0,0,1-.331-1.744c0-.482.307-.542,2.082-.849.421-.054.9-.144,1.5-.271Z" transform="translate(210.867 55.813)" fill="#2a8648"/>
      <path id="Path_3279" data-name="Path 3279" d="M322.7,1263.416c.692,0,2.076,0,2.707-.054a3.374,3.374,0,0,1,.542-.059,3.582,3.582,0,0,1,2.136,1.985,7.709,7.709,0,0,1-.391,1.233,21.127,21.127,0,0,1-1.745,4.067,25.175,25.175,0,0,1-6.233,7.112c-.842.686-4.091,3.008-5.03,3.008-.692,0-2.076-1.721-2.076-2.232,0-.361.752-.632,1.053-.776a21.729,21.729,0,0,0,9.241-8.556,7.56,7.56,0,0,0,.818-1.962c0-.722-.818-.661-1.3-.661h-11.2c-1.264,0-2.533.066-3.827.066-.842,0-.842-.306-.842-1.48,0-1.534.03-1.745.872-1.745,1.263,0,2.563.054,3.857.054Zm-2.022-6.5c1.233,0,2.774-.085,3.556-.085.752,0,.812.325.812,1.836,0,1.022,0,1.414-.812,1.414-1.2,0-2.383-.06-3.556-.06H313.3c-1.173,0-2.346.06-3.526.06-.842,0-.842-.362-.842-1.474,0-1.421.06-1.776.812-1.776.848,0,2.383.085,3.556.085Z" transform="translate(244.954 52.377)" fill="#2a8648"/>
      <path id="Path_3280" data-name="Path 3280" d="M329.84,1261.447a6.834,6.834,0,0,0,1.685-.181c.09,0,.211-.03.331-.03.6,0,1.925,1.661,1.925,2.046a1.916,1.916,0,0,1-.361.758,18,18,0,0,0-.927,1.625c-2.954,5.722-5.908,10.114-11.449,13.7-.662.422-3.49,2.2-4.121,2.2-.662,0-2.563-1.475-2.563-2.045,0-.295.361-.451.6-.535a26.723,26.723,0,0,0,11.624-9.639c.517-.758,2.322-3.676,2.322-4.428,0-.39-.481-.421-.908-.421h-5.716c-.692,0-.872.3-1.27.842-.565.812-4.031,4.939-4.843,4.939-.361,0-2.563-1.143-2.563-1.781a.478.478,0,0,1,.271-.421,27.859,27.859,0,0,0,8.044-10.776c.12-.307.211-.722.481-.722a9.815,9.815,0,0,1,1.594.656c.271.156,1.805.722,1.805,1.059,0,.144-.151.27-.271.33-.421.151-.511.3-1.023,1.234a4.547,4.547,0,0,0-.542,1.083.486.486,0,0,0,.511.511Z" transform="translate(280.345 51.098)" fill="#2a8648"/>
      <path id="Path_3281" data-name="Path 3281" d="M336.976,1261.483a8.491,8.491,0,0,0,1.835-.157,1.068,1.068,0,0,1,.3-.06c.511,0,1.564,1.564,1.564,2.045a.833.833,0,0,1-.181.452,6.833,6.833,0,0,0-.752,1.48,53.218,53.218,0,0,1-2.864,5.6,1.071,1.071,0,0,0-.211.607c0,.391.277.571.547.782.361.271,1.685,1.173,1.685,1.565,0,.511-1.354,2.286-1.925,2.286a.664.664,0,0,1-.457-.241c-.415-.355-.812-.662-1.234-1.023a1.023,1.023,0,0,0-.662-.3c-.421,0-.752.422-1.023.722a23.937,23.937,0,0,1-6.564,5.084,16.144,16.144,0,0,1-3.646,1.534c-.782,0-2.166-1.925-2.166-2.345,0-.361.511-.452,1.293-.692a21.036,21.036,0,0,0,8.61-5.421,1.154,1.154,0,0,0,.457-.752.733.733,0,0,0-.361-.631c-.692-.451-2.262-1.263-3.014-1.624-.3-.12-.9-.337-.9-.662,0-.427,1.173-2.262,1.835-2.262a22.016,22.016,0,0,1,3.887,1.962,1.267,1.267,0,0,0,.572.174c.572,0,.842-.572,1.655-2.166a4.118,4.118,0,0,1,.18-.415,9.2,9.2,0,0,0,.788-2c0-.626-.788-.6-1.239-.6h-5.752c-.722,0-.933.241-1.324.782a43.579,43.579,0,0,1-3.917,4.633,1.616,1.616,0,0,1-.963.577c-.541,0-2.5-1.264-2.5-1.78,0-.241.271-.446.451-.573a27.764,27.764,0,0,0,7.864-10.811c.084-.24.2-.752.535-.752a6.714,6.714,0,0,1,1.691.728c.271.114,1.775.776,1.775,1.017,0,.186-.15.271-.3.337-.451.174-.481.27-.9.992-.12.211-.277.482-.481.812a1.623,1.623,0,0,0-.241.632c0,.3.271.427.541.457Z" transform="translate(315.084 50.766)" fill="#2a8648"/>
      <path id="Path_3282" data-name="Path 3282" d="M345.691,1258.415c1.384,0,3.339-.1,3.736-.1.812,0,.836.241.836,1.9,0,.969-.024,1.535-.806,1.535-1.269,0-2.533-.054-3.766-.054h-13.85c-1.239,0-2.5.054-3.766.054-.782,0-.812-.566-.812-1.5,0-1.684.06-1.925.842-1.925.391,0,2.467.1,3.736.1Z" transform="translate(348.845 59.856)" fill="#2a8648"/>
      <path id="Path_3283" data-name="Path 3283" d="M347.4,1258.283c0,.18-.211.295-.355.355-.487.187-.608.337-1,1.029a2.018,2.018,0,0,0-.3.692.292.292,0,0,0,.331.3,21.64,21.64,0,0,0,3.489-.842,2.358,2.358,0,0,1,.752-.181c.511,0,.668.481.758.9a9.57,9.57,0,0,1,.235,1.624c0,.512-.963.638-1.589.752-1.9.4-3.8.722-5.691.933a1.075,1.075,0,0,0-.908.488,9.844,9.844,0,0,0-1.023,1.744.237.237,0,0,0,.241.21,1.163,1.163,0,0,0,.547-.18,8.3,8.3,0,0,1,3.279-.782,3.064,3.064,0,0,1,3.429,2.714c.066.271.156.511.457.511a26.85,26.85,0,0,0,3.52-1.72,2.53,2.53,0,0,1,.782-.3c.578,0,1.294,2.322,1.294,2.827,0,.361-.331.488-.9.668-.126.06-.271.084-.427.145-1.2.451-2.376.963-3.55,1.474-.541.217-.782.4-.782,1v.39c0,.933.03,1.836.03,2.774,0,1.077-.156,1.2-1.293,1.2-1.3,0-1.841-.066-1.841-.848,0-.662.06-1.318.06-1.955,0-.271-.09-.512-.391-.512-.15,0-3.255,1.323-3.255,3.189,0,2.022,2.924,2.2,4.368,2.2a22.114,22.114,0,0,0,5.607-.753,3.564,3.564,0,0,1,.6-.06c.4,0,.608.331.608,2.046,0,.9-.03,1.143-.692,1.3a40.016,40.016,0,0,1-5.782.392,11.176,11.176,0,0,1-4.759-.788,4.568,4.568,0,0,1-3.014-4.308c0-2.707,2.2-4.181,4.278-5.415a20.471,20.471,0,0,1,1.865-.992c.3-.151.542-.337.542-.692a4.6,4.6,0,0,0-.144-.848,1.267,1.267,0,0,0-1.33-1.023,10.107,10.107,0,0,0-5.631,2.653,20.007,20.007,0,0,0-2.533,3.519.492.492,0,0,1-.421.3c-.542,0-2.557-1.2-2.557-1.745,0-.241.241-.481.4-.662.686-.752,5.054-6.8,5.054-7.383,0-.27-.235-.354-.662-.354-.481,0-1.173.084-2.106.084-.668,0-.782-.145-.782-1.685,0-1.2.114-1.378.866-1.378.517,0,1.3.054,2.172.054h.872c.782,0,1.6-.024,1.871-.392a16.183,16.183,0,0,0,1.618-3.887c.066-.324.126-.631.427-.631C344.292,1256.442,347.4,1257.826,347.4,1258.283Z" transform="translate(384.136 50.441)" fill="#2a8648"/>
      <path id="Path_3284" data-name="Path 3284" d="M342.553,1271.691c-.6,0-1.775-1.588-1.775-2.1,0-.367.421-.788.662-1.059a31.817,31.817,0,0,0,6.263-11.353c.09-.271.15-.626.512-.626a20.143,20.143,0,0,1,2.082.6c.626.187,1.173.4,1.173.752,0,.216-.277.367-.451.427-.307.114-.367.15-.512.572a34.243,34.243,0,0,1-2.563,5.565c-.03.067-.06.1-.06.156a.288.288,0,0,0,.27.3c.3.03.752.06.752.457,0,.241-.241.361-.421.482-.331.211-.361.632-.361,1.745v10.961c0,1.325.06,2.624.06,3.911,0,.848-.391.969-1.564.969-1.263,0-1.594-.12-1.594-1.023,0-1.294.06-2.563.06-3.857V1269.8c0-.145-.06-.3-.241-.3a.293.293,0,0,0-.241.126C344.244,1270.1,343.185,1271.691,342.553,1271.691Zm14.728-10.084c0,.332.241.452.541.482h6.263c1.107,0,2.2-.09,3.315-.09.752,0,.722.4.722,1.534,0,1.118.03,1.479-.692,1.479-1.119,0-2.238-.066-3.345-.066h-4.549c-.572,0-.812.241-.812.848v1.895c0,.6.241.842.812.842h3.856c1.047,0,2.076-.06,3.129-.06.638,0,.638.332.638,1.474,0,1.089,0,1.451-.638,1.451-.993,0-2.082-.06-3.129-.06h-3.856c-.572,0-.812.24-.812.842v1.685c0,.6.241.842.812.842h3.7c1.089,0,2.2-.053,3.285-.053.638,0,.6.355.6,1.474,0,1.077.036,1.474-.6,1.474-1.083,0-2.2-.1-3.285-.1h-3.7c-.572,0-.812.21-.812.788-.03,1.354.06,2.677.06,4,0,1.27-.3,1.27-1.63,1.27-1.258,0-1.654,0-1.654-1.174,0-1.631.1-3.255.1-4.885v-11.708c-.036-.211-.1-.367-.307-.367-.145,0-.241.126-.331.217-.566.873-3.67,5.325-4.518,5.325a3.261,3.261,0,0,1-1.9-1.89c0-.307.547-.787.752-1a27.581,27.581,0,0,0,6.444-11.143c.1-.3.18-.511.451-.511a21.114,21.114,0,0,1,2.352.812c.481.181.932.307.932.638,0,.24-.331.325-.511.355-.391.157-.517.451-.873,1.329-.186.421-.4.993-.752,1.776A.742.742,0,0,0,357.281,1261.607Z" transform="translate(416.643 50.365)" fill="#2a8648"/>
      <path id="Path_3285" data-name="Path 3285" d="M353.923,1259.3c0,.18-.21.337-.361.391a1.35,1.35,0,0,0-.571.6,11.645,11.645,0,0,0-.872,2.533,15.857,15.857,0,0,0-.391,3.37c0,.24-.03,1.534.295,1.534.241,0,.427-.482.542-.782.156-.331.692-1.624,1.059-1.624.271,0,1.173.541,1.173.932,0,.09-.451,1.149-.722,1.871l-.271.722a11.793,11.793,0,0,0-.993,3.73c0,.422.06.752.06.963,0,.848-1.6,1.2-2.166,1.2-.668,0-.878-.542-1.059-1.108a25.067,25.067,0,0,1-.992-7.021,28.385,28.385,0,0,1,.692-6.173c.181-.752.391-1.474.511-2.226.03-.211.127-.758.391-.758.09,0,1.42.547,1.63.638C352.534,1258.4,353.923,1258.969,353.923,1259.3Zm9.518-2.623c.572,0,.626.367.752.818a40.221,40.221,0,0,1,.932,8.676c0,5.2-.872,9.632-4.669,13.489-.481.482-1.715,1.685-2.412,1.685-.481,0-2.226-1.474-2.226-2.111,0-.241.271-.422.451-.512a11.427,11.427,0,0,0,4.1-4.7,17.716,17.716,0,0,0,1.39-7.587,29.027,29.027,0,0,0-1.059-8.4,1.811,1.811,0,0,1-.06-.39C360.638,1256.978,363.1,1256.677,363.441,1256.677Z" transform="translate(456.147 51.619)" fill="#2a8648"/>
      <path id="Path_3286" data-name="Path 3286" d="M366.466,1256.919c.782.09,1.2.151,1.2.481,0,.572-.511.06-.572,2.5,0,.427.09.878.632.878.12,0,1.293-.186,1.51-.211a32.143,32.143,0,0,0,3.279-.7,8.4,8.4,0,0,1,1.143-.241c.662,0,.752,1.956.752,2.467,0,.608-.271.668-.842.782-1.564.337-3.435.608-5.03.788-.632.09-1.354.06-1.354.9a9.824,9.824,0,0,0,.151,1.594c.06.187.12.481.481.481a25.49,25.49,0,0,0,3.857-.722,1.908,1.908,0,0,1,.572-.121c.421,0,.512.662.512,1.805,0,1-.03,1.294-.572,1.42a26.574,26.574,0,0,1-3.1.512c-1.143.114-1.745.114-1.745.962,0,3.128.12,2.888,1.42,3.315.993.325,4.963,2.016,4.963,3.093,0,.668-.993,2.208-1.715,2.208a1.7,1.7,0,0,1-.938-.481c-.542-.428-2.527-1.842-3.128-1.842-.482,0-.542.452-.6.662-.632,2.593-3.014,3.345-5.451,3.345-2.407,0-5.03-1.119-5.03-3.922,0-3.033,3.285-4,5.782-4,.361,0,1.059.061,1.233.061.511,0,.511-.542.511-.842,0-.969.066-2.076-.686-2.076-.638,0-2.322.114-3.616.114-1.234,0-1.811.03-2.052-.511a6.185,6.185,0,0,1-.391-2.1c0-.367.1-.638.517-.638.355,0,2.045.156,3.189.156h1.36c1.107,0,1.534-.1,1.534-.758,0-.873-.03-2.106-.818-2.106-1.053,0-3.46.15-5.09.15h-.9c-.818,0-1.57-.03-1.751-.27a5.392,5.392,0,0,1-.331-2.2c0-.422.03-.842.541-.842.632,0,3.159.247,4.633.247,2.659,0,3.411.06,3.411-.759,0-.481-.186-2.5-.271-3.008a2.306,2.306,0,0,1-.066-.481c0-.3.181-.367.451-.367C364.5,1256.642,365.924,1256.853,366.466,1256.919Zm-6.721,19.987c0,1.029,1.36,1.216,2.142,1.216,1.384,0,2.563-.4,2.563-2.022,0-.571-.722-.571-1.42-.571C362.1,1275.528,359.745,1275.618,359.745,1276.906Z" transform="translate(489.758 51.444)" fill="#2a8648"/>
      <path id="Path_3287" data-name="Path 3287" d="M367.232,1257.524c.2.036.6.156.6.427,0,.21-.18.3-.355.451-1.059.782-1.33,10.331-1.33,12.045,0,2.353-.06,5.993,3.189,5.993a7.645,7.645,0,0,0,5.668-2.918,9.674,9.674,0,0,0,1.835-4.465c.09-.481.151-.993.6-.993.662,0,2.5,1.541,2.5,2.443a11.217,11.217,0,0,1-1.234,3.526,10.541,10.541,0,0,1-9.157,5.752,6.634,6.634,0,0,1-5.295-2.323c-1.354-1.8-1.5-4.729-1.5-6.925,0-2.377.084-4.753.271-7.135.084-1.385.361-4.278.361-5.511v-.332c0-.45.03-.758.451-.758A26.718,26.718,0,0,1,367.232,1257.524Z" transform="translate(526.834 52.247)" fill="#2a8648"/>
      <path id="Path_3288" data-name="Path 3288" d="M378.6,1257.874c.241.06.481.187.481.488a.517.517,0,0,1-.18.391c-.271.271-.421.361-.421,2.828,0,.573.246.842.662.842a21.207,21.207,0,0,0,3.345-.871,1.56,1.56,0,0,1,.542-.151c.662,0,1.143,1.931,1.143,2.172,0,.385-.391.511-.692.6a20.609,20.609,0,0,1-3.827.848c-.481.09-1.113.12-1.113.9,0,.427.09,2.864.121,3.285.066.511.367.722.848.848.9.234,5.836,1.859,5.836,2.8,0,.512-.872,1.986-1.444,1.986a1.264,1.264,0,0,1-.542-.24c-.662-.452-3.225-1.9-3.917-1.9-.572,0-.572.547-.632.969-.241,2.316-2.376,3.038-4.422,3.038-2.136,0-4.789-.933-4.789-3.49,0-2.292,2.015-3.465,4.031-3.736a10.82,10.82,0,0,1,1.655-.084c.4,0,.728-.186.728-.638,0-.241-.121-2.768-.121-3.315-.06-1.955-.126-5.174-.337-6.985,0-.114-.054-.385-.054-.511,0-.324.241-.451.536-.451C376.374,1257.483,378.208,1257.79,378.6,1257.874Zm-6.444,15.27c0,.932,1.414,1.083,2.106,1.083,1.119,0,2.016-.271,2.016-1.57,0-.867-.355-.867-1.173-.867S372.156,1272,372.156,1273.144Z" transform="translate(561.222 55.663)" fill="#2a8648"/>
      <path id="Path_3289" data-name="Path 3289" d="M392.731,1269.986c0,4.729-3.5,8.465-7.31,10.781a8.981,8.981,0,0,1-2.593,1.119c-.9,0-2.142-2.052-2.142-2.533,0-.3.331-.42.608-.511,3.61-1.143,8.068-4.422,8.068-8.616a3.884,3.884,0,0,0-4.182-4.151c-2.533,0-4.579,1.264-6.45,2.834a1.419,1.419,0,0,1-.632.294c-.722,0-1.685-2.165-1.685-2.857,0-.481.541-.752.9-.933a17.305,17.305,0,0,1,8.038-2.443C389.632,1262.97,392.731,1265.563,392.731,1269.986Zm-12.5-12.8c.126-.271.241-.566.607-.566a1.013,1.013,0,0,1,.482.18,31.416,31.416,0,0,0,7.526,1.5c.421.03.752.03.752.482a12.947,12.947,0,0,1-.3,1.835c-.151.6-.337.9-.818.9a63.388,63.388,0,0,1-6.919-1.354c-1.269-.331-1.925-.481-1.925-.962A7,7,0,0,1,380.235,1257.189Z" transform="translate(595.409 51.349)" fill="#2a8648"/>
      <path id="Path_3290" data-name="Path 3290" d="M391.016,1263.543a4.181,4.181,0,1,1-4.181-4.188A4.2,4.2,0,0,1,391.016,1263.543Zm-6.859,0a2.677,2.677,0,1,0,5.355,0,2.647,2.647,0,0,0-2.677-2.684A2.685,2.685,0,0,0,384.157,1263.543Z" transform="translate(626.707 65.054)" fill="#2a8648"/>
    </g>
    <g id="Group_2115" data-name="Group 2115" transform="translate(7289.646 691.381)">
      <path id="Path_3583" data-name="Path 3583" d="M298.856,1313.631l-.5-.5,5.105-5.093-5.105-5.09.5-.505,5.09,5.109,5.093-5.109.5.505-5.105,5.09,5.105,5.093-.5.5-5.093-5.109Zm2.119-5.595a1.311,1.311,0,1,1-1.3-1.3A1.312,1.312,0,0,1,300.976,1308.036Zm4.277-4.277a1.3,1.3,0,1,1-1.306-1.319A1.311,1.311,0,0,1,305.252,1303.759Zm0,8.55a1.3,1.3,0,1,1-1.306-1.3A1.3,1.3,0,0,1,305.252,1312.309Zm4.289-4.273a1.312,1.312,0,1,1-1.319-1.3A1.316,1.316,0,0,1,309.541,1308.036Z" transform="translate(0 1.112)" fill="#2a8648"/>
      <path id="Path_3584" data-name="Path 3584" d="M313.406,1302.756a3.829,3.829,0,0,0,.675-.035c.1,0,.251-.032.348-.032.33,0,1,.867,1,1.071a3.122,3.122,0,0,1-.345.616c-.094.138-.188.295-.251.4a23.409,23.409,0,0,1-2.044,2.99.415.415,0,0,0,.11.672,25.587,25.587,0,0,1,2.656,2.028c.377.33.769.694,1.13,1.071a.291.291,0,0,1,.11.216c0,.333-.863,1.259-1.193,1.259a.52.52,0,0,1-.393-.238,16.884,16.884,0,0,0-3.473-3.108.562.562,0,0,0-.364-.141.743.743,0,0,0-.468.267,17.516,17.516,0,0,1-3.931,2.75,2.623,2.623,0,0,1-.691.3c-.33,0-1.055-1.052-1.055-1.338,0-.188.191-.267.333-.314a15.574,15.574,0,0,0,7.008-5.957,1.516,1.516,0,0,0,.267-.533c0-.236-.22-.268-.455-.268h-3.253c-.675,0-1.353.032-2.029.032-.424,0-.392-.235-.392-.958,0-.553-.016-.788.377-.788.678,0,1.353.035,2.044.035Z" transform="translate(14.72 1.647)" fill="#2a8648"/>
      <path id="Path_3585" data-name="Path 3585" d="M320.837,1304.652a3.786,3.786,0,0,0,.882-.094c.044,0,.107-.016.17-.016.314,0,1.008.864,1.008,1.071a1.042,1.042,0,0,1-.188.393,8.625,8.625,0,0,0-.487.844c-1.542,2.986-3.083,5.281-5.975,7.153a10.55,10.55,0,0,1-2.151,1.146c-.345,0-1.334-.769-1.334-1.068,0-.157.188-.236.314-.283a13.926,13.926,0,0,0,6.063-5.027,9.543,9.543,0,0,0,1.212-2.314c0-.2-.251-.22-.471-.22h-2.986c-.361,0-.455.161-.659.443-.3.421-2.107,2.575-2.531,2.575-.188,0-1.334-.6-1.334-.927a.246.246,0,0,1,.141-.22,14.554,14.554,0,0,0,4.195-5.624c.063-.16.11-.38.251-.38a5.25,5.25,0,0,1,.832.345c.141.079.945.377.945.553,0,.075-.079.141-.141.169-.223.082-.267.157-.537.644a2.374,2.374,0,0,0-.283.568c0,.173.11.251.267.267Z" transform="translate(29.99 0.396)" fill="#2a8648"/>
      <path id="Path_3586" data-name="Path 3586" d="M321.493,1307.634c0,.707.031,1.428.031,2.138,0,.487-.141.55-.882.55s-.942-.047-.942-.474c0-.738.047-1.46.047-2.2v-3.319c0-.42-.032-.828-.047-1.237,0-.094-.016-.192-.016-.286s.031-.157.141-.157c.157,0,1.13.141,1.353.172.33.063.549.063.549.2a.36.36,0,0,1-.078.176,1.442,1.442,0,0,0-.173.91c0,.236.016.519.016.88Zm6.16-.612a23.841,23.841,0,0,1-.173,3.344,5.337,5.337,0,0,1-1.918,3.649,7.189,7.189,0,0,1-1.73,1.1c-.236,0-1.319-.785-1.319-1.067,0-.141.3-.267.424-.33a4.436,4.436,0,0,0,2.8-3.473,19.689,19.689,0,0,0,.188-3.036V1303.8a8.311,8.311,0,0,0-.047-1.083,1.624,1.624,0,0,1-.031-.267c0-.129.063-.16.189-.16a13.1,13.1,0,0,1,1.557.16c.126.031.314.044.314.185,0,.1-.063.141-.141.223a1.3,1.3,0,0,0-.11.675Z" transform="translate(45.643 0.792)" fill="#2a8648"/>
      <path id="Path_3587" data-name="Path 3587" d="M335.64,1303.9c.722,0,1.746-.047,1.95-.047.424,0,.439.126.439.989,0,.5-.016.8-.424.8-.662,0-1.319-.034-1.966-.034h-7.228c-.644,0-1.3.034-1.966.034-.408,0-.424-.3-.424-.788,0-.879.031-1,.44-1,.207,0,1.29.047,1.95.047Z" transform="translate(59.208 4.134)" fill="#2a8648"/>
      <path id="Path_3588" data-name="Path 3588" d="M344.645,1306.343c0,.267-.628.88-.832,1.083a27.338,27.338,0,0,1-8.534,5.925c-.518.251-.534.267-.659.534a.157.157,0,0,1-.157.094c-.173,0-.5-.628-.612-.816a4.386,4.386,0,0,1-.471-.942c0-.175.283-.206.487-.267a21.528,21.528,0,0,0,9.633-6.839.387.387,0,0,1,.267-.172C344.08,1304.943,344.645,1306.107,344.645,1306.343Zm-8.107-2.593c.2.141.958.663.958.9,0,.361-.738,1.209-1.036,1.209a1.7,1.7,0,0,1-.628-.421,19.167,19.167,0,0,0-2.091-1.464c-.126-.078-.251-.156-.251-.3,0-.236.628-1.24.989-1.24A12.3,12.3,0,0,1,336.538,1303.749Z" transform="translate(74.949 1.093)" fill="#2a8648"/>
      <path id="Path_3589" data-name="Path 3589" d="M341.009,1305.729a13.835,13.835,0,0,1,1.95,1.086c.424.251,1.225.688,1.225.942,0,.282-.628,1.208-.942,1.208a.863.863,0,0,1-.361-.17,27.871,27.871,0,0,0-2.5-1.589c-.11-.063-.267-.125-.267-.266C340.114,1306.69,340.71,1305.729,341.009,1305.729Zm.518,6.741a18.645,18.645,0,0,0,1.871-.628,10.564,10.564,0,0,0,3.912-2.468A13.189,13.189,0,0,0,350,1304.63c.063-.157.126-.376.33-.376.235,0,1.177.867,1.177,1.177a3.519,3.519,0,0,1-.2.615c-.031.11-.079.186-.094.252a13.885,13.885,0,0,1-2.908,4.446,15.091,15.091,0,0,1-5.372,3.174.872.872,0,0,0-.6.455.188.188,0,0,1-.154.094c-.176,0-.3-.346-.392-.533l-.521-1.131a.389.389,0,0,1-.031-.141C341.229,1312.534,341.433,1312.5,341.527,1312.471Zm3.017-9.175c.33.235.9.628,1.177.864a.356.356,0,0,1,.176.266c0,.282-.662,1.162-.945,1.162a.811.811,0,0,1-.393-.2,23.594,23.594,0,0,0-2.311-1.67c-.11-.06-.267-.154-.267-.3,0-.223.678-1.086.961-1.086a6.594,6.594,0,0,1,1.366.8A2.243,2.243,0,0,1,344.544,1303.3Z" transform="translate(89.361 0.888)" fill="#2a8648"/>
      <path id="Path_3590" data-name="Path 3590" d="M353.348,1303.451c.3,0,.612-.019.926-.019.754,0,.863.236.863.883,0,.232-.016.549-.016.91v4.838c0,.333.016.678.016,1.008,0,.5-.141.534-.691.534-.628,0-.706-.032-.785-.346-.032-.176-.157-.176-.487-.176h-3.692c-.553,0-1.2.019-1.557.019-.377,0-.377-.271-.377-.848,0-.286-.016-.615.345-.615.283,0,1,.031,1.573.031H353.3a.355.355,0,0,0,.361-.361v-.989a.367.367,0,0,0-.361-.364h-3.68c-.55,0-1.24.034-1.57.034-.377,0-.345-.33-.345-.848,0-.3-.031-.6.345-.6.345,0,1,.034,1.557.034H353.3a.357.357,0,0,0,.361-.361v-.992a.369.369,0,0,0-.361-.377H349.5c-.468,0-1.146.032-1.539.032-.361,0-.377-.251-.377-.694s-.031-.769.345-.769c.3,0,1.039.035,1.557.035Z" transform="translate(105.271 3.201)" fill="#2a8648"/>
      <path id="Path_3591" data-name="Path 3591" d="M355.588,1304.332c.173.2.534.77.694,1.021a5.7,5.7,0,0,1,.675,1.24c0,.33-.945.725-1.13.725-.16,0-.239-.144-.3-.266a15.64,15.64,0,0,0-1.13-1.906.556.556,0,0,1-.126-.279c0-.283.848-.675,1.052-.675A.337.337,0,0,1,355.588,1304.332Zm7.78-.25c.126.044.283.125.283.279,0,.113-.11.176-.188.239-.125.094-.141.141-.2.33a11.765,11.765,0,0,1-2.154,4.4,9,9,0,0,1-4.273,2.732,2.787,2.787,0,0,1-.487.126c-.3,0-.882-.863-.882-1.084,0-.176.094-.235.251-.282a7.686,7.686,0,0,0,4.873-3.319,9.116,9.116,0,0,0,1.287-3.564c.016-.141.031-.317.2-.317A10.391,10.391,0,0,1,363.368,1304.082Zm-3.928.345a6.245,6.245,0,0,1,.706,1.288c0,.314-.911.725-1.133.725-.157,0-.251-.176-.314-.3a16.585,16.585,0,0,0-1.1-1.853.531.531,0,0,1-.141-.317c0-.264.848-.656,1.052-.656.22,0,.518.437.788.88Z" transform="translate(119.651 2.979)" fill="#2a8648"/>
      <path id="Path_3592" data-name="Path 3592" d="M364.642,1306.627a10.82,10.82,0,0,1,2.2,1.507c.22.189,1.1.867,1.1,1.134s-.741,1.08-1.055,1.08a.581.581,0,0,1-.345-.2,22.916,22.916,0,0,0-2.28-1.84.279.279,0,0,0-.157-.063c-.141,0-.188.126-.188.251v4.292c0,.628.031,1.24.031,1.868,0,.722-.016.817-.977.817-.628,0-.895-.016-.895-.534,0-.706.047-1.413.047-2.122v-8.954c0-.412-.031-.835-.047-1.228,0-.078-.016-.22-.016-.283,0-.156.05-.235.2-.235.1,0,.427.047.537.063.706.094,1.35.161,1.35.377a.447.447,0,0,1-.079.2,1.268,1.268,0,0,0-.173.835c0,.235.016.534.016.926v2.358c0,.125.078.157.126.157a.165.165,0,0,0,.141-.066C364.3,1306.847,364.469,1306.627,364.642,1306.627Z" transform="translate(136.331 0.417)" fill="#2a8648"/>
      <path id="Path_3593" data-name="Path 3593" d="M376.193,1305.263c.345,0,.691-.031,1.036-.031.487,0,.722.141.722.659,0,.314-.016.628-.016.961v3.536c0,.314.016.643.016.957,0,.5-.22.663-.691.663-.361,0-.722-.035-1.067-.035h-3.677c-.345,0-.694.035-1.039.035-.487,0-.722-.141-.722-.663,0-.329.031-.643.031-.957v-3.536c0-.317-.031-.628-.031-.961,0-.5.22-.659.707-.659.345,0,.709.031,1.055.031h.6c.314,0,.44-.125.44-.44v-.753c0-.3-.126-.44-.44-.44H369.75c-.647,0-1.291.044-1.95.044-.377,0-.377-.2-.377-.769s0-.785.377-.785c.659,0,1.3.031,1.95.031h9.256c.644,0,1.3-.031,1.947-.031.392,0,.38.207.38.785s0,.769-.38.769c-.644,0-1.287-.044-1.947-.044h-3.347c-.317,0-.443.141-.443.44v.753c0,.315.126.44.443.44Zm2.939,1.444c0-.439-.031-.91-.063-1.319,0-.047-.016-.11-.016-.157,0-.189.157-.2.3-.2.283,0,.989.05,1.319.063.126.016.4.016.4.2,0,.11-.066.141-.192.22-.173.141-.188.486-.188,1v6.509c0,.719.047,1.428.047,2.151,0,.49-.173.5-.816.5-.722,0-.816-.028-.832-.53-.016-.255-.11-.364-.364-.364h-8.735c-.251,0-.361.11-.361.364v.091c0,.471-.22.471-.835.471-.644,0-.816-.016-.816-.5,0-.71.047-1.4.047-2.106v-6.412c0-.436-.028-.926-.063-1.3,0-.06-.015-.11-.015-.157,0-.189.141-.2.282-.2.286,0,1.024.05,1.322.063.141.016.408.016.408.2,0,.11-.079.157-.189.22-.173.125-.188.458-.188.977v6.38c0,.314.126.439.439.439h8.676c.314,0,.44-.125.44-.439Zm-5.941,1.181a.452.452,0,0,0,.44-.443v-.393a.413.413,0,0,0-.44-.421h-.565a.388.388,0,0,0-.427.421v.393a.421.421,0,0,0,.427.443Zm.44,1.664a.444.444,0,0,0-.44-.436h-.565a.414.414,0,0,0-.427.436v.615a.419.419,0,0,0,.427.44h.565a.449.449,0,0,0,.44-.44Zm1.46-2.107a.452.452,0,0,0,.443.443h.6a.418.418,0,0,0,.424-.443v-.393c-.031-.267-.157-.421-.424-.421h-.6a.414.414,0,0,0-.443.421Zm.443,1.671a.445.445,0,0,0-.443.436v.615a.45.45,0,0,0,.443.44h.6a.416.416,0,0,0,.424-.44v-.615a.43.43,0,0,0-.424-.436Z" transform="translate(147.798 0.428)" fill="#2a8648"/>
      <path id="Path_3594" data-name="Path 3594" d="M377.794,1306.652c0,.126-.126.191-.2.251-.157.11-.173.348-.173.911v5.661c0,.691.031,1.378.031,2.073,0,.443-.141.518-.754.518-.6,0-.753-.094-.753-.534,0-.691.031-1.382.031-2.057v-4.383c0-.066-.031-.141-.11-.141-.141,0-.141.107-.223.185-.138.189-.342.487-.518.487-.279,0-.879-.816-.879-1.146,0-.172.236-.455.348-.6a17.039,17.039,0,0,0,2.606-5.6c.047-.173.063-.33.251-.33a5.664,5.664,0,0,1,.879.283c.455.156.741.267.741.443,0,.107-.126.169-.223.2-.188.079-.2.125-.3.427a26.223,26.223,0,0,1-1.193,2.908c-.016.012-.016.044-.016.06a.148.148,0,0,0,.141.16C377.606,1306.467,377.794,1306.479,377.794,1306.652Zm3.664,2.169c0-.078-.079-.109-.145-.109-.345,0-.691.016-1.036.016-.44,0-.722-.078-.722-.581,0-.223.016-.44.016-.741v-.235a.138.138,0,0,0-.141-.157c-.031,0-.047.016-.078.016-.345.066-1.115-.612-1.115-.863,0-.11.125-.233.279-.392a13.3,13.3,0,0,0,2.5-3.567c.047-.094.078-.2.2-.2a9.429,9.429,0,0,1,.961.236c.173.047.738.176.738.345,0,.11-.126.141-.2.157-.079.031-.251.079-.251.192,0,.091.11.141.188.141h1.539c.251,0,.5-.035.754-.035a.919.919,0,0,1,.929.722c0,.251-.471.8-.628,1.008a.258.258,0,0,0-.063.157c0,.141.11.173.22.188h.6c.361,0,.722-.031,1.083-.031.424,0,.722.078.722.581,0,.219-.013.455-.013.753v.989c0,.3.013.518.013.741,0,.486-.264.581-.706.581-.361,0-.738-.016-1.1-.016h-.173c-.173.016-.345.078-.345.283a.368.368,0,0,0,.031.126,5.848,5.848,0,0,0,.235.706.287.287,0,0,0,.267.2.34.34,0,0,0,.22-.075c.377-.286.565-.471.895-.754a.254.254,0,0,1,.2-.128c.11,0,.487.423.725.69.075.082.138.157.169.192a.576.576,0,0,1,.173.314c0,.095-.075.125-.154.125a.363.363,0,0,1-.125-.031c-.034,0-.079-.016-.126-.016a.259.259,0,0,0-.176.059c-.424.318-.455.38-.989.757a.405.405,0,0,0-.2.33.433.433,0,0,0,.079.251,13.415,13.415,0,0,0,1.589,2.06c.141.153.267.264.267.392,0,.264-.741.848-1.055.848s-1.287-1.382-1.476-1.68a14.116,14.116,0,0,1-1.981-4.4c-.047-.145-.094-.207-.251-.239a.622.622,0,0,0-.283.11l-.236.173a.37.37,0,0,0-.141.251.354.354,0,0,0,.126.267,5.764,5.764,0,0,1,1.743,4.2c0,1.9-.879,2.355-2.637,2.355-.757,0-.929-.059-.929-1,0-.252.019-.408.3-.408.188,0,.537.031.867.031.754,0,.864-.565.864-1.193,0-.141-.047-.317-.22-.317a.278.278,0,0,0-.157.05,19.429,19.429,0,0,1-3.363,1.915,2.773,2.773,0,0,1-.754.267c-.3,0-.694-.613-.694-.879,0-.192.207-.251.474-.361a18.742,18.742,0,0,0,4.242-2.263.277.277,0,0,0,.126-.236.359.359,0,0,0-.3-.349.388.388,0,0,0-.236.082,18.168,18.168,0,0,1-2.719,1.557,4.957,4.957,0,0,1-1.024.392c-.279,0-.594-.537-.594-.788,0-.173.189-.235.44-.33a17.265,17.265,0,0,0,3.316-1.7.335.335,0,0,0,.173-.279c0-.126-.113-.3-.254-.3a.249.249,0,0,0-.11.031,16.671,16.671,0,0,1-3,1.429c-.3,0-.663-.534-.663-.816,0-.176.126-.22.49-.345a15.426,15.426,0,0,0,2.75-1.338A.119.119,0,0,0,381.458,1308.822Zm1.523-2.1a.419.419,0,0,0-.44-.428h-1.055a.419.419,0,0,0-.44.428v.36a.449.449,0,0,0,.44.44h1.055a.449.449,0,0,0,.44-.44Zm-.942-2.5a.565.565,0,0,0-.553.282,2.64,2.64,0,0,0-.173.267.22.22,0,0,0-.047.141c0,.138.113.189.239.2h1.319a.59.59,0,0,0,.565-.267c.063-.094.3-.393.3-.5,0-.141-.141-.125-.314-.125Zm2.276,2.86a.45.45,0,0,0,.44.44h1.118a.416.416,0,0,0,.424-.44v-.36c-.031-.267-.157-.428-.424-.428h-1.118a.419.419,0,0,0-.44.428Z" transform="translate(162.392 0.075)" fill="#2a8648"/>
      <path id="Path_3595" data-name="Path 3595" d="M392.195,1304.082a5.311,5.311,0,0,1,1.585,3.865,5.644,5.644,0,0,1-3.064,5.078,6.11,6.11,0,0,1-1.714.628c-.4,0-1.052-.973-1.052-1.322,0-.153.236-.185.392-.22,2.06-.486,3.677-1.836,3.677-4.085a3.809,3.809,0,0,0-2.512-3.755,2.756,2.756,0,0,0-.6-.142c-.364,0-.364.345-.377.612-.176,2.3-.725,5.093-2.232,6.9a2.816,2.816,0,0,1-2.076,1.206,2.533,2.533,0,0,1-2.138-1.492,4.928,4.928,0,0,1-.484-2.23,6.473,6.473,0,0,1,6.518-6.6A5.6,5.6,0,0,1,392.195,1304.082Zm-6.113.455a4.863,4.863,0,0,0-2.829,4.525c0,.583.2,2.044,1,2.044.785,0,1.664-1.79,2.107-3.395a16,16,0,0,0,.5-3.064c0-.158-.078-.283-.251-.283A1.758,1.758,0,0,0,386.081,1304.538Z" transform="translate(178.144 1.294)" fill="#2a8648"/>
      <path id="Path_3596" data-name="Path 3596" d="M392.448,1306.63c-.3,0-.443.11-.458.405a21.178,21.178,0,0,1-1.743,7.482c-.129.282-.631,1.429-.977,1.429-.33,0-1.068-.612-1.068-.958a.669.669,0,0,1,.141-.329,16.078,16.078,0,0,0,2.076-7.623c.016-.28-.126-.393-.393-.405-.239.012-.914.028-1.118.028-.393,0-.377-.2-.377-.785s-.016-.816.361-.816c.393,0,.788.031,1.165.047.3-.016.408-.158.408-.44v-1.134a10.129,10.129,0,0,0-.047-1.178v-.157c0-.2.11-.251.3-.251.236,0,1.162.062,1.413.094.126.012.317.032.317.2,0,.141-.11.191-.207.251-.189.11-.2.283-.2.835v1.334c0,.314.125.44.427.44h.267c.518,0,1.036-.035,1.539-.035.926,0,1.13.443,1.13,1.181a51.29,51.29,0,0,1-.5,7.982c-.314,1.447-1.083,1.745-2.468,1.745-.5,0-.879,0-.989-.282a3.426,3.426,0,0,1-.141-.989c0-.267.047-.455.361-.455.063,0,.157.016.236.016a2.963,2.963,0,0,0,.534.047.909.909,0,0,0,.819-.361,14.8,14.8,0,0,0,.487-3.633c.016-.342.079-1.68.079-2.606a3.429,3.429,0,0,0-.063-.9c-.078-.173-.314-.185-.628-.185Zm7.793,8.06c0-.3-.141-.408-.424-.408H398.4c-.283,0-.408.109-.424.408,0,.141.016.267.016.408,0,.427-.173.427-.8.427-.6,0-.788,0-.788-.427,0-.615.035-1.243.035-1.871v-7.272c0-.49-.016-.961-.016-1.447,0-.628.267-.816.864-.816.345,0,.691.015,1.02.015h1.62c.33,0,.675-.015,1-.015.769,0,.895.3.895.973,0,.345-.031.769-.031,1.29v7.291c0,.609.031,1.237.031,1.853,0,.439-.188.427-.8.427-.628,0-.785,0-.785-.411Zm-.408-1.872a.447.447,0,0,0,.439-.437v-6.729a.417.417,0,0,0-.439-.424h-1.448a.388.388,0,0,0-.424.424v6.729a.414.414,0,0,0,.424.437Z" transform="translate(192.265 0.053)" fill="#2a8648"/>
      <path id="Path_3597" data-name="Path 3597" d="M403.037,1312.368c0,.317.141.442.44.442h3.268c.659,0,1.322-.031,1.981-.031.408,0,.392.185.392.816,0,.612.016.816-.392.816-.66,0-1.322-.031-1.981-.031H397.6c-.659,0-1.319.031-1.978.031-.408,0-.392-.2-.392-.816,0-.631,0-.816.392-.816.659,0,1.319.031,1.978.031h3.268c.317,0,.443-.125.443-.442v-8.013c0-.3-.126-.44-.443-.44h-2.543c-.628,0-1.243.047-1.871.047-.424,0-.408-.2-.408-.832s-.016-.835.408-.835c.628,0,1.243.05,1.871.05h7.746c.628,0,1.259-.05,1.887-.05.424,0,.408.219.408.835s.016.832-.408.832c-.628,0-1.259-.047-1.887-.047h-2.593a.383.383,0,0,0-.44.44Z" transform="translate(207.297 0.802)" fill="#2a8648"/>
      <path id="Path_3598" data-name="Path 3598" d="M403.376,1305.043c.364,0,3.068,2.167,3.068,2.559,0,.348-.788,1.212-1.149,1.212-.126,0-.235-.142-.314-.236a9.707,9.707,0,0,0-2.389-2.138c-.11-.059-.283-.157-.283-.295A2.149,2.149,0,0,1,403.376,1305.043Z" transform="translate(222.448 6.683)" fill="#2a8648"/>
      <path id="Path_3599" data-name="Path 3599" d="M411.334,1308.529c-.314,0-.44.142-.44.443v1.759c0,.314.126.439.44.439h1.557c.6,0,1.193-.031,1.79-.031.4,0,.377.172.377.769s.019.769-.361.769c-.612,0-1.209-.028-1.805-.028h-1.557c-.314,0-.424.126-.44.437.016.348.032.678.032,1.02,0,.412-.173.4-.8.4-.647,0-.816.016-.816-.4,0-.577.028-1.177.028-1.773v-6.126c0-.521-.016-1.023-.016-1.541,0-.9.283-.942.914-1.1a12.676,12.676,0,0,0,3.536-1.51.538.538,0,0,1,.251-.107c.157,0,.283.157.5.44a7.436,7.436,0,0,1,.816,1.1.2.2,0,0,1-.188.2.4.4,0,0,1-.173-.066.65.65,0,0,0-.22-.063,1.323,1.323,0,0,0-.487.192,20.015,20.015,0,0,1-2.955,1.1c-.392.126-.424.173-.424.581v1.225c0,.3.126.442.44.442h1.648c.568,0,1.149-.05,1.73-.05.377,0,.364.176.364.769s.013.741-.364.741c-.581,0-1.162-.032-1.73-.032Zm9.131-3.928c0-.318-.126-.443-.44-.443h-1.934c-.314,0-.439.125-.439.443v8.97c0,.678.031,1.354.031,2.029,0,.427-.173.427-.848.427-.659,0-.863,0-.863-.427,0-.675.044-1.35.044-2.029v-8.814c0-.458-.028-.91-.028-1.369,0-.6.3-.738.848-.738.377,0,.754.035,1.115.035h2.138c.361,0,.738-.035,1.1-.035.553,0,.863.141.863.738,0,.443-.031.866-.031,1.307v5.281c0,.393.05.785.05,1.177,0,1.523-.455,2.013-2.534,2.013-.377,0-.644-.016-.754-.317a3.117,3.117,0,0,1-.173-.926c0-.22.078-.392.33-.392.3,0,.584.031.882.031.628,0,.644-.361.644-1.068Z" transform="translate(237.429 0.053)" fill="#2a8648"/>
      <path id="Path_3600" data-name="Path 3600" d="M419.152,1306.635c-.314,0-.44.122-.44.44v.094a23.393,23.393,0,0,1-1.149,7.667c-.141.377-.173.534-.44.534s-1.146-.377-1.146-.676a1.588,1.588,0,0,1,.11-.361,16.221,16.221,0,0,0,.832-3.331,25.51,25.51,0,0,0,.3-3.943v-2.437c0-.471-.031-.942-.031-1.416,0-.577.235-.769.8-.769.393,0,.769.032,1.146.032h3.394c.377,0,.754-.032,1.13-.032.581,0,.82.176.82.769,0,.392-.032.785-.032,1.165v.358c0,.38.032.756.032,1.133,0,.6-.2.8-.8.8-.392,0-.769-.032-1.146-.032Zm3.818-2.343a.443.443,0,0,0-.44-.442h-3.378a.443.443,0,0,0-.44.442v.5a.449.449,0,0,0,.44.44h3.378a.449.449,0,0,0,.44-.44Zm-.628,3.818c0,.3.126.408.408.408.361.016.706-.031,1.052-.031.411,0,.741.063.741.553,0,.327-.016.672-.016,1.036v2.057c0,.3.028.613.028.911,0,1.149-.377,1.507-1.523,1.507-.33,0-.581-.012-.581-1.08,0-.349.094-.408.267-.408.078,0,.173.016.282.016.236,0,.251-.223.251-.474v-2.327c0-.267-.126-.374-.377-.374h-.22c-.267,0-.377.106-.377.374v3.46c0,.612.031,1.225.031,1.84,0,.4-.126.437-.694.437-.6,0-.722-.044-.722-.437,0-.615.034-1.228.034-1.84v-3.46c0-.267-.11-.374-.364-.374h-.11c-.267,0-.377.106-.377.374v2.408c0,.534.032,1.068.032,1.614,0,.412-.11.427-.628.427s-.644-.015-.644-.408c0-.552.016-1.1.016-1.633v-2.594c0-.349-.016-.691-.016-1.051,0-.49.33-.553.738-.553.282,0,.581.031.863.031.283-.016.392-.125.408-.408,0-.238-.028-.6-.044-.816,0-.05-.019-.094-.019-.141,0-.175.144-.191.27-.191.22,0,.989.066,1.24.082.126.016.408.016.408.2,0,.125-.094.16-.189.223-.157.11-.173.22-.173.424Zm3.08-2.829a6.936,6.936,0,0,0-.063-1.162v-.144c0-.157.125-.169.251-.169.189,0,1.068.063,1.287.078.126.016.345.016.345.188,0,.11-.094.154-.2.236-.157.094-.173.186-.173.754v5.533c0,.6.031,1.193.031,1.789,0,.427-.141.443-.754.443s-.769-.016-.769-.443c0-.6.047-1.193.047-1.789Zm2.594-1.664c0-.443-.031-.977-.063-1.307,0-.047-.016-.094-.016-.141,0-.173.141-.192.283-.192.173,0,1.224.051,1.413.066.11.016.267.066.267.2,0,.113-.11.173-.2.236-.173.129-.188.314-.188.957v9.636c0,.377.031.753.031,1.146,0,1.538-1.1,1.774-2.405,1.774-.565,0-.989.047-.989-1.209,0-.251.016-.505.346-.505.173,0,.518.051.851.051.675,0,.675-.251.675-1.146Z" transform="translate(251.7 0.126)" fill="#2a8648"/>
      <path id="Path_3601" data-name="Path 3601" d="M426.4,1302.712c.107.016.311.079.311.22,0,.113-.094.157-.185.239-.553.405-.694,5.388-.694,6.286,0,1.225-.031,3.128,1.664,3.128a3.983,3.983,0,0,0,2.958-1.526,5.038,5.038,0,0,0,.958-2.327c.047-.251.079-.518.314-.518.345,0,1.3.8,1.3,1.272a5.815,5.815,0,0,1-.644,1.839,5.494,5.494,0,0,1-4.776,3,3.471,3.471,0,0,1-2.766-1.209,6.359,6.359,0,0,1-.785-3.618c0-1.24.044-2.48.141-3.72.044-.725.188-2.232.188-2.876v-.176c0-.232.016-.392.236-.392A13.961,13.961,0,0,1,426.4,1302.712Z" transform="translate(268.981 0.888)" fill="#2a8648"/>
      <path id="Path_3602" data-name="Path 3602" d="M431.132,1303.641c2.292-.142,4.587-.374,6.879-.644,1.18-.141,2.389-.295,3.57-.483a.614.614,0,0,1,.185-.019c.239,0,.267.207.317.392a9.623,9.623,0,0,1,.126,1.149c0,.345-.33.314-.694.33a7.67,7.67,0,0,0-2.606.33,4.753,4.753,0,0,0-2.688,2.343,5.851,5.851,0,0,0-.753,2.766c0,1.821,1.181,2.264,2.766,2.264.279,0,.628-.019.785-.019.236,0,.361.019.361.271a3.767,3.767,0,0,1-.283,1.4c-.11.157-.283.157-.458.157-2.669,0-4.964-.848-4.964-3.913a6.962,6.962,0,0,1,1.73-4.509c.079-.081.283-.282.283-.379,0-.126-.141-.189-.235-.189-.126,0-.835.11-1.008.144a30.914,30.914,0,0,0-3.473.644,1.152,1.152,0,0,1-.236.031c-.374,0-.518-1.494-.518-1.652C430.218,1303.641,430.438,1303.691,431.132,1303.641Z" transform="translate(282.171 1.23)" fill="#2a8648"/>
      <path id="Path_3603" data-name="Path 3603" d="M441.916,1305.371c.176-.031,1.008-.251,1.1-.251.333,0,.455.989.455,1.271,0,.239-.122.267-.612.349-.173.028-.4.075-.678.141l-1.727.345c-.3.091-.374.2-.408.518v2.951c0,.725.094.788.581.788h.581c.411,0,.678.031.863-1.307.05-.361.066-.452.3-.452a2.59,2.59,0,0,1,.691.123c.22.063.392.16.392.427a5.135,5.135,0,0,1-.6,2.041,1.309,1.309,0,0,1-1.382.678h-1.322c-1.287,0-1.648-.285-1.648-1.431,0-.393.028-.77.028-1.147v-2.345c0-.2-.075-.358-.3-.358a.238.238,0,0,0-.113.016c-.126.031-.672.173-.769.173-.392,0-.487-1.271-.487-1.3,0-.223.141-.235.835-.361.125-.016.267-.05.421-.082a.442.442,0,0,0,.408-.518v-2.107a10.459,10.459,0,0,0-.044-1.193.52.52,0,0,1-.016-.154c0-.207.126-.239.283-.239.22,0,1.177.062,1.4.079.126.016.3.063.3.22,0,.125-.11.172-.2.251-.188.141-.2.6-.2,1.146v1.683c0,.189.094.361.314.361a.2.2,0,0,0,.094-.016Zm2.562-1.162c-.518-.016-1.021.032-1.539.032-.424,0-.408-.176-.408-.82,0-.628-.016-.8.408-.8.581,0,1.165.031,1.727.031h3.256c.487,0,.958-.016,1.444-.016,1.115,0,1.13.612,1.13,1.338,0,2.657-.091,7.573-.848,10.026-.518,1.711-1.652,1.852-3.237,1.852-.769,0-1.162.031-1.162-1.1,0-.314.031-.647.342-.647a2.62,2.62,0,0,1,.393.035,6.231,6.231,0,0,0,.772.047c.785,0,1.209-.141,1.444-.961a35.684,35.684,0,0,0,.71-8.233c0-.864-.094-.785-1.272-.785h-.788c-.314,0-.439.106-.439.424v.251a23.494,23.494,0,0,1-.678,5.847,8.839,8.839,0,0,1-3.36,4.854c-.176.126-.5.393-.694.393a1.462,1.462,0,0,1-1-1.02c0-.157.16-.22.427-.392a7.009,7.009,0,0,0,3.234-4.32,24.976,24.976,0,0,0,.568-5.642C444.9,1304.315,444.763,1304.209,444.478,1304.209Z" transform="translate(296.412 0.053)" fill="#2a8648"/>
      <path id="Path_3604" data-name="Path 3604" d="M447.464,1303.579c0,.094-.11.169-.188.2a.706.706,0,0,0-.3.314,6.058,6.058,0,0,0-.455,1.319,8.275,8.275,0,0,0-.2,1.761c0,.126-.016.8.154.8.126,0,.223-.25.286-.408.079-.173.358-.851.55-.851.141,0,.612.282.612.49,0,.044-.235.6-.377.973l-.141.377a6.185,6.185,0,0,0-.521,1.949c0,.219.035.393.035.5,0,.439-.835.628-1.13.628-.348,0-.459-.282-.553-.581a13.181,13.181,0,0,1-.518-3.661,14.752,14.752,0,0,1,.361-3.221c.094-.393.207-.77.267-1.162.016-.11.066-.393.2-.393.047,0,.741.283.851.327C446.739,1303.105,447.464,1303.406,447.464,1303.579Zm4.967-1.369c.3,0,.326.192.392.427a20.986,20.986,0,0,1,.487,4.525c0,2.716-.455,5.03-2.437,7.04-.251.25-.895.882-1.259.882-.251,0-1.162-.776-1.162-1.1,0-.126.141-.22.235-.267a5.964,5.964,0,0,0,2.138-2.452,9.3,9.3,0,0,0,.725-3.959,15.15,15.15,0,0,0-.553-4.383.938.938,0,0,1-.031-.208C450.969,1302.37,452.256,1302.21,452.432,1302.21Z" transform="translate(313.191 0.621)" fill="#2a8648"/>
      <path id="Path_3605" data-name="Path 3605" d="M453.579,1313.311c-.11.031-.126.065-.188.191a16.871,16.871,0,0,1-1.193,2.229.381.381,0,0,1-.33.22c-.251,0-1.1-.311-1.1-.6a.581.581,0,0,1,.138-.3,15.309,15.309,0,0,0,1.228-2.323c.031-.11.078-.223.217-.223a6.071,6.071,0,0,1,1.027.345c.2.063.436.129.436.285C453.814,1313.266,453.689,1313.295,453.579,1313.311Zm2.845-2.971c0,.427.016.835.016,1.243,0,.487-.063.8-.628.8-.3,0-.584-.013-.879-.013h-1.84c-.283,0-.581.013-.879.013-.534,0-.631-.282-.631-.753,0-.44.016-.864.016-1.291v-5.875c0-.426-.016-.851-.016-1.272,0-.552.144-.769.647-.769.3,0,.581.013.863.013h1.84c.283,0,.565-.013.863-.013.534,0,.644.251.644.769,0,.421-.016.845-.016,1.272Zm-1.413-6.051c-.034-.267-.16-.42-.427-.42h-1.115a.413.413,0,0,0-.44.42v.537c.031.282.173.439.44.439h1.115c.267-.031.427-.157.427-.439Zm-1.541,2.314a.414.414,0,0,0-.44.422v.583a.449.449,0,0,0,.44.44h1.115a.418.418,0,0,0,.427-.44v-.583c-.034-.268-.16-.422-.427-.422Zm0,2.779a.449.449,0,0,0-.44.44v.709a.414.414,0,0,0,.44.421h1.115a.388.388,0,0,0,.427-.421v-.709a.441.441,0,0,0-.427-.44Zm2.437,6.368c-.22,0-.33-.192-.6-.662a13.508,13.508,0,0,1-.867-1.871.636.636,0,0,1-.028-.157c0-.311.879-.55,1.115-.55.22,0,.267.173.346.345a14.733,14.733,0,0,0,1.052,1.981.452.452,0,0,1,.1.22C457.023,1315.48,456.141,1315.75,455.906,1315.75Zm5.422-11.489a.385.385,0,0,0,.437.44h1.2c.518,0,1.036-.047,1.554-.047.38,0,.364.188.364.77s0,.754-.364.754c-.518,0-1.036-.032-1.554-.032h-1.2c-.3,0-.437.125-.437.443v1.962c0,.314.141.439.437.439h.443c.361,0,.738-.012,1.118-.012.471,0,.829.091.829.643,0,.327-.031.66-.031.989v3.818c0,.423.031.832.031,1.24,0,.349-.169.349-.753.349s-.785.016-.785-.349a1.711,1.711,0,0,1,.016-.283c-.016-.3-.125-.424-.424-.424h-2.813c-.3,0-.424.125-.424.424v.283c0,.364-.188.364-.785.364-.612,0-.769-.016-.769-.364,0-.408.031-.817.031-1.24v-3.818c0-.33-.031-.663-.031-.989,0-.552.346-.643.829-.643.349,0,.71.028,1.071.012.3,0,.424-.125.424-.439v-5.328a5.607,5.607,0,0,0-.047-.911.528.528,0,0,1-.016-.156c0-.173.126-.2.267-.2.223,0,1.086.079,1.338.111.141.016.424.016.424.22,0,.11-.079.144-.192.235-.17.141-.185.427-.185.945Zm.879,9.24c.267-.034.439-.175.439-.442v-2.183a.406.406,0,0,0-.439-.443h-2.829a.389.389,0,0,0-.424.427v2.2a.42.42,0,0,0,.424.442Z" transform="translate(326.148 0.064)" fill="#2a8648"/>
      <path id="Path_3606" data-name="Path 3606" d="M461.364,1303.579c0,.094-.11.169-.185.2a.713.713,0,0,0-.3.314,6.231,6.231,0,0,0-.455,1.319,8.271,8.271,0,0,0-.2,1.761c0,.126-.016.8.157.8.125,0,.22-.25.283-.408.078-.173.361-.851.549-.851.141,0,.615.282.615.49,0,.044-.235.6-.377.973l-.141.377a6.1,6.1,0,0,0-.518,1.949c0,.219.028.393.028.5,0,.439-.832.628-1.13.628-.346,0-.455-.282-.553-.581a13.193,13.193,0,0,1-.518-3.661,14.581,14.581,0,0,1,.364-3.221c.094-.393.2-.77.264-1.162.016-.11.066-.393.207-.393.047,0,.738.283.848.327C460.641,1303.105,461.364,1303.406,461.364,1303.579Zm4.967-1.369c.3,0,.33.192.393.427a20.806,20.806,0,0,1,.49,4.525c0,2.716-.459,5.03-2.44,7.04-.251.25-.895.882-1.256.882-.251,0-1.162-.776-1.162-1.1,0-.126.141-.22.236-.267a6.009,6.009,0,0,0,2.138-2.452,9.294,9.294,0,0,0,.722-3.959,15.139,15.139,0,0,0-.553-4.383.945.945,0,0,1-.031-.208C464.868,1302.37,466.158,1302.21,466.331,1302.21Z" transform="translate(342.933 0.621)" fill="#2a8648"/>
      <path id="Path_3607" data-name="Path 3607" d="M471.719,1302.188c.377.028.844.075.844.217a.26.26,0,0,1-.091.175c-.11.076-.236.2-.251.66-.016.327-.016.672-.016,1a.413.413,0,0,0,.452.455c.126,0,.741-.047.911-.047.772-.031,2.455-.125,3.13-.125.251,0,.361.094.361.8,0,.958-.188.942-.348.942-.217,0-1.4-.079-2.277-.079-.282,0-1.746.019-1.918.063a.505.505,0,0,0-.3.522v.546a1.332,1.332,0,0,0,.157.819,4.848,4.848,0,0,1,.487,2.2c0,2.531-1.683,5.344-2.374,5.344-.192,0-1.463-.392-1.463-.672,0-.129.267-.349.361-.443a5.06,5.06,0,0,0,1.134-1.523.67.67,0,0,0,.078-.238.124.124,0,0,0-.11-.11.345.345,0,0,0-.126.016,1.369,1.369,0,0,1-.361.082c-1.369,0-1.871-1.479-1.871-2.625,0-1.444.628-2.832,2.217-2.973.075-.016.189-.06.189-.185,0-.584-.113-.659-.283-.659-.126,0-.851.075-1.036.091-.819.078-2.848.3-3.6.458a1.491,1.491,0,0,1-.236.028c-.251,0-.267-.216-.314-.42a9.268,9.268,0,0,1-.125-1.134c0-.314.141-.283.911-.314.424-.016,4.119-.219,4.261-.251a.465.465,0,0,0,.346-.49,13.014,13.014,0,0,0-.16-1.947.415.415,0,0,1-.013-.125c0-.126.079-.188.2-.188C470.852,1302.06,471.339,1302.154,471.719,1302.188Zm-2.079,7.869c0,.474.113,1.337.741,1.337s.82-.8.82-1.29-.144-1.379-.788-1.379C469.8,1308.726,469.64,1309.586,469.64,1310.057Z" transform="translate(356.478 0.3)" fill="#2a8648"/>
      <path id="Path_3608" data-name="Path 3608" d="M480.816,1303.793c0,.11-.173.2-.346.329a15.066,15.066,0,0,0-2.276,2.1.478.478,0,0,0-.16.267c0,.126.126.207.267.207a.876.876,0,0,0,.2-.031,2.852,2.852,0,0,1,.647-.066,4.6,4.6,0,0,1,1.931.474,3.246,3.246,0,0,1,1.868,3.049c0,2.779-2.465,4.226-4.992,4.226-1.306,0-3.162-.534-3.162-2.135a1.972,1.972,0,0,1,2.01-1.9,2.553,2.553,0,0,1,2.091,1.118,1.533,1.533,0,0,1,.283,1c.019.107.066.2.192.2a2.548,2.548,0,0,0,1.9-2.418c0-1.526-1.287-2.154-2.653-2.154a4.773,4.773,0,0,0-3.52,1.539c-.615.6-1.177,1.243-1.746,1.887a.206.206,0,0,1-.173.109c-.33,0-1.13-.878-1.13-1.13,0-.191.232-.361.377-.474a62.353,62.353,0,0,0,4.886-4.932c.129-.125.408-.408.408-.566,0-.141-.138-.188-.264-.188a3.637,3.637,0,0,0-.38.063c-.377.094-2.593.549-2.845.549-.345,0-.393-1.18-.393-1.448,0-.358.016-.392.487-.392h.38a14.543,14.543,0,0,0,3.972-.578,2.1,2.1,0,0,1,.6-.176C479.9,1302.33,480.816,1303.526,480.816,1303.793Zm-3.975,7.793a.653.653,0,0,0-.678.631c0,.562.757.829,1.228.829.3,0,.424-.283.424-.534A.959.959,0,0,0,476.84,1311.587Z" transform="translate(371.684 0.877)" fill="#2a8648"/>
      <path id="Path_3609" data-name="Path 3609" d="M491.174,1310.6c.349-.015.675-.015,1-.015s.314.185.314.518c0,.361,0,.533-.314.533-.33,0-.656-.015-.989-.015a.369.369,0,0,0-.424.424v.2c0,.408.047.817.047,1.118,0,.377-.251.361-.911.361-.471,0-.694,0-.769-.192-.066-.109-.11-.185-.251-.185h-2.044c-.3,0-.411.109-.424.408.013.154.013.562.013.722,0,1.523-1.617,1.555-2.763,1.555-.44,0-.958.082-.958-1.162,0-.219.06-.361.3-.361.2,0,.5.06.879.06.785,0,.848-.2.879-.813-.031-.3-.141-.408-.436-.408h-2.314c-.628,0-1.272.032-1.915.032-.361,0-.377-.129-.377-.569s.016-.549.377-.549c.644,0,1.288.015,1.915.015h2.452c.2,0,.3-.075.3-.283v-.094a.26.26,0,0,0-.3-.3h-3.535c-.659,0-1.335.031-2.013.031-.314,0-.3-.2-.3-.533s-.016-.518.317-.518c.659,0,1.335.015,1.994.015h3.535c.2,0,.3-.082.3-.282v-.078c0-.207-.094-.3-.3-.3h-3.237c-.393,0-.785.031-1.178.031-.286,0-.286-.142-.286-.569,0-.408,0-.549.267-.549.392,0,.8.032,1.2.032h3.237a.26.26,0,0,0,.3-.3v-.078a.26.26,0,0,0-.3-.3h-1.306c-.471,0-.939.016-1.413.016-.361,0-.895-.032-.895-.5,0-.157.031-.3.031-.565v-.848c0-.267-.031-.408-.031-.568,0-.486.534-.518.895-.518.474,0,.942.031,1.413.031h1.306a.26.26,0,0,0,.3-.3v-.094c0-.22-.094-.3-.3-.3h-3.206c-.644,0-1.287.031-1.947.031-.345,0-.345-.173-.345-.616s0-.593.345-.593c.644,0,1.3.031,1.947.031h3.068c.3,0,.405-.11.436-.427-.016-.218-.031-.44-.063-.66,0-.047-.016-.11-.016-.141,0-.191.126-.22.286-.22.2,0,1.115.094,1.366.126.157.016.424.016.424.2,0,.094-.079.142-.192.224a.489.489,0,0,0-.154.452c0,.317.125.443.424.443h3.049c.659,0,1.3-.031,1.947-.031.361,0,.345.172.345.593s.016.616-.345.616c-.644,0-1.3-.031-1.947-.031h-3.193c-.2,0-.3.078-.3.3v.094c0,.2.078.3.3.3H488c.471,0,.942-.031,1.416-.031.361,0,.895.031.895.518,0,.16-.032.3-.032.568v.848c0,.267.032.408.032.565,0,.471-.518.5-.879.5-.474,0-.942-.016-1.432-.016h-1.306c-.2,0-.3.075-.3.3v.078c0,.2.078.3.3.3h2.122c.427,0,.851-.032,1.271-.032.459,0,.71.142.71.629,0,.238-.031.473-.031.693C490.782,1310.458,490.907,1310.583,491.174,1310.6Zm-8.377-4.289a.363.363,0,0,0-.377.377v.091a.367.367,0,0,0,.377.38h1.589a.365.365,0,0,0,.377-.38v-.091a.361.361,0,0,0-.377-.377Zm3.6.468a.365.365,0,0,0,.377.38h1.589a.367.367,0,0,0,.377-.38v-.091a.363.363,0,0,0-.377-.377h-1.589a.361.361,0,0,0-.377.377Zm0,3.52a.28.28,0,0,0,.3.3h2.138a.282.282,0,0,0,.3-.3v-.059a.309.309,0,0,0-.3-.3h-2.138a.307.307,0,0,0-.3.3Zm.3,1.306a.309.309,0,0,0-.3.3v.078a.279.279,0,0,0,.3.3h2.138a.281.281,0,0,0,.3-.3v-.078a.31.31,0,0,0-.3-.3Z" transform="translate(385.741 0.107)" fill="#2a8648"/>
      <path id="Path_3610" data-name="Path 3610" d="M492.129,1302.842c0,.081-.063.125-.141.175-.22.107-.333.122-.549.691-.142.377-.27.769-.393,1.146a.511.511,0,0,0-.05.22c0,.268.207.33.424.361.537.063,1.071.11,1.6.125.3,0,.537-.015.537.3a4.457,4.457,0,0,1-.176,1.021c-.059.223-.126.349-.345.349a18.941,18.941,0,0,1-2.138-.239.546.546,0,0,0-.141-.028c-.251,0-.361.169-.421.376-.047.185-.267,1.177-.267,1.3,0,.33.327.346.546.361a13.282,13.282,0,0,0,1.416.066c.424,0,.471.108.471.268a3.484,3.484,0,0,1-.2,1.052c-.079.235-.173.361-.439.361-.361,0-1.1-.11-1.479-.157a1.467,1.467,0,0,0-.251-.031c-.424,0-.424.392-.424,1.067a1.87,1.87,0,0,0,2.091,2.091,3.369,3.369,0,0,0,2.28-.738,1.59,1.59,0,0,0,.342-1.117,6.78,6.78,0,0,0-.534-2.277.951.951,0,0,1-.06-.283c0-.379,1.162-.584,1.334-.584.251,0,.3.251.424.6a8.588,8.588,0,0,1,.518,2.751c0,2.433-2.245,3.284-4.336,3.284a3.44,3.44,0,0,1-3.774-3.759c0-.392.066-.988.066-1.146,0-.345-.267-.443-.628-.552a4.982,4.982,0,0,1-.93-.377c-.173-.094-.3-.172-.3-.377,0-.091.157-1.334.549-1.334a.813.813,0,0,1,.392.158,2.878,2.878,0,0,0,1,.439c.27,0,.317-.219.411-.674.032-.173.091-.377.141-.615a3.271,3.271,0,0,0,.063-.346c0-.343-.283-.44-.506-.518-1.1-.424-1.413-.565-1.413-.848,0-.267.251-1.35.584-1.35a.857.857,0,0,1,.361.173,9.342,9.342,0,0,0,1.067.549.485.485,0,0,0,.2.047c.252,0,.314-.2.361-.377.141-.534.487-1.648.615-2.107.044-.173.075-.314.232-.314a6.036,6.036,0,0,1,.788.251C491.328,1302.37,492.129,1302.59,492.129,1302.842Z" transform="translate(401.974 0.225)" fill="#2a8648"/>
      <path id="Path_3611" data-name="Path 3611" d="M502.348,1304.184c0-.317-.141-.443-.443-.443h-6.977c-.656,0-1.319.034-1.978.034-.408,0-.392-.188-.392-.8s-.016-.832.392-.832c.659,0,1.322.047,1.978.047h9.084c.659,0,1.322-.047,1.981-.047.408,0,.408.188.408.832s-.016.8-.393.8c-.534,0-1.052-.019-1.57-.034-.3.034-.393.141-.393.443v8.424c0,.361.016.738.016,1.1a1.551,1.551,0,0,1-.6,1.432,5.7,5.7,0,0,1-2.484.474c-.251,0-.628,0-.785-.222a2.2,2.2,0,0,1-.251-.99c0-.251.031-.5.348-.5.217,0,.546.06.97.06,1.165,0,1.086-.311,1.086-1.3Zm-4.261,7.26H496.36c-.3,0-.424.129-.424.424,0,.173.016.348.016.534,0,.349-.188.349-.816.349-.6,0-.8,0-.8-.349,0-.424.032-.829.032-1.24v-3.8c0-.332-.016-.644-.016-.977,0-.534.345-.644.82-.644.345,0,.7.016,1.052.016h1.95c.361,0,.7-.016,1.052-.016.471,0,.817.11.817.644,0,.333-.012.644-.012.977v3.328c0,.411.028.82.028,1.228,0,.361-.188.361-.8.361-.546,0-.813.016-.813-.33,0-.047.016-.094.016-.141C498.436,1311.553,498.339,1311.444,498.087,1311.444Zm-.044-1.46a.414.414,0,0,0,.421-.443v-1.871a.384.384,0,0,0-.421-.421H496.36c-.283,0-.408.154-.44.421v1.871a.439.439,0,0,0,.44.443Z" transform="translate(415.571 0.471)" fill="#2a8648"/>
      <path id="Path_3612" data-name="Path 3612" d="M500.285,1306.683c-.063.094-.125.185-.236.185-.173,0-.235-.217-.3-.452a8.616,8.616,0,0,1-.3-1.118c0-.176.091-.22.769-.22.33,0,.518-.047.675-.361a26.5,26.5,0,0,0,1.071-2.594c.031-.078.06-.2.173-.2s.848.235,1,.283c.141.047.628.172.628.361,0,.157-.173.175-.3.2a.36.36,0,0,0-.236.188c-.267.553-.518,1.086-.819,1.62a.54.54,0,0,0-.028.141c0,.154.11.2.251.2.5-.031,1-.079,1.507-.125.141-.032.251-.094.251-.251a.409.409,0,0,0-.044-.177,3.273,3.273,0,0,1-.443-.8c0-.267.835-.533.989-.533s.223.1.317.206c.173.233.609.971.769,1.237a9.267,9.267,0,0,1,.816,1.683c0,.329-.785.615-1.052.615-.176,0-.2-.11-.345-.4a.506.506,0,0,0-.474-.314h-.11c-1.444.157-2.889.333-4.352.443A.257.257,0,0,0,500.285,1306.683Zm3.959,6.816c0-.3-.126-.436-.44-.436h-1.68c-.317,0-.44.141-.44.436v.644c0,.505.031.992.031,1.495,0,.377-.11.392-.754.392-.584,0-.773-.015-.773-.361,0-.5.032-1.02.032-1.526V1309.1c0-.376-.016-.753-.016-1.115,0-.518.251-.632.725-.632.342,0,.691.016,1.036.016h2c.342,0,.672-.016,1.02-.016.471,0,.754.082.754.616,0,.377-.016.738-.016,1.114v4.622c0,.311.016.612.016.926,0,1.366-.973,1.366-2.279,1.366-.55,0-.816-.078-.816-1.005,0-.251.016-.458.33-.458.141,0,.283.034.6.034.631,0,.675-.11.675-.6Zm-.377-3.85a.36.36,0,0,0,.377-.373v-.207a.361.361,0,0,0-.377-.377h-1.809a.362.362,0,0,0-.374.377v.207a.361.361,0,0,0,.374.373Zm-2.182,1.84a.35.35,0,0,0,.374.361h1.809a.349.349,0,0,0,.377-.361v-.251a.36.36,0,0,0-.377-.377h-1.809a.36.36,0,0,0-.374.377Zm10.179-1.746c.16,0,.474.474.754.82.144.185.383.424.383.566a.169.169,0,0,1-.191.157.553.553,0,0,1-.157-.032.658.658,0,0,0-.189-.047.363.363,0,0,0-.173.047,18.407,18.407,0,0,1-3.143,1.306.49.49,0,0,0-.393.563v.584c0,.518.141.628.659.628h1.62c.547,0,.829-.078,1-1.256.047-.282.047-.474.377-.474.3,0,1.086.223,1.086.675a5.74,5.74,0,0,1-.568,1.856,1.517,1.517,0,0,1-1.523.644H509.07c-.942,0-1.9.034-1.9-1.225,0-.345.016-.691.016-1.039V1311a12.631,12.631,0,0,0-.047-1.335.833.833,0,0,1-.012-.175c0-.173.11-.2.251-.2.185,0,1.177.076,1.4.108.157,0,.424.019.424.219,0,.125-.126.176-.22.22-.235.141-.22.534-.22,1.1.016.173.075.314.251.314a.5.5,0,0,0,.141-.031,15.205,15.205,0,0,0,2.5-1.353A.361.361,0,0,1,511.865,1309.744Zm.05-7.134c.126,0,.283.22.452.456.144.207.647.769.647.944a.167.167,0,0,1-.173.173.362.362,0,0,1-.173-.047.793.793,0,0,0-.2-.05.306.306,0,0,0-.157.066,22.07,22.07,0,0,1-3.112,1.256c-.314.11-.393.22-.393.55v.377c0,.518.126.628.643.628h1.617c.725,0,.8-.235.961-1.162.047-.266.075-.392.392-.392.377,0,1.068.142,1.068.659a4.432,4.432,0,0,1-.581,1.745c-.33.6-.879.644-1.491.644H509.1c-.986,0-1.9,0-1.9-1.228,0-.361.019-.7.019-1.067v-2.151c0-.427-.019-.913-.05-1.353,0-.047-.016-.11-.016-.17,0-.16.11-.207.251-.207.188,0,1.338.094,1.526.11.126.015.283.078.283.22s-.113.157-.2.22c-.189.094-.2.411-.2.709v.3c0,.16.078.282.251.282a.267.267,0,0,0,.141-.031,13.584,13.584,0,0,0,2.5-1.366A.56.56,0,0,1,511.915,1302.611Z" transform="translate(430.325 0)" fill="#2a8648"/>
      <path id="Path_3613" data-name="Path 3613" d="M507.569,1303.641c2.3-.142,4.59-.374,6.87-.644,1.193-.141,2.386-.295,3.564-.483a.763.763,0,0,1,.207-.019c.236,0,.267.207.3.392a7.245,7.245,0,0,1,.141,1.149c0,.345-.33.314-.706.33a7.79,7.79,0,0,0-2.61.33,4.771,4.771,0,0,0-2.672,2.343,5.887,5.887,0,0,0-.754,2.766c0,1.821,1.162,2.264,2.766,2.264.267,0,.612-.019.785-.019.236,0,.361.019.361.271a4.443,4.443,0,0,1-.236,1.287c-.11.235-.235.267-.5.267-2.672,0-4.964-.848-4.964-3.913a6.978,6.978,0,0,1,1.727-4.509c.173-.192.267-.3.267-.379,0-.142-.126-.189-.235-.189s-.832.126-.989.144a34.805,34.805,0,0,0-3.476.644,1.155,1.155,0,0,1-.236.031c-.217,0-.3-.349-.345-.518a7.04,7.04,0,0,1-.173-1.134C506.658,1303.641,506.881,1303.691,507.569,1303.641ZM518,1307.477c0,.236-.628.66-.8.66-.113,0-.157-.11-.223-.188-.311-.456-.659-.9-1-1.319-.047-.047-.142-.142-.142-.224,0-.184.628-.577.8-.577A6.019,6.019,0,0,1,518,1307.477Zm1.9-.863c0,.22-.609.66-.8.66-.11,0-.173-.125-.236-.2a13.368,13.368,0,0,0-1.021-1.306.378.378,0,0,1-.11-.2c0-.192.612-.6.8-.6A6.394,6.394,0,0,1,519.905,1306.614Z" transform="translate(445.743 1.23)" fill="#2a8648"/>
      <path id="Path_3614" data-name="Path 3614" d="M520.367,1302.188c.377.028.848.075.848.217a.251.251,0,0,1-.094.175c-.11.076-.235.2-.251.66-.016.327-.016.672-.016,1a.413.413,0,0,0,.455.455c.126,0,.738-.047.91-.047.769-.031,2.453-.125,3.127-.125.251,0,.361.094.361.8,0,.958-.185.942-.346.942-.22,0-1.4-.079-2.279-.079-.283,0-1.743.019-1.916.063a.507.507,0,0,0-.3.522v.546a1.334,1.334,0,0,0,.157.819,4.847,4.847,0,0,1,.487,2.2c0,2.531-1.683,5.344-2.374,5.344-.188,0-1.46-.392-1.46-.672,0-.129.264-.349.361-.443a5.1,5.1,0,0,0,1.13-1.523.612.612,0,0,0,.082-.238.124.124,0,0,0-.113-.11.354.354,0,0,0-.126.016,1.366,1.366,0,0,1-.361.082c-1.366,0-1.871-1.479-1.871-2.625,0-1.444.631-2.832,2.216-2.973.079-.016.188-.06.188-.185,0-.584-.11-.659-.283-.659-.125,0-.848.075-1.036.091-.82.078-2.845.3-3.6.458a1.528,1.528,0,0,1-.239.028c-.251,0-.267-.216-.311-.42a8.732,8.732,0,0,1-.126-1.134c0-.314.141-.283.911-.314.424-.016,4.116-.219,4.258-.251a.468.468,0,0,0,.349-.49,13.443,13.443,0,0,0-.16-1.947.341.341,0,0,1-.016-.125c0-.126.078-.188.2-.188C519.5,1302.06,519.99,1302.154,520.367,1302.188Zm-2.075,7.869c0,.474.11,1.337.738,1.337s.819-.8.819-1.29-.144-1.379-.788-1.379C518.448,1308.726,518.292,1309.586,518.292,1310.057Z" transform="translate(460.585 0.3)" fill="#2a8648"/>
      <path id="Path_3615" data-name="Path 3615" d="M524.781,1307.071a2.184,2.184,0,1,1-2.185-2.183A2.191,2.191,0,0,1,524.781,1307.071Zm-3.582,0a1.4,1.4,0,1,0,2.8,0,1.383,1.383,0,0,0-1.4-1.4A1.4,1.4,0,0,0,521.2,1307.071Z" transform="translate(475.179 6.351)" fill="#2a8648"/>
    </g>
  </g>
</svg>
