<svg xmlns="http://www.w3.org/2000/svg" width="88.869" height="20.478" viewBox="0 0 88.869 20.478">
  <g id="Group_1727" data-name="Group 1727" transform="translate(2048.802 -1591.007)">
    <circle id="楕円形_5" data-name="楕円形 5" cx="10.206" cy="10.206" r="10.206" transform="translate(-2022.437 1591.007)" fill="#59aac3"/>
    <circle id="楕円形_6" data-name="楕円形 6" cx="10.206" cy="10.206" r="10.206" transform="translate(-1999.479 1591.007)" fill="#ef4441"/>
    <path id="Rectangle_1268" data-name="Rectangle 1268" d="M0,0H5.947A10.206,10.206,0,0,1,16.153,10.206v0A10.206,10.206,0,0,1,5.947,20.411H0a0,0,0,0,1,0,0V0A0,0,0,0,1,0,0Z" transform="translate(-1976.086 1591.007)" fill="#fa0"/>
    <path id="パス_18" data-name="パス 18" d="M-2042.431,1591.313l3.186,10.21,3.186,10.21H-2048.8l3.186-10.21Z" transform="translate(0 -0.248)" fill="#2a8648"/>
    <path id="パス_37" data-name="パス 37" d="M-1975.129,1591.313l3.186,10.21,3.186,10.21H-1981.5l3.186-10.21Z" transform="translate(-54.56 -0.248)" fill="#2a8648"/>
  </g>
</svg>
