<svg xmlns="http://www.w3.org/2000/svg" xmlns:xlink="http://www.w3.org/1999/xlink" width="131.368" height="18.17" viewBox="0 0 131.368 18.17">
  <defs>
    <clipPath id="clip-path">
      <path id="パス_1690" data-name="パス 1690" d="M6073.943,1875.109l7.933-.016-5.551,18.125-7.933.016Z" fill="none"/>
    </clipPath>
    <clipPath id="clip-path-2">
      <path id="パス_1691" data-name="パス 1691" d="M6061.973,1875.109l7.933-.016-5.548,18.125-7.933.016Z" fill="none"/>
    </clipPath>
  </defs>
  <g id="グループ_1624" data-name="グループ 1624" transform="translate(-6028.359 -1875.065)">
    <rect id="長方形_123" data-name="長方形 123" width="0.956" height="4.337" transform="translate(6094.688 1875.076)" fill="#2a8648"/>
    <rect id="長方形_124" data-name="長方形 124" width="0.956" height="4.337" transform="translate(6096.312 1875.075)" fill="#2a8648"/>
    <rect id="長方形_125" data-name="長方形 125" width="0.956" height="4.335" transform="translate(6086.721 1875.082)" fill="#2a8648"/>
    <rect id="長方形_126" data-name="長方形 126" width="0.956" height="4.335" transform="translate(6088.307 1875.081)" fill="#2a8648"/>
    <rect id="長方形_127" data-name="長方形 127" width="0.956" height="4.337" transform="translate(6089.891 1875.08)" fill="#2a8648"/>
    <rect id="長方形_128" data-name="長方形 128" width="0.956" height="4.337" transform="translate(6091.516 1875.079)" fill="#2a8648"/>
    <rect id="長方形_129" data-name="長方形 129" width="0.956" height="4.337" transform="translate(6104.366 1875.069)" fill="#2a8648"/>
    <rect id="長方形_130" data-name="長方形 130" width="0.956" height="4.337" transform="translate(6105.952 1875.068)" fill="#2a8648"/>
    <rect id="長方形_131" data-name="長方形 131" width="0.956" height="4.337" transform="translate(6107.576 1875.067)" fill="#2a8648"/>
    <rect id="長方形_132" data-name="長方形 132" width="0.956" height="4.337" transform="translate(6109.194 1875.065)" fill="#2a8648"/>
    <rect id="長方形_135" data-name="長方形 135" width="0.956" height="4.337" transform="translate(6099.571 1875.073)" fill="#2a8648"/>
    <rect id="長方形_137" data-name="長方形 137" width="0.956" height="4.337" transform="translate(6097.916 1875.074)" fill="#2a8648"/>
    <rect id="長方形_138" data-name="長方形 138" width="0.956" height="4.337" transform="translate(6102.781 1875.07)" fill="#2a8648"/>
    <rect id="長方形_123-2" data-name="長方形 123-2" width="0.956" height="4.337" transform="translate(6094.688 1888.896)" fill="#2a8648"/>
    <rect id="長方形_124-2" data-name="長方形 124-2" width="0.956" height="4.337" transform="translate(6096.312 1888.895)" fill="#2a8648"/>
    <rect id="長方形_129-2" data-name="長方形 129-2" width="0.956" height="4.337" transform="translate(6104.243 1888.889)" fill="#2a8648"/>
    <rect id="長方形_130-2" data-name="長方形 130-2" width="0.956" height="4.337" transform="translate(6105.829 1888.888)" fill="#2a8648"/>
    <rect id="長方形_131-2" data-name="長方形 131-2" width="0.956" height="4.337" transform="translate(6107.452 1888.887)" fill="#2a8648"/>
    <rect id="長方形_132-2" data-name="長方形 132-2" width="0.956" height="4.337" transform="translate(6109.07 1888.885)" fill="#2a8648"/>
    <rect id="長方形_135-2" data-name="長方形 135-2" width="0.956" height="4.337" transform="translate(6099.571 1888.893)" fill="#2a8648"/>
    <rect id="長方形_137-2" data-name="長方形 137-2" width="0.956" height="4.337" transform="translate(6097.916 1888.894)" fill="#2a8648"/>
    <rect id="長方形_138-2" data-name="長方形 138-2" width="0.956" height="4.337" transform="translate(6102.781 1888.89)" fill="#2a8648"/>
    <rect id="長方形_124-3" data-name="長方形 124-3" width="0.956" height="4.337" transform="translate(6086.777 1888.894)" fill="#2a8648"/>
    <rect id="長方形_129-3" data-name="長方形 129-3" width="0.956" height="4.337" transform="translate(6094.708 1888.889)" fill="#2a8648"/>
    <rect id="長方形_135-3" data-name="長方形 135-3" width="0.956" height="4.337" transform="translate(6090.036 1888.892)" fill="#2a8648"/>
    <rect id="長方形_136" data-name="長方形 136" width="0.956" height="4.337" transform="translate(6091.622 1888.891)" fill="#2a8648"/>
    <rect id="長方形_137-3" data-name="長方形 137-3" width="0.956" height="4.337" transform="translate(6088.381 1888.893)" fill="#2a8648"/>
    <rect id="長方形_123-3" data-name="長方形 123-3" width="0.956" height="4.337" transform="translate(6094.688 1881.978)" fill="#2a8648"/>
    <rect id="長方形_124-4" data-name="長方形 124-4" width="0.956" height="4.337" transform="translate(6096.312 1881.976)" fill="#2a8648"/>
    <rect id="長方形_125-2" data-name="長方形 125-2" width="0.956" height="4.335" transform="translate(6086.721 1881.984)" fill="#2a8648"/>
    <rect id="長方形_126-2" data-name="長方形 126-2" width="0.956" height="4.335" transform="translate(6088.307 1881.982)" fill="#2a8648"/>
    <rect id="長方形_127-2" data-name="長方形 127-2" width="0.956" height="4.337" transform="translate(6089.891 1881.981)" fill="#2a8648"/>
    <rect id="長方形_128-2" data-name="長方形 128-2" width="0.956" height="4.337" transform="translate(6091.516 1881.98)" fill="#2a8648"/>
    <rect id="長方形_129-4" data-name="長方形 129-4" width="0.956" height="4.337" transform="translate(6104.366 1881.97)" fill="#2a8648"/>
    <rect id="長方形_130-3" data-name="長方形 130-3" width="0.956" height="4.337" transform="translate(6105.952 1881.969)" fill="#2a8648"/>
    <rect id="長方形_131-3" data-name="長方形 131-3" width="0.956" height="4.337" transform="translate(6107.576 1881.968)" fill="#2a8648"/>
    <rect id="長方形_132-3" data-name="長方形 132-3" width="0.956" height="4.337" transform="translate(6109.194 1881.967)" fill="#2a8648"/>
    <rect id="長方形_135-4" data-name="長方形 135-4" width="0.956" height="4.337" transform="translate(6099.571 1881.974)" fill="#2a8648"/>
    <rect id="長方形_137-4" data-name="長方形 137-4" width="0.956" height="4.337" transform="translate(6097.916 1881.975)" fill="#2a8648"/>
    <rect id="長方形_135-5" data-name="長方形 135-5" width="0.956" height="4.337" transform="translate(6101.226 1888.893)" fill="#2a8648"/>
    <rect id="長方形_138-3" data-name="長方形 138-3" width="0.956" height="4.337" transform="translate(6102.781 1881.971)" fill="#2a8648"/>
    <rect id="長方形_1247" data-name="長方形 1247" width="8.783" height="18.164" transform="translate(6085.132 1875.065)" fill="#2a8648"/>
    <rect id="長方形_1248" data-name="長方形 1248" width="8.783" height="18.164" transform="translate(6114.45 1875.065)" fill="#2a8648"/>
    <rect id="長方形_1249" data-name="長方形 1249" width="8.783" height="11.258" transform="translate(6101.37 1875.065)" fill="#2a8648"/>
    <rect id="長方形_1250" data-name="長方形 1250" width="17.572" height="4.346" transform="translate(6092.581 1888.889)" fill="#2a8648"/>
    <rect id="長方形_123-4" data-name="長方形 123-4" width="0.956" height="4.337" transform="translate(6123.93 1881.987)" fill="#2a8648"/>
    <rect id="長方形_124-5" data-name="長方形 124-5" width="0.956" height="4.337" transform="translate(6125.554 1881.986)" fill="#2a8648"/>
    <rect id="長方形_129-5" data-name="長方形 129-5" width="0.956" height="4.337" transform="translate(6133.609 1881.98)" fill="#2a8648"/>
    <rect id="長方形_130-4" data-name="長方形 130-4" width="0.956" height="4.337" transform="translate(6135.195 1881.979)" fill="#2a8648"/>
    <rect id="長方形_131-4" data-name="長方形 131-4" width="0.956" height="4.337" transform="translate(6136.818 1881.978)" fill="#2a8648"/>
    <rect id="長方形_132-4" data-name="長方形 132-4" width="0.956" height="4.337" transform="translate(6138.436 1881.977)" fill="#2a8648"/>
    <rect id="長方形_135-6" data-name="長方形 135-6" width="0.956" height="4.337" transform="translate(6128.813 1881.984)" fill="#2a8648"/>
    <rect id="長方形_137-5" data-name="長方形 137-5" width="0.956" height="4.337" transform="translate(6127.158 1881.985)" fill="#2a8648"/>
    <rect id="長方形_138-4" data-name="長方形 138-4" width="0.956" height="4.337" transform="translate(6132.023 1881.981)" fill="#2a8648"/>
    <rect id="長方形_123-5" data-name="長方形 123-5" width="0.956" height="4.337" transform="translate(6123.93 1888.889)" fill="#2a8648"/>
    <rect id="長方形_124-6" data-name="長方形 124-6" width="0.956" height="4.337" transform="translate(6125.554 1888.888)" fill="#2a8648"/>
    <rect id="長方形_129-6" data-name="長方形 129-6" width="0.956" height="4.337" transform="translate(6133.609 1888.881)" fill="#2a8648"/>
    <rect id="長方形_130-5" data-name="長方形 130-5" width="0.956" height="4.337" transform="translate(6135.195 1888.88)" fill="#2a8648"/>
    <rect id="長方形_131-5" data-name="長方形 131-5" width="0.956" height="4.337" transform="translate(6136.818 1888.879)" fill="#2a8648"/>
    <rect id="長方形_132-5" data-name="長方形 132-5" width="0.956" height="4.337" transform="translate(6138.436 1888.878)" fill="#2a8648"/>
    <rect id="長方形_135-7" data-name="長方形 135-7" width="0.956" height="4.337" transform="translate(6128.813 1888.885)" fill="#2a8648"/>
    <rect id="長方形_137-6" data-name="長方形 137-6" width="0.956" height="4.337" transform="translate(6127.158 1888.886)" fill="#2a8648"/>
    <rect id="長方形_138-5" data-name="長方形 138-5" width="0.956" height="4.337" transform="translate(6132.023 1888.883)" fill="#2a8648"/>
    <rect id="長方形_1251" data-name="長方形 1251" width="8.783" height="11.258" transform="translate(6130.612 1881.976)" fill="#2a8648"/>
    <g id="グループ_1621" data-name="グループ 1621">
      <g id="グループ_1694" data-name="グループ 1694">
        <g id="グループ_1693" data-name="グループ 1693" clip-path="url(#clip-path)">
          <g id="グループ_1620" data-name="グループ 1620">
            <path id="パス_1562" data-name="パス 1562" d="M6068.066,1892.129v-.957l14.124-.014v.957Zm.008,7.967v-.957l14.124-.014v.956Zm0-1.584v-.96l14.124-.014v.956Zm0-1.586v-.957l14.124-.014v.957Zm0-1.586v-.956l14.124-.015v.957Zm0-1.625v-.956l14.124-.014v.956Zm-.008-7.966v-.957l14.123-.014v.956Zm0-1.585v-.956l14.124-.015v.957Zm0-1.624v-.957l14.124-.014v.956Zm.008,8.006v-.957l14.124-.014v.956Zm0-1.586V1888l14.124-.014v.957Zm0-1.625v-.956l14.124-.015v.957Zm-.013-12.85v-.956l14.124-.015v.957Zm0-1.585v-.957l14.124-.014v.956Zm0-1.624v-.956l14.124-.015v.957Zm0-1.617v-.957l14.124-.014v.957Zm0-1.586v-.956l14.124-.014v.956Zm0-1.624v-.957l14.124-.014v.956Zm.013,12.834v-.956l14.124-.014v.956Zm0-1.585v-.957l14.124-.014v.956Zm0,3.24v-.957l14.124-.014v.957Zm-.005-4.865v-.957l14.124-.014v.957Z" fill="#2a8648"/>
          </g>
        </g>
      </g>
    </g>
    <g id="グループ_1623" data-name="グループ 1623">
      <g id="グループ_1696" data-name="グループ 1696">
        <g id="グループ_1695" data-name="グループ 1695" clip-path="url(#clip-path-2)">
          <g id="グループ_1622" data-name="グループ 1622">
            <path id="パス_1563" data-name="パス 1563" d="M6056.1,1892.129v-.957l14.123-.014v.957Zm.009,7.967v-.957l14.124-.014v.956Zm0-1.584v-.96l14.124-.014v.956Zm0-1.586v-.957l14.124-.014v.957Zm0-1.586v-.956l14.124-.015v.957Zm0-1.625v-.956l14.124-.014v.956Zm-.008-7.966v-.957l14.124-.014v.956Zm0-1.585v-.956l14.124-.015v.957Zm0-1.624v-.957l14.124-.014v.956Zm.008,8.006v-.957l14.124-.014v.956Zm0-1.586V1888l14.124-.014v.957Zm0-1.625v-.956l14.124-.015v.957Zm-.014-12.85v-.956l14.124-.015v.957Zm0-1.585v-.957l14.124-.014v.956Zm0-1.624v-.956l14.124-.015v.957Zm0-1.617v-.957l14.124-.014v.957Zm0-1.586v-.956l14.124-.014v.956Zm0-1.624v-.957l14.124-.014v.956Zm.013,12.834v-.956l14.124-.014v.956Zm0-1.585v-.957l14.124-.014v.956Zm0,3.24v-.957l14.124-.014v.957Zm0-4.865v-.957l14.124-.014v.957Z" fill="#2a8648"/>
          </g>
        </g>
      </g>
    </g>
    <path id="パス_1564" data-name="パス 1564" d="M6070.662,1875.08h-7.933l5.5,18.138h7.933Z" fill="#2a8648"/>
    <path id="パス_1565" data-name="パス 1565" d="M6058.811,1875.08h-7.933l5.5,18.138h7.933Z" fill="#2a8648"/>
    <circle id="楕円形_46" data-name="楕円形 46" cx="3.105" cy="3.105" r="3.105" transform="translate(6028.359 1880.694)" fill="#2a8648"/>
    <circle id="楕円形_47" data-name="楕円形 47" cx="3.105" cy="3.105" r="3.105" transform="translate(6153.517 1880.694)" fill="#2a8648"/>
  </g>
</svg>
