<svg xmlns="http://www.w3.org/2000/svg" xmlns:xlink="http://www.w3.org/1999/xlink" width="614.091" height="331.409" viewBox="0 0 614.091 331.409">
  <defs>
    <clipPath id="clip-path">
      <path id="Path_1690" data-name="Path 1690" d="M6078.533,1875.122l14.493-.03-10.143,33.114-14.493.029Z" transform="translate(-6068.391 -1875.093)" fill="none"/>
    </clipPath>
    <clipPath id="clip-path-2">
      <path id="Path_1691" data-name="Path 1691" d="M6066.558,1875.122l14.493-.03-10.134,33.114-14.494.029Z" transform="translate(-6056.423 -1875.093)" fill="none"/>
    </clipPath>
  </defs>
  <g id="Group_3328" data-name="Group 3328" transform="translate(-332.955 -1099.963)">
    <g id="グループ_1580" data-name="グループ 1580" transform="translate(332.954 1099.963)">
      <path id="パス_1396" data-name="パス 1396" d="M5876.725,1656.358a35.571,35.571,0,0,1-6.246,2.555,39.706,39.706,0,0,1-6.441,1.367,54.066,54.066,0,0,1-6.726.409,34.863,34.863,0,0,1-11.513-1.777,24.937,24.937,0,0,1-8.838-5.235,22.142,22.142,0,0,1-5.605-8.091,26.952,26.952,0,0,1-1.865-10.167,26.3,26.3,0,0,1,2.2-11.124,21.515,21.515,0,0,1,6.157-7.931,26.4,26.4,0,0,1,9.014-4.666,37.168,37.168,0,0,1,10.664-1.507,58.1,58.1,0,0,1,18.986,3.725v13.061a52.471,52.471,0,0,0-7.222-3.781,21.457,21.457,0,0,0-8.392-1.509,19.023,19.023,0,0,0-8.02,1.705,14.8,14.8,0,0,0-6,4.861,12.937,12.937,0,0,0-.284,14.213,14.056,14.056,0,0,0,5.518,4.933,17.077,17.077,0,0,0,7.967,1.825,25.69,25.69,0,0,0,6.777-.869,30.931,30.931,0,0,0,5.375-1.926,47.532,47.532,0,0,0,4.489-2.522Z" transform="translate(-5829.485 -1610.191)" fill="#2a8648"/>
      <path id="パス_1397" data-name="パス 1397" d="M5958.069,1659.971h-15.935l-3.868-8.725a36.291,36.291,0,0,0-3.831-7.011,8.273,8.273,0,0,0-3.32-2.833,11.763,11.763,0,0,0-4.171-.622h-1.667v19.2h-14.832v-49.186h25.231a18.351,18.351,0,0,1,10.007,2.485,14.914,14.914,0,0,1,5.625,6.036,15.494,15.494,0,0,1,1.719,6.74,12.761,12.761,0,0,1-1.436,6.3,11.538,11.538,0,0,1-3.034,3.746,30.349,30.349,0,0,1-3.583,2.234,14.215,14.215,0,0,1,3.921,3.286,41.3,41.3,0,0,1,4.2,7.685Zm-20.156-33.641q0-3.4-2.237-4.759t-7.276-1.349h-3.123v11.854h3.195q5.429,0,7.434-1.19T5937.914,1626.33Z" transform="translate(-5818.712 -1610.113)" fill="#2a8648"/>
      <path id="パス_1398" data-name="パス 1398" d="M6025.339,1659.97h-37.084v-49.186h36.484v9.865h-21.647v9.013h20.653v9.9h-20.653v10.5h22.25Z" transform="translate(-5808.359 -1610.112)" fill="#2a8648"/>
      <path id="パス_1399" data-name="パス 1399" d="M6113.954,1659.97h-15.184l-4.011-9.971H6073.39l-4.08,9.971h-15.183l21.755-49.186h16.4Zm-22.605-18.525-7.2-17.957-7.274,17.957Z" transform="translate(-5799.594 -1610.112)" fill="#2a8648"/>
      <path id="パス_1400" data-name="パス 1400" d="M6182.1,1622.744h-18.027v37.225h-14.8v-37.225h-18.028v-11.96H6182.1Z" transform="translate(-5789.333 -1610.112)" fill="#2a8648"/>
      <path id="パス_1401" data-name="パス 1401" d="M6227.207,1659.97h-14.834v-49.186h14.834Z" transform="translate(-5778.54 -1610.112)" fill="#2a8648"/>
      <path id="パス_1402" data-name="パス 1402" d="M6314.391,1610.784l-22.182,49.828h-9.794l-21.754-49.828H6276.1l11.25,28.391,11.567-28.391Z" transform="translate(-5772.115 -1610.112)" fill="#2a8648"/>
      <path id="パス_1403" data-name="パス 1403" d="M6375.811,1659.97h-37.086v-49.186h36.483v9.865h-21.64v9.013h20.653v9.9h-20.653v10.5h22.25Z" transform="translate(-5761.727 -1610.112)" fill="#2a8648"/>
      <path id="パス_1404" data-name="パス 1404" d="M5943.936,1731.338a13.573,13.573,0,0,1-2.358,7.983,14.9,14.9,0,0,1-6.584,5.163,24.612,24.612,0,0,1-9.686,1.792q-1.526,0-3.747-.195a42.47,42.47,0,0,1-5.892-1.083,46.147,46.147,0,0,1-7.646-2.624v-12.067a53.512,53.512,0,0,0,7.328,3.832,19.542,19.542,0,0,0,7.716,1.526q3.8,0,4.914-1.261a3.693,3.693,0,0,0,1.12-2.359,4.023,4.023,0,0,0-1.917-3.354,27.315,27.315,0,0,0-5.57-2.821,44.074,44.074,0,0,1-7.1-3.708,16.782,16.782,0,0,1-4.985-5.021A12.913,12.913,0,0,1,5907.6,1710a13.044,13.044,0,0,1,7.914-12.314,22.593,22.593,0,0,1,9.795-1.918,34.113,34.113,0,0,1,7.609.8,32.762,32.762,0,0,1,5.767,1.793,23.072,23.072,0,0,1,3.123,1.56v11.533a40.583,40.583,0,0,0-6.725-3.869,18.774,18.774,0,0,0-7.931-1.7,6.13,6.13,0,0,0-4.012,1.064,3.322,3.322,0,0,0-1.246,2.626,3.215,3.215,0,0,0,1.246,2.517,21.677,21.677,0,0,0,4.436,2.593,88.812,88.812,0,0,1,9.085,4.79,17.987,17.987,0,0,1,5.341,4.914A11.877,11.877,0,0,1,5943.936,1731.338Z" transform="translate(-5819.092 -1598.805)" fill="#2a8648"/>
      <path id="パス_1405" data-name="パス 1405" d="M6021.936,1711.843a15.64,15.64,0,0,1-.94,5.341,14.251,14.251,0,0,1-3.032,4.863,15.166,15.166,0,0,1-5.667,3.655,22.908,22.908,0,0,1-8.394,1.4h-9.723v18.454h-14.833v-49.186h24.56a22.64,22.64,0,0,1,8.394,1.421,15.188,15.188,0,0,1,5.665,3.69,14.229,14.229,0,0,1,3.033,4.933A16.2,16.2,0,0,1,6021.936,1711.843Zm-15.116.073q0-3.513-2.075-4.81t-7.435-1.294h-3.125v11.852h3.194a26.571,26.571,0,0,0,5.678-.462,4.645,4.645,0,0,0,2.874-1.7A6.14,6.14,0,0,0,6006.819,1711.915Z" transform="translate(-5809.544 -1598.724)" fill="#2a8648"/>
      <path id="パス_1406" data-name="パス 1406" d="M6068.285,1745.556h-14.833V1696.37h14.833Z" transform="translate(-5799.685 -1598.724)" fill="#2a8648"/>
      <path id="パス_1407" data-name="パス 1407" d="M6155.914,1745.557h-15.931l-3.867-8.724a36.383,36.383,0,0,0-3.832-7.012,8.257,8.257,0,0,0-3.32-2.833,11.743,11.743,0,0,0-4.169-.623h-1.667v19.2h-14.833v-49.186h25.233a18.328,18.328,0,0,1,10,2.485,14.9,14.9,0,0,1,5.625,6.033,15.473,15.473,0,0,1,1.721,6.741,12.74,12.74,0,0,1-1.438,6.3,11.517,11.517,0,0,1-3.033,3.739,30.223,30.223,0,0,1-3.583,2.237,14.2,14.2,0,0,1,3.92,3.286,41.035,41.035,0,0,1,4.206,7.684Zm-20.155-33.641q0-3.408-2.235-4.759t-7.276-1.349h-3.122v11.852h3.193q5.428,0,7.436-1.188T6135.759,1711.915Z" transform="translate(-5792.389 -1598.725)" fill="#2a8648"/>
      <path id="パス_1408" data-name="パス 1408" d="M6236.3,1745.556h-15.182l-4.01-9.971h-21.364l-4.078,9.971h-15.184l21.755-49.186h16.4Zm-22.6-18.525-7.2-17.957-7.276,17.957Z" transform="translate(-5783.313 -1598.724)" fill="#2a8648"/>
      <path id="パス_1409" data-name="パス 1409" d="M6299.993,1745.556h-37.369V1696.37h14.835v37.4h22.535Z" transform="translate(-5771.853 -1598.724)" fill="#2a8648"/>
      <path id="パス_1410" data-name="パス 1410" d="M5919.161,1811.237h-20.4v19.908h-14.834v-49.186h35.238v9.865h-20.4v9.511h20.4Z" transform="translate(-5822.242 -1587.336)" fill="#2a8648"/>
      <path id="パス_1411" data-name="パス 1411" d="M5991.053,1831.145H5953.97v-49.186h36.484v9.865H5968.8v9.013h20.653v9.9H5968.8v10.5h22.25Z" transform="translate(-5812.92 -1587.336)" fill="#2a8648"/>
      <path id="パス_1412" data-name="パス 1412" d="M6059.912,1816.924a13.577,13.577,0,0,1-2.362,7.985,14.939,14.939,0,0,1-6.583,5.165,24.666,24.666,0,0,1-9.688,1.792q-1.527,0-3.74-.2a42.535,42.535,0,0,1-5.891-1.082,46.09,46.09,0,0,1-7.646-2.624v-12.069a53.588,53.588,0,0,0,7.327,3.832,19.554,19.554,0,0,0,7.718,1.526q3.8,0,4.917-1.261a3.683,3.683,0,0,0,1.117-2.358,4.021,4.021,0,0,0-1.916-3.354,27.238,27.238,0,0,0-5.571-2.821,43.98,43.98,0,0,1-7.1-3.71,16.808,16.808,0,0,1-4.985-5.018,12.943,12.943,0,0,1-1.934-7.138,13.043,13.043,0,0,1,7.914-12.314,22.585,22.585,0,0,1,9.794-1.918,34.269,34.269,0,0,1,7.613.793,33,33,0,0,1,5.767,1.794,22.956,22.956,0,0,1,3.122,1.56v11.533a40.45,40.45,0,0,0-6.724-3.87,18.786,18.786,0,0,0-7.931-1.7,6.118,6.118,0,0,0-4.011,1.064,3.323,3.323,0,0,0-1.247,2.626,3.219,3.219,0,0,0,1.247,2.518,21.722,21.722,0,0,0,4.436,2.59,88.378,88.378,0,0,1,9.085,4.792,17.99,17.99,0,0,1,5.343,4.914A11.886,11.886,0,0,1,6059.912,1816.924Z" transform="translate(-5803.66 -1587.417)" fill="#2a8648"/>
      <path id="パス_1413" data-name="パス 1413" d="M6130.518,1831.224h-37.367v-.959q2.161-2.092,4.759-5t6.67-7.7q1.882-2.167,3.532-4.259a37.9,37.9,0,0,0,2.821-4.064,23.334,23.334,0,0,0,1.989-4.348,14.919,14.919,0,0,0,.816-4.861,7.769,7.769,0,0,0-1.969-5.518,6.569,6.569,0,0,0-5.023-2.111q-6.031,0-12,6.244v-11.6q2.092-1.348,3.442-2.165a28.033,28.033,0,0,1,3.1-1.6,23.686,23.686,0,0,1,4.171-1.349,22.765,22.765,0,0,1,5.211-.567,18.22,18.22,0,0,1,8.2,1.827,13.869,13.869,0,0,1,5.8,5.288,15.209,15.209,0,0,1,2.11,8.073,18.987,18.987,0,0,1-.956,6.1,24.811,24.811,0,0,1-1.989,4.58q-1.026,1.735-2.731,4.292a98.822,98.822,0,0,1-6.531,8.66h15.935Z" transform="translate(-5794.403 -1587.416)" fill="#2a8648"/>
      <path id="パス_1414" data-name="パス 1414" d="M6197.03,1806.665a37.359,37.359,0,0,1-1.524,11.217,21.953,21.953,0,0,1-4.207,7.894,17.284,17.284,0,0,1-6.119,4.578,18.535,18.535,0,0,1-14.656,0,17.02,17.02,0,0,1-6.1-4.593,22.43,22.43,0,0,1-4.207-7.878,41.632,41.632,0,0,1,0-22.465,23.064,23.064,0,0,1,4.188-7.914,16.712,16.712,0,0,1,6.106-4.631,18.65,18.65,0,0,1,14.655-.017,17,17,0,0,1,6.118,4.631,22.536,22.536,0,0,1,4.226,7.966A37.357,37.357,0,0,1,6197.03,1806.665Zm-14.018,0a53.121,53.121,0,0,0-.886-10.718q-.889-4.193-4.295-4.187a3.7,3.7,0,0,0-3.461,2.343,15.164,15.164,0,0,0-1.417,5.395q-.265,3.05-.265,7.166a52.383,52.383,0,0,0,.868,10.877q.869,3.882,4.277,3.885,3.441,0,4.312-3.885a52.757,52.757,0,0,0,.873-10.877Z" transform="translate(-5785.686 -1587.415)" fill="#2a8648"/>
      <path id="パス_1415" data-name="パス 1415" d="M6260.311,1831.224h-37.365v-.959q2.163-2.092,4.759-5t6.669-7.7q1.88-2.167,3.53-4.259a37.907,37.907,0,0,0,2.822-4.064,23.26,23.26,0,0,0,1.986-4.348,14.866,14.866,0,0,0,.815-4.861,7.771,7.771,0,0,0-1.968-5.518,6.57,6.57,0,0,0-5.021-2.111q-6.035,0-12,6.244v-11.6q2.091-1.348,3.443-2.165a27.919,27.919,0,0,1,3.105-1.6,23.545,23.545,0,0,1,4.17-1.349,22.774,22.774,0,0,1,5.212-.567,18.221,18.221,0,0,1,8.2,1.827,13.876,13.876,0,0,1,5.8,5.288,15.223,15.223,0,0,1,2.111,8.073,18.988,18.988,0,0,1-.958,6.1,24.778,24.778,0,0,1-1.989,4.58q-1.03,1.735-2.733,4.292a98.7,98.7,0,0,1-6.529,8.66h15.935Z" transform="translate(-5777.132 -1587.416)" fill="#2a8648"/>
      <path id="パス_1416" data-name="パス 1416" d="M6325.541,1806.665a37.3,37.3,0,0,1-1.527,11.217,21.873,21.873,0,0,1-4.206,7.894,17.291,17.291,0,0,1-6.119,4.578,18.534,18.534,0,0,1-14.656,0,17.054,17.054,0,0,1-6.1-4.593,22.4,22.4,0,0,1-4.2-7.878,41.606,41.606,0,0,1,0-22.465,23.013,23.013,0,0,1,4.186-7.914,16.708,16.708,0,0,1,6.105-4.631,18.65,18.65,0,0,1,14.655-.017,16.988,16.988,0,0,1,6.118,4.631,22.483,22.483,0,0,1,4.224,7.966A37.3,37.3,0,0,1,6325.541,1806.665Zm-14.019,0a53.259,53.259,0,0,0-.89-10.718q-.885-4.193-4.292-4.187a3.7,3.7,0,0,0-3.46,2.343,15.1,15.1,0,0,0-1.42,5.395q-.267,3.05-.265,7.166a52.618,52.618,0,0,0,.868,10.877q.872,3.882,4.277,3.885,3.444,0,4.313-3.885A52.619,52.619,0,0,0,6311.522,1806.665Z" transform="translate(-5768.587 -1587.415)" fill="#2a8648"/>
    </g>
    <g id="グループ_1624" data-name="グループ 1624" transform="translate(520 1398.177)">
      <rect id="長方形_123" data-name="長方形 123" width="1.747" height="7.923" transform="translate(121.179 0.02)" fill="#2a8648"/>
      <rect id="長方形_124" data-name="長方形 124" width="1.747" height="7.923" transform="translate(124.146 0.018)" fill="#2a8648"/>
      <rect id="長方形_125" data-name="長方形 125" width="1.747" height="7.92" transform="translate(106.623 0.031)" fill="#2a8648"/>
      <rect id="長方形_126" data-name="長方形 126" width="1.747" height="7.92" transform="translate(109.521 0.029)" fill="#2a8648"/>
      <rect id="長方形_127" data-name="長方形 127" width="1.747" height="7.923" transform="translate(112.414 0.027)" fill="#2a8648"/>
      <rect id="長方形_128" data-name="長方形 128" width="1.747" height="7.923" transform="translate(115.383 0.025)" fill="#2a8648"/>
      <rect id="長方形_129" data-name="長方形 129" width="1.747" height="7.923" transform="translate(138.859 0.007)" fill="#2a8648"/>
      <rect id="長方形_130" data-name="長方形 130" width="1.747" height="7.923" transform="translate(141.757 0.005)" fill="#2a8648"/>
      <rect id="長方形_131" data-name="長方形 131" width="1.747" height="7.923" transform="translate(144.724 0.004)" fill="#2a8648"/>
      <rect id="長方形_132" data-name="長方形 132" width="1.747" height="7.923" transform="translate(147.68 0)" fill="#2a8648"/>
      <rect id="長方形_135" data-name="長方形 135" width="1.747" height="7.923" transform="translate(130.099 0.014)" fill="#2a8648"/>
      <rect id="長方形_137" data-name="長方形 137" width="1.747" height="7.923" transform="translate(127.076 0.016)" fill="#2a8648"/>
      <rect id="長方形_138" data-name="長方形 138" width="1.747" height="7.923" transform="translate(135.964 0.009)" fill="#2a8648"/>
      <rect id="長方形_123-2" data-name="長方形 123-2" width="1.747" height="7.923" transform="translate(121.179 25.268)" fill="#2a8648"/>
      <rect id="長方形_124-2" data-name="長方形 124-2" width="1.747" height="7.923" transform="translate(124.146 25.266)" fill="#2a8648"/>
      <rect id="長方形_129-2" data-name="長方形 129-2" width="1.747" height="7.923" transform="translate(138.635 25.255)" fill="#2a8648"/>
      <rect id="長方形_130-2" data-name="長方形 130-2" width="1.747" height="7.923" transform="translate(141.532 25.254)" fill="#2a8648"/>
      <rect id="長方形_131-2" data-name="長方形 131-2" width="1.747" height="7.923" transform="translate(144.497 25.252)" fill="#2a8648"/>
      <rect id="長方形_132-2" data-name="長方形 132-2" width="1.747" height="7.923" transform="translate(147.453 25.248)" fill="#2a8648"/>
      <rect id="長方形_135-2" data-name="長方形 135-2" width="1.747" height="7.923" transform="translate(130.099 25.263)" fill="#2a8648"/>
      <rect id="長方形_137-2" data-name="長方形 137-2" width="1.747" height="7.923" transform="translate(127.076 25.265)" fill="#2a8648"/>
      <rect id="長方形_138-2" data-name="長方形 138-2" width="1.747" height="7.923" transform="translate(135.964 25.257)" fill="#2a8648"/>
      <rect id="長方形_124-3" data-name="長方形 124-3" width="1.747" height="7.923" transform="translate(106.726 25.265)" fill="#2a8648"/>
      <rect id="長方形_129-3" data-name="長方形 129-3" width="1.747" height="7.923" transform="translate(121.215 25.255)" fill="#2a8648"/>
      <rect id="長方形_135-3" data-name="長方形 135-3" width="1.747" height="7.923" transform="translate(112.679 25.261)" fill="#2a8648"/>
      <rect id="長方形_136" data-name="長方形 136" width="1.747" height="7.923" transform="translate(115.577 25.259)" fill="#2a8648"/>
      <rect id="長方形_137-3" data-name="長方形 137-3" width="1.747" height="7.923" transform="translate(109.656 25.263)" fill="#2a8648"/>
      <rect id="長方形_123-3" data-name="長方形 123-3" width="1.747" height="7.923" transform="translate(121.179 12.63)" fill="#2a8648"/>
      <rect id="長方形_124-4" data-name="長方形 124-4" width="1.747" height="7.923" transform="translate(124.146 12.626)" fill="#2a8648"/>
      <rect id="長方形_125-2" data-name="長方形 125-2" width="1.747" height="7.92" transform="translate(106.623 12.64)" fill="#2a8648"/>
      <rect id="長方形_126-2" data-name="長方形 126-2" width="1.747" height="7.92" transform="translate(109.521 12.637)" fill="#2a8648"/>
      <rect id="長方形_127-2" data-name="長方形 127-2" width="1.747" height="7.923" transform="translate(112.414 12.635)" fill="#2a8648"/>
      <rect id="長方形_128-2" data-name="長方形 128-2" width="1.747" height="7.923" transform="translate(115.383 12.633)" fill="#2a8648"/>
      <rect id="長方形_129-4" data-name="長方形 129-4" width="1.747" height="7.923" transform="translate(138.859 12.615)" fill="#2a8648"/>
      <rect id="長方形_130-3" data-name="長方形 130-3" width="1.747" height="7.923" transform="translate(141.757 12.613)" fill="#2a8648"/>
      <rect id="長方形_131-3" data-name="長方形 131-3" width="1.747" height="7.923" transform="translate(144.724 12.611)" fill="#2a8648"/>
      <rect id="長方形_132-3" data-name="長方形 132-3" width="1.747" height="7.923" transform="translate(147.68 12.609)" fill="#2a8648"/>
      <rect id="長方形_135-4" data-name="長方形 135-4" width="1.747" height="7.923" transform="translate(130.099 12.622)" fill="#2a8648"/>
      <rect id="長方形_137-4" data-name="長方形 137-4" width="1.747" height="7.923" transform="translate(127.076 12.624)" fill="#2a8648"/>
      <rect id="長方形_135-5" data-name="長方形 135-5" width="1.747" height="7.923" transform="translate(133.123 25.263)" fill="#2a8648"/>
      <rect id="長方形_138-3" data-name="長方形 138-3" width="1.747" height="7.923" transform="translate(135.964 12.617)" fill="#2a8648"/>
      <rect id="長方形_1247" data-name="長方形 1247" width="16.046" height="33.184" transform="translate(103.72 0)" fill="#2a8648"/>
      <rect id="長方形_1248" data-name="長方形 1248" width="16.046" height="33.184" transform="translate(157.282 0)" fill="#2a8648"/>
      <rect id="長方形_1249" data-name="長方形 1249" width="16.046" height="20.568" transform="translate(133.386 0)" fill="#2a8648"/>
      <rect id="長方形_1250" data-name="長方形 1250" width="32.103" height="7.94" transform="translate(117.33 25.255)" fill="#2a8648"/>
      <rect id="長方形_123-4" data-name="長方形 123-4" width="1.747" height="7.923" transform="translate(174.601 12.646)" fill="#2a8648"/>
      <rect id="長方形_124-5" data-name="長方形 124-5" width="1.747" height="7.923" transform="translate(177.568 12.644)" fill="#2a8648"/>
      <rect id="長方形_129-5" data-name="長方形 129-5" width="1.747" height="7.923" transform="translate(192.285 12.633)" fill="#2a8648"/>
      <rect id="長方形_130-4" data-name="長方形 130-4" width="1.747" height="7.923" transform="translate(195.182 12.631)" fill="#2a8648"/>
      <rect id="長方形_131-4" data-name="長方形 131-4" width="1.747" height="7.923" transform="translate(198.147 12.63)" fill="#2a8648"/>
      <rect id="長方形_132-4" data-name="長方形 132-4" width="1.747" height="7.923" transform="translate(201.104 12.628)" fill="#2a8648"/>
      <rect id="長方形_135-6" data-name="長方形 135-6" width="1.747" height="7.923" transform="translate(183.523 12.64)" fill="#2a8648"/>
      <rect id="長方形_137-5" data-name="長方形 137-5" width="1.747" height="7.923" transform="translate(180.499 12.642)" fill="#2a8648"/>
      <rect id="長方形_138-4" data-name="長方形 138-4" width="1.747" height="7.923" transform="translate(189.387 12.635)" fill="#2a8648"/>
      <rect id="長方形_123-5" data-name="長方形 123-5" width="1.747" height="7.923" transform="translate(174.601 25.255)" fill="#2a8648"/>
      <rect id="長方形_124-6" data-name="長方形 124-6" width="1.747" height="7.923" transform="translate(177.568 25.254)" fill="#2a8648"/>
      <rect id="長方形_129-6" data-name="長方形 129-6" width="1.747" height="7.923" transform="translate(192.285 25.241)" fill="#2a8648"/>
      <rect id="長方形_130-5" data-name="長方形 130-5" width="1.747" height="7.923" transform="translate(195.182 25.239)" fill="#2a8648"/>
      <rect id="長方形_131-5" data-name="長方形 131-5" width="1.747" height="7.923" transform="translate(198.147 25.237)" fill="#2a8648"/>
      <rect id="長方形_132-5" data-name="長方形 132-5" width="1.747" height="7.923" transform="translate(201.104 25.235)" fill="#2a8648"/>
      <rect id="長方形_135-7" data-name="長方形 135-7" width="1.747" height="7.923" transform="translate(183.523 25.248)" fill="#2a8648"/>
      <rect id="長方形_137-6" data-name="長方形 137-6" width="1.747" height="7.923" transform="translate(180.499 25.25)" fill="#2a8648"/>
      <rect id="長方形_138-5" data-name="長方形 138-5" width="1.747" height="7.923" transform="translate(189.387 25.245)" fill="#2a8648"/>
      <rect id="長方形_1251" data-name="長方形 1251" width="16.046" height="20.568" transform="translate(186.809 12.626)" fill="#2a8648"/>
      <g id="グループ_1621" data-name="グループ 1621" transform="translate(73.137 0.051)">
        <g id="Group_1694" data-name="Group 1694">
          <g id="Group_1693" data-name="Group 1693" clip-path="url(#clip-path)">
            <g id="グループ_1620" data-name="グループ 1620" transform="translate(-0.604 -17.566)">
              <path id="パス_1562" data-name="パス 1562" d="M6068.069,1914.167v-1.748l25.8-.026v1.749Zm.015,14.555v-1.749l25.8-.025v1.747Zm0-2.894v-1.754l25.8-.026v1.747Zm0-2.9v-1.748l25.8-.026v1.749Zm0-2.9v-1.747l25.8-.028v1.749Zm0-2.969v-1.746l25.8-.025v1.746Zm-.015-14.553v-1.749l25.8-.026v1.747Zm0-2.9v-1.746l25.8-.027v1.749Zm0-2.967V1894.9l25.8-.025v1.746Zm.015,14.627v-1.749l25.8-.025v1.747Zm0-2.9v-1.749l25.8-.025v1.749Zm0-2.969v-1.746l25.8-.028v1.749Zm-.024-23.476v-1.747l25.8-.027v1.748Zm0-2.9v-1.748l25.8-.026v1.747Zm0-2.967v-1.746l25.8-.027v1.748Zm0-2.954v-1.749l25.8-.025v1.749Zm0-2.9v-1.747l25.8-.025v1.747Zm0-2.967V1865.5l25.8-.025v1.747Zm.024,23.447v-1.747l25.8-.025v1.747Zm0-2.9v-1.748l25.8-.025v1.746Zm0,5.919v-1.749l25.8-.025v1.748Zm-.011-8.888v-1.749l25.8-.025v1.748Z" transform="translate(-6068.06 -1865.478)" fill="#2a8648"/>
            </g>
          </g>
        </g>
      </g>
      <g id="グループ_1623" data-name="グループ 1623" transform="translate(51.275 0.051)">
        <g id="Group_1696" data-name="Group 1696">
          <g id="Group_1695" data-name="Group 1695" clip-path="url(#clip-path-2)">
            <g id="グループ_1622" data-name="グループ 1622" transform="translate(-0.61 -17.566)">
              <path id="パス_1563" data-name="パス 1563" d="M6056.1,1914.167v-1.748l25.8-.026v1.749Zm.019,14.555v-1.749l25.8-.025v1.747Zm0-2.894v-1.754l25.8-.026v1.747Zm0-2.9v-1.748l25.8-.026v1.749Zm0-2.9v-1.747l25.8-.028v1.749Zm0-2.969v-1.746l25.8-.025v1.746Zm-.018-14.553v-1.749l25.8-.026v1.747Zm0-2.9v-1.746l25.8-.027v1.749Zm0-2.967V1894.9l25.8-.025v1.746Zm.018,14.627v-1.749l25.8-.025v1.747Zm0-2.9v-1.749l25.8-.025v1.749Zm0-2.969v-1.746l25.8-.028v1.749Zm-.027-23.476v-1.747l25.8-.027v1.748Zm0-2.9v-1.748l25.8-.026v1.747Zm0-2.967v-1.746l25.8-.027v1.748Zm0-2.954v-1.749l25.8-.025v1.749Zm0-2.9v-1.747l25.8-.025v1.747Zm0-2.967V1865.5l25.8-.025v1.747Zm.026,23.447v-1.747l25.8-.025v1.747Zm0-2.9v-1.748l25.8-.025v1.746Zm0,5.919v-1.749l25.8-.025v1.748Zm-.011-8.888v-1.749l25.8-.025v1.748Z" transform="translate(-6056.09 -1865.478)" fill="#2a8648"/>
            </g>
          </g>
        </g>
      </g>
      <path id="パス_1564" data-name="パス 1564" d="M6077.223,1875.08h-14.5l10.048,33.137h14.493Z" transform="translate(-5999.935 -1875.053)" fill="#2a8648"/>
      <path id="パス_1565" data-name="パス 1565" d="M6065.37,1875.08h-14.492l10.048,33.137h14.493Z" transform="translate(-6009.736 -1875.053)" fill="#2a8648"/>
      <ellipse id="楕円形_46" data-name="楕円形 46" cx="5.673" cy="5.673" rx="5.673" ry="5.673" transform="translate(0 10.284)" fill="#2a8648"/>
      <ellipse id="楕円形_47" data-name="楕円形 47" cx="5.673" cy="5.673" rx="5.673" ry="5.673" transform="translate(228.655 10.284)" fill="#2a8648"/>
    </g>
  </g>
</svg>
