<svg xmlns="http://www.w3.org/2000/svg" width="92.873" height="111.526" viewBox="0 0 92.873 111.526">
  <g id="Group_2740" data-name="Group 2740" transform="translate(4096.422 -10490.313)">
    <rect id="Rectangle_2476" data-name="Rectangle 2476" width="33.069" height="25.973" rx="12.987" transform="translate(-4066.548 10555.9)" fill="#59aac3"/>
    <path id="Path_5742" data-name="Path 5742" d="M-3789.137,11041.448h-4.247v-20.691h-12.587v-4.246h16.834Z" transform="translate(-233.31 -442.596)" fill="#59aac3"/>
    <path id="Path_5743" data-name="Path 5743" d="M-3993.126,11041.448h-4.247v-24.937h17.307v4.246h-13.06Z" transform="translate(-79.562 -442.596)" fill="#59aac3"/>
    <path id="Path_5744" data-name="Path 5744" d="M-3829.985,11032.012h-4.247v-11.255h-4.059v-4.246h8.306Z" transform="translate(-207.348 -442.596)" fill="#59aac3"/>
    <path id="Path_5745" data-name="Path 5745" d="M-3920.731,11040.64h-4.246v-24.129h8.5v4.246h-4.257Z" transform="translate(-137.716 -442.596)" fill="#59aac3"/>
    <path id="Path_5746" data-name="Path 5746" d="M-4057.523,11009.617h-4.247v-34.674l27.39,3.621-.558,4.21-22.585-2.984Z" transform="translate(-27.835 -409.206)" fill="#59aac3"/>
    <path id="Path_5747" data-name="Path 5747" d="M-3925.023,11080.157v-11.826h-7.3v14.282c0,1.9,2,3.448,4.465,3.448h4.9a2.835,2.835,0,0,0,3.14-2.95h0a2.836,2.836,0,0,0-3.14-2.954Z" transform="translate(-131.814 -484.222)" fill="#ef463a"/>
    <path id="Path_5748" data-name="Path 5748" d="M-4000.843,11080.157v-11.826h-7.3v14.282c0,1.9,2,3.448,4.466,3.448h4.9a2.834,2.834,0,0,0,3.139-2.95h0a2.835,2.835,0,0,0-3.139-2.954Z" transform="translate(-70.909 -484.222)" fill="#ef463a"/>
    <path id="Path_5749" data-name="Path 5749" d="M-3848.1,11080.157v-11.826h7.3v14.282c0,1.9-2,3.448-4.466,3.448h-4.9a2.835,2.835,0,0,1-3.14-2.95h0a2.836,2.836,0,0,1,3.14-2.954Z" transform="translate(-195.284 -484.222)" fill="#ef463a"/>
    <path id="Path_5750" data-name="Path 5750" d="M-3771.275,11080.157v-11.826h7.3v14.282c0,1.9-2,3.448-4.465,3.448h-4.9a2.836,2.836,0,0,1-3.14-2.95h0a2.837,2.837,0,0,1,3.14-2.954Z" transform="translate(-256.998 -484.222)" fill="#ef463a"/>
    <path id="Path_5751" data-name="Path 5751" d="M-4091.217,11080.157v-11.826h7.3v14.282c0,1.9-2,3.448-4.465,3.448h-4.9a2.835,2.835,0,0,1-3.14-2.95h0a2.836,2.836,0,0,1,3.14-2.954Z" transform="translate(0 -484.222)" fill="#ef463a"/>
    <path id="Path_5752" data-name="Path 5752" d="M-3768.383,11009.617h-4.246v-29.827l-22.586,2.984-.557-4.21,27.39-3.621Z" transform="translate(-241.501 -409.206)" fill="#59aac3"/>
    <path id="Path_5753" data-name="Path 5753" d="M-3981.086,10910.261h-16.836v-24.937h4.247v20.69h12.589Z" transform="translate(-79.122 -337.219)" fill="#59aac3"/>
    <path id="Path_5754" data-name="Path 5754" d="M-3791.614,10910.261h-17.307v-4.246h13.06v-20.69h4.247Z" transform="translate(-230.94 -337.219)" fill="#59aac3"/>
    <circle id="Ellipse_403" data-name="Ellipse 403" cx="3.114" cy="3.114" r="3.114" transform="translate(-4057.686 10564.144)" fill="#fff"/>
    <circle id="Ellipse_404" data-name="Ellipse 404" cx="3.114" cy="3.114" r="3.114" transform="translate(-4048.568 10564.144)" fill="#fff"/>
    <circle id="Ellipse_405" data-name="Ellipse 405" cx="1.997" cy="1.997" r="1.997" transform="translate(-4056.57 10565.26)"/>
    <circle id="Ellipse_406" data-name="Ellipse 406" cx="1.997" cy="1.997" r="1.997" transform="translate(-4047.451 10565.26)"/>
    <path id="Path_5755" data-name="Path 5755" d="M-4000.843,10853.819v11.828h-7.3v-14.279c0-1.908,2-3.453,4.466-3.453h4.9a2.834,2.834,0,0,1,3.139,2.953h0a2.835,2.835,0,0,1-3.139,2.951Z" transform="translate(-70.909 -307.169)" fill="#ef463a"/>
    <path id="Path_5756" data-name="Path 5756" d="M-3771.275,10853.819v11.828h7.3v-14.279c0-1.908-2-3.453-4.465-3.453h-4.9a2.836,2.836,0,0,0-3.14,2.953h0a2.837,2.837,0,0,0,3.14,2.951Z" transform="translate(-256.998 -307.169)" fill="#ef463a"/>
    <path id="Path_5757" data-name="Path 5757" d="M-3872.294,11006.078a4,4,0,0,1-3.816,4.168,4,4,0,0,1-3.816-4.168" transform="translate(-173.904 -434.216)" fill="#f086ab"/>
    <path id="Path_5758" data-name="Path 5758" d="M-3680.614,11080.157v-11.826h-7.3v14.282c0,1.9,2,3.448,4.466,3.448h4.9a2.834,2.834,0,0,0,3.139-2.95h0a2.835,2.835,0,0,0-3.139-2.954Z" transform="translate(-328.14 -484.222)" fill="#ef463a"/>
    <rect id="Rectangle_2477" data-name="Rectangle 2477" width="1.572" height="65.587" transform="translate(-4050.8 10490.313)" fill="#59aac3"/>
  </g>
</svg>
