<svg xmlns="http://www.w3.org/2000/svg" width="92.873" height="862.55" viewBox="0 0 92.873 862.55">
  <g id="Group_3292" data-name="Group 3292" transform="translate(-1970.921 10014.5)">
    <rect id="Rectangle_2476" data-name="Rectangle 2476" width="33.069" height="25.973" rx="12.987" transform="translate(2000.795 -9197.889)" fill="#59aac3"/>
    <path id="Path_5742" data-name="Path 5742" d="M-3789.137,11041.448h-4.247v-20.691h-12.587v-4.246h16.834Z" transform="translate(5834.033 -20196.385)" fill="#59aac3"/>
    <path id="Path_5743" data-name="Path 5743" d="M-3993.126,11041.448h-4.247v-24.937h17.307v4.246h-13.06Z" transform="translate(5987.781 -20196.385)" fill="#59aac3"/>
    <path id="Path_5744" data-name="Path 5744" d="M-3829.985,11032.012h-4.247v-11.255h-4.059v-4.246h8.306Z" transform="translate(5859.995 -20196.385)" fill="#59aac3"/>
    <path id="Path_5745" data-name="Path 5745" d="M-3920.731,11040.64h-4.246v-24.129h8.5v4.246h-4.257Z" transform="translate(5929.626 -20196.385)" fill="#59aac3"/>
    <path id="Path_5746" data-name="Path 5746" d="M-4057.523,11009.617h-4.247v-34.674l27.39,3.621-.558,4.21-22.585-2.984Z" transform="translate(6039.508 -20162.996)" fill="#59aac3"/>
    <path id="Path_5747" data-name="Path 5747" d="M-3925.023,11080.157v-11.826h-7.3v14.282c0,1.9,2,3.448,4.465,3.448h4.9a2.835,2.835,0,0,0,3.14-2.95h0a2.836,2.836,0,0,0-3.14-2.954Z" transform="translate(5935.529 -20238.012)" fill="#ef463a"/>
    <path id="Path_5748" data-name="Path 5748" d="M-4000.843,11080.157v-11.826h-7.3v14.282c0,1.9,2,3.448,4.466,3.448h4.9a2.834,2.834,0,0,0,3.139-2.95h0a2.835,2.835,0,0,0-3.139-2.954Z" transform="translate(5996.434 -20238.012)" fill="#ef463a"/>
    <path id="Path_5749" data-name="Path 5749" d="M-3848.1,11080.157v-11.826h7.3v14.282c0,1.9-2,3.448-4.466,3.448h-4.9a2.835,2.835,0,0,1-3.14-2.95h0a2.836,2.836,0,0,1,3.14-2.954Z" transform="translate(5872.059 -20238.012)" fill="#ef463a"/>
    <path id="Path_5750" data-name="Path 5750" d="M-3771.275,11080.157v-11.826h7.3v14.282c0,1.9-2,3.448-4.465,3.448h-4.9a2.836,2.836,0,0,1-3.14-2.95h0a2.837,2.837,0,0,1,3.14-2.954Z" transform="translate(5810.345 -20238.012)" fill="#ef463a"/>
    <path id="Path_5751" data-name="Path 5751" d="M-4091.217,11080.157v-11.826h7.3v14.282c0,1.9-2,3.448-4.465,3.448h-4.9a2.835,2.835,0,0,1-3.14-2.95h0a2.836,2.836,0,0,1,3.14-2.954Z" transform="translate(6067.343 -20238.012)" fill="#ef463a"/>
    <path id="Path_5752" data-name="Path 5752" d="M-3768.383,11009.617h-4.246v-29.827l-22.586,2.984-.557-4.21,27.39-3.621Z" transform="translate(5825.841 -20162.996)" fill="#59aac3"/>
    <path id="Path_5753" data-name="Path 5753" d="M-3981.086,10910.261h-16.836v-24.937h4.247v20.69h12.589Z" transform="translate(5988.221 -20091.008)" fill="#59aac3"/>
    <path id="Path_5754" data-name="Path 5754" d="M-3791.614,10910.261h-17.307v-4.246h13.06v-20.69h4.247Z" transform="translate(5836.403 -20091.008)" fill="#59aac3"/>
    <circle id="Ellipse_403" data-name="Ellipse 403" cx="3.114" cy="3.114" r="3.114" transform="translate(2009.656 -9189.646)" fill="#fff"/>
    <circle id="Ellipse_404" data-name="Ellipse 404" cx="3.114" cy="3.114" r="3.114" transform="translate(2018.775 -9189.646)" fill="#fff"/>
    <circle id="Ellipse_405" data-name="Ellipse 405" cx="1.997" cy="1.997" r="1.997" transform="translate(2010.773 -9188.529)"/>
    <circle id="Ellipse_406" data-name="Ellipse 406" cx="1.997" cy="1.997" r="1.997" transform="translate(2019.892 -9188.529)"/>
    <path id="Path_5755" data-name="Path 5755" d="M-4000.843,10853.819v11.828h-7.3v-14.279c0-1.908,2-3.453,4.466-3.453h4.9a2.834,2.834,0,0,1,3.139,2.953h0a2.835,2.835,0,0,1-3.139,2.951Z" transform="translate(5996.434 -20060.957)" fill="#ef463a"/>
    <path id="Path_5756" data-name="Path 5756" d="M-3771.275,10853.819v11.828h7.3v-14.279c0-1.908-2-3.453-4.465-3.453h-4.9a2.836,2.836,0,0,0-3.14,2.953h0a2.837,2.837,0,0,0,3.14,2.951Z" transform="translate(5810.345 -20060.957)" fill="#ef463a"/>
    <path id="Path_5757" data-name="Path 5757" d="M-3872.294,11006.078a4,4,0,0,1-3.816,4.168,4,4,0,0,1-3.816-4.168" transform="translate(5893.438 -20188.006)" fill="#f086ab"/>
    <path id="Path_5758" data-name="Path 5758" d="M-3680.614,11080.157v-11.826h-7.3v14.282c0,1.9,2,3.448,4.466,3.448h4.9a2.834,2.834,0,0,0,3.139-2.95h0a2.835,2.835,0,0,0-3.139-2.954Z" transform="translate(5739.203 -20238.012)" fill="#ef463a"/>
    <path id="Path_6278" data-name="Path 6278" d="M0,23.507V-750.976L1.572,74.258h0Z" transform="translate(2015.543 -9263.524)" fill="#59aac3"/>
  </g>
</svg>
