<svg xmlns="http://www.w3.org/2000/svg" width="93.069" height="1367.954" viewBox="0 0 93.069 1367.954">
  <g id="Group_3604" data-name="Group 3604" transform="translate(-1841 10519.762)">
    <g id="Group_3557" data-name="Group 3557" transform="translate(2068 -907)">
      <rect id="Rectangle_2802" data-name="Rectangle 2802" width="29.315" height="23.025" rx="11.512" transform="translate(-195.599 -8314.791)" fill="#59aac3"/>
      <path id="Path_6568" data-name="Path 6568" d="M-3791.048,11038.617h-3.765v-18.343h-11.158v-3.764h14.923Z" transform="translate(3634.544 -19315.332)" fill="#59aac3"/>
      <path id="Path_6569" data-name="Path 6569" d="M-3993.609,11038.617h-3.765v-22.106h15.343v3.764h-11.577Z" transform="translate(3792.567 -19315.332)" fill="#59aac3"/>
      <path id="Path_6570" data-name="Path 6570" d="M-3830.928,11030.252h-3.765v-9.978h-3.6v-3.764h7.363Z" transform="translate(3661.228 -19315.332)" fill="#59aac3"/>
      <path id="Path_6571" data-name="Path 6571" d="M-3921.213,11037.9h-3.764v-21.39h7.538v3.764h-3.774Z" transform="translate(3732.795 -19315.332)" fill="#59aac3"/>
      <path id="Path_6572" data-name="Path 6572" d="M-4058,11005.681h-3.765v-30.737l24.281,3.209-.495,3.732-20.021-2.646Z" transform="translate(3845.731 -19281.016)" fill="#59aac3"/>
      <path id="Path_6573" data-name="Path 6573" d="M-4001.672,11078.815v-10.485h-6.474v12.663c0,1.686,1.773,3.057,3.959,3.057h4.345a2.514,2.514,0,0,0,2.783-2.617h0a2.513,2.513,0,0,0-2.783-2.617Z" transform="translate(3801.459 -19358.117)" fill="#ef463a"/>
      <path id="Path_6574" data-name="Path 6574" d="M-3771.866,11078.815v-10.485h6.473v12.663c0,1.686-1.772,3.057-3.958,3.057h-4.346a2.515,2.515,0,0,1-2.783-2.617h0a2.514,2.514,0,0,1,2.783-2.617Z" transform="translate(3610.197 -19358.117)" fill="#ef463a"/>
      <path id="Path_6575" data-name="Path 6575" d="M-4091.808,11078.815v-10.485h6.473v12.663c0,1.686-1.772,3.057-3.958,3.057h-4.346a2.515,2.515,0,0,1-2.783-2.617h0a2.513,2.513,0,0,1,2.783-2.617Z" transform="translate(3874.341 -19358.117)" fill="#ef463a"/>
      <path id="Path_6576" data-name="Path 6576" d="M-3771.492,11005.681h-3.764v-26.442l-20.022,2.646-.494-3.732,24.281-3.209Z" transform="translate(3626.125 -19281.016)" fill="#59aac3"/>
      <path id="Path_6577" data-name="Path 6577" d="M-3983,10907.43h-14.925v-22.1h3.765v18.341H-3983Z" transform="translate(3793.019 -19207.025)" fill="#59aac3"/>
      <path id="Path_6578" data-name="Path 6578" d="M-3793.579,10907.43h-15.343v-3.764h11.577v-18.341h3.765Z" transform="translate(3636.98 -19207.025)" fill="#59aac3"/>
      <circle id="Ellipse_598" data-name="Ellipse 598" cx="2.76" cy="2.76" r="2.76" transform="translate(-187.743 -8307.483)" fill="#fff"/>
      <circle id="Ellipse_599" data-name="Ellipse 599" cx="2.76" cy="2.76" r="2.76" transform="translate(-179.66 -8307.483)" fill="#fff"/>
      <circle id="Ellipse_600" data-name="Ellipse 600" cx="1.77" cy="1.77" r="1.77" transform="translate(-186.753 -8306.493)"/>
      <circle id="Ellipse_601" data-name="Ellipse 601" cx="1.77" cy="1.77" r="1.77" transform="translate(-178.67 -8306.493)"/>
      <path id="Path_6579" data-name="Path 6579" d="M-4001.672,10853.148v10.486h-6.474v-12.659c0-1.69,1.773-3.061,3.959-3.061h4.345a2.512,2.512,0,0,1,2.783,2.617h0a2.514,2.514,0,0,1-2.783,2.616Z" transform="translate(3801.459 -19176.141)" fill="#ef463a"/>
      <path id="Path_6580" data-name="Path 6580" d="M-3771.866,10853.148v10.486h6.473v-12.659c0-1.69-1.772-3.061-3.958-3.061h-4.346a2.514,2.514,0,0,0-2.783,2.617h0a2.515,2.515,0,0,0,2.783,2.616Z" transform="translate(3610.197 -19176.141)" fill="#ef463a"/>
      <path id="パス_6557" data-name="パス 6557" d="M-6798.613-2039.314h0a67.143,67.143,0,0,1,93.069,8.125h0A67.143,67.143,0,0,1-6798.613-2039.314Z" transform="translate(6571.613 -6228.652)" fill="#59aac3"/>
      <path id="Path_6581" data-name="Path 6581" d="M-3873.16,11006.078a3.55,3.55,0,0,1-3.383,3.7,3.55,3.55,0,0,1-3.383-3.7" transform="translate(3695.601 -19306.719)" fill="#f086ab"/>
      <path id="Path_6582" data-name="Path 6582" d="M-3681.442,11078.815v-10.485h-6.473v12.663c0,1.686,1.772,3.057,3.959,3.057h4.346a2.514,2.514,0,0,0,2.782-2.617h0a2.512,2.512,0,0,0-2.782-2.617Z" transform="translate(3537.078 -19358.117)" fill="#ef463a"/>
      <g id="Group_3359" data-name="Group 3359" transform="translate(-207.25 -8267.92)">
        <path id="Path_6553" data-name="Path 6553" d="M153.387,165.409h-2.571V160.47l-2.318,2.86h-.2l-2.325-2.86v4.939h-2.5v-8.525H145.8l2.62,3.2,2.633-3.2h2.331Z" transform="translate(-143.472 -156.884)" fill="#fffcf3"/>
        <path id="Path_6554" data-name="Path 6554" d="M172.845,165.409h-6.428v-8.525h6.323v1.71h-3.751v1.563h3.579v1.716h-3.579v1.821h3.856Z" transform="translate(-150.571 -156.884)" fill="#fffcf3"/>
        <path id="Path_6555" data-name="Path 6555" d="M192.946,165.409h-2.289l-4.422-4.748v4.748h-2.546v-8.525h2.282l4.41,4.724v-4.724h2.565Z" transform="translate(-155.914 -156.884)" fill="#fffcf3"/>
        <path id="Path_6556" data-name="Path 6556" d="M214.492,161.59a3.968,3.968,0,0,1-.41,1.867,3.279,3.279,0,0,1-1.083,1.22,4.661,4.661,0,0,1-1.451.646,6.322,6.322,0,0,1-1.555.2,6.152,6.152,0,0,1-2.106-.37,3.745,3.745,0,0,1-1.713-1.255,3.649,3.649,0,0,1-.689-2.306v-4.706h2.565v4.042a3.461,3.461,0,0,0,.244,1.392,1.681,1.681,0,0,0,.677.807,2.153,2.153,0,0,0,2.026,0,1.653,1.653,0,0,0,.681-.8,3.445,3.445,0,0,0,.244-1.39v-4.054h2.571Z" transform="translate(-162.657 -156.884)" fill="#fffcf3"/>
      </g>
      <path id="Path_6583" data-name="Path 6583" d="M-3925.852,11078.815v-10.485h-6.473v12.663c0,1.686,1.772,3.057,3.958,3.057h4.346a2.515,2.515,0,0,0,2.783-2.617h0a2.514,2.514,0,0,0-2.783-2.617Z" transform="translate(3738.861 -19358.117)" fill="#ef463a"/>
      <path id="Path_6584" data-name="Path 6584" d="M-3848.695,11078.815v-10.485h6.473v12.663c0,1.686-1.772,3.057-3.959,3.057h-4.345a2.515,2.515,0,0,1-2.783-2.617h0a2.513,2.513,0,0,1,2.783-2.617Z" transform="translate(3673.626 -19358.117)" fill="#ef463a"/>
    </g>
    <path id="Path_6278" data-name="Path 6278" d="M0,462.5V-750.976l1.76,1293h0Z" transform="translate(1887.534 -9768.786)" fill="#59aac3"/>
    <g id="Group_3557-2" data-name="Group 3557" transform="translate(2068 -907)">
      <rect id="Rectangle_2802-2" data-name="Rectangle 2802" width="29.315" height="23.025" rx="11.512" transform="translate(-195.599 -8314.791)" fill="#59aac3"/>
      <path id="Path_6568-2" data-name="Path 6568" d="M-3791.048,11038.617h-3.765v-18.343h-11.158v-3.764h14.923Z" transform="translate(3634.544 -19315.332)" fill="#59aac3"/>
      <path id="Path_6569-2" data-name="Path 6569" d="M-3993.609,11038.617h-3.765v-22.106h15.343v3.764h-11.577Z" transform="translate(3792.567 -19315.332)" fill="#59aac3"/>
      <path id="Path_6570-2" data-name="Path 6570" d="M-3830.928,11030.252h-3.765v-9.978h-3.6v-3.764h7.363Z" transform="translate(3661.228 -19315.332)" fill="#59aac3"/>
      <path id="Path_6571-2" data-name="Path 6571" d="M-3921.213,11037.9h-3.764v-21.39h7.538v3.764h-3.774Z" transform="translate(3732.795 -19315.332)" fill="#59aac3"/>
      <path id="Path_6572-2" data-name="Path 6572" d="M-4058,11005.681h-3.765v-30.737l24.281,3.209-.495,3.732-20.021-2.646Z" transform="translate(3845.731 -19281.016)" fill="#59aac3"/>
      <path id="Path_6573-2" data-name="Path 6573" d="M-4001.672,11078.815v-10.485h-6.474v12.663c0,1.686,1.773,3.057,3.959,3.057h4.345a2.514,2.514,0,0,0,2.783-2.617h0a2.513,2.513,0,0,0-2.783-2.617Z" transform="translate(3801.459 -19358.117)" fill="#ef463a"/>
      <path id="Path_6574-2" data-name="Path 6574" d="M-3771.866,11078.815v-10.485h6.473v12.663c0,1.686-1.772,3.057-3.958,3.057h-4.346a2.515,2.515,0,0,1-2.783-2.617h0a2.514,2.514,0,0,1,2.783-2.617Z" transform="translate(3610.197 -19358.117)" fill="#ef463a"/>
      <path id="Path_6575-2" data-name="Path 6575" d="M-4091.808,11078.815v-10.485h6.473v12.663c0,1.686-1.772,3.057-3.958,3.057h-4.346a2.515,2.515,0,0,1-2.783-2.617h0a2.513,2.513,0,0,1,2.783-2.617Z" transform="translate(3874.341 -19358.117)" fill="#ef463a"/>
      <path id="Path_6576-2" data-name="Path 6576" d="M-3771.492,11005.681h-3.764v-26.442l-20.022,2.646-.494-3.732,24.281-3.209Z" transform="translate(3626.125 -19281.016)" fill="#59aac3"/>
      <path id="Path_6577-2" data-name="Path 6577" d="M-3983,10907.43h-14.925v-22.1h3.765v18.341H-3983Z" transform="translate(3793.019 -19207.025)" fill="#59aac3"/>
      <path id="Path_6578-2" data-name="Path 6578" d="M-3793.579,10907.43h-15.343v-3.764h11.577v-18.341h3.765Z" transform="translate(3636.98 -19207.025)" fill="#59aac3"/>
      <circle id="Ellipse_598-2" data-name="Ellipse 598" cx="2.76" cy="2.76" r="2.76" transform="translate(-187.743 -8307.483)" fill="#fff"/>
      <circle id="Ellipse_599-2" data-name="Ellipse 599" cx="2.76" cy="2.76" r="2.76" transform="translate(-179.66 -8307.483)" fill="#fff"/>
      <circle id="Ellipse_600-2" data-name="Ellipse 600" cx="1.77" cy="1.77" r="1.77" transform="translate(-186.753 -8306.493)"/>
      <circle id="Ellipse_601-2" data-name="Ellipse 601" cx="1.77" cy="1.77" r="1.77" transform="translate(-178.67 -8306.493)"/>
      <path id="Path_6579-2" data-name="Path 6579" d="M-4001.672,10853.148v10.486h-6.474v-12.659c0-1.69,1.773-3.061,3.959-3.061h4.345a2.512,2.512,0,0,1,2.783,2.617h0a2.514,2.514,0,0,1-2.783,2.616Z" transform="translate(3801.459 -19176.141)" fill="#ef463a"/>
      <path id="Path_6580-2" data-name="Path 6580" d="M-3771.866,10853.148v10.486h6.473v-12.659c0-1.69-1.772-3.061-3.958-3.061h-4.346a2.514,2.514,0,0,0-2.783,2.617h0a2.515,2.515,0,0,0,2.783,2.616Z" transform="translate(3610.197 -19176.141)" fill="#ef463a"/>
      <path id="パス_6557-2" data-name="パス 6557" d="M-6798.613-2039.314h0a67.143,67.143,0,0,1,93.069,8.125h0A67.143,67.143,0,0,1-6798.613-2039.314Z" transform="translate(6571.613 -6228.652)" fill="#59aac3"/>
      <path id="Path_6581-2" data-name="Path 6581" d="M-3873.16,11006.078a3.55,3.55,0,0,1-3.383,3.7,3.55,3.55,0,0,1-3.383-3.7" transform="translate(3695.601 -19306.719)" fill="#f086ab"/>
      <path id="Path_6582-2" data-name="Path 6582" d="M-3681.442,11078.815v-10.485h-6.473v12.663c0,1.686,1.772,3.057,3.959,3.057h4.346a2.514,2.514,0,0,0,2.782-2.617h0a2.512,2.512,0,0,0-2.782-2.617Z" transform="translate(3537.078 -19358.117)" fill="#ef463a"/>
      <g id="Group_3359-2" data-name="Group 3359" transform="translate(-207.25 -8267.92)">
        <path id="Path_6553-2" data-name="Path 6553" d="M153.387,165.409h-2.571V160.47l-2.318,2.86h-.2l-2.325-2.86v4.939h-2.5v-8.525H145.8l2.62,3.2,2.633-3.2h2.331Z" transform="translate(-143.472 -156.884)" fill="#fffcf3"/>
        <path id="Path_6554-2" data-name="Path 6554" d="M172.845,165.409h-6.428v-8.525h6.323v1.71h-3.751v1.563h3.579v1.716h-3.579v1.821h3.856Z" transform="translate(-150.571 -156.884)" fill="#fffcf3"/>
        <path id="Path_6555-2" data-name="Path 6555" d="M192.946,165.409h-2.289l-4.422-4.748v4.748h-2.546v-8.525h2.282l4.41,4.724v-4.724h2.565Z" transform="translate(-155.914 -156.884)" fill="#fffcf3"/>
        <path id="Path_6556-2" data-name="Path 6556" d="M214.492,161.59a3.968,3.968,0,0,1-.41,1.867,3.279,3.279,0,0,1-1.083,1.22,4.661,4.661,0,0,1-1.451.646,6.322,6.322,0,0,1-1.555.2,6.152,6.152,0,0,1-2.106-.37,3.745,3.745,0,0,1-1.713-1.255,3.649,3.649,0,0,1-.689-2.306v-4.706h2.565v4.042a3.461,3.461,0,0,0,.244,1.392,1.681,1.681,0,0,0,.677.807,2.153,2.153,0,0,0,2.026,0,1.653,1.653,0,0,0,.681-.8,3.445,3.445,0,0,0,.244-1.39v-4.054h2.571Z" transform="translate(-162.657 -156.884)" fill="#fffcf3"/>
      </g>
      <path id="Path_6583-2" data-name="Path 6583" d="M-3925.852,11078.815v-10.485h-6.473v12.663c0,1.686,1.772,3.057,3.958,3.057h4.346a2.515,2.515,0,0,0,2.783-2.617h0a2.514,2.514,0,0,0-2.783-2.617Z" transform="translate(3738.861 -19358.117)" fill="#ef463a"/>
      <path id="Path_6584-2" data-name="Path 6584" d="M-3848.695,11078.815v-10.485h6.473v12.663c0,1.686-1.772,3.057-3.959,3.057h-4.345a2.515,2.515,0,0,1-2.783-2.617h0a2.513,2.513,0,0,1,2.783-2.617Z" transform="translate(3673.626 -19358.117)" fill="#ef463a"/>
    </g>
    <path id="Path_6278-2" data-name="Path 6278" d="M0,462.5V-750.976l1.76,1293h0Z" transform="translate(1887.534 -9768.786)" fill="#59aac3"/>
  </g>
</svg>
