<svg xmlns="http://www.w3.org/2000/svg" xmlns:xlink="http://www.w3.org/1999/xlink" width="1280" height="1121.986" viewBox="0 0 1280 1121.986">
  <defs>
    <clipPath id="clip-path">
      <path id="Path_1294" data-name="Path 1294" d="M524.355,1264.524l0,3.716-39.529.044,0-3.72Zm.006,6.315,0,3.716-39.528.044,0-3.716Zm.031,31.294,0,3.716-39.529.044,0-3.717Zm-.018-18.634,0,3.717-39.528.04,0-3.716Zm.006,6.163,0,3.717-39.528.039,0-3.715Zm-.013-12.6,0,3.716-39.529.041,0-3.716Zm.019,18.9,0,3.716-39.529.04,0-3.717Z" transform="translate(-484.826 -1264.524)" fill="#fffcf3"/>
    </clipPath>
    <clipPath id="clip-path-2">
      <path id="Path_1295" data-name="Path 1295" d="M535.809,1264.513l0,3.717-39.528.042,0-3.716Zm.006,6.315,0,3.716-39.529.044,0-3.717Zm.031,31.294,0,3.719-39.529.04,0-3.716Zm-.019-18.633,0,3.716-39.529.041,0-3.716Zm.006,6.162,0,3.716-39.529.04,0-3.715Zm-.012-12.595,0,3.716-39.529.043,0-3.719Zm.019,18.9,0,3.717-39.529.043,0-3.719Z" transform="translate(-496.281 -1264.513)" fill="#fffcf3"/>
    </clipPath>
  </defs>
  <g id="Group_3499" data-name="Group 3499" transform="translate(-4801 13075)">
    <path id="Path_6567" data-name="Path 6567" d="M2644.147,1632.843c-128,0-127.994,68.823-255.988,68.823s-128-68.823-256-68.823-128,68.823-256.007,68.823-128.005-68.823-256.008-68.823V2686.006c128,0,128,68.823,256,68.823s127.995-68.823,255.989-68.823,128,68.823,256,68.823,128-68.823,256.008-68.823,128,68.823,256.008,68.823V1701.666C2772.148,1701.666,2772.148,1632.843,2644.147,1632.843Z" transform="translate(3180.854 -14707.843)" fill="#93b82c"/>
    <g id="Group_3385" data-name="Group 3385" transform="translate(4828.527 -17577)">
      <path id="パス_5614" data-name="パス 5614" d="M-1424.649-2093.17l-207.75-62.172-82.093-113.693H-1734.6l40.332,99.2-285.006-99.2-5.374,17.945,405,166.786-92.336,39.386,11.674,18,142.222-31.509,93.437,39.045Z" transform="translate(2676.119 7140.725)" fill="#ed4340"/>
      <g id="Group_2559" data-name="Group 2559" transform="translate(1070.683 4889.579)">
        <path id="Rectangle_2402" data-name="Rectangle 2402" d="M30.809,0h0A30.809,30.809,0,0,1,61.618,30.809V61.618a0,0,0,0,1,0,0H0a0,0,0,0,1,0,0V30.809A30.809,30.809,0,0,1,30.809,0Z" transform="translate(22.818 18.468)" fill="#fffcf3"/>
        <path id="Path_5621" data-name="Path 5621" d="M2981.658,6260.636h0a11.671,11.671,0,1,1-23.341,0h0a11.671,11.671,0,0,0-11.671,11.671v28.855h46.683v-28.855A11.671,11.671,0,0,0,2981.658,6260.636Z" transform="translate(-2916.361 -6221.076)"/>
        <path id="Path_5622" data-name="Path 5622" d="M2946.244,6216.268a29.541,29.541,0,0,0-17.617-7.761v-1.618H2873.1c-5.3-4.062-12.477-11.289-15.574-22.181a42.274,42.274,0,0,1,.809-24.966,52.447,52.447,0,0,1,15.181-22.6,5.912,5.912,0,0,0-7.83-8.859,64.28,64.28,0,0,0-18.572,27.729,54.052,54.052,0,0,0-.961,31.929c4.208,14.8,14.108,24.215,20.855,29.154v34.071a24.829,24.829,0,0,0-3.78,6.951,25.312,25.312,0,0,0,8.34,28.254,5.912,5.912,0,1,0,7.307-9.3,13.49,13.49,0,0,1-4.489-15.043,13.2,13.2,0,0,1,3.654-5.458h14.3a19.61,19.61,0,0,0-1.435,3.11,21.575,21.575,0,0,0,1.132,16.692,25.9,25.9,0,0,0,12.846,12.35,5.912,5.912,0,0,0,4.823-10.8c-6.8-3.039-9.278-9.768-7.67-14.257,1.156-3.226,4.62-5.8,8.825-6.549a5.888,5.888,0,0,0,1.633-.548h14.627c-1.562,4.82-1.7,10.608-.4,17.308a5.912,5.912,0,0,0,11.608-2.248c-1.3-6.7-.724-11.579,1.706-14.505,1.177-1.419,2.424-1.955,4.313-2.767,2.579-1.109,6.109-2.627,8.671-6.79C2958.981,6237.872,2954.146,6223.771,2946.244,6216.268Zm-3.3,25.107c-.542.88-1.141,1.208-3.272,2.125a21.172,21.172,0,0,0-8.74,6.078,20.471,20.471,0,0,0-2.3,3.436v-32.608a17.366,17.366,0,0,1,9.477,4.437C2943.352,6229.827,2945.044,6237.962,2942.944,6241.375Z" transform="translate(-2844.191 -6126.802)" fill="#fffcf3"/>
        <circle id="Ellipse_358" data-name="Ellipse 358" cx="6.18" cy="6.18" r="6.18" transform="translate(35.931 46.488)" fill="#fff"/>
        <circle id="Ellipse_359" data-name="Ellipse 359" cx="6.18" cy="6.18" r="6.18" transform="translate(59.093 46.488)" fill="#fff"/>
        <circle id="Ellipse_360" data-name="Ellipse 360" cx="3.964" cy="3.964" r="3.964" transform="translate(38.147 48.704)"/>
        <circle id="Ellipse_361" data-name="Ellipse 361" cx="3.964" cy="3.964" r="3.964" transform="translate(61.309 48.704)"/>
        <path id="Path_5623" data-name="Path 5623" d="M3015.8,6338.736a7.094,7.094,0,1,1-14.187,0" transform="translate(-2955.08 -6276.09)" fill="#f086ab"/>
        <path id="Rectangle_2403" data-name="Rectangle 2403" d="M0,0H1.262A11.649,11.649,0,0,1,12.911,11.649v0A11.649,11.649,0,0,1,1.262,23.3H0a0,0,0,0,1,0,0V0A0,0,0,0,1,0,0Z" transform="translate(84.304 46.442)" fill="#fffcf3"/>
        <path id="Rectangle_2404" data-name="Rectangle 2404" d="M0,0H1.262A11.649,11.649,0,0,1,12.911,11.649v0A11.649,11.649,0,0,1,1.262,23.3H0a0,0,0,0,1,0,0V0A0,0,0,0,1,0,0Z" transform="translate(22.818 69.74) rotate(-180)" fill="#fffcf3"/>
      </g>
      <g id="Group_2560" data-name="Group 2560" transform="translate(870.862 4797.689)">
        <path id="Path_5624" data-name="Path 5624" d="M1932.444,6240.516a24.261,24.261,0,0,1,8.905-6.827v-29.048a5.884,5.884,0,0,1-1.3-1.863,136.141,136.141,0,0,1-8.405-25.605c-8.213-37.222,1.1-70.383,10.353-91.646a5.912,5.912,0,1,1,10.841,4.719c-7.669,17.619-15.387,44.023-11.486,73.879v-1.935a30.809,30.809,0,0,1,30.809-30.809h0a30.81,30.81,0,0,1,30.769,29.225c2.884-28.408-4.529-53.437-11.9-70.361a5.912,5.912,0,1,1,10.841-4.719c9.256,21.264,18.566,54.424,10.353,91.646a136.116,136.116,0,0,1-8.405,25.605,5.91,5.91,0,0,1-.853,1.377v38.53h-27.094a18.121,18.121,0,0,0-5.71,4.059c-1.24,1.313-4.144,4.39-4.517,8.915-.6,7.3,6.042,12.622,6.325,12.844a5.912,5.912,0,1,1-7.316,9.289c-1.991-1.568-11.868-10.051-10.793-23.1a24.356,24.356,0,0,1,3.324-10.339c-5.552-2.22-12.016-.743-15.568,3.626-4.231,5.205-3.483,13.449,1.667,18.376a5.912,5.912,0,0,1-8.174,8.543C1925.456,6265.655,1924.283,6250.554,1932.444,6240.516Z" transform="translate(-1927.019 -6081.971)" fill="#fffcf3"/>
        <path id="Path_5625" data-name="Path 5625" d="M2012.431,6320.476h0a11.671,11.671,0,0,1,11.671,11.671,11.671,11.671,0,0,1,11.671-11.671h0a11.671,11.671,0,0,1,11.671,11.671V6361H2000.76v-28.855A11.671,11.671,0,0,1,2012.431,6320.476Z" transform="translate(-1978.963 -6249.976)"/>
        <circle id="Ellipse_362" data-name="Ellipse 362" cx="6.18" cy="6.18" r="6.18" transform="translate(50.475 77.428)" fill="#fff"/>
        <circle id="Ellipse_363" data-name="Ellipse 363" cx="6.18" cy="6.18" r="6.18" transform="translate(27.313 77.428)" fill="#fff"/>
        <circle id="Ellipse_364" data-name="Ellipse 364" cx="3.964" cy="3.964" r="3.964" transform="translate(52.691 79.644)"/>
        <circle id="Ellipse_365" data-name="Ellipse 365" cx="3.964" cy="3.964" r="3.964" transform="translate(29.529 79.644)"/>
        <path id="Path_5626" data-name="Path 5626" d="M2055.728,6398.578a7.093,7.093,0,0,0,14.187,0" transform="translate(-2017.682 -6304.99)" fill="#f086ab"/>
      </g>
    </g>
    <g id="Group_3386" data-name="Group 3386" transform="translate(4801 -17757)">
      <path id="パス_5613" data-name="パス 5613" d="M-3536.909-3107.215l253.386-55.17,90.691-109.277,31.54,5.065-52.646,90.086,403.168-95.151,14.984,26.352L-3312.847-3087.9l79.518,34.45-14.331,20.061-151.272-31.1-137.98,39.5Z" transform="translate(3536.911 8195.988)" fill="#ed4340"/>
      <g id="Group_2558" data-name="Group 2558" transform="translate(60.852 5098.422)">
        <path id="Path_5618" data-name="Path 5618" d="M2563.194,6218.988a20.969,20.969,0,0,0-7.7-5.9v-25.1a5.1,5.1,0,0,0,1.126-1.61,117.669,117.669,0,0,0,7.264-22.128c7.1-32.168-.948-60.827-8.947-79.2a5.109,5.109,0,1,0-9.369,4.078c6.628,15.227,13.3,38.046,9.926,63.848V6151.3a26.626,26.626,0,0,0-26.626-26.626h0a26.626,26.626,0,0,0-26.591,25.257c-2.492-24.55,3.914-46.182,10.281-60.807a5.109,5.109,0,1,0-9.369-4.078c-8,18.376-16.045,47.035-8.947,79.2a117.669,117.669,0,0,0,7.264,22.128,5.119,5.119,0,0,0,.738,1.19v33.3h23.415a15.654,15.654,0,0,1,4.935,3.508,12.868,12.868,0,0,1,3.9,7.7c.519,6.308-5.222,10.908-5.467,11.1a5.109,5.109,0,1,0,6.322,8.028c1.721-1.355,10.257-8.686,9.328-19.967a21.045,21.045,0,0,0-2.873-8.936,11.822,11.822,0,0,1,13.454,3.134c3.657,4.5,3.01,11.623-1.441,15.881a5.109,5.109,0,0,0,7.064,7.384C2569.232,6240.714,2570.245,6227.664,2563.194,6218.988Z" transform="translate(-2491.508 -6081.971)" fill="#fffcf3"/>
        <path id="Path_5619" data-name="Path 5619" d="M2589.061,6320.477h0a10.086,10.086,0,0,1-20.173,0h0a10.086,10.086,0,0,0-10.086,10.086V6355.5h40.344v-24.937A10.086,10.086,0,0,0,2589.061,6320.477Z" transform="translate(-2541.611 -6259.549)"/>
        <circle id="Ellipse_354" data-name="Ellipse 354" cx="5.341" cy="5.341" r="5.341" transform="translate(22.071 66.915)" fill="#fff"/>
        <circle id="Ellipse_355" data-name="Ellipse 355" cx="5.341" cy="5.341" r="5.341" transform="translate(42.088 66.915)" fill="#fff"/>
        <circle id="Ellipse_356" data-name="Ellipse 356" cx="3.426" cy="3.426" r="3.426" transform="translate(23.986 68.83)"/>
        <circle id="Ellipse_357" data-name="Ellipse 357" cx="3.426" cy="3.426" r="3.426" transform="translate(44.003 68.83)"/>
        <path id="Path_5620" data-name="Path 5620" d="M2626.031,6398.578a6.13,6.13,0,0,1-12.261,0" transform="translate(-2582.537 -6317.697)" fill="#f086ab"/>
      </g>
      <g id="Group_2562" data-name="Group 2562" transform="translate(193.795 4903.946)">
        <path id="Path_5618-2" data-name="Path 5618" d="M2563.194,6218.988a20.969,20.969,0,0,0-7.7-5.9v-25.1a5.1,5.1,0,0,0,1.126-1.61,117.669,117.669,0,0,0,7.264-22.128c7.1-32.168-.948-60.827-8.947-79.2a5.109,5.109,0,1,0-9.369,4.078c6.628,15.227,13.3,38.046,9.926,63.848V6151.3a26.626,26.626,0,0,0-26.626-26.626h0a26.626,26.626,0,0,0-26.591,25.257c-2.492-24.55,3.914-46.182,10.281-60.807a5.109,5.109,0,1,0-9.369-4.078c-8,18.376-16.045,47.035-8.947,79.2a117.669,117.669,0,0,0,7.264,22.128,5.119,5.119,0,0,0,.738,1.19v33.3h23.415a15.654,15.654,0,0,1,4.935,3.508,12.868,12.868,0,0,1,3.9,7.7c.519,6.308-5.222,10.908-5.467,11.1a5.109,5.109,0,1,0,6.322,8.028c1.721-1.355,10.257-8.686,9.328-19.967a21.045,21.045,0,0,0-2.873-8.936,11.822,11.822,0,0,1,13.454,3.134c3.657,4.5,3.01,11.623-1.441,15.881a5.109,5.109,0,0,0,7.064,7.384C2569.232,6240.714,2570.245,6227.664,2563.194,6218.988Z" transform="translate(-2491.508 -6081.971)" fill="#fffcf3"/>
        <path id="Path_5619-2" data-name="Path 5619" d="M2589.061,6320.477h0a10.086,10.086,0,0,1-20.173,0h0a10.086,10.086,0,0,0-10.086,10.086V6355.5h40.344v-24.937A10.086,10.086,0,0,0,2589.061,6320.477Z" transform="translate(-2541.611 -6259.549)"/>
        <circle id="Ellipse_354-2" data-name="Ellipse 354" cx="5.341" cy="5.341" r="5.341" transform="translate(22.071 66.915)" fill="#fff"/>
        <circle id="Ellipse_355-2" data-name="Ellipse 355" cx="5.341" cy="5.341" r="5.341" transform="translate(42.088 66.915)" fill="#fff"/>
        <circle id="Ellipse_356-2" data-name="Ellipse 356" cx="3.426" cy="3.426" r="3.426" transform="translate(23.986 68.83)"/>
        <circle id="Ellipse_357-2" data-name="Ellipse 357" cx="3.426" cy="3.426" r="3.426" transform="translate(44.003 68.83)"/>
        <path id="Path_5620-2" data-name="Path 5620" d="M2626.031,6398.578a6.13,6.13,0,0,1-12.261,0" transform="translate(-2582.537 -6317.697)" fill="#f086ab"/>
      </g>
      <g id="Group_2561" data-name="Group 2561" transform="translate(355.931 4891.573)">
        <path id="Rectangle_2405" data-name="Rectangle 2405" d="M0,0H53.251a0,0,0,0,1,0,0V26.626A26.626,26.626,0,0,1,26.626,53.251h0A26.626,26.626,0,0,1,0,26.626V0A0,0,0,0,1,0,0Z" transform="translate(76.631 69.212) rotate(-180)" fill="#fffcf3"/>
        <path id="Path_5627" data-name="Path 5627" d="M1623,6260.636h0a10.086,10.086,0,0,1,10.086,10.086,10.086,10.086,0,0,1,10.086-10.086h0a10.086,10.086,0,0,1,10.086,10.086v24.937h-40.344v-24.937A10.086,10.086,0,0,1,1623,6260.636Z" transform="translate(-1583.085 -6226.447)"/>
        <path id="Path_5628" data-name="Path 5628" d="M1498.438,6231.174c2.213,3.6,5.265,4.91,7.494,5.868a8.586,8.586,0,0,1,3.727,2.392c2.1,2.529,2.595,6.747,1.474,12.536a5.11,5.11,0,0,0,4.045,5.988,5.183,5.183,0,0,0,.977.094,5.11,5.11,0,0,0,5.01-4.139c1.121-5.79,1-10.792-.35-14.958h12.641a5.109,5.109,0,0,0,1.411.474c3.635.65,6.629,2.872,7.627,5.66,1.39,3.88-.749,9.7-6.629,12.322a5.109,5.109,0,1,0,4.167,9.331,22.378,22.378,0,0,0,11.1-10.672,18.649,18.649,0,0,0,.979-14.426,16.944,16.944,0,0,0-1.241-2.687h12.358a11.4,11.4,0,0,1,3.158,4.716,11.659,11.659,0,0,1-3.88,13,5.109,5.109,0,1,0,6.314,8.034,21.874,21.874,0,0,0,7.208-24.417,21.447,21.447,0,0,0-3.267-6.007v-29.445c5.83-4.268,14.386-12.4,18.023-25.2a46.706,46.706,0,0,0-.83-27.593,55.55,55.55,0,0,0-16.05-23.964,5.109,5.109,0,0,0-6.767,7.657,45.33,45.33,0,0,1,13.12,19.53,36.534,36.534,0,0,1,.7,21.576,37.376,37.376,0,0,1-13.46,19.169h-47.986v1.4a25.531,25.531,0,0,0-15.225,6.708C1497.46,6210.6,1493.281,6222.792,1498.438,6231.174Zm12.887-19.643a15,15,0,0,1,8.19-3.834v28.181a17.67,17.67,0,0,0-1.992-2.97,18.3,18.3,0,0,0-7.553-5.252c-1.842-.792-2.36-1.076-2.828-1.836C1505.326,6222.869,1506.788,6215.838,1511.325,6211.531Z" transform="translate(-1496.134 -6126.802)" fill="#fffcf3"/>
        <circle id="Ellipse_366" data-name="Ellipse 366" cx="5.341" cy="5.341" r="5.341" transform="translate(54.617 40.176)" fill="#fff"/>
        <circle id="Ellipse_367" data-name="Ellipse 367" cx="5.341" cy="5.341" r="5.341" transform="translate(34.6 40.176)" fill="#fff"/>
        <circle id="Ellipse_368" data-name="Ellipse 368" cx="3.426" cy="3.426" r="3.426" transform="translate(56.532 42.091)"/>
        <circle id="Ellipse_369" data-name="Ellipse 369" cx="3.426" cy="3.426" r="3.426" transform="translate(36.515 42.091)"/>
        <path id="Path_5629" data-name="Path 5629" d="M1667.885,6338.736a6.13,6.13,0,1,0,12.261,0" transform="translate(-1624.01 -6284.596)" fill="#f086ab"/>
        <path id="Rectangle_2406" data-name="Rectangle 2406" d="M0,0H1.091A10.067,10.067,0,0,1,11.158,10.067v0A10.067,10.067,0,0,1,1.091,20.135H0a0,0,0,0,1,0,0V0A0,0,0,0,1,0,0Z" transform="translate(23.493 60.271) rotate(180)" fill="#fffcf3"/>
        <path id="Rectangle_2407" data-name="Rectangle 2407" d="M0,0H1.091A10.067,10.067,0,0,1,11.158,10.067v0A10.067,10.067,0,0,1,1.091,20.135H0a0,0,0,0,1,0,0V0A0,0,0,0,1,0,0Z" transform="translate(76.631 40.136)" fill="#fffcf3"/>
      </g>
    </g>
    <g id="Group_3392" data-name="Group 3392" transform="translate(1446 -8790)">
      <g id="Group_3387" data-name="Group 3387" transform="translate(3760.5 -3743.893)">
        <rect id="長方形_65" data-name="長方形 65" width="136.28" height="22.415" transform="matrix(1, -0.001, 0.001, 1, 0, 52.336)" fill="#fffcf3"/>
        <path id="パス_46" data-name="パス 46" d="M420.108,1355.828l-52.5.056L391.814,1287l52.507-.054Z" transform="translate(-349.419 -1217.128)" fill="#fffcf3"/>
        <rect id="長方形_171" data-name="長方形 171" width="3.559" height="39.565" transform="matrix(1, -0.001, 0.001, 1, 63.191, 4.616)" fill="#fffcf3"/>
        <rect id="長方形_172" data-name="長方形 172" width="3.559" height="39.565" transform="translate(69.093 4.61) rotate(-0.06)" fill="#fffcf3"/>
        <rect id="長方形_173" data-name="長方形 173" width="3.559" height="39.565" transform="matrix(1, -0.001, 0.001, 1, 75.14, 4.605)" fill="#fffcf3"/>
        <rect id="長方形_174" data-name="長方形 174" width="3.559" height="39.565" transform="matrix(1, -0.001, 0.001, 1, 33.295, 4.649)" fill="#fffcf3"/>
        <rect id="長方形_175" data-name="長方形 175" width="3.559" height="39.565" transform="matrix(1, -0.001, 0.001, 1, 39.191, 4.643)" fill="#fffcf3"/>
        <rect id="長方形_176" data-name="長方形 176" width="3.559" height="39.565" transform="matrix(1, -0.001, 0.001, 1, 45.345, 4.637)" fill="#fffcf3"/>
        <rect id="長方形_177" data-name="長方形 177" width="3.559" height="39.565" transform="matrix(1, -0.001, 0.001, 1, 51.247, 4.629)" fill="#fffcf3"/>
        <rect id="長方形_178" data-name="長方形 178" width="3.559" height="39.565" transform="translate(57.289 4.625) rotate(-0.06)" fill="#fffcf3"/>
        <rect id="長方形_179" data-name="長方形 179" width="3.559" height="39.565" transform="matrix(1, -0.001, 0.001, 1, 105.109, 4.574)" fill="#fffcf3"/>
        <rect id="長方形_180" data-name="長方形 180" width="3.559" height="39.565" transform="matrix(1, -0.001, 0.001, 1, 87.263, 4.591)" fill="#fffcf3"/>
        <rect id="長方形_181" data-name="長方形 181" width="3.559" height="39.565" transform="translate(93.165 4.587) rotate(-0.06)" fill="#fffcf3"/>
        <rect id="長方形_182" data-name="長方形 182" width="3.559" height="39.565" transform="translate(81.109 4.599) rotate(-0.06)" fill="#fffcf3"/>
        <rect id="長方形_183" data-name="長方形 183" width="3.559" height="39.565" transform="matrix(1, -0.001, 0.001, 1, 99.213, 4.581)" fill="#fffcf3"/>
        <rect id="長方形_184" data-name="長方形 184" width="3.559" height="39.565" transform="translate(111.011 4.568) rotate(-0.06)" fill="#fffcf3"/>
        <path id="パス_48" data-name="パス 48" d="M537.371,1373.049l-52.5.056,33.36-94.436,52.5-.056Z" transform="translate(-101.731 -1234.728)" fill="#fffcf3"/>
        <g id="Group_1505" data-name="Group 1505" transform="translate(383.002 0.038)">
          <g id="Group_1504" data-name="Group 1504" clip-path="url(#clip-path)">
            <ellipse id="楕円形_27" data-name="楕円形 27" cx="15.411" cy="15.755" rx="15.411" ry="15.755" transform="translate(7.24 4.926)" fill="#fffcf3"/>
          </g>
        </g>
        <g id="Group_1507" data-name="Group 1507" transform="translate(418.653)">
          <g id="Group_1506" data-name="Group 1506" clip-path="url(#clip-path-2)">
            <ellipse id="楕円形_27-2" data-name="楕円形 27" cx="15.411" cy="15.755" rx="15.411" ry="15.755" transform="translate(7.24 4.926)" fill="#fffcf3"/>
          </g>
        </g>
        <path id="パス_64" data-name="パス 64" d="M501.419,1281.676h0c-16.847.018-30.491,14-30.469,31.225a31.781,31.781,0,0,0,1.926,10.872l.71,1.954,43.923-.047Z" transform="translate(-131.133 -1228.26)" fill="#fffcf3"/>
        <path id="パス_65" data-name="パス 65" d="M501.406,1266.646h0c-16.843.015-30.488,13.989-30.472,31.21a31.8,31.8,0,0,0,1.93,10.889l.71,1.952,43.923-.044Z" transform="translate(-131.167 -1260.005)" fill="#fffcf3"/>
        <path id="パス_53" data-name="パス 53" d="M460.506,1266.7h0c-24.643.029-44.6,20.476-44.571,45.666a46.6,46.6,0,0,0,2.82,15.913l1.034,2.863,64.23-.065Z" transform="translate(-247.338 -1259.896)" fill="#fffcf3"/>
        <rect id="長方形_154" data-name="長方形 154" width="3.559" height="39.565" transform="matrix(1, -0.001, 0.001, 1, 192.819, 99.011)" fill="#fffcf3"/>
        <rect id="長方形_155" data-name="長方形 155" width="3.559" height="39.565" transform="matrix(1, -0.001, 0.001, 1, 198.721, 99.002)" fill="#fffcf3"/>
        <rect id="長方形_156" data-name="長方形 156" width="3.559" height="39.565" transform="translate(204.769 98.996) rotate(-0.06)" fill="#fffcf3"/>
        <rect id="長方形_157" data-name="長方形 157" width="3.559" height="39.565" transform="translate(174.974 99.026) rotate(-0.06)" fill="#fffcf3"/>
        <rect id="長方形_158" data-name="長方形 158" width="3.559" height="39.565" transform="translate(180.876 99.02) rotate(-0.06)" fill="#fffcf3"/>
        <rect id="長方形_159" data-name="長方形 159" width="3.559" height="39.565" transform="matrix(1, -0.001, 0.001, 1, 168.814, 99.035)" fill="#fffcf3"/>
        <rect id="長方形_160" data-name="長方形 160" width="3.559" height="39.565" transform="translate(186.918 99.015) rotate(-0.06)" fill="#fffcf3"/>
        <rect id="長方形_161" data-name="長方形 161" width="3.559" height="39.565" transform="translate(234.738 98.966) rotate(-0.06)" fill="#fffcf3"/>
        <rect id="長方形_162" data-name="長方形 162" width="3.559" height="39.565" transform="translate(240.64 98.957) rotate(-0.06)" fill="#fffcf3"/>
        <rect id="長方形_163" data-name="長方形 163" width="3.559" height="39.565" transform="matrix(1, -0.001, 0.001, 1, 246.687, 98.952)" fill="#fffcf3"/>
        <rect id="長方形_164" data-name="長方形 164" width="3.559" height="39.565" transform="matrix(1, -0.001, 0.001, 1, 252.707, 98.946)" fill="#fffcf3"/>
        <rect id="長方形_165" data-name="長方形 165" width="3.559" height="39.565" transform="translate(258.603 98.942) rotate(-0.06)" fill="#fffcf3"/>
        <rect id="長方形_166" data-name="長方形 166" width="3.559" height="39.565" transform="matrix(1, -0.001, 0.001, 1, 264.651, 98.935)" fill="#fffcf3"/>
        <rect id="長方形_167" data-name="長方形 167" width="3.559" height="39.565" transform="matrix(1, -0.001, 0.001, 1, 216.892, 98.982)" fill="#fffcf3"/>
        <rect id="長方形_168" data-name="長方形 168" width="3.559" height="39.565" transform="matrix(1, -0.001, 0.001, 1, 222.794, 98.977)" fill="#fffcf3"/>
        <rect id="長方形_169" data-name="長方形 169" width="3.559" height="39.565" transform="matrix(1, -0.001, 0.001, 1, 210.732, 98.99)" fill="#fffcf3"/>
        <rect id="長方形_170" data-name="長方形 170" width="3.559" height="39.565" transform="matrix(1, -0.001, 0.001, 1, 228.836, 98.971)" fill="#fffcf3"/>
        <path id="パス_48-2" data-name="パス 48" d="M487.8,1373.1l-52.5.052,33.363-94.435,52.5-.052Z" transform="translate(-206.428 -1234.617)" fill="#fffcf3"/>
      </g>
      <text id="exhibition" transform="translate(3920 -3562)" fill="#fff" font-size="22" font-family="SourceHanSansJP-Heavy, Source Han Sans JP" font-weight="800" letter-spacing="0.18em"><tspan x="0" y="0">exhibition</tspan></text>
    </g>
  </g>
</svg>
