<svg xmlns="http://www.w3.org/2000/svg" width="764.509" height="97.934" viewBox="0 0 764.509 97.934">
  <g id="Group_3452" data-name="Group 3452" transform="translate(-254.083 -12251.896)">
    <g id="グループ_2435" data-name="グループ 2435" transform="translate(254.083 12251.896)">
      <path id="パス_5507" data-name="パス 5507" d="M-5262.048-1780.36a97.932,97.932,0,0,1-97.93,97.933h0a97.933,97.933,0,0,1-97.932-97.932h0" transform="translate(5457.911 1780.36)" fill="#fff"/>
      <path id="パス_5508" data-name="パス 5508" d="M-5297.161-1780.36a62.815,62.815,0,0,1-62.653,62.972,62.814,62.814,0,0,1-62.971-62.654v-.314" transform="translate(5457.911 1780.36)"/>
    </g>
    <g id="グループ_2436" data-name="グループ 2436" transform="translate(822.727 12251.896)">
      <path id="パス_5509" data-name="パス 5509" d="M-4691.19-1780.36a97.934,97.934,0,0,1-97.93,97.933,97.935,97.935,0,0,1-97.935-97.931h0" transform="translate(4887.055 1780.36)" fill="#fff"/>
      <path id="パス_5510" data-name="パス 5510" d="M-4726.289-1780.36a62.816,62.816,0,0,1-62.653,62.972,62.815,62.815,0,0,1-62.971-62.654v-.314" transform="translate(4887.055 1780.36)"/>
    </g>
  </g>
</svg>
