<svg xmlns="http://www.w3.org/2000/svg" xmlns:xlink="http://www.w3.org/1999/xlink" width="1281.23" height="2920.52" viewBox="0 0 1281.23 2920.52">
  <defs>
    <clipPath id="clip-path">
      <path id="Path_1690" data-name="Path 1690" d="M6078.533,1875.122l14.493-.03-10.143,33.114-14.493.029Z" transform="translate(-6068.391 -1875.093)" fill="none"/>
    </clipPath>
    <clipPath id="clip-path-2">
      <path id="Path_1691" data-name="Path 1691" d="M6066.558,1875.122l14.493-.03-10.134,33.114-14.494.029Z" transform="translate(-6056.423 -1875.093)" fill="none"/>
    </clipPath>
  </defs>
  <g id="Group_3329" data-name="Group 3329" transform="translate(1.23 -777.833)">
    <g id="Group_3328" data-name="Group 3328">
      <g id="グループ_1580" data-name="グループ 1580" transform="translate(332.954 1099.963)">
        <path id="パス_1396" data-name="パス 1396" d="M5876.725,1656.358a35.571,35.571,0,0,1-6.246,2.555,39.706,39.706,0,0,1-6.441,1.367,54.066,54.066,0,0,1-6.726.409,34.863,34.863,0,0,1-11.513-1.777,24.937,24.937,0,0,1-8.838-5.235,22.142,22.142,0,0,1-5.605-8.091,26.952,26.952,0,0,1-1.865-10.167,26.3,26.3,0,0,1,2.2-11.124,21.515,21.515,0,0,1,6.157-7.931,26.4,26.4,0,0,1,9.014-4.666,37.168,37.168,0,0,1,10.664-1.507,58.1,58.1,0,0,1,18.986,3.725v13.061a52.471,52.471,0,0,0-7.222-3.781,21.457,21.457,0,0,0-8.392-1.509,19.023,19.023,0,0,0-8.02,1.705,14.8,14.8,0,0,0-6,4.861,12.937,12.937,0,0,0-.284,14.213,14.056,14.056,0,0,0,5.518,4.933,17.077,17.077,0,0,0,7.967,1.825,25.69,25.69,0,0,0,6.777-.869,30.931,30.931,0,0,0,5.375-1.926,47.532,47.532,0,0,0,4.489-2.522Z" transform="translate(-5829.485 -1610.191)" fill="#2a8648"/>
        <path id="パス_1397" data-name="パス 1397" d="M5958.069,1659.971h-15.935l-3.868-8.725a36.291,36.291,0,0,0-3.831-7.011,8.273,8.273,0,0,0-3.32-2.833,11.763,11.763,0,0,0-4.171-.622h-1.667v19.2h-14.832v-49.186h25.231a18.351,18.351,0,0,1,10.007,2.485,14.914,14.914,0,0,1,5.625,6.036,15.494,15.494,0,0,1,1.719,6.74,12.761,12.761,0,0,1-1.436,6.3,11.538,11.538,0,0,1-3.034,3.746,30.349,30.349,0,0,1-3.583,2.234,14.215,14.215,0,0,1,3.921,3.286,41.3,41.3,0,0,1,4.2,7.685Zm-20.156-33.641q0-3.4-2.237-4.759t-7.276-1.349h-3.123v11.854h3.195q5.429,0,7.434-1.19T5937.914,1626.33Z" transform="translate(-5818.712 -1610.113)" fill="#2a8648"/>
        <path id="パス_1398" data-name="パス 1398" d="M6025.339,1659.97h-37.084v-49.186h36.484v9.865h-21.647v9.013h20.653v9.9h-20.653v10.5h22.25Z" transform="translate(-5808.359 -1610.112)" fill="#2a8648"/>
        <path id="パス_1399" data-name="パス 1399" d="M6113.954,1659.97h-15.184l-4.011-9.971H6073.39l-4.08,9.971h-15.183l21.755-49.186h16.4Zm-22.605-18.525-7.2-17.957-7.274,17.957Z" transform="translate(-5799.594 -1610.112)" fill="#2a8648"/>
        <path id="パス_1400" data-name="パス 1400" d="M6182.1,1622.744h-18.027v37.225h-14.8v-37.225h-18.028v-11.96H6182.1Z" transform="translate(-5789.333 -1610.112)" fill="#2a8648"/>
        <path id="パス_1401" data-name="パス 1401" d="M6227.207,1659.97h-14.834v-49.186h14.834Z" transform="translate(-5778.54 -1610.112)" fill="#2a8648"/>
        <path id="パス_1402" data-name="パス 1402" d="M6314.391,1610.784l-22.182,49.828h-9.794l-21.754-49.828H6276.1l11.25,28.391,11.567-28.391Z" transform="translate(-5772.115 -1610.112)" fill="#2a8648"/>
        <path id="パス_1403" data-name="パス 1403" d="M6375.811,1659.97h-37.086v-49.186h36.483v9.865h-21.64v9.013h20.653v9.9h-20.653v10.5h22.25Z" transform="translate(-5761.727 -1610.112)" fill="#2a8648"/>
        <path id="パス_1404" data-name="パス 1404" d="M5943.936,1731.338a13.573,13.573,0,0,1-2.358,7.983,14.9,14.9,0,0,1-6.584,5.163,24.612,24.612,0,0,1-9.686,1.792q-1.526,0-3.747-.195a42.47,42.47,0,0,1-5.892-1.083,46.147,46.147,0,0,1-7.646-2.624v-12.067a53.512,53.512,0,0,0,7.328,3.832,19.542,19.542,0,0,0,7.716,1.526q3.8,0,4.914-1.261a3.693,3.693,0,0,0,1.12-2.359,4.023,4.023,0,0,0-1.917-3.354,27.315,27.315,0,0,0-5.57-2.821,44.074,44.074,0,0,1-7.1-3.708,16.782,16.782,0,0,1-4.985-5.021A12.913,12.913,0,0,1,5907.6,1710a13.044,13.044,0,0,1,7.914-12.314,22.593,22.593,0,0,1,9.795-1.918,34.113,34.113,0,0,1,7.609.8,32.762,32.762,0,0,1,5.767,1.793,23.072,23.072,0,0,1,3.123,1.56v11.533a40.583,40.583,0,0,0-6.725-3.869,18.774,18.774,0,0,0-7.931-1.7,6.13,6.13,0,0,0-4.012,1.064,3.322,3.322,0,0,0-1.246,2.626,3.215,3.215,0,0,0,1.246,2.517,21.677,21.677,0,0,0,4.436,2.593,88.812,88.812,0,0,1,9.085,4.79,17.987,17.987,0,0,1,5.341,4.914A11.877,11.877,0,0,1,5943.936,1731.338Z" transform="translate(-5819.092 -1598.805)" fill="#2a8648"/>
        <path id="パス_1405" data-name="パス 1405" d="M6021.936,1711.843a15.64,15.64,0,0,1-.94,5.341,14.251,14.251,0,0,1-3.032,4.863,15.166,15.166,0,0,1-5.667,3.655,22.908,22.908,0,0,1-8.394,1.4h-9.723v18.454h-14.833v-49.186h24.56a22.64,22.64,0,0,1,8.394,1.421,15.188,15.188,0,0,1,5.665,3.69,14.229,14.229,0,0,1,3.033,4.933A16.2,16.2,0,0,1,6021.936,1711.843Zm-15.116.073q0-3.513-2.075-4.81t-7.435-1.294h-3.125v11.852h3.194a26.571,26.571,0,0,0,5.678-.462,4.645,4.645,0,0,0,2.874-1.7A6.14,6.14,0,0,0,6006.819,1711.915Z" transform="translate(-5809.544 -1598.724)" fill="#2a8648"/>
        <path id="パス_1406" data-name="パス 1406" d="M6068.285,1745.556h-14.833V1696.37h14.833Z" transform="translate(-5799.685 -1598.724)" fill="#2a8648"/>
        <path id="パス_1407" data-name="パス 1407" d="M6155.914,1745.557h-15.931l-3.867-8.724a36.383,36.383,0,0,0-3.832-7.012,8.257,8.257,0,0,0-3.32-2.833,11.743,11.743,0,0,0-4.169-.623h-1.667v19.2h-14.833v-49.186h25.233a18.328,18.328,0,0,1,10,2.485,14.9,14.9,0,0,1,5.625,6.033,15.473,15.473,0,0,1,1.721,6.741,12.74,12.74,0,0,1-1.438,6.3,11.517,11.517,0,0,1-3.033,3.739,30.223,30.223,0,0,1-3.583,2.237,14.2,14.2,0,0,1,3.92,3.286,41.035,41.035,0,0,1,4.206,7.684Zm-20.155-33.641q0-3.408-2.235-4.759t-7.276-1.349h-3.122v11.852h3.193q5.428,0,7.436-1.188T6135.759,1711.915Z" transform="translate(-5792.389 -1598.725)" fill="#2a8648"/>
        <path id="パス_1408" data-name="パス 1408" d="M6236.3,1745.556h-15.182l-4.01-9.971h-21.364l-4.078,9.971h-15.184l21.755-49.186h16.4Zm-22.6-18.525-7.2-17.957-7.276,17.957Z" transform="translate(-5783.313 -1598.724)" fill="#2a8648"/>
        <path id="パス_1409" data-name="パス 1409" d="M6299.993,1745.556h-37.369V1696.37h14.835v37.4h22.535Z" transform="translate(-5771.853 -1598.724)" fill="#2a8648"/>
        <path id="パス_1410" data-name="パス 1410" d="M5919.161,1811.237h-20.4v19.908h-14.834v-49.186h35.238v9.865h-20.4v9.511h20.4Z" transform="translate(-5822.242 -1587.336)" fill="#2a8648"/>
        <path id="パス_1411" data-name="パス 1411" d="M5991.053,1831.145H5953.97v-49.186h36.484v9.865H5968.8v9.013h20.653v9.9H5968.8v10.5h22.25Z" transform="translate(-5812.92 -1587.336)" fill="#2a8648"/>
        <path id="パス_1412" data-name="パス 1412" d="M6059.912,1816.924a13.577,13.577,0,0,1-2.362,7.985,14.939,14.939,0,0,1-6.583,5.165,24.666,24.666,0,0,1-9.688,1.792q-1.527,0-3.74-.2a42.535,42.535,0,0,1-5.891-1.082,46.09,46.09,0,0,1-7.646-2.624v-12.069a53.588,53.588,0,0,0,7.327,3.832,19.554,19.554,0,0,0,7.718,1.526q3.8,0,4.917-1.261a3.683,3.683,0,0,0,1.117-2.358,4.021,4.021,0,0,0-1.916-3.354,27.238,27.238,0,0,0-5.571-2.821,43.98,43.98,0,0,1-7.1-3.71,16.808,16.808,0,0,1-4.985-5.018,12.943,12.943,0,0,1-1.934-7.138,13.043,13.043,0,0,1,7.914-12.314,22.585,22.585,0,0,1,9.794-1.918,34.269,34.269,0,0,1,7.613.793,33,33,0,0,1,5.767,1.794,22.956,22.956,0,0,1,3.122,1.56v11.533a40.45,40.45,0,0,0-6.724-3.87,18.786,18.786,0,0,0-7.931-1.7,6.118,6.118,0,0,0-4.011,1.064,3.323,3.323,0,0,0-1.247,2.626,3.219,3.219,0,0,0,1.247,2.518,21.722,21.722,0,0,0,4.436,2.59,88.378,88.378,0,0,1,9.085,4.792,17.99,17.99,0,0,1,5.343,4.914A11.886,11.886,0,0,1,6059.912,1816.924Z" transform="translate(-5803.66 -1587.417)" fill="#2a8648"/>
        <path id="パス_1413" data-name="パス 1413" d="M6130.518,1831.224h-37.367v-.959q2.161-2.092,4.759-5t6.67-7.7q1.882-2.167,3.532-4.259a37.9,37.9,0,0,0,2.821-4.064,23.334,23.334,0,0,0,1.989-4.348,14.919,14.919,0,0,0,.816-4.861,7.769,7.769,0,0,0-1.969-5.518,6.569,6.569,0,0,0-5.023-2.111q-6.031,0-12,6.244v-11.6q2.092-1.348,3.442-2.165a28.033,28.033,0,0,1,3.1-1.6,23.686,23.686,0,0,1,4.171-1.349,22.765,22.765,0,0,1,5.211-.567,18.22,18.22,0,0,1,8.2,1.827,13.869,13.869,0,0,1,5.8,5.288,15.209,15.209,0,0,1,2.11,8.073,18.987,18.987,0,0,1-.956,6.1,24.811,24.811,0,0,1-1.989,4.58q-1.026,1.735-2.731,4.292a98.822,98.822,0,0,1-6.531,8.66h15.935Z" transform="translate(-5794.403 -1587.416)" fill="#2a8648"/>
        <path id="パス_1414" data-name="パス 1414" d="M6197.03,1806.665a37.359,37.359,0,0,1-1.524,11.217,21.953,21.953,0,0,1-4.207,7.894,17.284,17.284,0,0,1-6.119,4.578,18.535,18.535,0,0,1-14.656,0,17.02,17.02,0,0,1-6.1-4.593,22.43,22.43,0,0,1-4.207-7.878,41.632,41.632,0,0,1,0-22.465,23.064,23.064,0,0,1,4.188-7.914,16.712,16.712,0,0,1,6.106-4.631,18.65,18.65,0,0,1,14.655-.017,17,17,0,0,1,6.118,4.631,22.536,22.536,0,0,1,4.226,7.966A37.357,37.357,0,0,1,6197.03,1806.665Zm-14.018,0a53.121,53.121,0,0,0-.886-10.718q-.889-4.193-4.295-4.187a3.7,3.7,0,0,0-3.461,2.343,15.164,15.164,0,0,0-1.417,5.395q-.265,3.05-.265,7.166a52.383,52.383,0,0,0,.868,10.877q.869,3.882,4.277,3.885,3.441,0,4.312-3.885a52.757,52.757,0,0,0,.873-10.877Z" transform="translate(-5785.686 -1587.415)" fill="#2a8648"/>
        <path id="パス_1415" data-name="パス 1415" d="M6260.311,1831.224h-37.365v-.959q2.163-2.092,4.759-5t6.669-7.7q1.88-2.167,3.53-4.259a37.907,37.907,0,0,0,2.822-4.064,23.26,23.26,0,0,0,1.986-4.348,14.866,14.866,0,0,0,.815-4.861,7.771,7.771,0,0,0-1.968-5.518,6.57,6.57,0,0,0-5.021-2.111q-6.035,0-12,6.244v-11.6q2.091-1.348,3.443-2.165a27.919,27.919,0,0,1,3.105-1.6,23.545,23.545,0,0,1,4.17-1.349,22.774,22.774,0,0,1,5.212-.567,18.221,18.221,0,0,1,8.2,1.827,13.876,13.876,0,0,1,5.8,5.288,15.223,15.223,0,0,1,2.111,8.073,18.988,18.988,0,0,1-.958,6.1,24.778,24.778,0,0,1-1.989,4.58q-1.03,1.735-2.733,4.292a98.7,98.7,0,0,1-6.529,8.66h15.935Z" transform="translate(-5777.132 -1587.416)" fill="#2a8648"/>
        <path id="パス_1416" data-name="パス 1416" d="M6325.541,1806.665a37.3,37.3,0,0,1-1.527,11.217,21.873,21.873,0,0,1-4.206,7.894,17.291,17.291,0,0,1-6.119,4.578,18.534,18.534,0,0,1-14.656,0,17.054,17.054,0,0,1-6.1-4.593,22.4,22.4,0,0,1-4.2-7.878,41.606,41.606,0,0,1,0-22.465,23.013,23.013,0,0,1,4.186-7.914,16.708,16.708,0,0,1,6.105-4.631,18.65,18.65,0,0,1,14.655-.017,16.988,16.988,0,0,1,6.118,4.631,22.483,22.483,0,0,1,4.224,7.966A37.3,37.3,0,0,1,6325.541,1806.665Zm-14.019,0a53.259,53.259,0,0,0-.89-10.718q-.885-4.193-4.292-4.187a3.7,3.7,0,0,0-3.46,2.343,15.1,15.1,0,0,0-1.42,5.395q-.267,3.05-.265,7.166a52.618,52.618,0,0,0,.868,10.877q.872,3.882,4.277,3.885,3.444,0,4.313-3.885A52.619,52.619,0,0,0,6311.522,1806.665Z" transform="translate(-5768.587 -1587.415)" fill="#2a8648"/>
      </g>
      <g id="グループ_1624" data-name="グループ 1624" transform="translate(520 1398.177)">
        <rect id="長方形_123" data-name="長方形 123" width="1.747" height="7.923" transform="translate(121.179 0.02)" fill="#2a8648"/>
        <rect id="長方形_124" data-name="長方形 124" width="1.747" height="7.923" transform="translate(124.146 0.018)" fill="#2a8648"/>
        <rect id="長方形_125" data-name="長方形 125" width="1.747" height="7.92" transform="translate(106.623 0.031)" fill="#2a8648"/>
        <rect id="長方形_126" data-name="長方形 126" width="1.747" height="7.92" transform="translate(109.521 0.029)" fill="#2a8648"/>
        <rect id="長方形_127" data-name="長方形 127" width="1.747" height="7.923" transform="translate(112.414 0.027)" fill="#2a8648"/>
        <rect id="長方形_128" data-name="長方形 128" width="1.747" height="7.923" transform="translate(115.383 0.025)" fill="#2a8648"/>
        <rect id="長方形_129" data-name="長方形 129" width="1.747" height="7.923" transform="translate(138.859 0.007)" fill="#2a8648"/>
        <rect id="長方形_130" data-name="長方形 130" width="1.747" height="7.923" transform="translate(141.757 0.005)" fill="#2a8648"/>
        <rect id="長方形_131" data-name="長方形 131" width="1.747" height="7.923" transform="translate(144.724 0.004)" fill="#2a8648"/>
        <rect id="長方形_132" data-name="長方形 132" width="1.747" height="7.923" transform="translate(147.68 0)" fill="#2a8648"/>
        <rect id="長方形_135" data-name="長方形 135" width="1.747" height="7.923" transform="translate(130.099 0.014)" fill="#2a8648"/>
        <rect id="長方形_137" data-name="長方形 137" width="1.747" height="7.923" transform="translate(127.076 0.016)" fill="#2a8648"/>
        <rect id="長方形_138" data-name="長方形 138" width="1.747" height="7.923" transform="translate(135.964 0.009)" fill="#2a8648"/>
        <rect id="長方形_123-2" data-name="長方形 123-2" width="1.747" height="7.923" transform="translate(121.179 25.268)" fill="#2a8648"/>
        <rect id="長方形_124-2" data-name="長方形 124-2" width="1.747" height="7.923" transform="translate(124.146 25.266)" fill="#2a8648"/>
        <rect id="長方形_129-2" data-name="長方形 129-2" width="1.747" height="7.923" transform="translate(138.635 25.255)" fill="#2a8648"/>
        <rect id="長方形_130-2" data-name="長方形 130-2" width="1.747" height="7.923" transform="translate(141.532 25.254)" fill="#2a8648"/>
        <rect id="長方形_131-2" data-name="長方形 131-2" width="1.747" height="7.923" transform="translate(144.497 25.252)" fill="#2a8648"/>
        <rect id="長方形_132-2" data-name="長方形 132-2" width="1.747" height="7.923" transform="translate(147.453 25.248)" fill="#2a8648"/>
        <rect id="長方形_135-2" data-name="長方形 135-2" width="1.747" height="7.923" transform="translate(130.099 25.263)" fill="#2a8648"/>
        <rect id="長方形_137-2" data-name="長方形 137-2" width="1.747" height="7.923" transform="translate(127.076 25.265)" fill="#2a8648"/>
        <rect id="長方形_138-2" data-name="長方形 138-2" width="1.747" height="7.923" transform="translate(135.964 25.257)" fill="#2a8648"/>
        <rect id="長方形_124-3" data-name="長方形 124-3" width="1.747" height="7.923" transform="translate(106.726 25.265)" fill="#2a8648"/>
        <rect id="長方形_129-3" data-name="長方形 129-3" width="1.747" height="7.923" transform="translate(121.215 25.255)" fill="#2a8648"/>
        <rect id="長方形_135-3" data-name="長方形 135-3" width="1.747" height="7.923" transform="translate(112.679 25.261)" fill="#2a8648"/>
        <rect id="長方形_136" data-name="長方形 136" width="1.747" height="7.923" transform="translate(115.577 25.259)" fill="#2a8648"/>
        <rect id="長方形_137-3" data-name="長方形 137-3" width="1.747" height="7.923" transform="translate(109.656 25.263)" fill="#2a8648"/>
        <rect id="長方形_123-3" data-name="長方形 123-3" width="1.747" height="7.923" transform="translate(121.179 12.63)" fill="#2a8648"/>
        <rect id="長方形_124-4" data-name="長方形 124-4" width="1.747" height="7.923" transform="translate(124.146 12.626)" fill="#2a8648"/>
        <rect id="長方形_125-2" data-name="長方形 125-2" width="1.747" height="7.92" transform="translate(106.623 12.64)" fill="#2a8648"/>
        <rect id="長方形_126-2" data-name="長方形 126-2" width="1.747" height="7.92" transform="translate(109.521 12.637)" fill="#2a8648"/>
        <rect id="長方形_127-2" data-name="長方形 127-2" width="1.747" height="7.923" transform="translate(112.414 12.635)" fill="#2a8648"/>
        <rect id="長方形_128-2" data-name="長方形 128-2" width="1.747" height="7.923" transform="translate(115.383 12.633)" fill="#2a8648"/>
        <rect id="長方形_129-4" data-name="長方形 129-4" width="1.747" height="7.923" transform="translate(138.859 12.615)" fill="#2a8648"/>
        <rect id="長方形_130-3" data-name="長方形 130-3" width="1.747" height="7.923" transform="translate(141.757 12.613)" fill="#2a8648"/>
        <rect id="長方形_131-3" data-name="長方形 131-3" width="1.747" height="7.923" transform="translate(144.724 12.611)" fill="#2a8648"/>
        <rect id="長方形_132-3" data-name="長方形 132-3" width="1.747" height="7.923" transform="translate(147.68 12.609)" fill="#2a8648"/>
        <rect id="長方形_135-4" data-name="長方形 135-4" width="1.747" height="7.923" transform="translate(130.099 12.622)" fill="#2a8648"/>
        <rect id="長方形_137-4" data-name="長方形 137-4" width="1.747" height="7.923" transform="translate(127.076 12.624)" fill="#2a8648"/>
        <rect id="長方形_135-5" data-name="長方形 135-5" width="1.747" height="7.923" transform="translate(133.123 25.263)" fill="#2a8648"/>
        <rect id="長方形_138-3" data-name="長方形 138-3" width="1.747" height="7.923" transform="translate(135.964 12.617)" fill="#2a8648"/>
        <rect id="長方形_1247" data-name="長方形 1247" width="16.046" height="33.184" transform="translate(103.72 0)" fill="#2a8648"/>
        <rect id="長方形_1248" data-name="長方形 1248" width="16.046" height="33.184" transform="translate(157.282 0)" fill="#2a8648"/>
        <rect id="長方形_1249" data-name="長方形 1249" width="16.046" height="20.568" transform="translate(133.386 0)" fill="#2a8648"/>
        <rect id="長方形_1250" data-name="長方形 1250" width="32.103" height="7.94" transform="translate(117.33 25.255)" fill="#2a8648"/>
        <rect id="長方形_123-4" data-name="長方形 123-4" width="1.747" height="7.923" transform="translate(174.601 12.646)" fill="#2a8648"/>
        <rect id="長方形_124-5" data-name="長方形 124-5" width="1.747" height="7.923" transform="translate(177.568 12.644)" fill="#2a8648"/>
        <rect id="長方形_129-5" data-name="長方形 129-5" width="1.747" height="7.923" transform="translate(192.285 12.633)" fill="#2a8648"/>
        <rect id="長方形_130-4" data-name="長方形 130-4" width="1.747" height="7.923" transform="translate(195.182 12.631)" fill="#2a8648"/>
        <rect id="長方形_131-4" data-name="長方形 131-4" width="1.747" height="7.923" transform="translate(198.147 12.63)" fill="#2a8648"/>
        <rect id="長方形_132-4" data-name="長方形 132-4" width="1.747" height="7.923" transform="translate(201.104 12.628)" fill="#2a8648"/>
        <rect id="長方形_135-6" data-name="長方形 135-6" width="1.747" height="7.923" transform="translate(183.523 12.64)" fill="#2a8648"/>
        <rect id="長方形_137-5" data-name="長方形 137-5" width="1.747" height="7.923" transform="translate(180.499 12.642)" fill="#2a8648"/>
        <rect id="長方形_138-4" data-name="長方形 138-4" width="1.747" height="7.923" transform="translate(189.387 12.635)" fill="#2a8648"/>
        <rect id="長方形_123-5" data-name="長方形 123-5" width="1.747" height="7.923" transform="translate(174.601 25.255)" fill="#2a8648"/>
        <rect id="長方形_124-6" data-name="長方形 124-6" width="1.747" height="7.923" transform="translate(177.568 25.254)" fill="#2a8648"/>
        <rect id="長方形_129-6" data-name="長方形 129-6" width="1.747" height="7.923" transform="translate(192.285 25.241)" fill="#2a8648"/>
        <rect id="長方形_130-5" data-name="長方形 130-5" width="1.747" height="7.923" transform="translate(195.182 25.239)" fill="#2a8648"/>
        <rect id="長方形_131-5" data-name="長方形 131-5" width="1.747" height="7.923" transform="translate(198.147 25.237)" fill="#2a8648"/>
        <rect id="長方形_132-5" data-name="長方形 132-5" width="1.747" height="7.923" transform="translate(201.104 25.235)" fill="#2a8648"/>
        <rect id="長方形_135-7" data-name="長方形 135-7" width="1.747" height="7.923" transform="translate(183.523 25.248)" fill="#2a8648"/>
        <rect id="長方形_137-6" data-name="長方形 137-6" width="1.747" height="7.923" transform="translate(180.499 25.25)" fill="#2a8648"/>
        <rect id="長方形_138-5" data-name="長方形 138-5" width="1.747" height="7.923" transform="translate(189.387 25.245)" fill="#2a8648"/>
        <rect id="長方形_1251" data-name="長方形 1251" width="16.046" height="20.568" transform="translate(186.809 12.626)" fill="#2a8648"/>
        <g id="グループ_1621" data-name="グループ 1621" transform="translate(73.137 0.051)">
          <g id="Group_1694" data-name="Group 1694">
            <g id="Group_1693" data-name="Group 1693" clip-path="url(#clip-path)">
              <g id="グループ_1620" data-name="グループ 1620" transform="translate(-0.604 -17.566)">
                <path id="パス_1562" data-name="パス 1562" d="M6068.069,1914.167v-1.748l25.8-.026v1.749Zm.015,14.555v-1.749l25.8-.025v1.747Zm0-2.894v-1.754l25.8-.026v1.747Zm0-2.9v-1.748l25.8-.026v1.749Zm0-2.9v-1.747l25.8-.028v1.749Zm0-2.969v-1.746l25.8-.025v1.746Zm-.015-14.553v-1.749l25.8-.026v1.747Zm0-2.9v-1.746l25.8-.027v1.749Zm0-2.967V1894.9l25.8-.025v1.746Zm.015,14.627v-1.749l25.8-.025v1.747Zm0-2.9v-1.749l25.8-.025v1.749Zm0-2.969v-1.746l25.8-.028v1.749Zm-.024-23.476v-1.747l25.8-.027v1.748Zm0-2.9v-1.748l25.8-.026v1.747Zm0-2.967v-1.746l25.8-.027v1.748Zm0-2.954v-1.749l25.8-.025v1.749Zm0-2.9v-1.747l25.8-.025v1.747Zm0-2.967V1865.5l25.8-.025v1.747Zm.024,23.447v-1.747l25.8-.025v1.747Zm0-2.9v-1.748l25.8-.025v1.746Zm0,5.919v-1.749l25.8-.025v1.748Zm-.011-8.888v-1.749l25.8-.025v1.748Z" transform="translate(-6068.06 -1865.478)" fill="#2a8648"/>
              </g>
            </g>
          </g>
        </g>
        <g id="グループ_1623" data-name="グループ 1623" transform="translate(51.275 0.051)">
          <g id="Group_1696" data-name="Group 1696">
            <g id="Group_1695" data-name="Group 1695" clip-path="url(#clip-path-2)">
              <g id="グループ_1622" data-name="グループ 1622" transform="translate(-0.61 -17.566)">
                <path id="パス_1563" data-name="パス 1563" d="M6056.1,1914.167v-1.748l25.8-.026v1.749Zm.019,14.555v-1.749l25.8-.025v1.747Zm0-2.894v-1.754l25.8-.026v1.747Zm0-2.9v-1.748l25.8-.026v1.749Zm0-2.9v-1.747l25.8-.028v1.749Zm0-2.969v-1.746l25.8-.025v1.746Zm-.018-14.553v-1.749l25.8-.026v1.747Zm0-2.9v-1.746l25.8-.027v1.749Zm0-2.967V1894.9l25.8-.025v1.746Zm.018,14.627v-1.749l25.8-.025v1.747Zm0-2.9v-1.749l25.8-.025v1.749Zm0-2.969v-1.746l25.8-.028v1.749Zm-.027-23.476v-1.747l25.8-.027v1.748Zm0-2.9v-1.748l25.8-.026v1.747Zm0-2.967v-1.746l25.8-.027v1.748Zm0-2.954v-1.749l25.8-.025v1.749Zm0-2.9v-1.747l25.8-.025v1.747Zm0-2.967V1865.5l25.8-.025v1.747Zm.026,23.447v-1.747l25.8-.025v1.747Zm0-2.9v-1.748l25.8-.025v1.746Zm0,5.919v-1.749l25.8-.025v1.748Zm-.011-8.888v-1.749l25.8-.025v1.748Z" transform="translate(-6056.09 -1865.478)" fill="#2a8648"/>
              </g>
            </g>
          </g>
        </g>
        <path id="パス_1564" data-name="パス 1564" d="M6077.223,1875.08h-14.5l10.048,33.137h14.493Z" transform="translate(-5999.935 -1875.053)" fill="#2a8648"/>
        <path id="パス_1565" data-name="パス 1565" d="M6065.37,1875.08h-14.492l10.048,33.137h14.493Z" transform="translate(-6009.736 -1875.053)" fill="#2a8648"/>
        <ellipse id="楕円形_46" data-name="楕円形 46" cx="5.673" cy="5.673" rx="5.673" ry="5.673" transform="translate(0 10.284)" fill="#2a8648"/>
        <ellipse id="楕円形_47" data-name="楕円形 47" cx="5.673" cy="5.673" rx="5.673" ry="5.673" transform="translate(228.655 10.284)" fill="#2a8648"/>
      </g>
    </g>
    <g id="Group_3327" data-name="Group 3327">
      <g id="グループ_1658" data-name="グループ 1658" transform="translate(325.922 2276.396)">
        <path id="パス_1568" data-name="パス 1568" d="M5975.926,1978.726c1.1,0,2.245-.049,3.344-.049.669,0,.717.21.717,1.318v.9c0,1.147-.167,1.385-.765,1.385-1.1,0-2.2-.047-3.3-.047h-2.552c-.549,0-.693.358-.764.836a11.288,11.288,0,0,1-2.676,5.7,12.829,12.829,0,0,1-5.107,2.962c-.693,0-2.6-2.364-2.6-2.842,0-.287.406-.358.765-.454,2.89-.813,4.706-1.864,5.633-4.893a4.462,4.462,0,0,0,.19-.764.526.526,0,0,0-.5-.549h-4.126c-.979,0-2.508.072-3.129.072-.6,0-.737-.358-.737-1.485v-.88c0-1.218.167-1.286.737-1.286.669,0,2.077.067,3.129.067Zm-3.437-6.063c1.119,0,2.218-.049,3.318-.049.668,0,.736.243.736,1.338v1.094c0,.913-.024,1.171-.789,1.171-1.074,0-2.123-.044-3.174-.044h-5.28c-1.07,0-2.146.044-3.221.044-.717,0-.764-.21-.764-1.429v-.836c0-1.027.072-1.338.737-1.338,1,0,1.983.049,2.933.049Z" transform="translate(-5696.615 -2013.734)" fill="#2a8648"/>
        <path id="パス_1569" data-name="パス 1569" d="M6007.161,1978.97c1.409,0,2.938-.1,3.157-.1.621,0,.716.263.716.96v1.142c0,1.314-.024,1.716-.789,1.716-.931,0-2.029-.068-3.081-.068H5996.18c-1.053,0-2.173.068-3.058.068-.812,0-.812-.45-.812-1.716v-1.1c0-.712.072-1,.692-1,.335,0,1.673.1,3.177.1Z" transform="translate(-5694.932 -2013.405)" fill="#2a8648"/>
        <path id="パス_1570" data-name="パス 1570" d="M6039.153,1975.774a16.827,16.827,0,0,0,1.958-.076,1.264,1.264,0,0,1,.286-.02c.408,0,.956.621,1.458,1.215a4.706,4.706,0,0,1,.788,1.246c0,.139-.239.358-.622.692a11.238,11.238,0,0,0-.812.784c-1.93,1.911-3.938,3.775-6.015,5.495-.239.19-.5.4-.5.737a1.045,1.045,0,0,0,.262.573,7.972,7.972,0,0,1,.86,1.457c0,.5-2.245,2.006-2.866,2.006-.211,0-.407-.31-.526-.5a25.954,25.954,0,0,0-4.392-5.3c-.168-.167-.527-.5-.527-.721a5.562,5.562,0,0,1,2.632-2c.406,0,1.309.931,1.62,1.242a.632.632,0,0,0,.527.259.957.957,0,0,0,.646-.335c.836-.712,1.695-1.382,2.483-2.146.144-.143.406-.378.406-.621,0-.316-.356-.335-.787-.335h-8.548c-1.052,0-2.27.047-3.222.047-.669,0-.72-.431-.72-1.291v-1.146c0-1.146.05-1.314.624-1.314,1.12,0,2.219.052,3.317.052Z" transform="translate(-5683.905 -2013.573)" fill="#2a8648"/>
        <path id="パス_1571" data-name="パス 1571" d="M6081.075,1970.452c1,0,1.813-.107,2.523-.107.859,0,.923.356.923,1.492v1.676c0,1.132-.065,1.488-.923,1.488-.534,0-1.066-.072-1.565-.072h-4.863c-1.172,0-1.209.6-1.209,1.6v20.742c0,1.812.072,3.589.072,5.4,0,1.143-.144,1.243-1.315,1.243h-2.061c-.924,0-1.137-.1-1.137-1.137,0-1.848.076-3.655.076-5.5v-21.738c0-1.273-.112-2.518-.112-3.8,0-1.173.574-1.356,1.6-1.356.748,0,1.452.071,2.164.071Z" transform="translate(-5897.407 -1970.345)" fill="#2a8648"/>
        <path id="パス_1572" data-name="パス 1572" d="M6133.508,1997.5h-7.256v-13.936l-6.54,8.067h-.574l-6.556-8.06v13.937h-7.046V1973.45h6.575l7.4,9.019,7.422-9.019h6.576Z" transform="translate(-5874.829 -1968.588)" fill="#2a8648"/>
        <path id="パス_1573" data-name="パス 1573" d="M6162.426,1985.577a12.69,12.69,0,0,1-1.553,6.194,11.328,11.328,0,0,1-4.624,4.5,15.525,15.525,0,0,1-7.475,1.665,15.245,15.245,0,0,1-7.553-1.735,11.294,11.294,0,0,1-4.589-4.561,13,13,0,0,1-.011-12.119,11.154,11.154,0,0,1,4.6-4.549,15.331,15.331,0,0,1,7.558-1.723,16.749,16.749,0,0,1,5.95.99,11.91,11.91,0,0,1,4.293,2.684,11.249,11.249,0,0,1,2.541,3.932A13.058,13.058,0,0,1,6162.426,1985.577Zm-7.392,0a7.3,7.3,0,0,0-.4-2.476,5.4,5.4,0,0,0-1.2-1.943,5.831,5.831,0,0,0-1.978-1.286,7.335,7.335,0,0,0-2.684-.456,6.176,6.176,0,1,0-.589,12.337c.2.009.392.009.589,0a6.824,6.824,0,0,0,3.4-.783,5.287,5.287,0,0,0,2.133-2.192,6.866,6.866,0,0,0,.729-3.2Z" transform="translate(-5855.222 -1968.708)" fill="#2a8648"/>
        <path id="パス_1574" data-name="パス 1574" d="M6190.589,1985.577a12.637,12.637,0,0,1-1.559,6.194,11.2,11.2,0,0,1-4.618,4.5,15.548,15.548,0,0,1-7.48,1.665,15.234,15.234,0,0,1-7.546-1.735,11.226,11.226,0,0,1-4.585-4.561,13,13,0,0,1-.012-12.119,11.1,11.1,0,0,1,4.589-4.549,15.312,15.312,0,0,1,7.553-1.723,16.751,16.751,0,0,1,5.95.99,11.9,11.9,0,0,1,4.293,2.684,11.36,11.36,0,0,1,2.552,3.932A13.134,13.134,0,0,1,6190.589,1985.577Zm-7.391,0a7.333,7.333,0,0,0-.4-2.476,5.435,5.435,0,0,0-1.208-1.943,5.8,5.8,0,0,0-1.973-1.286,7.364,7.364,0,0,0-2.689-.456,5.794,5.794,0,0,0-6.239,5.313,6.06,6.06,0,0,0,0,.847,5.83,5.83,0,0,0,5.454,6.182,6.008,6.008,0,0,0,.79,0,6.874,6.874,0,0,0,3.406-.783,5.285,5.285,0,0,0,2.132-2.192A6.835,6.835,0,0,0,6183.2,1985.577Z" transform="translate(-5836.551 -1968.708)" fill="#2a8648"/>
        <path id="パス_1575" data-name="パス 1575" d="M6217.181,1985.907a11.474,11.474,0,0,1-1.344,5.935,12.649,12.649,0,0,1-3.163,3.625,11.46,11.46,0,0,1-7.239,2.036h-12.977v-24.052h9.992a27.5,27.5,0,0,1,3.861.23,18.111,18.111,0,0,1,2.891.658,12.312,12.312,0,0,1,2.193.96,12,12,0,0,1,3.776,3.512,11.725,11.725,0,0,1,1.47,3.174A13.352,13.352,0,0,1,6217.181,1985.907Zm-7.373-.313a7.971,7.971,0,0,0-1.121-4.566,5.428,5.428,0,0,0-2.683-2.192,9.51,9.51,0,0,0-3.2-.556h-3.093v14.249h3.085a8.873,8.873,0,0,0,4.928-1.35q2.086-1.365,2.086-5.587Z" transform="translate(-5814.176 -1968.589)" fill="#2a8648"/>
        <path id="パス_1576" data-name="パス 1576" d="M6236.413,2003.833c-.994,0-1.812.1-2.522.1-.853,0-.924-.349-.924-1.492v-1.665c0-1.136.071-1.492.924-1.492.532,0,1.066.071,1.566.071h4.869c1.166,0,1.2-.6,1.2-1.6v-20.748c0-1.805-.072-3.582-.072-5.4,0-1.131.149-1.243,1.316-1.243h2.06c.923,0,1.137.113,1.137,1.144,0,1.843-.071,3.654-.071,5.5v21.744c0,1.279.106,2.522.106,3.8,0,1.167-.568,1.344-1.6,1.344-.748,0-1.456-.064-2.167-.064Z" transform="translate(-5791.255 -1970.332)" fill="#2a8648"/>
      </g>
      <g id="Group_2496" data-name="Group 2496" transform="translate(143.613 1337.389)">
        <path id="Path_5558" data-name="Path 5558" d="M362.175,851.742c-.17,0-.279.042-.3.216-.042.3-.365.323-1.333.323h-.948c-.537,0-.8-.042-.8-.453,0-.387.044-.968.044-1.526v-4.09c0-.475-.022-.948-.022-1.4,0-.6.3-.754.86-.754.712,0,1.421.044,2.131.044H364.2a.369.369,0,0,0,.345-.345v-.108a.354.354,0,0,0-.345-.345h-4.368c-.9,0-1.828.044-2.732.044-.473,0-.515-.237-.515-.84v-.948c0-.623.042-.838.537-.838.9,0,1.808.042,2.71.042h3.962c.6,0,.732-.343.732-.537,0-.217-.022-.646-.044-.882a.709.709,0,0,1-.02-.214c0-.259.214-.3.429-.3.84,0,1.68.064,2.5.086.323,0,.712.064.712.325,0,.148-.108.212-.217.32a.76.76,0,0,0-.172.581c0,.323.195.624.754.624h4c.9,0,1.808-.042,2.713-.042.493,0,.537.215.537.838v.948c0,.6-.044.84-.517.84-.9,0-1.828-.044-2.732-.044h-4.435a.341.341,0,0,0-.343.345v.108a.354.354,0,0,0,.343.345H370.5c.688,0,1.4-.044,2.109-.044.537,0,.882.15.882.754,0,.451-.042.924-.042,1.4v4.09c0,.6.042,1.161.042,1.526,0,.389-.259.431-.645.431h-1.636c-.668,0-.882-.042-.924-.3a.282.282,0,0,0-.3-.216h-.411c-.15,0-.3.022-.3.195,0,.194.712.667.86.774a22.612,22.612,0,0,0,5.317,2.755c.15.066.409.175.409.369,0,.451-1.077,2.213-1.528,2.213a16.631,16.631,0,0,1-3.122-1.441,21.758,21.758,0,0,1-2.925-2.087.655.655,0,0,0-.323-.15c-.217,0-.281.192-.281.387,0,.97.064,1.959.064,2.949,0,.559-.214.623-.946.623h-1.4c-.668,0-.926-.042-.926-.6,0-.991.064-1.959.064-2.949,0-.15-.064-.365-.259-.365-.17,0-.429.234-.557.343a18.883,18.883,0,0,1-4.866,2.993.325.325,0,0,1-.128.042,2.694,2.694,0,0,1-.774.256c-.583,0-1.572-1.611-1.572-2.151,0-.279.279-.343.537-.451a26.453,26.453,0,0,0,5.295-2.927c.15-.108.6-.409.6-.581,0-.153-.128-.195-.279-.195Zm-.343-5.164a.285.285,0,0,0,.279.281h2.153a.266.266,0,0,0,.279-.259v-.086a.284.284,0,0,0-.279-.281h-2.153a.284.284,0,0,0-.279.281Zm0,2.777a.289.289,0,0,0,.279.3h2.153a.269.269,0,0,0,.279-.279v-.13a.283.283,0,0,0-.279-.279h-2.153a.283.283,0,0,0-.279.279Zm5.854-2.755a.266.266,0,0,0,.281.259h2.085a.267.267,0,0,0,.281-.259v-.086a.284.284,0,0,0-.281-.281h-2.085a.284.284,0,0,0-.281.281Zm0,2.777c.02.172.106.279.281.279h2.085a.27.27,0,0,0,.281-.279v-.13a.284.284,0,0,0-.281-.279h-2.085a.284.284,0,0,0-.281.279Z" transform="translate(0 0.047)" fill="#2a8648"/>
        <path id="Path_5559" data-name="Path 5559" d="M387.163,840.9c.9,0,1.808-.042,2.732-.042.475,0,.517.237.517.882v.97c0,.646-.042.9-.517.9-.924,0-1.828-.044-2.732-.044H374.487c-.9,0-1.831.044-2.732.044-.475,0-.517-.234-.517-.9v-.97c0-.646.042-.882.517-.882.9,0,1.828.042,2.732.042h3.982c.559,0,.754-.3.754-.6a7.51,7.51,0,0,0-.064-.988c0-.044-.022-.13-.022-.173,0-.281.259-.3.473-.3.473,0,1.808.108,2.346.15.453.044.882.044.882.325,0,.106-.086.148-.237.278a.815.815,0,0,0-.214.688.615.615,0,0,0,.688.623ZM376.9,852.461c.559.281,1.249.626,1.249.818,0,.217-.237.281-.409.3-.281.042-.323.108-.537.407a19.53,19.53,0,0,1-3.228,3.661c-.153.106-.409.343-.6.343-.431,0-2.023-1.249-2.023-1.678,0-.172.237-.345.365-.453a15.01,15.01,0,0,0,3.336-3.765c.064-.108.15-.281.281-.281A5.938,5.938,0,0,1,376.9,852.461Zm.217-1.313a.246.246,0,0,0-.281.217c-.064.237-.214.3-.732.3h-1.722c-.387,0-.646-.044-.646-.433s.066-.966.066-1.528v-3.228c0-.473-.044-.948-.044-1.4,0-.581.323-.754.862-.754.71,0,1.419.044,2.129.044h8.027c.712,0,1.4-.044,2.109-.044.475,0,.882.086.882.754,0,.451-.042.926-.042,1.4v3.228c0,.562.064,1.141.064,1.528s-.259.433-.646.433H385.4c-.431,0-.646-.022-.712-.325-.02-.15-.15-.195-.279-.195h-1.464a.6.6,0,0,0-.6.6v2.217c0,.6.044,1.2.044,1.808,0,2.324-2.281,2.474-4.068,2.474-.6,0-1.119-.022-1.355-.407a4.133,4.133,0,0,1-.431-1.9c0-.429.042-.966.581-.966.214,0,.752.086,1.614.086.5,0,.6-.066.6-1.1v-2.217a.6.6,0,0,0-.6-.6Zm-.323-3.055a.589.589,0,0,0,.6.6h6.736a.589.589,0,0,0,.6-.6v-.6a.591.591,0,0,0-.6-.606h-6.736a.591.591,0,0,0-.6.606Zm9.555,3.873c.712.732,1.68,1.789,2.582,2.863.237.281.946,1.1.946,1.444,0,.279-.214.471-.838.926a3.421,3.421,0,0,1-1.313.75c-.236,0-.3-.1-.409-.278a26.115,26.115,0,0,0-3.228-3.979.5.5,0,0,1-.214-.367c0-.365,1.742-1.53,2.087-1.53A.546.546,0,0,1,386.345,851.966Z" transform="translate(17.979 0.059)" fill="#2a8648"/>
        <path id="Path_5560" data-name="Path 5560" d="M387.982,853.746a.868.868,0,0,0,.365-.8v-2.8a.624.624,0,0,0-.623-.71c-.237,0-.645.044-.9.044-.5,0-.559-.239-.559-.8v-1.355c0-.582.064-.818.539-.818.321,0,.816.064,1.289.064h.8c.473,0,.9-.042,1.313-.042.71,0,1.291.237,1.291,1.032,0,.517-.066,1.119-.066,1.917v3.248c0,.84,0,1.744.862,2.153a6.812,6.812,0,0,0,2.538.323h.409c1.013,0,2,.042,2.991.042,1.722,0,3.422-.022,5.124-.106.343-.022,1.4-.108,1.614-.108.515,0,.515.387.515.882,0,2.087-.579,2.087-1.959,2.087h-4.755a41.826,41.826,0,0,1-6.844-.387,2.636,2.636,0,0,1-1.72-1.054c-.086-.17-.217-.323-.389-.323s-.5.281-.687.431a11.867,11.867,0,0,1-1.013.732c-.387.259-.431.281-.5.579a.365.365,0,0,1-.365.281c-.259,0-.3-.172-.389-.407-.256-.69-.473-1.355-.73-2.045a4.142,4.142,0,0,1-.259-.948c0-.3.259-.365.6-.451a2.473,2.473,0,0,0,.325-.108A11.836,11.836,0,0,0,387.982,853.746Zm.323-14.5c.15,0,.279.109.473.3.044.042.128.128.279.259a20.348,20.348,0,0,1,1.594,1.7,2.209,2.209,0,0,1,.15.172c.3.389.86,1.079.86,1.357,0,.409-1.461,1.572-2,1.572-.192,0-.281-.131-.431-.325a26.6,26.6,0,0,0-2.732-3.055.312.312,0,0,1-.15-.281C386.346,840.51,387.874,839.241,388.3,839.241Zm8.35,1.547c.279,0,.409-.148.409-.343,0-.3-.022-.818-.042-1.119a.589.589,0,0,1-.022-.195c0-.281.17-.323.409-.323.259,0,1.87.151,2.215.172.539.042.926.086.926.367,0,.126-.064.192-.237.343a.671.671,0,0,0-.195.537.586.586,0,0,0,.668.559H401c.754,0,1.508-.042,2.239-.042.473,0,.515.172.515.732V842.6c0,.539-.042.712-.493.712-.8,0-1.616-.044-2.412-.044h-.409a.339.339,0,0,0-.343.342v.456a.6.6,0,0,0,.6.6h1.831c.774,0,1.528-.064,2.3-.064.475,0,.581.172.581.665v1.2c0,.539-.128.646-.752.646-.431,0-1.1-.042-2.131-.042h-7.554c-.8,0-1.572.042-2.346.042-.517,0-.561-.256-.561-.86v-.8c0-.517.044-.86.5-.86.259,0,.6.02.84.02.042,0,.172,0,.172-.086s-.172-.151-.237-.172c-.6-.195-1.032-.407-1.032-.732a.735.735,0,0,1,.106-.365,15.735,15.735,0,0,0,1.377-4.046c.044-.195.108-.281.323-.281a10.752,10.752,0,0,1,1.528.325c.82.192,1.121.234,1.121.515a.3.3,0,0,1-.217.279c-.237.108-.345.216-.345.453,0,.15.108.278.345.278Zm-3.228,9.407c0-.517-.044-1.012-.044-1.508,0-.84.754-.86,1.4-.86.688,0,1.355.042,2.045.042h3.442c.668,0,1.357-.042,2.045-.042.626,0,1.4.02,1.4.86,0,.5-.042.99-.042,1.508v1.828c0,.709.064,1.7.064,2,0,.433-.237.475-.9.475h-1.4c-.581,0-.86-.042-.86-.431,0-.3-.172-.343-.431-.343h-3.208c-.192,0-.429.02-.429.365,0,.367-.281.409-.84.409h-1.419c-.646,0-.884-.042-.884-.475,0-.385.066-1.291.066-2Zm3.055-5.531a.617.617,0,0,0,.6-.6v-.194a.616.616,0,0,0-.6-.6h-.5c-.579,0-.71.278-.882.69-.042.086-.086.172-.128.278a.322.322,0,0,0-.044.172c0,.236.259.259.431.259Zm-.02,6.307a.5.5,0,0,0,.515.515h3.141a.523.523,0,0,0,.517-.515v-.261a.522.522,0,0,0-.517-.515h-3.141a.507.507,0,0,0-.515.515Z" transform="translate(35.699 0.024)" fill="#2a8648"/>
        <path id="Path_5561" data-name="Path 5561" d="M409.994,854.294c0,1.118.066,2.215.066,3.336,0,.537-.195.6-.882.6h-1.4c-.71,0-.948-.042-.948-.581,0-1.119.064-2.237.064-3.356v-4.5a.406.406,0,0,0-.407-.409h-.15c-.453,0-.517.559-.559.882a16.444,16.444,0,0,1-.776,3.7c-.237.734-1.55,4.09-2.346,4.09-.517,0-2.109-1.119-2.109-1.656a1.519,1.519,0,0,1,.279-.561,12.5,12.5,0,0,0,1.766-4.541c.042-.281.15-1.074.15-1.291,0-.431-.281-.579-.668-.579-.15,0-.281.022-.409.022-.646,0-.71-.3-.71-1.035v-1.077c0-.774.064-1.032.729-1.032h.345c.409,0,.84-.153.84-.626v-2.624c0-.559-.473-.623-.862-.623-.451-.044-.493-.433-.493-1.079v-.88c0-.926.022-1.163.86-1.163.431,0,1.119.064,2.153.064h3.765c.776,0,1.55-.064,2.326-.064.623,0,.69.3.69.927v1.269c0,.666-.044.86-.539.926-.367.042-.776.128-.776.579v2.713c0,.451.367.559.754.581.732.02.8.15.8,1.118v1.033c0,.195.044.431.281.431a21.127,21.127,0,0,0,5.94-4.368c.064-.109.214-.281.345-.281a4.008,4.008,0,0,1,1.055.776c.106.106.192.172.237.214.15.13.279.259.387.345.431.367.668.579.668.8,0,.259-.3.259-.5.259a.291.291,0,0,0-.3.13,37.462,37.462,0,0,1-6.11,4.583,4.314,4.314,0,0,1-1.313.623c-.623,0-1.786-1.68-1.786-2.087a.338.338,0,0,1,.042-.153.262.262,0,0,0,.022-.128.153.153,0,0,0-.172-.148c-.279,0-.323.365-.345.579Zm-3.506-7.921a.412.412,0,0,0,.407-.429V842.8a.394.394,0,0,0-.407-.409h-.172a.4.4,0,0,0-.409.409v3.143a.419.419,0,0,0,.431.429Zm13.021,4.521c.106.106.279.256.407.365.431.387.71.646.71.862,0,.256-.365.256-.559.256h-.042a.315.315,0,0,0-.3.108,41.557,41.557,0,0,1-6.608,4.864,3.094,3.094,0,0,1-1.119.515c-.581,0-1.658-1.806-1.658-2.237,0-.236.259-.345.431-.431a26.95,26.95,0,0,0,7.017-5.12c.084-.086.237-.258.365-.258A5.724,5.724,0,0,1,419.509,850.894Zm-.475-10.956a3.187,3.187,0,0,1,.281.259c.429.367.774.645.774.882,0,.259-.279.259-.473.259-.214,0-.214.02-.429.237a26.667,26.667,0,0,1-5.812,4.218,1.438,1.438,0,0,1-.668.217c-.559,0-1.808-1.766-1.808-2.217,0-.217.281-.325.559-.451a19.231,19.231,0,0,0,5.92-4.132c.086-.109.214-.281.365-.281A4.809,4.809,0,0,1,419.034,839.937Z" transform="translate(53.467 0.166)" fill="#2a8648"/>
        <path id="Path_5562" data-name="Path 5562" d="M426.924,840.37c0,1.077-.044,2.131-.044,3.208,0,.471.3.645.732.645h4.218c.84,0,1.7-.066,2.56-.066.517,0,.581.217.581.884v1.486c0,.646-.064.882-.581.882-.838,0-1.7-.064-2.56-.064h-3.915c-.195,0-.539,0-.539.321a7.818,7.818,0,0,0,.948,1.937,14.147,14.147,0,0,0,5.768,5.467c.279.15.473.236.473.581,0,.667-1.163,2.476-1.873,2.476a1.185,1.185,0,0,1-.519-.195,17.515,17.515,0,0,1-4.216-3.422,18.427,18.427,0,0,1-2.3-3.164.554.554,0,0,0-.429-.323c-.3,0-.453.387-.562.6a15.1,15.1,0,0,1-6.52,6.135c-.044.02-.108.042-.15.062a2.307,2.307,0,0,1-.9.323c-.473,0-.84-.687-1.141-1.355a5.1,5.1,0,0,1-.409-1.333c0-.347.3-.473.559-.581a11.517,11.517,0,0,0,6.263-5.682,8.88,8.88,0,0,0,.515-1.508c0-.343-.323-.343-.559-.343h-3.765c-.862,0-1.722.064-2.582.064-.539,0-.581-.236-.581-.949v-1.313c0-.732.042-.99.6-.99.84,0,1.7.066,2.562.066h4.24c.754,0,.774-.387.774-2.067,0-.924-.064-1.85-.064-2.8,0-.365.172-.451.517-.451.665,0,2.065.13,2.8.172.195.022.537.086.537.323a.281.281,0,0,1-.17.259A.824.824,0,0,0,426.924,840.37Z" transform="translate(71.434 0.142)" fill="#2a8648"/>
        <path id="Path_5563" data-name="Path 5563" d="M445.577,851c.9,0,1.806-.042,2.71-.042.5,0,.537.214.537.86v.968c0,.624-.042.84-.515.84-.926,0-1.828-.042-2.732-.042H442a.594.594,0,0,0-.665.646v1.463c0,2.5-1.249,2.646-4.112,2.646-.968,0-1.333-.044-1.592-.473a3.759,3.759,0,0,1-.345-1.614c0-.539.172-.862.754-.862.409,0,.862.042,1.422.042s.687-.172.687-.6V854.2a.61.61,0,0,0-.668-.624h-3.809c-.924,0-1.828.042-2.755.042-.473,0-.517-.237-.517-.862v-.946c0-.646.044-.86.537-.86.906,0,1.811.042,2.735.042h3.809c.323,0,.626-.106.626-.5,0-.13-.044-.409-.044-.559,0-.3.217-.323.451-.323h.5a1.386,1.386,0,0,0,1.035-.774c0-.108-.217-.108-.473-.108h-2.326c-.732,0-1.464.044-2.2.044-.517,0-.559-.194-.559-.776v-1.1c0-.581.042-.774.559-.774.732,0,1.463.044,2.2.044h3.873c.71,0,1.441-.022,2.153-.022.6,0,.688.128,1.119.668a2.163,2.163,0,0,1,.539.988c0,.559-2.175,2.281-2.69,2.668-.153.108-.281.195-.281.345s.195.172.323.172Zm.32-8.37c0,.19.239.257.389.257.387,0,.774-.022,1.183-.022.559,0,1.121.064,1.121.776,0,.515-.044,1.141-.044,1.786v.537c0,.473.066.924.066,1.271,0,.6-.3.645-.993.645h-1.161c-.71,0-1.012-.044-1.012-.625,0-.407.064-.818.064-1.225a.614.614,0,0,0-.687-.69H434.384c-.5,0-.71.237-.71.732,0,.387.064.776.064,1.163,0,.6-.3.645-.988.645H431.63c-.71,0-1.01-.044-1.01-.625,0-.367.064-.86.064-1.291v-.537c0-.646-.042-1.271-.042-1.786,0-.712.579-.776,1.139-.776.345,0,.712.022.993.022.17,0,.385-.067.385-.257a8.627,8.627,0,0,0-1.032-1.53.664.664,0,0,1-.192-.409c0-.473,1.612-1.291,2.217-1.291.365,0,.688.387,1.247,1.141a5.549,5.549,0,0,1,.84,1.508.666.666,0,0,1-.259.473.311.311,0,0,0-.086.195c0,.19.214.19.345.19h1.612c.153,0,.433-.02.433-.256a.875.875,0,0,0-.153-.345c-.237-.409-.882-1.422-1.163-1.786a.522.522,0,0,1-.148-.367c0-.6,1.612-1.291,2.131-1.291.429,0,.816.581,1.377,1.443a5.483,5.483,0,0,1,.749,1.441c0,.343-.6.71-.88.862-.086.042-.15.108-.15.17,0,.086.086.128.237.128h1.032a.993.993,0,0,0,1.013-.471,21.4,21.4,0,0,0,1.656-2.713c.086-.195.128-.389.389-.389.279,0,2.343.732,2.777.862.3.086.451.15.451.389,0,.17-.239.279-.451.365-.3.108-.367.128-.519.407-.106.195-.234.411-.365.606A3.028,3.028,0,0,0,445.9,842.627Z" transform="translate(89.613 0.082)" fill="#2a8648"/>
        <path id="Path_5564" data-name="Path 5564" d="M453.532,843.316c-.451,0-.6.256-.6.5,0,.064.022.151.022.259,0,.451-.217.5-1.013.5h-1.313c-.776,0-.988-.044-.988-.5,0-.108.02-.172.02-.259,0-.217-.15-.5-.623-.5h-1.875c-.665,0-1.291.066-1.742.066-.367,0-.409-.217-.409-.667v-1.338c0-.707.042-.9.409-.9.431,0,1.055.044,1.742.044h1.788c.559,0,.754-.325.754-.6,0-.128-.044-.539-.064-.668,0-.042-.022-.106-.022-.15,0-.236.279-.259.451-.259.473,0,1.959.108,2.5.15.367.022.818.022.818.259,0,.086-.044.128-.214.236a.547.547,0,0,0-.281.537c0,.389.325.5.646.5h2.023a.606.606,0,0,0,.668-.646c0-.108-.044-.453-.044-.559a.458.458,0,0,1-.02-.173c0-.239.259-.239.431-.239.473,0,1.981.109,2.5.153.387.02.84.02.84.259,0,.084-.064.126-.217.234a.459.459,0,0,0-.279.451c0,.433.323.52.668.52h1.892c.69,0,1.313-.044,1.764-.044.367,0,.411.195.411.9v1.315c0,.451-.044.69-.411.69-.451,0-1.1-.066-1.764-.066h-1.937c-.323,0-.581.15-.581.517v.236c0,.451-.192.5-.9.5h-1.4c-.754,0-.992-.044-.992-.5v-.236c0-.239-.151-.517-.6-.517Zm-6.8,14.958a.357.357,0,0,1-.3.217c-.343,0-.451-.562-.688-1.314a13.482,13.482,0,0,1-.451-1.83c0-.3.172-.323.473-.323h.128c.281,0,.581.022.884.022.429,0,.86.022,1.311.022a.738.738,0,0,0,.776-.433c.042-.064.086-.17.172-.3a11.768,11.768,0,0,0,1.141-2.326c0-.3-.325-.323-.451-.323H448.39c-.948,0-1.895.042-2.841.042-.5,0-.539-.215-.539-.816v-1.165c0-.6.042-.835.562-.835.924,0,1.87.062,2.819.062H460.7c.946,0,1.895-.062,2.843-.062.515,0,.559.256.559.944v.948c0,.687-.044.924-.559.924-.948,0-1.9-.042-2.843-.042h-.946c-.172,0-.365.022-.365.192,0,.108.126.194.192.258,1.419,1.358,2.688,2.863,3.981,4.329a.411.411,0,0,1,.15.3c0,.517-1.722,1.68-2.215,1.68-.239,0-.325-.13-.453-.281-.517-.71-.69-.988-1.032-.988-.15,0-2.476.193-2.841.234-3.358.239-6.714.411-10.074.5C446.9,857.929,446.84,858.057,446.732,858.273ZM458.44,845.08c.8,0,1.614-.042,2.41-.042.581,0,.626.237.626.882v1.032c0,.71-.044.948-.648.948-.794,0-1.592-.044-2.388-.044h-7.835c-.816,0-1.612.044-2.41.044-.581,0-.623-.239-.623-.884V845.9c0-.646.042-.86.623-.86.818,0,1.614.042,2.41.042Zm-5.918,9.491c0,.325.3.367.559.367.86,0,2.41-.086,3.358-.128.237-.022.429-.022.6-.022.537-.022.71-.044.71-.239a4.781,4.781,0,0,0-.838-.88,2.03,2.03,0,0,1-.217-.195c-.17-.15-.387-.3-.387-.5,0-.259.387-.539.646-.751a1.03,1.03,0,0,0,.15-.109c.066-.044.175-.152.175-.239,0-.17-.195-.192-.281-.192h-2.8c-.108,0-.13.022-.13.064,0,.064.066.086.108.128a.226.226,0,0,1,.108.194c0,.173-.217.217-.345.259-.473.151-.5.3-.71.754A6.616,6.616,0,0,0,452.522,854.571Z" transform="translate(107.298 0.059)" fill="#2a8648"/>
        <path id="Path_5565" data-name="Path 5565" d="M470.7,854.263c0,1.183.042,2.365.042,3.573,0,.515-.192.559-.86.559H468.72c-.712,0-.924-.044-.924-.559,0-1.207.042-2.39.042-3.573v-5.856c0-.042,0-.126-.042-.126-.108,0-.13.473-.13.579a41.38,41.38,0,0,1-.946,6.113c-.172.581-.237.668-.473.668-.152,0-1.85-.258-1.85-1.012a3.98,3.98,0,0,1,.126-.668,36.054,36.054,0,0,0,.926-6.478c.022-.192,0-.5.217-.5.172,0,1.333.258,1.572.323a1.392,1.392,0,0,0,.3.044c.195,0,.3-.086.3-.281v-.214a.624.624,0,0,0-.624-.623c-.345,0-.668.042-1.013.042-.086,0-.195-.042-.387-.042-.259,0-.367.192-.646.686-.15.281-.345.628-.648,1.1a.4.4,0,0,0-.084.214c0,.106.106.17.214.215.086.042.172.086.172.217a.354.354,0,0,1-.194.323c-.279.192-.321.214-.321,1.141v.194c0,.234-.022.493-.022.749v3.9c0,.9.042,1.828.042,2.755,0,.5-.106.668-1.225.668h-.519c-1.052,0-1.183-.172-1.183-.668,0-.926.044-1.85.044-2.755v-2.368c0-.323,0-.537-.347-.6-.256-.042-.3-.086-.6-.429a4.3,4.3,0,0,1-.988-1.7.675.675,0,0,1,.3-.471,21,21,0,0,0,3.7-5.272c.194-.411.217-.54.409-.54a1.841,1.841,0,0,1,.8.345,1.433,1.433,0,0,0,.559.234c.194,0,.239-.17.259-.321.044-.3.131-.473.668-.473.325,0,.624.022.948.022.387,0,.688-.195.688-.606v-.429c0-.409.022-.966.022-1.508a14.039,14.039,0,0,0-.064-1.463.622.622,0,0,1-.022-.212c0-.261.192-.281.387-.281.668,0,1.594.042,2.281.086.323.02.668.02.668.3,0,.106-.086.193-.195.3a.911.911,0,0,0-.215.69v2.516c0,.389.3.606.73.606.3,0,.628-.022.948-.022.69,0,.69.343.69.946,0,.323,0,.5.192.5a.669.669,0,0,0,.175-.02,1.21,1.21,0,0,1,.3-.044c.646,0,1.291.064,1.937.064h.754c.646,0,1.291-.064,1.959-.064.623,0,.732.214.732.882V846.8c0,.6-.108.8-.646.818-.387.02-.645.17-.645.6v6.071c0,.515.042,1.01.042,1.527,0,2.3-1.72,2.6-3.615,2.6-.409,0-.9,0-1.119-.433a6.836,6.836,0,0,1-.387-2.107c0-.3.106-.562.473-.562.13,0,.409.022.645.022h.237c.9,0,.924,0,.924-1.074v-6.048a.568.568,0,0,0-.623-.6c-.8,0-.946,0-.946.3a2.635,2.635,0,0,0,.084.429c.195.862.84,4.629.84,5.383,0,.838-1.656,1.074-2.109,1.074-.493,0-.473-.323-.493-.71a49.964,49.964,0,0,0-.884-6.048,2.744,2.744,0,0,1-.064-.387c0-.3.323-.409,1.895-.774.237-.064.259-.172.259-.389,0-.128,0-.279-.153-.279a.806.806,0,0,0-.192.022,1.846,1.846,0,0,1-.3.042c-.345,0-.69-.042-1.032-.042a.535.535,0,0,0-.6.6Zm-6.071-14.852c.6.281,1.335.562,1.335.882,0,.194-.237.261-.409.281-.236.022-.259.044-.71.776-.086.148-.239.365-.387.624-.367.6-2.39,3.53-2.991,3.53a3.194,3.194,0,0,1-1.85-1.808c0-.153.1-.237.212-.323a16.419,16.419,0,0,0,3.015-4.154c.128-.3.172-.409.343-.409a3.577,3.577,0,0,1,1.077.431C464.416,839.305,464.544,839.369,464.63,839.411Zm11.56.3c.6,0,1.205-.066,1.784-.066.626,0,.732.239.732.884v1.161c0,.668-.086.9-.732.9-.6,0-1.183-.042-1.784-.042H476.1c-.69,0-1.229.022-2.089.022a.548.548,0,0,0-.367.128,5.054,5.054,0,0,1-1.634.537c-.217,0-.237-.086-.345-.431a17.325,17.325,0,0,0-.818-2.193.784.784,0,0,1-.086-.3c0-.343,1.464-.754,1.678-.754.3,0,.5.367.862,1.313.044.13.13.153.17.153.086,0,.108-.153.108-.453,0-.623.022-.926.732-.926.6,0,1.185.066,1.788.066Z" transform="translate(124.854 0.024)" fill="#2a8648"/>
        <path id="Path_5566" data-name="Path 5566" d="M486.7,852.287a.6.6,0,0,0-.6.6v.862c0,.343.044.688.044,1.03v.862c0,1.183-.066,1.828-.882,2.282a6.708,6.708,0,0,1-3.057.517h-.343c-.453,0-.862-.022-1.034-.3a5.053,5.053,0,0,1-.451-2.109c0-.623.13-.71.431-.71.387,0,.752.042,1.032.042.924,0,.946-.108.946-.924v-1.55a.586.586,0,0,0-.6-.6h-1.678c-.172,0-.367,0-.367.19,0,.217,1.1.862,1.311.992.175.109.539.345.539.537a.28.28,0,0,1-.279.237h-.172c-.217,0-.3.086-.453.259-.517.6-3.464,3.723-4.066,3.723-.411,0-1.013-.581-1.313-.862-.239-.212-.8-.687-.8-.988,0-.172.126-.3.666-.687.517-.367,3.1-2.6,3.1-3.122,0-.192-.195-.259-.345-.259-.3,0-.6.022-.9.022-.407,0-.473-.217-.473-.582v-.106c0-.089-.042-.195-.15-.195s-.195.128-.451.128c-.754,0-1.917-1.658-1.917-1.937a.6.6,0,0,1,.3-.431c.84-.582,1.552-1.074,2.239-1.634.148-.13.256-.217.256-.433a.664.664,0,0,0-.6-.537.426.426,0,0,0-.279.086.342.342,0,0,1-.194.066c-.237,0-.431-.086-1.121-.82-.279-.278-.688-.687-.688-1.1,0-.214.192-.367.323-.5a13.841,13.841,0,0,0,3.531-5.208c.064-.214.128-.345.321-.345.13,0,2.109.431,2.949.668.239.064.433.194.433.3,0,.064-.086.172-.086.259s.17.084.234.084h1.077c.3,0,.623-.022.623-.237,0-.042-.02-.128-.02-.194,0-.451.579-.537,1.052-.623a10.994,10.994,0,0,1,1.121-.151c.387,0,.451.217.537.582.431,1.678,1.895,4.477,2.454,4.477.345,0,1.311-1.828,1.311-1.914,0-.108-.126-.108-.385-.108h-.239c-.473,0-.966.042-1.464.042-.559,0-.6-.15-.6-.688v-.882c0-.734.042-.82.71-.82.345,0,.754.066,1.528.066h.194c.754,0,1.486-.044,2.217-.044.623,0,.754.173,1.249.776a1.417,1.417,0,0,1,.451.818c0,.732-1.937,3.7-2.454,4.41a1.058,1.058,0,0,0-.281.6c0,.278.325.517.926,1.01.581.473,1.163.906,1.786,1.335.172.108.389.236.389.473,0,.625-1.293,2.259-1.766,2.259a1.35,1.35,0,0,1-.581-.279.343.343,0,0,0-.15-.064c-.172,0-.172.214-.172.668,0,.493-.02.71-.5.71-.71,0-1.422-.042-2.131-.042Zm-7.209-7.147c0-.195-.259-.407-.451-.559a.5.5,0,0,1-.108-.086.382.382,0,0,0-.281-.128.558.558,0,0,0-.517.517c0,.214.69.774.862.774A.645.645,0,0,0,479.494,845.139Zm9.88,4.563c.365,0,.6-.02.6-.192,0-.152-.281-.347-.453-.5s-.882-.818-1.01-.968a.325.325,0,0,0-.217-.13c-.108,0-.128.086-.192.236a.438.438,0,0,1-.431.193c-.6,0-1.247-.062-1.937-.062H483.41c-.687,0-1.333.062-1.937.062-.343,0-.387-.106-.429-.193a.161.161,0,0,0-.15-.106.378.378,0,0,0-.239.128c-.192.192-.9.86-1.119,1.01a.4.4,0,0,0-.172.325c0,.192.195.192.345.192Zm-8.933-7.426c-.128,0-.559,0-.559.172s.128.281.345.431a2.2,2.2,0,0,1,.259.214c.128.108.214.195.365.195.217,0,.259-.15.367-.323a1.782,1.782,0,0,0,.234-.537c0-.13-.256-.152-.579-.152Zm5.186,3.358c.345,0,.537,0,.537-.256a.4.4,0,0,0-.106-.261,17.645,17.645,0,0,1-.968-1.592c-.086-.15-.217-.387-.389-.387s-.279.172-.343.3a14.359,14.359,0,0,1-1.035,1.676.44.44,0,0,0-.126.261c0,.212.1.256.557.256Zm5.79,8.653a13.006,13.006,0,0,1,2.023,2.323c0,.431-1.572,1.722-2,1.722-.237,0-.475-.325-.623-.5a25.674,25.674,0,0,0-3.422-3.422c-.13-.106-.367-.259-.367-.431,0-.407,1.528-1.569,1.914-1.569C489.416,852.415,491.008,853.9,491.417,854.287Z" transform="translate(142.821)" fill="#2a8648"/>
      </g>
      <g id="Group_2773" data-name="Group 2773" transform="translate(487.48 2530.723)">
        <g id="Group_2769" data-name="Group 2769" transform="translate(34.932 0.864)">
          <path id="Path_5878" data-name="Path 5878" d="M570.818,182.116a6.1,6.1,0,0,1,2.829.654,4.759,4.759,0,0,1,1.963,1.824,5.125,5.125,0,0,1,.7,2.655,5.333,5.333,0,0,1-.668,2.711,4.691,4.691,0,0,1-1.963,1.838,6.141,6.141,0,0,1-2.857.672,6.07,6.07,0,0,1-2.847-.672,4.718,4.718,0,0,1-1.949-1.838,5.333,5.333,0,0,1-.665-2.711,5.074,5.074,0,0,1,.7-2.673,4.808,4.808,0,0,1,1.966-1.813A6.05,6.05,0,0,1,570.818,182.116Zm-2.708,5.134a3.64,3.64,0,0,0,.731,2.384,2.4,2.4,0,0,0,1.956.891,2.529,2.529,0,0,0,2.019-.853,3.626,3.626,0,0,0,.734-2.443,3.406,3.406,0,0,0-.738-2.342,2.578,2.578,0,0,0-2.015-.825,2.431,2.431,0,0,0-1.939.874A3.433,3.433,0,0,0,568.11,187.25Z" transform="translate(-565.357 -182.116)" fill="#2a8648"/>
          <path id="Path_5879" data-name="Path 5879" d="M575.056,182.116a4.456,4.456,0,0,1,3.442,1.43,5.321,5.321,0,0,1,1.305,3.727,5.774,5.774,0,0,1-.609,2.687,4.558,4.558,0,0,1-1.744,1.848,5.011,5.011,0,0,1-2.565.661,5.213,5.213,0,0,1-2.335-.588V197.3h-2.628V182.311h2.6v.64A4.326,4.326,0,0,1,575.056,182.116Zm-2.506,7.845a3.685,3.685,0,0,0,1.838.564,2.48,2.48,0,0,0,1.984-.884,3.414,3.414,0,0,0,.745-2.283,3.811,3.811,0,0,0-.668-2.387,2.25,2.25,0,0,0-1.893-.867,2.479,2.479,0,0,0-.884.157,4.993,4.993,0,0,0-1.121.654Z" transform="translate(-554.034 -182.116)" fill="#2a8648"/>
          <path id="Path_5880" data-name="Path 5880" d="M579.013,182.116a4.473,4.473,0,0,1,3.477,1.413,5.571,5.571,0,0,1,1.281,3.894v.393h-7.054a3.085,3.085,0,0,0,1,2.053,3.422,3.422,0,0,0,2.3.72,5.075,5.075,0,0,0,1.806-.327,7.872,7.872,0,0,0,1.8-.985v1.952a7.168,7.168,0,0,1-4.249,1.239,5.374,5.374,0,0,1-3.849-1.42,4.957,4.957,0,0,1-1.493-3.776,5.162,5.162,0,0,1,1.378-3.717A4.784,4.784,0,0,1,579.013,182.116Zm2.293,4.11a2.89,2.89,0,0,0-.664-1.7,1.959,1.959,0,0,0-1.524-.613,2.183,2.183,0,0,0-1.594.585,2.9,2.9,0,0,0-.766,1.73Z" transform="translate(-543.848 -182.116)" fill="#2a8648"/>
          <path id="Path_5881" data-name="Path 5881" d="M584.009,182.116a3.275,3.275,0,0,1,2.555,1.055,3.952,3.952,0,0,1,.957,2.767v6.338H584.9v-6.07a2.341,2.341,0,0,0-.463-1.535,1.543,1.543,0,0,0-1.263-.567,2.025,2.025,0,0,0-1.141.355,5.415,5.415,0,0,0-1.173,1.19v6.627h-2.628v-9.964h2.628v1.4a4.59,4.59,0,0,1,1.49-1.218A3.672,3.672,0,0,1,584.009,182.116Z" transform="translate(-533.416 -182.116)" fill="#2a8648"/>
        </g>
        <g id="Group_2770" data-name="Group 2770" transform="translate(209.718 0)">
          <path id="Path_5882" data-name="Path 5882" d="M570.035,215.149a7.2,7.2,0,0,1,3.146.672v2.231a5.309,5.309,0,0,0-2.648-.807,3.18,3.18,0,0,0-2.189,5.356,3.1,3.1,0,0,0,2.287.853,7.439,7.439,0,0,0,2.732-.7v2.12a8.364,8.364,0,0,1-3.191.633,5.574,5.574,0,0,1-3.929-1.392,4.746,4.746,0,0,1-1.514-3.679,5.137,5.137,0,0,1,1.479-3.832A5.247,5.247,0,0,1,570.035,215.149Z" transform="translate(-564.727 -210.402)" fill="#2a8648"/>
          <path id="Path_5883" data-name="Path 5883" d="M571.241,213.785v14.906h-2.628V213.785Z" transform="translate(-555.089 -213.785)" fill="#2a8648"/>
          <path id="Path_5884" data-name="Path 5884" d="M576.28,215.149a6.1,6.1,0,0,1,2.826.654,4.738,4.738,0,0,1,1.963,1.824,5.114,5.114,0,0,1,.693,2.656,5.38,5.38,0,0,1-.665,2.711,4.676,4.676,0,0,1-1.966,1.834,6.362,6.362,0,0,1-5.7,0,4.671,4.671,0,0,1-1.942-1.834,5.346,5.346,0,0,1-.672-2.711,5.047,5.047,0,0,1,.71-2.673,4.769,4.769,0,0,1,1.959-1.813A6.068,6.068,0,0,1,576.28,215.149Zm-2.714,5.133a3.665,3.665,0,0,0,.731,2.384,2.411,2.411,0,0,0,1.959.891,2.539,2.539,0,0,0,2.019-.853,3.634,3.634,0,0,0,.734-2.443,3.373,3.373,0,0,0-.741-2.342,2.57,2.57,0,0,0-2.012-.825,2.438,2.438,0,0,0-1.942.874A3.445,3.445,0,0,0,573.565,220.282Z" transform="translate(-549.634 -210.402)" fill="#2a8648"/>
          <path id="Path_5885" data-name="Path 5885" d="M578.986,215.149a6.36,6.36,0,0,1,1.549.188,7.786,7.786,0,0,1,1.535.6v2.1a7.39,7.39,0,0,0-1.6-.773,4.769,4.769,0,0,0-1.524-.292,1.587,1.587,0,0,0-.888.212.684.684,0,0,0-.32.609.617.617,0,0,0,.268.449,9.829,9.829,0,0,0,1.462.818,8.963,8.963,0,0,1,2.394,1.6,2.466,2.466,0,0,1,.689,1.754,2.786,2.786,0,0,1-1,2.266,4.123,4.123,0,0,1-2.711.832,8.061,8.061,0,0,1-1.991-.24,6.66,6.66,0,0,1-1.531-.564v-2.186a7.039,7.039,0,0,0,3.237,1.065,2.2,2.2,0,0,0,1.086-.237.725.725,0,0,0,.414-.637.657.657,0,0,0-.15-.428,1.936,1.936,0,0,0-.449-.393c-.195-.132-.818-.459-1.865-.971a5.358,5.358,0,0,1-1.782-1.253,2.413,2.413,0,0,1-.578-1.608,2.521,2.521,0,0,1,1.037-2.109A4.359,4.359,0,0,1,578.986,215.149Z" transform="translate(-538.684 -210.402)" fill="#2a8648"/>
          <path id="Path_5886" data-name="Path 5886" d="M583.563,215.149a4.48,4.48,0,0,1,3.48,1.409,5.582,5.582,0,0,1,1.277,3.894v.4h-7.051a3.073,3.073,0,0,0,1,2.053,3.42,3.42,0,0,0,2.3.72,5.157,5.157,0,0,0,1.81-.327,8.082,8.082,0,0,0,1.8-.985v1.949a7.154,7.154,0,0,1-4.249,1.242,5.362,5.362,0,0,1-3.849-1.423,4.963,4.963,0,0,1-1.5-3.776,5.143,5.143,0,0,1,1.385-3.713A4.769,4.769,0,0,1,583.563,215.149Zm2.294,4.11a2.933,2.933,0,0,0-.661-1.705,1.957,1.957,0,0,0-1.524-.609,2.188,2.188,0,0,0-1.6.585,2.9,2.9,0,0,0-.762,1.73Z" transform="translate(-530.37 -210.402)" fill="#2a8648"/>
        </g>
        <g id="Group_2771" data-name="Group 2771" transform="translate(0 27.359)">
          <path id="Path_5887" data-name="Path 5887" d="M560.137,191.72v26.287H555.32V191.72Z" transform="translate(-555.32 -191.379)" fill="#2a8648"/>
          <path id="Path_5888" data-name="Path 5888" d="M571.21,191.622a7.219,7.219,0,0,1,6.331,3.6q2.344,3.6,2.346,9.825,0,6.285-2.314,9.915a7.165,7.165,0,0,1-6.327,3.633,7.327,7.327,0,0,1-6.425-3.606q-2.36-3.6-2.36-9.87,0-6.244,2.353-9.87A7.278,7.278,0,0,1,571.21,191.622Zm-3.86,13.646q0,9.016,3.86,9.014,3.759,0,3.766-9.487,0-8.859-3.8-8.864Q567.35,195.931,567.35,205.268Z" transform="translate(-537.611 -191.622)" fill="#2a8648"/>
          <path id="Path_5889" data-name="Path 5889" d="M574.689,194.224a2.836,2.836,0,0,1,2.039.825,2.8,2.8,0,0,1,.856,2.106,2.688,2.688,0,0,1-.874,2.019,2.86,2.86,0,0,1-2.022.825,2.918,2.918,0,0,1-2.9-2.878,2.837,2.837,0,0,1,.825-2.039A2.778,2.778,0,0,1,574.689,194.224Zm0,12.136a2.875,2.875,0,0,1,2.029,4.932,2.861,2.861,0,0,1-4.072-.01,2.767,2.767,0,0,1-.856-2.022,2.839,2.839,0,0,1,.825-2.043A2.778,2.778,0,0,1,574.689,206.36Z" transform="translate(-514.469 -185.168)" fill="#2a8648"/>
          <path id="Path_5890" data-name="Path 5890" d="M586.537,191.622a7.227,7.227,0,0,1,6.331,3.6q2.339,3.6,2.342,9.825,0,6.285-2.311,9.915a7.167,7.167,0,0,1-6.324,3.633,7.321,7.321,0,0,1-6.428-3.606q-2.36-3.6-2.363-9.87,0-6.244,2.353-9.87A7.284,7.284,0,0,1,586.537,191.622Zm-3.86,13.646q0,9.016,3.86,9.014,3.764,0,3.762-9.487,0-8.859-3.8-8.864Q582.678,195.931,582.678,205.268Z" transform="translate(-499.603 -191.622)" fill="#2a8648"/>
          <path id="Path_5891" data-name="Path 5891" d="M595.757,191.622a7.228,7.228,0,0,1,6.334,3.6q2.339,3.6,2.342,9.825,0,6.285-2.314,9.915a7.163,7.163,0,0,1-6.324,3.633,7.32,7.32,0,0,1-6.425-3.606q-2.37-3.6-2.363-9.87,0-6.244,2.353-9.87A7.278,7.278,0,0,1,595.757,191.622Zm-3.86,13.646q0,9.016,3.86,9.014,3.764,0,3.766-9.487,0-8.859-3.8-8.864Q591.9,195.931,591.9,205.268Z" transform="translate(-476.727 -191.622)" fill="#2a8648"/>
        </g>
        <g id="Group_2772" data-name="Group 2772" transform="translate(173.154 27.371)">
          <path id="Path_5892" data-name="Path 5892" d="M561.5,223.543a8.214,8.214,0,0,1,5.955,2.137,7.543,7.543,0,0,1,2.213,5.694,12.8,12.8,0,0,1-1.65,5.868,56.948,56.948,0,0,1-5.784,8.377h9.014v4.552H554.221v-.546q2.97-3.665,5.105-6.6t3.306-4.855a19.473,19.473,0,0,0,1.653-3.282,8.2,8.2,0,0,0,.491-2.805,4.278,4.278,0,0,0-1.156-3.038,3.721,3.721,0,0,0-2.815-1.236q-2.97,0-6.17,3.39v-5.154A11.4,11.4,0,0,1,561.5,223.543Z" transform="translate(-554.221 -223.543)" fill="#2a8648"/>
          <path id="Path_5893" data-name="Path 5893" d="M571.325,223.543a7.234,7.234,0,0,1,6.338,3.6q2.339,3.6,2.342,9.821,0,6.285-2.318,9.919a7.154,7.154,0,0,1-6.32,3.634,7.328,7.328,0,0,1-6.428-3.606q-2.365-3.6-2.36-9.87,0-6.244,2.349-9.87A7.286,7.286,0,0,1,571.325,223.543Zm-3.856,13.646q0,9.011,3.856,9.014,3.769,0,3.766-9.487,0-8.859-3.8-8.864Q567.469,227.852,567.469,237.189Z" transform="translate(-533.491 -223.543)" fill="#2a8648"/>
          <path id="Path_5894" data-name="Path 5894" d="M574.806,226.144a2.847,2.847,0,0,1,2.043.828,2.8,2.8,0,0,1,.856,2.106,2.665,2.665,0,0,1-.877,2.015,2.849,2.849,0,0,1-2.022.828,2.924,2.924,0,0,1-2.9-2.882,2.834,2.834,0,0,1,.825-2.036A2.755,2.755,0,0,1,574.806,226.144Zm0,12.139a2.774,2.774,0,0,1,2.043.867,2.743,2.743,0,0,1,.856,1.991,2.9,2.9,0,0,1-5.795.042,2.839,2.839,0,0,1,.825-2.043A2.765,2.765,0,0,1,574.806,238.283Z" transform="translate(-510.347 -217.092)" fill="#2a8648"/>
          <path id="Path_5895" data-name="Path 5895" d="M586.654,223.543a7.228,7.228,0,0,1,6.334,3.6q2.339,3.6,2.342,9.821,0,6.285-2.315,9.919a7.162,7.162,0,0,1-6.323,3.634,7.319,7.319,0,0,1-6.425-3.606q-2.37-3.6-2.363-9.87,0-6.244,2.353-9.87A7.278,7.278,0,0,1,586.654,223.543Zm-3.86,13.646q0,9.011,3.86,9.014,3.764,0,3.766-9.487,0-8.859-3.8-8.864Q582.794,227.852,582.794,237.189Z" transform="translate(-495.48 -223.543)" fill="#2a8648"/>
          <path id="Path_5896" data-name="Path 5896" d="M595.873,223.543a7.234,7.234,0,0,1,6.338,3.6q2.339,3.6,2.339,9.821,0,6.285-2.314,9.919a7.158,7.158,0,0,1-6.32,3.634,7.325,7.325,0,0,1-6.428-3.606q-2.365-3.6-2.36-9.87,0-6.244,2.349-9.87A7.286,7.286,0,0,1,595.873,223.543Zm-3.856,13.646q0,9.011,3.856,9.014,3.769,0,3.766-9.487,0-8.859-3.8-8.864T592.017,237.189Z" transform="translate(-472.604 -223.543)" fill="#2a8648"/>
        </g>
      </g>
      <g id="Group_2778" data-name="Group 2778" transform="translate(405 2450.458)">
        <g id="Group_2774" data-name="Group 2774" transform="translate(0 1.34)">
          <path id="Path_5897" data-name="Path 5897" d="M529.162,139.53h-7.754V111.185h7.754Z" transform="translate(-521.408 -110.794)" fill="#2a8648"/>
          <path id="Path_5898" data-name="Path 5898" d="M552.041,125.629a21.481,21.481,0,0,1-.88,6.461,12.655,12.655,0,0,1-2.424,4.551,9.989,9.989,0,0,1-3.527,2.636,10.673,10.673,0,0,1-8.447,0,9.846,9.846,0,0,1-3.518-2.647,12.992,12.992,0,0,1-2.424-4.54,24.045,24.045,0,0,1,0-12.948,13.284,13.284,0,0,1,2.413-4.557,9.674,9.674,0,0,1,3.518-2.672,10.742,10.742,0,0,1,8.45-.006,9.8,9.8,0,0,1,3.524,2.667,12.944,12.944,0,0,1,2.435,4.591A21.487,21.487,0,0,1,552.041,125.629Zm-8.078,0a30.693,30.693,0,0,0-.511-6.177q-.511-2.417-2.474-2.415a2.13,2.13,0,0,0-1.994,1.351,8.628,8.628,0,0,0-.818,3.108q-.155,1.759-.156,4.133a30.222,30.222,0,0,0,.5,6.269,2.488,2.488,0,0,0,4.951,0A30.447,30.447,0,0,0,543.963,125.629Z" transform="translate(-506.127 -111.045)" fill="#2a8648"/>
          <path id="Path_5899" data-name="Path 5899" d="M562.729,111.045l-15.422,29.1h-5.482l15.4-29.1Z" transform="translate(-484.812 -111.045)" fill="#2a8648"/>
          <path id="Path_5900" data-name="Path 5900" d="M574.706,139.781H553.172v-.55q1.248-1.206,2.739-2.887t3.845-4.437q1.085-1.244,2.036-2.454a21.766,21.766,0,0,0,1.625-2.34,13.4,13.4,0,0,0,1.145-2.508,8.586,8.586,0,0,0,.472-2.8,4.493,4.493,0,0,0-1.134-3.18,3.8,3.8,0,0,0-2.9-1.217q-3.481,0-6.914,3.6v-6.688q1.206-.775,1.985-1.245a15.807,15.807,0,0,1,1.79-.921,13.948,13.948,0,0,1,2.4-.779,13.288,13.288,0,0,1,3.007-.327A10.464,10.464,0,0,1,568,112.1a7.992,7.992,0,0,1,3.348,3.046,8.769,8.769,0,0,1,1.215,4.652,10.873,10.873,0,0,1-.553,3.516,14.218,14.218,0,0,1-1.145,2.642c-.4.667-.919,1.494-1.575,2.474a57.475,57.475,0,0,1-3.761,4.993h9.181Z" transform="translate(-464.476 -111.045)" fill="#2a8648"/>
          <path id="Path_5901" data-name="Path 5901" d="M587.156,133.415H583.8v6.115h-7.548v-6.115H564.739v-5.4l12.987-16.832H583.8v17.36h3.357Zm-10.9-4.87v-9.081l-7.034,9.081Z" transform="translate(-443.744 -110.794)" fill="#2a8648"/>
        </g>
        <g id="Group_2775" data-name="Group 2775" transform="translate(162.165 16.573)">
          <path id="Path_5902" data-name="Path 5902" d="M584.037,116.5a7.774,7.774,0,0,1,3.75.972v2.29a7.34,7.34,0,0,0-3.672-1.248,2.693,2.693,0,0,0-1.525.374,1.171,1.171,0,0,0-.55,1.011c0,.5.341.966,1.025,1.391q.285.193,2.2,1.069a6.339,6.339,0,0,1,2.365,1.717,3.612,3.612,0,0,1,.726,2.273,3.464,3.464,0,0,1-1.234,2.773,4.775,4.775,0,0,1-3.2,1.053,7.616,7.616,0,0,1-2.2-.279,9.648,9.648,0,0,1-2.066-.972v-2.535a6.472,6.472,0,0,0,4.027,1.773,2.588,2.588,0,0,0,1.527-.41,1.258,1.258,0,0,0,.584-1.086,1.718,1.718,0,0,0-1.011-1.508c-.561-.307-1.282-.673-2.169-1.1a6.437,6.437,0,0,1-2.351-1.673,3.393,3.393,0,0,1-.779-2.214,3.251,3.251,0,0,1,1.254-2.678A5.127,5.127,0,0,1,584.037,116.5Z" transform="translate(-579.483 -116.5)" fill="#2a8648"/>
          <path id="Path_5903" data-name="Path 5903" d="M587.964,118.082a4.1,4.1,0,0,1,2.628.732,2.468,2.468,0,0,1,.9,2.036v4.362c0,.338.137.505.41.505a1.24,1.24,0,0,0,.483-.145,2.137,2.137,0,0,0,.519-.338v1.351a4.372,4.372,0,0,1-2.253.754,1.845,1.845,0,0,1-.966-.209,1.125,1.125,0,0,1-.472-.743,4.665,4.665,0,0,1-2.7.952,2.334,2.334,0,0,1-1.656-.648,2.064,2.064,0,0,1-.692-1.558,2.42,2.42,0,0,1,.687-1.821,5.839,5.839,0,0,1,2.4-1.164l1.9-.553v-.41q0-1.307-1.583-1.307a3.861,3.861,0,0,0-1.614.369,4.612,4.612,0,0,0-1.46,1.1v-2.108A5.412,5.412,0,0,1,587.964,118.082Zm-1.43,6.7a1.035,1.035,0,0,0,.31.785,1.076,1.076,0,0,0,.768.293,2.314,2.314,0,0,0,1.547-.7V122.8a11.063,11.063,0,0,0-1.541.634,2.811,2.811,0,0,0-.821.6A1.1,1.1,0,0,0,586.534,124.781Z" transform="translate(-571.089 -113.664)" fill="#2a8648"/>
          <path id="Path_5904" data-name="Path 5904" d="M591.921,117.3h.193v2.368h3.055v1.773h-3.055v4.113a1.261,1.261,0,0,0,1.354,1.346,4.013,4.013,0,0,0,1.891-.592v1.879a5.892,5.892,0,0,1-2.388.564,3.226,3.226,0,0,1-2.351-.818,2.948,2.948,0,0,1-.846-2.225v-4.267H588.38v-.38Z" transform="translate(-563.536 -115.073)" fill="#2a8648"/>
        </g>
        <g id="Group_2776" data-name="Group 2776" transform="translate(282.451 0)">
          <path id="Path_5905" data-name="Path 5905" d="M630.311,139.05H622.56V110.7h7.752Z" transform="translate(-622.56 -110.314)" fill="#2a8648"/>
          <path id="Path_5906" data-name="Path 5906" d="M653.192,125.149a21.465,21.465,0,0,1-.877,6.461,12.652,12.652,0,0,1-2.424,4.552,9.972,9.972,0,0,1-3.529,2.636,10.666,10.666,0,0,1-8.444,0,9.8,9.8,0,0,1-3.518-2.647,12.991,12.991,0,0,1-2.424-4.54,23.975,23.975,0,0,1,0-12.948,13.279,13.279,0,0,1,2.413-4.557,9.629,9.629,0,0,1,3.518-2.672,10.736,10.736,0,0,1,8.447-.006,9.786,9.786,0,0,1,3.527,2.667,12.938,12.938,0,0,1,2.435,4.591A21.484,21.484,0,0,1,653.192,125.149Zm-8.076,0a30.668,30.668,0,0,0-.514-6.177q-.511-2.413-2.471-2.415a2.127,2.127,0,0,0-1.994,1.351,8.569,8.569,0,0,0-.818,3.108q-.155,1.759-.156,4.133a30.2,30.2,0,0,0,.5,6.269,2.487,2.487,0,0,0,4.948,0A30.4,30.4,0,0,0,645.116,125.149Z" transform="translate(-607.28 -110.565)" fill="#2a8648"/>
          <path id="Path_5907" data-name="Path 5907" d="M663.879,110.565l-15.419,29.1h-5.481l15.4-29.1Z" transform="translate(-585.964 -110.565)" fill="#2a8648"/>
          <path id="Path_5908" data-name="Path 5908" d="M673.8,131.427a7.691,7.691,0,0,1-.883,3.806,7.49,7.49,0,0,1-2.32,2.566,10.129,10.129,0,0,1-3.055,1.432,12.027,12.027,0,0,1-3.13.438,21.136,21.136,0,0,1-4.747-.6,21.552,21.552,0,0,1-4.353-1.444v-6.361a15.375,15.375,0,0,0,3.085,2,7.752,7.752,0,0,0,3.418.807,4.683,4.683,0,0,0,2.24-.491,3.506,3.506,0,0,0,1.368-1.237,2.964,2.964,0,0,0,.461-1.586,3.32,3.32,0,0,0-.573-1.921,3.964,3.964,0,0,0-1.656-1.34,5.923,5.923,0,0,0-2.516-.5h-.919v-4.563H661.3a4.566,4.566,0,0,0,2.362-.55,3.424,3.424,0,0,0,1.34-1.321,3.07,3.07,0,0,0,.41-1.441,3.144,3.144,0,0,0-.991-2.281,3.483,3.483,0,0,0-2.566-.988,8.97,8.97,0,0,0-2.937.528,12.489,12.489,0,0,0-2.854,1.435v-5.445a30.824,30.824,0,0,1,3.775-1.315,15.141,15.141,0,0,1,3.979-.483,10.577,10.577,0,0,1,5.367,1.248,8.149,8.149,0,0,1,3.147,3.016,6.828,6.828,0,0,1,.994,3.326,6.3,6.3,0,0,1-.55,2.535,8.255,8.255,0,0,1-1.444,2.251,7.65,7.65,0,0,1-1.851,1.53,9.89,9.89,0,0,1,3.007,2.5A6.832,6.832,0,0,1,673.8,131.427Z" transform="translate(-563.861 -110.565)" fill="#2a8648"/>
          <path id="Path_5909" data-name="Path 5909" d="M676.334,139.05h-7.752V110.7h7.752Z" transform="translate(-540.071 -110.314)" fill="#2a8648"/>
        </g>
        <g id="Group_2777" data-name="Group 2777" transform="translate(437.599 15.232)">
          <path id="Path_5910" data-name="Path 5910" d="M682.676,116.02a7.8,7.8,0,0,1,3.75.969v2.293a7.349,7.349,0,0,0-3.675-1.251,2.677,2.677,0,0,0-1.525.377,1.173,1.173,0,0,0-.547,1.008q0,.754,1.022,1.391c.193.128.924.486,2.2,1.069a6.4,6.4,0,0,1,2.368,1.717,3.62,3.62,0,0,1,.726,2.276,3.465,3.465,0,0,1-1.237,2.77,4.749,4.749,0,0,1-3.2,1.055,7.5,7.5,0,0,1-2.2-.282,9.485,9.485,0,0,1-2.066-.969v-2.535a6.476,6.476,0,0,0,4.026,1.77,2.614,2.614,0,0,0,1.527-.408,1.266,1.266,0,0,0,.584-1.089,1.721,1.721,0,0,0-1.011-1.508c-.564-.3-1.282-.67-2.17-1.095a6.482,6.482,0,0,1-2.354-1.673,3.411,3.411,0,0,1-.776-2.214,3.253,3.253,0,0,1,1.251-2.678A5.141,5.141,0,0,1,682.676,116.02Z" transform="translate(-678.122 -116.02)" fill="#2a8648"/>
          <path id="Path_5911" data-name="Path 5911" d="M686.6,117.6a4.1,4.1,0,0,1,2.628.729,2.477,2.477,0,0,1,.9,2.038v4.359c0,.338.137.508.411.508a1.255,1.255,0,0,0,.483-.148,2.2,2.2,0,0,0,.519-.338V126.1a4.378,4.378,0,0,1-2.253.757,1.857,1.857,0,0,1-.969-.209,1.153,1.153,0,0,1-.472-.746,4.635,4.635,0,0,1-2.7.955,2.334,2.334,0,0,1-1.656-.648,2.069,2.069,0,0,1-.693-1.558,2.421,2.421,0,0,1,.687-1.821,5.8,5.8,0,0,1,2.4-1.164l1.9-.556V120.7c0-.874-.531-1.31-1.586-1.31a3.84,3.84,0,0,0-1.614.371,4.63,4.63,0,0,0-1.458,1.1v-2.108A5.391,5.391,0,0,1,686.6,117.6Zm-1.433,6.7a1.031,1.031,0,0,0,.313.782,1.067,1.067,0,0,0,.768.3,2.319,2.319,0,0,0,1.547-.7v-2.351a10.294,10.294,0,0,0-1.541.634,2.771,2.771,0,0,0-.821.6A1.108,1.108,0,0,0,685.17,124.3Z" transform="translate(-669.728 -113.184)" fill="#2a8648"/>
          <path id="Path_5912" data-name="Path 5912" d="M690.56,116.815h.193v2.368H693.8v1.776h-3.052v4.11a1.261,1.261,0,0,0,1.354,1.349,4.011,4.011,0,0,0,1.89-.592v1.879a5.892,5.892,0,0,1-2.387.564,3.238,3.238,0,0,1-2.354-.821,2.953,2.953,0,0,1-.843-2.226v-4.264h-1.393v-.383Z" transform="translate(-662.175 -114.595)" fill="#2a8648"/>
        </g>
        <path id="Path_5913" data-name="Path 5913" d="M620.494,120.189l-8.964,3.248-8.964,3.248V113.693l8.964,3.248Z" transform="translate(-375.944 -104.958)" fill="#2a8648"/>
      </g>
    </g>
    <g id="Group_3291" data-name="Group 3291">
      <g id="Group_3166" data-name="Group 3166" transform="translate(275.627 3100.569) rotate(31)">
        <path id="Path_5991" data-name="Path 5991" d="M7.126,0,10.688,6.17l3.563,6.171H0L3.563,6.17Z" transform="translate(22.829 0)" fill="#ef463a"/>
        <path id="Path_5992" data-name="Path 5992" d="M7.125,0,10.688,6.17l3.563,6.171H0L3.563,6.17Z" transform="translate(47.769 0)" fill="#ef463a"/>
        <path id="Rectangle_2673" data-name="Rectangle 2673" d="M11.415,0h0A11.415,11.415,0,0,1,22.829,11.415V35.5a0,0,0,0,1,0,0h0A22.829,22.829,0,0,1,0,12.668V11.415A11.415,11.415,0,0,1,11.415,0Z" transform="translate(0 58.679)" fill="#ffb33e"/>
        <path id="Path_5993" data-name="Path 5993" d="M19.655,19.644a2.926,2.926,0,0,1-2.976,2.29L15.4,21.851C5.1,21.193-1.651,12.42.352,2.3A2.927,2.927,0,0,1,3.328.005,2.13,2.13,0,0,1,5.335,2.614a11.721,11.721,0,0,0,11.034,14.34l1.279.082A2.13,2.13,0,0,1,19.655,19.644Z" transform="translate(8.936 25.469)" fill="#ffb33e"/>
        <path id="Path_5994" data-name="Path 5994" d="M.047,19.644a2.926,2.926,0,0,0,2.976,2.29L4.3,21.851C14.6,21.193,21.353,12.42,19.35,2.3A2.926,2.926,0,0,0,16.374.005a2.13,2.13,0,0,0-2.007,2.608A11.721,11.721,0,0,1,3.333,16.954l-1.279.082A2.13,2.13,0,0,0,.047,19.644Z" transform="translate(57.986 25.469)" fill="#ffb33e"/>
        <rect id="Rectangle_2674" data-name="Rectangle 2674" width="39.191" height="81.834" transform="translate(22.829 12.342)" fill="#ffb33e"/>
        <rect id="Rectangle_2675" data-name="Rectangle 2675" width="39.191" height="9.946" transform="translate(22.829 42.064)" fill="#ef463a"/>
        <rect id="Rectangle_2676" data-name="Rectangle 2676" width="39.191" height="9.946" transform="translate(22.829 58.741)" fill="#ef463a"/>
        <rect id="Rectangle_2677" data-name="Rectangle 2677" width="39.191" height="9.946" transform="translate(22.829 76.558)" fill="#ef463a"/>
        <ellipse id="Ellipse_529" data-name="Ellipse 529" cx="6.686" cy="6.686" rx="6.686" ry="6.686" transform="translate(27.145 18.783)" fill="#fff"/>
        <ellipse id="Ellipse_530" data-name="Ellipse 530" cx="4.288" cy="4.288" rx="4.288" ry="4.288" transform="translate(29.543 21.181)"/>
        <ellipse id="Ellipse_531" data-name="Ellipse 531" cx="6.686" cy="6.686" rx="6.686" ry="6.686" transform="translate(44.614 18.783)" fill="#fff"/>
        <ellipse id="Ellipse_532" data-name="Ellipse 532" cx="4.288" cy="4.288" rx="4.288" ry="4.288" transform="translate(47.012 21.181)"/>
        <ellipse id="Ellipse_533" data-name="Ellipse 533" cx="3.136" cy="3.936" rx="3.136" ry="3.936" transform="translate(39.288 30.956)" fill="#fffcf3"/>
      </g>
      <g id="Group_3167" data-name="Group 3167" transform="translate(314.177 3149.504) rotate(31)">
        <path id="Path_5991-2" data-name="Path 5991" d="M7.126,0,10.688,6.17l3.563,6.171H0L3.563,6.17Z" transform="translate(22.829 0)" fill="#ef463a"/>
        <path id="Path_5992-2" data-name="Path 5992" d="M7.125,0,10.688,6.17l3.563,6.171H0L3.563,6.17Z" transform="translate(47.769 0)" fill="#ef463a"/>
        <path id="Rectangle_2673-2" data-name="Rectangle 2673" d="M11.415,0h0A11.415,11.415,0,0,1,22.829,11.415V35.5a0,0,0,0,1,0,0h0A22.829,22.829,0,0,1,0,12.668V11.415A11.415,11.415,0,0,1,11.415,0Z" transform="translate(0 58.679)" fill="#ffb33e"/>
        <path id="Path_5993-2" data-name="Path 5993" d="M19.655,19.644a2.926,2.926,0,0,1-2.976,2.29L15.4,21.851C5.1,21.193-1.651,12.42.352,2.3A2.927,2.927,0,0,1,3.328.005,2.13,2.13,0,0,1,5.335,2.614a11.721,11.721,0,0,0,11.034,14.34l1.279.082A2.13,2.13,0,0,1,19.655,19.644Z" transform="translate(8.936 25.469)" fill="#ffb33e"/>
        <path id="Path_5994-2" data-name="Path 5994" d="M.047,19.644a2.926,2.926,0,0,0,2.976,2.29L4.3,21.851C14.6,21.193,21.353,12.42,19.35,2.3A2.926,2.926,0,0,0,16.374.005a2.13,2.13,0,0,0-2.007,2.608A11.721,11.721,0,0,1,3.333,16.954l-1.279.082A2.13,2.13,0,0,0,.047,19.644Z" transform="translate(57.986 25.469)" fill="#ffb33e"/>
        <rect id="Rectangle_2674-2" data-name="Rectangle 2674" width="39.191" height="81.834" transform="translate(22.829 12.342)" fill="#ffb33e"/>
        <rect id="Rectangle_2675-2" data-name="Rectangle 2675" width="39.191" height="9.946" transform="translate(22.829 42.064)" fill="#ef463a"/>
        <rect id="Rectangle_2676-2" data-name="Rectangle 2676" width="39.191" height="9.946" transform="translate(22.829 58.741)" fill="#ef463a"/>
        <rect id="Rectangle_2677-2" data-name="Rectangle 2677" width="39.191" height="9.946" transform="translate(22.829 76.558)" fill="#ef463a"/>
        <ellipse id="Ellipse_529-2" data-name="Ellipse 529" cx="6.686" cy="6.686" rx="6.686" ry="6.686" transform="translate(27.145 18.783)" fill="#fff"/>
        <ellipse id="Ellipse_530-2" data-name="Ellipse 530" cx="4.288" cy="4.288" rx="4.288" ry="4.288" transform="translate(29.543 21.181)"/>
        <ellipse id="Ellipse_531-2" data-name="Ellipse 531" cx="6.686" cy="6.686" rx="6.686" ry="6.686" transform="translate(44.614 18.783)" fill="#fff"/>
        <ellipse id="Ellipse_532-2" data-name="Ellipse 532" cx="4.288" cy="4.288" rx="4.288" ry="4.288" transform="translate(47.012 21.181)"/>
        <ellipse id="Ellipse_533-2" data-name="Ellipse 533" cx="3.136" cy="3.936" rx="3.136" ry="3.936" transform="translate(39.288 30.956)" fill="#fffcf3"/>
      </g>
      <g id="Group_2707" data-name="Group 2707" transform="translate(31.716 159.203)">
        <g id="Group_2570" data-name="Group 2570" transform="translate(768.284 1681.068) rotate(-8)">
          <g id="Group_2569" data-name="Group 2569" transform="translate(0 0)">
            <path id="Path_5649" data-name="Path 5649" d="M13,.17A11.07,11.07,0,0,0,.666,14.842l7.12,14.752,11.759-11.4A11.066,11.066,0,0,0,13,.17Z" transform="matrix(0.998, -0.07, 0.07, 0.998, 20.698, 1.545)" fill="#93b82c"/>
            <path id="Path_5650" data-name="Path 5650" d="M13,.172a11.068,11.068,0,1,0,1.842,21.3L29.6,14.354,18.191,2.6A11.059,11.059,0,0,0,13,.172Z" transform="matrix(0.998, -0.07, 0.07, 0.998, 0, 18.285)" fill="#93b82c"/>
            <path id="Path_5651" data-name="Path 5651" d="M14.752.667,0,7.786,11.4,19.541A11.068,11.068,0,1,0,14.752.667Z" transform="matrix(0.998, -0.07, 0.07, 0.998, 29.987, 22.759)" fill="#93b82c"/>
          </g>
          <path id="Path_5652" data-name="Path 5652" d="M15.11,54.578a.359.359,0,0,1-.194-.059C14.4,54.192,2.243,46.282.261,26.5A52.96,52.96,0,0,1,4.291.332c.152-.342.461-.436.69-.206a.993.993,0,0,1,.137,1.033A50.858,50.858,0,0,0,1.246,26.282C3.145,45.244,14.808,52.833,15.3,53.145a.918.918,0,0,1,.265.978C15.488,54.407,15.3,54.578,15.11,54.578Z" transform="translate(25.773 29.54)" fill="#93b82c"/>
        </g>
        <g id="Group_2568" data-name="Group 2568" transform="translate(792.835 1703.489) rotate(-21)">
          <path id="Path_5642" data-name="Path 5642" d="M2.83,13.822H6.2V0H0Z" transform="translate(57.229 95.631)" fill="#ffb33e"/>
          <path id="Path_5643" data-name="Path 5643" d="M3.37,13.822H0V0H6.2Z" transform="translate(65.829 95.631)" fill="#ffb33e"/>
          <path id="Rectangle_2413" data-name="Rectangle 2413" d="M0,0H44.98a0,0,0,0,1,0,0V44.98a0,0,0,0,1,0,0h0A44.98,44.98,0,0,1,0,0V0A0,0,0,0,1,0,0Z" transform="translate(0 50.65)" fill="#1f2e7e"/>
          <path id="Rectangle_2414" data-name="Rectangle 2414" d="M43.111,0h0a0,0,0,0,1,0,0V44.98a0,0,0,0,1,0,0H0a0,0,0,0,1,0,0V43.111A43.111,43.111,0,0,1,43.111,0Z" transform="translate(127.778 95.631) rotate(180)" fill="#1f2e7e"/>
          <path id="Rectangle_2415" data-name="Rectangle 2415" d="M21.151,0h0A21.151,21.151,0,0,1,42.3,21.151V71.38a0,0,0,0,1,0,0H0a0,0,0,0,1,0,0V21.151A21.151,21.151,0,0,1,21.151,0Z" transform="translate(43.271 20.256)" fill="#ffb33e"/>
          <ellipse id="Ellipse_374" data-name="Ellipse 374" cx="5.669" cy="5.669" rx="5.669" ry="5.669" transform="translate(58.753 44.981)" fill="#1f2e7e"/>
          <path id="Path_5644" data-name="Path 5644" d="M42.3,44.98H0V0L42.3,10.493Z" transform="translate(43.27 50.65)" fill="#1f2e7e"/>
          <path id="Path_5645" data-name="Path 5645" d="M0,44.98H42.3V0L0,10.493Z" transform="translate(43.27 50.65)" fill="#1f2e7e"/>
          <ellipse id="Ellipse_375" data-name="Ellipse 375" cx="5.825" cy="5.825" rx="5.825" ry="5.825" transform="translate(50.067 33.902)" fill="#fff"/>
          <ellipse id="Ellipse_376" data-name="Ellipse 376" cx="5.825" cy="5.825" rx="5.825" ry="5.825" transform="translate(67.126 33.902)" fill="#fff"/>
          <ellipse id="Ellipse_377" data-name="Ellipse 377" cx="3.736" cy="3.736" rx="3.736" ry="3.736" transform="translate(52.156 35.99)"/>
          <ellipse id="Ellipse_378" data-name="Ellipse 378" cx="3.736" cy="3.736" rx="3.736" ry="3.736" transform="translate(69.215 35.99)"/>
          <rect id="Rectangle_2416" data-name="Rectangle 2416" width="32.296" height="7.092" transform="translate(48.42 32.634)" fill="#1e9846"/>
          <path id="Path_5646" data-name="Path 5646" d="M47.406,30.021H4.08A4.694,4.694,0,0,1,3.6,30,4.2,4.2,0,0,1,.8,23.355L12.7,6.709A16.038,16.038,0,0,1,25.743,0h0A16.038,16.038,0,0,1,38.789,6.709l11.9,16.646A4.2,4.2,0,0,1,47.886,30,4.7,4.7,0,0,1,47.406,30.021Z" transform="translate(38.078 9.706)" fill="#1f2e7e"/>
          <g id="Group_2567" data-name="Group 2567" transform="translate(53.824 105.827)">
            <path id="Path_5647" data-name="Path 5647" d="M4.537,4.569H2.431A2.431,2.431,0,0,0,0,7H9.6V0H4.537Z" transform="translate(0 0)" fill="#1f2e7e"/>
            <path id="Path_5648" data-name="Path 5648" d="M7.175,4.569H5.068V0H0V7H9.6A2.43,2.43,0,0,0,7.175,4.569Z" transform="translate(12.005 0)" fill="#1f2e7e"/>
          </g>
          <path id="Rectangle_2417" data-name="Rectangle 2417" d="M9.706,0h0a0,0,0,0,1,0,0V0A9.706,9.706,0,0,1,0,9.706H0a0,0,0,0,1,0,0v0A9.706,9.706,0,0,1,9.706,0Z" transform="translate(63.821 0)" fill="#1f2e7e"/>
        </g>
      </g>
      <g id="Group_2418" data-name="Group 2418" transform="translate(380.892 -24)">
        <path id="Path_5454" data-name="Path 5454" d="M2523.18,1646.309h435.863V362.595l-.018-.037L2842.788,596.413,2726.534,830.272h98.249l-26.735,53.775-160.973,323.848h104.033L2700.291,1290Z" transform="translate(-2059.936 439.275)" fill="#2a8648"/>
        <path id="Path_5455" data-name="Path 5455" d="M2924.615,1626.052V584.013l-3.127-.16-8.983,207.569-75.559-84.37-15.953,10.827L2902.436,862.8l-7.914,170.037-103.873-92.678L2775.892,957l112.649,158.852-17.177,510.2Z" transform="translate(-2025.508 469.422)" fill="#ef463a"/>
        <path id="Path_5456" data-name="Path 5456" d="M2959.043,2264.75V990.275l-.018-9.287-116.237,233.865-116.256,233.856h98.249l-26.725,53.774-160.98,323.854h104.032l-217.929,438.412Z" transform="translate(-2059.936 523.526)" fill="#93b82c"/>
        <path id="Path_5457" data-name="Path 5457" d="M2922.636,2289.5l-.62-1041.421-29.115,11.194-13.744,355.226-64.13-62.446-24.609,23.327,88.76,125.692L2865.013,2289.5Z" transform="translate(-2023.529 559.867)" fill="#ef463a"/>
        <path id="Path_5458" data-name="Path 5458" d="M2523.18,2895.309h435.863V1645.993l-.018-34.433-116.237,233.855-116.256,233.864h98.249l-26.734,53.764-160.972,323.852h104.033L2700.291,2539Z" transform="translate(-2059.936 609.43)" fill="#2a8648"/>
        <path id="Path_5459" data-name="Path 5459" d="M1779.172,1646.2h435.391l-217.929-438.413h104.029L1939.684,883.932l-26.726-53.77H2011.2L1894.959,596.3,1779.172,363.369Z" transform="translate(-2161.295 439.385)" fill="#2a8648"/>
        <path id="Path_5460" data-name="Path 5460" d="M1939.309,879.556l-17.489-20.137L1822.788,957.2l-23.845-371.491-19.771-1.7V1626.03l62.7,0-14.165-588.428Z" transform="translate(-2161.294 469.444)" fill="#ef463a"/>
        <path id="Path_5461" data-name="Path 5461" d="M1779.747,989.7V2264.75h435.389l-217.924-438.412h104.03l-160.98-323.854-26.727-53.774h98.239l-116.243-233.855L1779.747,981.1Z" transform="translate(-2161.869 523.526)" fill="#93b82c"/>
        <path id="Path_5462" data-name="Path 5462" d="M1863.471,1401.316l-55.514,53.6-8.989-207.559-19.8,1.007V2289.552h69.923l-17.178-510.206,51.425-97.116-6.869-30.99-50.536,45.089L1814.6,1515.586l61.875-93.3Z" transform="translate(-2161.294 559.814)" fill="#ef463a"/>
        <path id="Path_5463" data-name="Path 5463" d="M1781.245,1645.42V2895.309h435.391L1998.707,2456.9h104.029l-160.979-323.853-26.727-53.764h98.239l-116.236-233.866-115.787-233.632Z" transform="translate(-2163.368 609.43)" fill="#2a8648"/>
        <path id="Path_5466" data-name="Path 5466" d="M2924.4,3075.3V1887.774l-1.3-.066-8.983,207.559-75.56-84.36-15.952,10.81,81.443,144.932-7.914,170.027L2792.255,2244l-14.757,16.834,112.65,158.868-17.178,655.6Z" transform="translate(-2025.289 647.051)" fill="#ef463a"/>
        <path id="Path_5467" data-name="Path 5467" d="M1941.116,2183.417l-17.487-20.146-94.09,91.629-11.921-365.157-38.446-1.957v1187.5H1843.7l-14.165-733.831Z" transform="translate(-2161.294 647.062)" fill="#ef463a"/>
      </g>
      <g id="Group_3169" data-name="Group 3169" transform="translate(96.094 -836)">
        <g id="Group_2761" data-name="Group 2761" transform="translate(208.101 3918.625)">
          <path id="Path_5857" data-name="Path 5857" d="M5024.359,5128.466a10.335,10.335,0,0,0-8.951,15.5l8.951,12.4,8.951-12.4a10.334,10.334,0,0,0-8.951-15.5Z" transform="translate(-4996.455 -5128.466)" fill="#93b82c"/>
          <path id="Path_5858" data-name="Path 5858" d="M4996.589,5156.259a10.333,10.333,0,1,0,5.165,19.282l12.4-8.951-12.4-8.946A10.328,10.328,0,0,0,4996.589,5156.259Z" transform="translate(-4986.254 -5138.676)" fill="#93b82c"/>
          <path id="Path_5859" data-name="Path 5859" d="M5042.763,5157.618l-12.4,8.95,12.4,8.947a10.333,10.333,0,1,0,0-17.9Z" transform="translate(-5002.457 -5138.666)" fill="#93b82c"/>
        </g>
        <path id="Path_5860" data-name="Path 5860" d="M5022.146,5213.288a56.323,56.323,0,0,0,6.342-19.028c1.35-9.415.081-26.864-1.082-31.474" transform="translate(-4791.338 -1216.041)" fill="none" stroke="#93b82c" stroke-linecap="round" stroke-miterlimit="10" stroke-width="2"/>
      </g>
      <g id="Group_3170" data-name="Group 3170" transform="translate(134.094 -787)">
        <g id="Group_2761-2" data-name="Group 2761" transform="translate(208.101 3918.625)">
          <path id="Path_5857-2" data-name="Path 5857" d="M5024.359,5128.466a10.335,10.335,0,0,0-8.951,15.5l8.951,12.4,8.951-12.4a10.334,10.334,0,0,0-8.951-15.5Z" transform="translate(-4996.455 -5128.466)" fill="#93b82c"/>
          <path id="Path_5858-2" data-name="Path 5858" d="M4996.589,5156.259a10.333,10.333,0,1,0,5.165,19.282l12.4-8.951-12.4-8.946A10.328,10.328,0,0,0,4996.589,5156.259Z" transform="translate(-4986.254 -5138.676)" fill="#93b82c"/>
          <path id="Path_5859-2" data-name="Path 5859" d="M5042.763,5157.618l-12.4,8.95,12.4,8.947a10.333,10.333,0,1,0,0-17.9Z" transform="translate(-5002.457 -5138.666)" fill="#93b82c"/>
        </g>
        <path id="Path_5860-2" data-name="Path 5860" d="M5022.146,5213.288a56.323,56.323,0,0,0,6.342-19.028c1.35-9.415.081-26.864-1.082-31.474" transform="translate(-4791.338 -1216.041)" fill="none" stroke="#93b82c" stroke-linecap="round" stroke-miterlimit="10" stroke-width="2"/>
      </g>
    </g>
  </g>
</svg>
