<svg xmlns="http://www.w3.org/2000/svg" width="1281.23" height="2920.52" viewBox="0 0 1281.23 2920.52">
  <g id="Group_3291" data-name="Group 3291" transform="translate(1.23 -777.833)">
    <g id="Group_3166" data-name="Group 3166" transform="translate(275.627 3100.569) rotate(31)">
      <path id="Path_5991" data-name="Path 5991" d="M7.126,0,10.688,6.17l3.563,6.171H0L3.563,6.17Z" transform="translate(22.829 0)" fill="#ef463a"/>
      <path id="Path_5992" data-name="Path 5992" d="M7.125,0,10.688,6.17l3.563,6.171H0L3.563,6.17Z" transform="translate(47.769 0)" fill="#ef463a"/>
      <path id="Rectangle_2673" data-name="Rectangle 2673" d="M11.415,0h0A11.415,11.415,0,0,1,22.829,11.415V35.5a0,0,0,0,1,0,0h0A22.829,22.829,0,0,1,0,12.668V11.415A11.415,11.415,0,0,1,11.415,0Z" transform="translate(0 58.679)" fill="#ffb33e"/>
      <path id="Path_5993" data-name="Path 5993" d="M19.655,19.644a2.926,2.926,0,0,1-2.976,2.29L15.4,21.851C5.1,21.193-1.651,12.42.352,2.3A2.927,2.927,0,0,1,3.328.005,2.13,2.13,0,0,1,5.335,2.614a11.721,11.721,0,0,0,11.034,14.34l1.279.082A2.13,2.13,0,0,1,19.655,19.644Z" transform="translate(8.936 25.469)" fill="#ffb33e"/>
      <path id="Path_5994" data-name="Path 5994" d="M.047,19.644a2.926,2.926,0,0,0,2.976,2.29L4.3,21.851C14.6,21.193,21.353,12.42,19.35,2.3A2.926,2.926,0,0,0,16.374.005a2.13,2.13,0,0,0-2.007,2.608A11.721,11.721,0,0,1,3.333,16.954l-1.279.082A2.13,2.13,0,0,0,.047,19.644Z" transform="translate(57.986 25.469)" fill="#ffb33e"/>
      <rect id="Rectangle_2674" data-name="Rectangle 2674" width="39.191" height="81.834" transform="translate(22.829 12.342)" fill="#ffb33e"/>
      <rect id="Rectangle_2675" data-name="Rectangle 2675" width="39.191" height="9.946" transform="translate(22.829 42.064)" fill="#ef463a"/>
      <rect id="Rectangle_2676" data-name="Rectangle 2676" width="39.191" height="9.946" transform="translate(22.829 58.741)" fill="#ef463a"/>
      <rect id="Rectangle_2677" data-name="Rectangle 2677" width="39.191" height="9.946" transform="translate(22.829 76.558)" fill="#ef463a"/>
      <ellipse id="Ellipse_529" data-name="Ellipse 529" cx="6.686" cy="6.686" rx="6.686" ry="6.686" transform="translate(27.145 18.783)" fill="#fff"/>
      <ellipse id="Ellipse_530" data-name="Ellipse 530" cx="4.288" cy="4.288" rx="4.288" ry="4.288" transform="translate(29.543 21.181)"/>
      <ellipse id="Ellipse_531" data-name="Ellipse 531" cx="6.686" cy="6.686" rx="6.686" ry="6.686" transform="translate(44.614 18.783)" fill="#fff"/>
      <ellipse id="Ellipse_532" data-name="Ellipse 532" cx="4.288" cy="4.288" rx="4.288" ry="4.288" transform="translate(47.012 21.181)"/>
      <ellipse id="Ellipse_533" data-name="Ellipse 533" cx="3.136" cy="3.936" rx="3.136" ry="3.936" transform="translate(39.288 30.956)" fill="#fffcf3"/>
    </g>
    <g id="Group_3167" data-name="Group 3167" transform="translate(314.177 3149.504) rotate(31)">
      <path id="Path_5991-2" data-name="Path 5991" d="M7.126,0,10.688,6.17l3.563,6.171H0L3.563,6.17Z" transform="translate(22.829 0)" fill="#ef463a"/>
      <path id="Path_5992-2" data-name="Path 5992" d="M7.125,0,10.688,6.17l3.563,6.171H0L3.563,6.17Z" transform="translate(47.769 0)" fill="#ef463a"/>
      <path id="Rectangle_2673-2" data-name="Rectangle 2673" d="M11.415,0h0A11.415,11.415,0,0,1,22.829,11.415V35.5a0,0,0,0,1,0,0h0A22.829,22.829,0,0,1,0,12.668V11.415A11.415,11.415,0,0,1,11.415,0Z" transform="translate(0 58.679)" fill="#ffb33e"/>
      <path id="Path_5993-2" data-name="Path 5993" d="M19.655,19.644a2.926,2.926,0,0,1-2.976,2.29L15.4,21.851C5.1,21.193-1.651,12.42.352,2.3A2.927,2.927,0,0,1,3.328.005,2.13,2.13,0,0,1,5.335,2.614a11.721,11.721,0,0,0,11.034,14.34l1.279.082A2.13,2.13,0,0,1,19.655,19.644Z" transform="translate(8.936 25.469)" fill="#ffb33e"/>
      <path id="Path_5994-2" data-name="Path 5994" d="M.047,19.644a2.926,2.926,0,0,0,2.976,2.29L4.3,21.851C14.6,21.193,21.353,12.42,19.35,2.3A2.926,2.926,0,0,0,16.374.005a2.13,2.13,0,0,0-2.007,2.608A11.721,11.721,0,0,1,3.333,16.954l-1.279.082A2.13,2.13,0,0,0,.047,19.644Z" transform="translate(57.986 25.469)" fill="#ffb33e"/>
      <rect id="Rectangle_2674-2" data-name="Rectangle 2674" width="39.191" height="81.834" transform="translate(22.829 12.342)" fill="#ffb33e"/>
      <rect id="Rectangle_2675-2" data-name="Rectangle 2675" width="39.191" height="9.946" transform="translate(22.829 42.064)" fill="#ef463a"/>
      <rect id="Rectangle_2676-2" data-name="Rectangle 2676" width="39.191" height="9.946" transform="translate(22.829 58.741)" fill="#ef463a"/>
      <rect id="Rectangle_2677-2" data-name="Rectangle 2677" width="39.191" height="9.946" transform="translate(22.829 76.558)" fill="#ef463a"/>
      <ellipse id="Ellipse_529-2" data-name="Ellipse 529" cx="6.686" cy="6.686" rx="6.686" ry="6.686" transform="translate(27.145 18.783)" fill="#fff"/>
      <ellipse id="Ellipse_530-2" data-name="Ellipse 530" cx="4.288" cy="4.288" rx="4.288" ry="4.288" transform="translate(29.543 21.181)"/>
      <ellipse id="Ellipse_531-2" data-name="Ellipse 531" cx="6.686" cy="6.686" rx="6.686" ry="6.686" transform="translate(44.614 18.783)" fill="#fff"/>
      <ellipse id="Ellipse_532-2" data-name="Ellipse 532" cx="4.288" cy="4.288" rx="4.288" ry="4.288" transform="translate(47.012 21.181)"/>
      <ellipse id="Ellipse_533-2" data-name="Ellipse 533" cx="3.136" cy="3.936" rx="3.136" ry="3.936" transform="translate(39.288 30.956)" fill="#fffcf3"/>
    </g>
    <g id="Group_2707" data-name="Group 2707" transform="translate(31.716 159.203)">
      <g id="Group_2570" data-name="Group 2570" transform="translate(768.284 1681.068) rotate(-8)">
        <g id="Group_2569" data-name="Group 2569" transform="translate(0 0)">
          <path id="Path_5649" data-name="Path 5649" d="M13,.17A11.07,11.07,0,0,0,.666,14.842l7.12,14.752,11.759-11.4A11.066,11.066,0,0,0,13,.17Z" transform="matrix(0.998, -0.07, 0.07, 0.998, 20.698, 1.545)" fill="#93b82c"/>
          <path id="Path_5650" data-name="Path 5650" d="M13,.172a11.068,11.068,0,1,0,1.842,21.3L29.6,14.354,18.191,2.6A11.059,11.059,0,0,0,13,.172Z" transform="matrix(0.998, -0.07, 0.07, 0.998, 0, 18.285)" fill="#93b82c"/>
          <path id="Path_5651" data-name="Path 5651" d="M14.752.667,0,7.786,11.4,19.541A11.068,11.068,0,1,0,14.752.667Z" transform="matrix(0.998, -0.07, 0.07, 0.998, 29.987, 22.759)" fill="#93b82c"/>
        </g>
        <path id="Path_5652" data-name="Path 5652" d="M15.11,54.578a.359.359,0,0,1-.194-.059C14.4,54.192,2.243,46.282.261,26.5A52.96,52.96,0,0,1,4.291.332c.152-.342.461-.436.69-.206a.993.993,0,0,1,.137,1.033A50.858,50.858,0,0,0,1.246,26.282C3.145,45.244,14.808,52.833,15.3,53.145a.918.918,0,0,1,.265.978C15.488,54.407,15.3,54.578,15.11,54.578Z" transform="translate(25.773 29.54)" fill="#93b82c"/>
      </g>
      <g id="Group_2568" data-name="Group 2568" transform="translate(792.835 1703.489) rotate(-21)">
        <path id="Path_5642" data-name="Path 5642" d="M2.83,13.822H6.2V0H0Z" transform="translate(57.229 95.631)" fill="#ffb33e"/>
        <path id="Path_5643" data-name="Path 5643" d="M3.37,13.822H0V0H6.2Z" transform="translate(65.829 95.631)" fill="#ffb33e"/>
        <path id="Rectangle_2413" data-name="Rectangle 2413" d="M0,0H44.98a0,0,0,0,1,0,0V44.98a0,0,0,0,1,0,0h0A44.98,44.98,0,0,1,0,0V0A0,0,0,0,1,0,0Z" transform="translate(0 50.65)" fill="#1f2e7e"/>
        <path id="Rectangle_2414" data-name="Rectangle 2414" d="M43.111,0h0a0,0,0,0,1,0,0V44.98a0,0,0,0,1,0,0H0a0,0,0,0,1,0,0V43.111A43.111,43.111,0,0,1,43.111,0Z" transform="translate(127.778 95.631) rotate(180)" fill="#1f2e7e"/>
        <path id="Rectangle_2415" data-name="Rectangle 2415" d="M21.151,0h0A21.151,21.151,0,0,1,42.3,21.151V71.38a0,0,0,0,1,0,0H0a0,0,0,0,1,0,0V21.151A21.151,21.151,0,0,1,21.151,0Z" transform="translate(43.271 20.256)" fill="#ffb33e"/>
        <ellipse id="Ellipse_374" data-name="Ellipse 374" cx="5.669" cy="5.669" rx="5.669" ry="5.669" transform="translate(58.753 44.981)" fill="#1f2e7e"/>
        <path id="Path_5644" data-name="Path 5644" d="M42.3,44.98H0V0L42.3,10.493Z" transform="translate(43.27 50.65)" fill="#1f2e7e"/>
        <path id="Path_5645" data-name="Path 5645" d="M0,44.98H42.3V0L0,10.493Z" transform="translate(43.27 50.65)" fill="#1f2e7e"/>
        <ellipse id="Ellipse_375" data-name="Ellipse 375" cx="5.825" cy="5.825" rx="5.825" ry="5.825" transform="translate(50.067 33.902)" fill="#fff"/>
        <ellipse id="Ellipse_376" data-name="Ellipse 376" cx="5.825" cy="5.825" rx="5.825" ry="5.825" transform="translate(67.126 33.902)" fill="#fff"/>
        <ellipse id="Ellipse_377" data-name="Ellipse 377" cx="3.736" cy="3.736" rx="3.736" ry="3.736" transform="translate(52.156 35.99)"/>
        <ellipse id="Ellipse_378" data-name="Ellipse 378" cx="3.736" cy="3.736" rx="3.736" ry="3.736" transform="translate(69.215 35.99)"/>
        <rect id="Rectangle_2416" data-name="Rectangle 2416" width="32.296" height="7.092" transform="translate(48.42 32.634)" fill="#1e9846"/>
        <path id="Path_5646" data-name="Path 5646" d="M47.406,30.021H4.08A4.694,4.694,0,0,1,3.6,30,4.2,4.2,0,0,1,.8,23.355L12.7,6.709A16.038,16.038,0,0,1,25.743,0h0A16.038,16.038,0,0,1,38.789,6.709l11.9,16.646A4.2,4.2,0,0,1,47.886,30,4.7,4.7,0,0,1,47.406,30.021Z" transform="translate(38.078 9.706)" fill="#1f2e7e"/>
        <g id="Group_2567" data-name="Group 2567" transform="translate(53.824 105.827)">
          <path id="Path_5647" data-name="Path 5647" d="M4.537,4.569H2.431A2.431,2.431,0,0,0,0,7H9.6V0H4.537Z" transform="translate(0 0)" fill="#1f2e7e"/>
          <path id="Path_5648" data-name="Path 5648" d="M7.175,4.569H5.068V0H0V7H9.6A2.43,2.43,0,0,0,7.175,4.569Z" transform="translate(12.005 0)" fill="#1f2e7e"/>
        </g>
        <path id="Rectangle_2417" data-name="Rectangle 2417" d="M9.706,0h0a0,0,0,0,1,0,0V0A9.706,9.706,0,0,1,0,9.706H0a0,0,0,0,1,0,0v0A9.706,9.706,0,0,1,9.706,0Z" transform="translate(63.821 0)" fill="#1f2e7e"/>
      </g>
    </g>
    <g id="Group_2418" data-name="Group 2418" transform="translate(380.892 -24)">
      <path id="Path_5454" data-name="Path 5454" d="M2523.18,1646.309h435.863V362.595l-.018-.037L2842.788,596.413,2726.534,830.272h98.249l-26.735,53.775-160.973,323.848h104.033L2700.291,1290Z" transform="translate(-2059.936 439.275)" fill="#2a8648"/>
      <path id="Path_5455" data-name="Path 5455" d="M2924.615,1626.052V584.013l-3.127-.16-8.983,207.569-75.559-84.37-15.953,10.827L2902.436,862.8l-7.914,170.037-103.873-92.678L2775.892,957l112.649,158.852-17.177,510.2Z" transform="translate(-2025.508 469.422)" fill="#ef463a"/>
      <path id="Path_5456" data-name="Path 5456" d="M2959.043,2264.75V990.275l-.018-9.287-116.237,233.865-116.256,233.856h98.249l-26.725,53.774-160.98,323.854h104.032l-217.929,438.412Z" transform="translate(-2059.936 523.526)" fill="#93b82c"/>
      <path id="Path_5457" data-name="Path 5457" d="M2922.636,2289.5l-.62-1041.421-29.115,11.194-13.744,355.226-64.13-62.446-24.609,23.327,88.76,125.692L2865.013,2289.5Z" transform="translate(-2023.529 559.867)" fill="#ef463a"/>
      <path id="Path_5458" data-name="Path 5458" d="M2523.18,2895.309h435.863V1645.993l-.018-34.433-116.237,233.855-116.256,233.864h98.249l-26.734,53.764-160.972,323.852h104.033L2700.291,2539Z" transform="translate(-2059.936 609.43)" fill="#2a8648"/>
      <path id="Path_5459" data-name="Path 5459" d="M1779.172,1646.2h435.391l-217.929-438.413h104.029L1939.684,883.932l-26.726-53.77H2011.2L1894.959,596.3,1779.172,363.369Z" transform="translate(-2161.295 439.385)" fill="#2a8648"/>
      <path id="Path_5460" data-name="Path 5460" d="M1939.309,879.556l-17.489-20.137L1822.788,957.2l-23.845-371.491-19.771-1.7V1626.03l62.7,0-14.165-588.428Z" transform="translate(-2161.294 469.444)" fill="#ef463a"/>
      <path id="Path_5461" data-name="Path 5461" d="M1779.747,989.7V2264.75h435.389l-217.924-438.412h104.03l-160.98-323.854-26.727-53.774h98.239l-116.243-233.855L1779.747,981.1Z" transform="translate(-2161.869 523.526)" fill="#93b82c"/>
      <path id="Path_5462" data-name="Path 5462" d="M1863.471,1401.316l-55.514,53.6-8.989-207.559-19.8,1.007V2289.552h69.923l-17.178-510.206,51.425-97.116-6.869-30.99-50.536,45.089L1814.6,1515.586l61.875-93.3Z" transform="translate(-2161.294 559.814)" fill="#ef463a"/>
      <path id="Path_5463" data-name="Path 5463" d="M1781.245,1645.42V2895.309h435.391L1998.707,2456.9h104.029l-160.979-323.853-26.727-53.764h98.239l-116.236-233.866-115.787-233.632Z" transform="translate(-2163.368 609.43)" fill="#2a8648"/>
      <path id="Path_5466" data-name="Path 5466" d="M2924.4,3075.3V1887.774l-1.3-.066-8.983,207.559-75.56-84.36-15.952,10.81,81.443,144.932-7.914,170.027L2792.255,2244l-14.757,16.834,112.65,158.868-17.178,655.6Z" transform="translate(-2025.289 647.051)" fill="#ef463a"/>
      <path id="Path_5467" data-name="Path 5467" d="M1941.116,2183.417l-17.487-20.146-94.09,91.629-11.921-365.157-38.446-1.957v1187.5H1843.7l-14.165-733.831Z" transform="translate(-2161.294 647.062)" fill="#ef463a"/>
    </g>
    <g id="Group_3169" data-name="Group 3169" transform="translate(96.094 -836)">
      <g id="Group_2761" data-name="Group 2761" transform="translate(208.101 3918.625)">
        <path id="Path_5857" data-name="Path 5857" d="M5024.359,5128.466a10.335,10.335,0,0,0-8.951,15.5l8.951,12.4,8.951-12.4a10.334,10.334,0,0,0-8.951-15.5Z" transform="translate(-4996.455 -5128.466)" fill="#93b82c"/>
        <path id="Path_5858" data-name="Path 5858" d="M4996.589,5156.259a10.333,10.333,0,1,0,5.165,19.282l12.4-8.951-12.4-8.946A10.328,10.328,0,0,0,4996.589,5156.259Z" transform="translate(-4986.254 -5138.676)" fill="#93b82c"/>
        <path id="Path_5859" data-name="Path 5859" d="M5042.763,5157.618l-12.4,8.95,12.4,8.947a10.333,10.333,0,1,0,0-17.9Z" transform="translate(-5002.457 -5138.666)" fill="#93b82c"/>
      </g>
      <path id="Path_5860" data-name="Path 5860" d="M5022.146,5213.288a56.323,56.323,0,0,0,6.342-19.028c1.35-9.415.081-26.864-1.082-31.474" transform="translate(-4791.338 -1216.041)" fill="none" stroke="#93b82c" stroke-linecap="round" stroke-miterlimit="10" stroke-width="2"/>
    </g>
    <g id="Group_3170" data-name="Group 3170" transform="translate(134.094 -787)">
      <g id="Group_2761-2" data-name="Group 2761" transform="translate(208.101 3918.625)">
        <path id="Path_5857-2" data-name="Path 5857" d="M5024.359,5128.466a10.335,10.335,0,0,0-8.951,15.5l8.951,12.4,8.951-12.4a10.334,10.334,0,0,0-8.951-15.5Z" transform="translate(-4996.455 -5128.466)" fill="#93b82c"/>
        <path id="Path_5858-2" data-name="Path 5858" d="M4996.589,5156.259a10.333,10.333,0,1,0,5.165,19.282l12.4-8.951-12.4-8.946A10.328,10.328,0,0,0,4996.589,5156.259Z" transform="translate(-4986.254 -5138.676)" fill="#93b82c"/>
        <path id="Path_5859-2" data-name="Path 5859" d="M5042.763,5157.618l-12.4,8.95,12.4,8.947a10.333,10.333,0,1,0,0-17.9Z" transform="translate(-5002.457 -5138.666)" fill="#93b82c"/>
      </g>
      <path id="Path_5860-2" data-name="Path 5860" d="M5022.146,5213.288a56.323,56.323,0,0,0,6.342-19.028c1.35-9.415.081-26.864-1.082-31.474" transform="translate(-4791.338 -1216.041)" fill="none" stroke="#93b82c" stroke-linecap="round" stroke-miterlimit="10" stroke-width="2"/>
    </g>
  </g>
</svg>
