<svg xmlns="http://www.w3.org/2000/svg" width="1185.067" height="946.836" viewBox="0 0 1185.067 946.836">
  <g id="Group_3434" data-name="Group 3434" transform="translate(-47.433 -7809.9)">
    <path id="パス_5294" data-name="パス 5294" d="M-1078.372,571.443c.034-166.416.065-338.572.1-504.994l-63.2-112.19,19.3-30.581,43.9,35.475V-136.4h885.822l50.644-49.2h61.053l-21.416,61.277h70.342V225.1l46.178-39.5,11,59.779-57.182,82.807V573.923h-891.5l-44.845,50.841h-60.9q3.683-26.7,7.366-53.4C-1046.614,571.387-1053.461,571.419-1078.372,571.443Z" transform="translate(1194.644 8130.671)" fill="#ef4441"/>
    <path id="パス_5295" data-name="パス 5295" d="M1499.651,1978.169l41.058,52.278h71.575q-2.134-27.45-4.272-54.9c24.451.027,16.391.056,40.843.087" transform="translate(-535.721 6726.289)" fill="#ef4441"/>
    <rect id="長方形_2289" data-name="長方形 2289" width="983.15" height="641.227" transform="translate(145.097 8029.563)" fill="#feb33e"/>
    <path id="長方形_2290" data-name="長方形 2290" d="M2196.592,557.529l2.59,2.59a75.013,75.013,0,0,1,0,106.085l-2.59,2.591h0L2194,666.2a75.013,75.013,0,0,1,0-106.085l2.59-2.59Z" transform="translate(-988.653 7647.761)" fill="#1e9846"/>
    <path id="長方形_2291" data-name="長方形 2291" d="M-1093.082-188.67l2.59,2.591a75.014,75.014,0,0,1,0,106.085l-2.59,2.591h0l-2.591-2.591a75.014,75.014,0,0,1,0-106.085l2.591-2.591Z" transform="translate(1165.076 8132.663)" fill="#1e9846"/>
    <g id="Group_2705" data-name="Group 2705" transform="translate(118.112 7907.936)">
      <path id="Rectangle_2490" data-name="Rectangle 2490" d="M0,0H42.375a0,0,0,0,1,0,0V42.375a0,0,0,0,1,0,0h0A42.375,42.375,0,0,1,0,0V0A0,0,0,0,1,0,0Z" transform="translate(0 31.402)" fill="#59aac3"/>
      <path id="Rectangle_2491" data-name="Rectangle 2491" d="M40.614,0h0a0,0,0,0,1,0,0V42.375a0,0,0,0,1,0,0H0a0,0,0,0,1,0,0V40.614A40.614,40.614,0,0,1,40.614,0Z" transform="translate(126.938 73.777) rotate(180)" fill="#59aac3"/>
      <path id="Rectangle_2492" data-name="Rectangle 2492" d="M0,0H31.291a0,0,0,0,1,0,0V31.291a0,0,0,0,1,0,0h0A31.291,31.291,0,0,1,0,0V0A0,0,0,0,1,0,0Z" transform="translate(11.083 31.402)" fill="#ffb33e"/>
      <path id="Rectangle_2493" data-name="Rectangle 2493" d="M29.991,0h0a0,0,0,0,1,0,0V31.291a0,0,0,0,1,0,0H0a0,0,0,0,1,0,0v-1.3A29.991,29.991,0,0,1,29.991,0Z" transform="translate(116.315 62.694) rotate(180)" fill="#ffb33e"/>
      <path id="Rectangle_2494" data-name="Rectangle 2494" d="M0,0H21.492a0,0,0,0,1,0,0V21.492a0,0,0,0,1,0,0h0A21.492,21.492,0,0,1,0,0V0A0,0,0,0,1,0,0Z" transform="translate(21.051 31.402)" fill="#59aac3"/>
      <path id="Rectangle_2495" data-name="Rectangle 2495" d="M20.6,0h0a0,0,0,0,1,0,0V21.492a0,0,0,0,1,0,0H0a0,0,0,0,1,0,0V20.6A20.6,20.6,0,0,1,20.6,0Z" transform="translate(106.923 52.893) rotate(180)" fill="#59aac3"/>
      <path id="Path_5767" data-name="Path 5767" d="M-896.154,10296.66v-10.59h-8.029v13.293c0,2.094,2.2,3.793,4.91,3.793h5.39a3.118,3.118,0,0,0,3.452-3.248h0a3.119,3.119,0,0,0-3.452-3.248Z" transform="translate(971.204 -10215.277)" fill="#ef463a"/>
      <path id="Path_5768" data-name="Path 5768" d="M-941.608,10295.384l4.181-9.731,7.377,3.17-4.181,9.731-1.065,2.479c-.827,1.927-3.518,2.619-6.009,1.55l-3.21-1.381-1.742-.748a3.117,3.117,0,0,1-1.89-4.345h0a3.118,3.118,0,0,1,4.453-1.621Z" transform="translate(997.071 -10215.033)" fill="#ef463a"/>
      <path id="Rectangle_2496" data-name="Rectangle 2496" d="M21.975,0h0A21.975,21.975,0,0,1,43.949,21.975V68.336a0,0,0,0,1,0,0H0a0,0,0,0,1,0,0V21.975A21.975,21.975,0,0,1,21.975,0Z" transform="translate(42.375 5.441)" fill="#59aac3"/>
      <path id="Path_5769" data-name="Path 5769" d="M-963.733,10115.79l44.06,27.11h-43.94Q-963.673,10129.345-963.733,10115.79Z" transform="translate(1005.997 -10115.79)" fill="#59aac3"/>
      <g id="Group_2703" data-name="Group 2703" transform="translate(58.769 28.188)">
        <circle id="Ellipse_407" data-name="Ellipse 407" cx="6.186" cy="6.186" r="6.186" transform="translate(0 0)" fill="#ffb33e"/>
        <line id="Line_9" data-name="Line 9" x2="11.376" transform="translate(0.544 6.187)" fill="#ffb33e" stroke="#000" stroke-linecap="round" stroke-miterlimit="10" stroke-width="2.44"/>
      </g>
      <circle id="Ellipse_408" data-name="Ellipse 408" cx="6.213" cy="6.213" r="6.213" transform="translate(49.69 19.306)" fill="#fff"/>
      <circle id="Ellipse_409" data-name="Ellipse 409" cx="6.213" cy="6.213" r="6.213" transform="translate(67.885 19.306)" fill="#fff"/>
      <circle id="Ellipse_410" data-name="Ellipse 410" cx="3.985" cy="3.985" r="3.985" transform="translate(51.918 21.535)"/>
      <circle id="Ellipse_411" data-name="Ellipse 411" cx="3.985" cy="3.985" r="3.985" transform="translate(70.113 21.535)"/>
      <rect id="Rectangle_2497" data-name="Rectangle 2497" width="43.949" height="30.909" transform="translate(42.375 43.081)" fill="#59aac3"/>
    </g>
    <g id="Group_2706" data-name="Group 2706" transform="translate(245.05 7907.757)">
      <path id="Rectangle_2498" data-name="Rectangle 2498" d="M0,0H42.375a0,0,0,0,1,0,0V42.375a0,0,0,0,1,0,0h0A42.375,42.375,0,0,1,0,0V0A0,0,0,0,1,0,0Z" transform="translate(0 31.402)" fill="#ef463a"/>
      <path id="Rectangle_2499" data-name="Rectangle 2499" d="M40.614,0h0a0,0,0,0,1,0,0V42.375a0,0,0,0,1,0,0H0a0,0,0,0,1,0,0V40.614A40.614,40.614,0,0,1,40.614,0Z" transform="translate(126.938 73.777) rotate(180)" fill="#ef463a"/>
      <path id="Rectangle_2500" data-name="Rectangle 2500" d="M0,0H31.291a0,0,0,0,1,0,0V31.291a0,0,0,0,1,0,0h0A31.291,31.291,0,0,1,0,0V0A0,0,0,0,1,0,0Z" transform="translate(11.083 31.402)" fill="#ffb33e"/>
      <path id="Rectangle_2501" data-name="Rectangle 2501" d="M29.991,0h0a0,0,0,0,1,0,0V31.291a0,0,0,0,1,0,0H0a0,0,0,0,1,0,0v-1.3A29.991,29.991,0,0,1,29.991,0Z" transform="translate(116.315 62.694) rotate(180)" fill="#ffb33e"/>
      <path id="Rectangle_2502" data-name="Rectangle 2502" d="M0,0H21.492a0,0,0,0,1,0,0V21.492a0,0,0,0,1,0,0h0A21.492,21.492,0,0,1,0,0V0A0,0,0,0,1,0,0Z" transform="translate(21.051 31.402)" fill="#ef463a"/>
      <path id="Rectangle_2503" data-name="Rectangle 2503" d="M20.6,0h0a0,0,0,0,1,0,0V21.492a0,0,0,0,1,0,0H0a0,0,0,0,1,0,0V20.6A20.6,20.6,0,0,1,20.6,0Z" transform="translate(106.923 52.894) rotate(180)" fill="#ef463a"/>
      <path id="Path_5770" data-name="Path 5770" d="M-896.154,10066.469v-10.592h-8.029v13.293c0,2.1,2.2,3.795,4.91,3.795h5.39a3.119,3.119,0,0,0,3.452-3.248h0a3.119,3.119,0,0,0-3.452-3.248Z" transform="translate(971.204 -9985.085)" fill="#59aac3"/>
      <path id="Path_5771" data-name="Path 5771" d="M-941.608,10065.192l4.181-9.732,7.377,3.17-4.181,9.732-1.065,2.48c-.827,1.926-3.518,2.618-6.009,1.548l-3.21-1.379-1.742-.749a3.118,3.118,0,0,1-1.89-4.346h0a3.12,3.12,0,0,1,4.453-1.622Z" transform="translate(997.071 -9984.841)" fill="#59aac3"/>
      <path id="Rectangle_2504" data-name="Rectangle 2504" d="M21.975,0h0A21.975,21.975,0,0,1,43.949,21.975V68.336a0,0,0,0,1,0,0H0a0,0,0,0,1,0,0V21.975A21.975,21.975,0,0,1,21.975,0Z" transform="translate(42.375 5.44)" fill="#ef463a"/>
      <path id="Path_5772" data-name="Path 5772" d="M-963.733,9885.6q22.03,13.557,44.06,27.11h-43.94Q-963.673,9899.151-963.733,9885.6Z" transform="translate(1005.997 -9885.598)" fill="#ef463a"/>
      <g id="Group_2704" data-name="Group 2704" transform="translate(58.769 28.187)">
        <circle id="Ellipse_412" data-name="Ellipse 412" cx="6.186" cy="6.186" r="6.186" transform="translate(0 0)" fill="#59aac3"/>
        <line id="Line_10" data-name="Line 10" x2="11.376" transform="translate(0.544 6.186)" fill="#ffb33e" stroke="#000" stroke-linecap="round" stroke-miterlimit="10" stroke-width="2.44"/>
      </g>
      <circle id="Ellipse_413" data-name="Ellipse 413" cx="6.213" cy="6.213" r="6.213" transform="translate(49.69 19.307)" fill="#fff"/>
      <circle id="Ellipse_414" data-name="Ellipse 414" cx="6.213" cy="6.213" r="6.213" transform="translate(67.885 19.307)" fill="#fff"/>
      <circle id="Ellipse_415" data-name="Ellipse 415" cx="3.985" cy="3.985" r="3.985" transform="translate(51.918 21.535)"/>
      <circle id="Ellipse_416" data-name="Ellipse 416" cx="3.985" cy="3.985" r="3.985" transform="translate(70.113 21.535)"/>
      <rect id="Rectangle_2505" data-name="Rectangle 2505" width="43.949" height="30.909" transform="translate(42.375 43.081)" fill="#ef463a"/>
    </g>
    <g id="Group_2719" data-name="Group 2719" transform="translate(2536.27 -708.564)">
      <path id="Rectangle_2527" data-name="Rectangle 2527" d="M23.313,0h38.3a0,0,0,0,1,0,0V46.627a0,0,0,0,1,0,0h-38.3A23.313,23.313,0,0,1,0,23.313v0A23.313,23.313,0,0,1,23.313,0Z" transform="translate(-1432.585 8544.366) rotate(90)" fill="#ffb33e"/>
      <path id="Path_5803" data-name="Path 5803" d="M-1438.591,8663.5v-15.577h-9.62v18.813c0,2.511,2.634,4.546,5.883,4.546h6.458c2.78,0,4.136-1.742,4.136-3.891h0c0-2.149-1.355-3.891-4.136-3.891Z" transform="translate(-5.324 -13.24)" fill="#ef463a"/>
      <path id="Path_5804" data-name="Path 5804" d="M-1468.86,8661.761l7.262-13.779,8.51,4.484-7.262,13.779-1.508,2.862c-1.171,2.222-4.45,2.794-7.324,1.279l-3.7-1.952-2.01-1.059c-2.46-1.3-2.847-3.47-1.845-5.37h0c1-1.9,3.013-2.811,5.473-1.514Z" transform="translate(-2.354 -13.246)" fill="#ef463a"/>
      <rect id="Rectangle_2528" data-name="Rectangle 2528" width="88.863" height="56.824" rx="28.412" transform="translate(-1500.27 8582.348)" fill="#ffb33e"/>
      <circle id="Ellipse_433" data-name="Ellipse 433" cx="7.763" cy="7.763" r="7.763" transform="translate(-1474.162 8556.742)" fill="#fff"/>
      <circle id="Ellipse_434" data-name="Ellipse 434" cx="7.763" cy="7.763" r="7.763" transform="translate(-1453.161 8556.742)" fill="#fff"/>
      <circle id="Ellipse_435" data-name="Ellipse 435" cx="4.979" cy="4.979" r="4.979" transform="translate(-1471.379 8559.525)"/>
      <circle id="Ellipse_436" data-name="Ellipse 436" cx="4.979" cy="4.979" r="4.979" transform="translate(-1450.377 8559.525)"/>
      <path id="Path_5805" data-name="Path 5805" d="M-1448.728,8565.727h-6.478l-6.2-22.062a31.932,31.932,0,0,1,2.052-17.6c2.1-4.88,4.715-7.646,7.459-7.595,3.634.067,6.149,5.215,7.35,7.689a28.526,28.526,0,0,1,2.013,17.5Z" transform="translate(-3.932)" fill="#ef463a"/>
      <path id="Path_5806" data-name="Path 5806" d="M-1455.085,8589.625h6.477l6.2,22.062a31.932,31.932,0,0,1-2.052,17.6c-2.1,4.881-4.715,7.646-7.459,7.594-3.634-.065-6.149-5.213-7.35-7.687a28.521,28.521,0,0,1-2.013-17.5Z" transform="translate(-3.932 -7.278)" fill="#ef463a"/>
      <path id="Path_5807" data-name="Path 5807" d="M-1460.842,8580.794l8.976-16.694,8.976,16.694-8.976,8.976Z" transform="translate(-4.032 -4.667)" fill="#fffcf3"/>
      <path id="Path_5808" data-name="Path 5808" d="M-1460.842,8582.7l8.976,3.114,8.976-3.114" transform="translate(-4.032 -6.569)" fill="#ef463a"/>
    </g>
  </g>
</svg>
