<svg xmlns="http://www.w3.org/2000/svg" xmlns:xlink="http://www.w3.org/1999/xlink" width="1277.315" height="563.235" viewBox="0 0 1277.315 563.235">
  <defs>
    <clipPath id="clip-path">
      <path id="パス_49" data-name="パス 49" d="M525.946,2024.967l17.717-.037-12.392,40.48-17.717.036Z" transform="translate(-513.554 -2024.93)" fill="#2a8648"/>
    </clipPath>
    <clipPath id="clip-path-2">
      <path id="パス_49-2" data-name="パス 49" d="M513.608,2024.967l17.717-.037-12.392,40.48-17.717.036Z" transform="translate(-501.216 -2024.93)" fill="#2a8648"/>
    </clipPath>
    <clipPath id="clip-path-3">
      <path id="パス_49-3" data-name="パス 49" d="M655.493,2065.384l-17.717.037,12.392-40.481,17.715-.036Z" transform="translate(-637.776 -2024.904)" fill="#2a8648"/>
    </clipPath>
    <clipPath id="clip-path-4">
      <path id="パス_49-4" data-name="パス 49" d="M667.831,2065.384l-17.717.037,12.392-40.481,17.717-.036Z" transform="translate(-650.114 -2024.904)" fill="#2a8648"/>
    </clipPath>
  </defs>
  <g id="Group_3341" data-name="Group 3341" transform="translate(11564.315 -3608.575)">
    <path id="Path_5857" data-name="Path 5857" d="M10.35,0A10.351,10.351,0,0,0,1.387,15.523L10.35,27.941l8.963-12.418A10.348,10.348,0,0,0,10.35,0Z" transform="translate(-11419.346 4024.32) rotate(-7)" fill="#93b82c"/>
    <path id="Path_5858" data-name="Path 5858" d="M10.349,0a10.347,10.347,0,1,0,5.173,19.309l12.422-8.963L15.522,1.387A10.344,10.344,0,0,0,10.349,0Z" transform="translate(-11434.662 4043.942) rotate(-7)" fill="#93b82c"/>
    <path id="Path_5859" data-name="Path 5859" d="M12.418,1.388,0,10.351l12.418,8.96a10.348,10.348,0,1,0,0-17.922Z" transform="translate(-11406.928 4040.519) rotate(-7)" fill="#93b82c"/>
    <path id="Path_5857-2" data-name="Path 5857" d="M10.35,0A10.351,10.351,0,0,0,1.387,15.523L10.35,27.941l8.963-12.418A10.348,10.348,0,0,0,10.35,0Z" transform="matrix(0.966, -0.259, 0.259, 0.966, -11516.982, 4042.571)" fill="#93b82c"/>
    <path id="Path_5858-2" data-name="Path 5858" d="M14.8,0a8.7,8.7,0,1,1-4.35,16.238L0,8.7,10.447,1.166A8.7,8.7,0,0,1,14.8,0Z" transform="translate(-10350.776 4019.918) rotate(14)" fill="#93b82c"/>
    <path id="長方形_2650" data-name="長方形 2650" d="M3366.485,6272.48h0a9.55,9.55,0,0,1,9.55,9.549h0v4.554h-19.1v-4.554A9.549,9.549,0,0,1,3366.485,6272.48Z" transform="translate(-13670.286 -2223.726)" fill="#feb33e"/>
    <path id="長方形_2651" data-name="長方形 2651" d="M3318.271,6272.48h0a9.55,9.55,0,0,1,9.55,9.549h0v4.554h-19.1v-4.554A9.55,9.55,0,0,1,3318.271,6272.48Z" transform="translate(-13653.111 -2223.726)" fill="#feb33e"/>
    <g id="Group_3340" data-name="Group 3340">
      <path id="Rectangle_2629" data-name="Rectangle 2629" d="M0,0H0A17.369,17.369,0,0,1,17.369,17.369v1.44a0,0,0,0,1,0,0H0a0,0,0,0,1,0,0V0A0,0,0,0,1,0,0Z" transform="matrix(1, -0.026, 0.026, 1, -10984.73, 4115.372)" fill="#feb33e"/>
      <path id="Rectangle_2630" data-name="Rectangle 2630" d="M0,0H29.414a0,0,0,0,1,0,0V18.809a0,0,0,0,1,0,0H18.809A18.809,18.809,0,0,1,0,0V0A0,0,0,0,1,0,0Z" transform="matrix(0.026, 1, -1, 0.026, -10984.73, 4115.373)" fill="#feb33e"/>
      <path id="Rectangle_2631" data-name="Rectangle 2631" d="M0,0H12.755A18.809,18.809,0,0,1,31.564,18.809v0a0,0,0,0,1,0,0H0a0,0,0,0,1,0,0V0A0,0,0,0,1,0,0Z" transform="matrix(0.026, 1, -1, 0.026, -10984.24, 4134.289)" fill="#1f2e7e"/>
      <path id="Rectangle_2632" data-name="Rectangle 2632" d="M18.809,0H29.414a0,0,0,0,1,0,0V18.809a0,0,0,0,1,0,0H0a0,0,0,0,1,0,0v0A18.809,18.809,0,0,1,18.809,0Z" transform="matrix(0.026, 1, -1, 0.026, -11003.53, 4115.973)" fill="#1f2e7e"/>
      <path id="Rectangle_2633" data-name="Rectangle 2633" d="M0,0H29.414a0,0,0,0,1,0,0V18.809a0,0,0,0,1,0,0H18.809A18.809,18.809,0,0,1,0,0V0A0,0,0,0,1,0,0Z" transform="matrix(0.026, 1, -1, 0.026, -11022.334, 4116.46)" fill="#feb33e"/>
      <path id="Rectangle_2634" data-name="Rectangle 2634" d="M0,0H12.867A18.809,18.809,0,0,1,31.676,18.809v0a0,0,0,0,1,0,0H0a0,0,0,0,1,0,0V0A0,0,0,0,1,0,0Z" transform="matrix(0.026, 1, -1, 0.026, -11021.846, 4135.263)" fill="#1f2e7e"/>
      <path id="Rectangle_2635" data-name="Rectangle 2635" d="M0,0H0A18.686,18.686,0,0,1,18.686,18.686v.123a0,0,0,0,1,0,0H0a0,0,0,0,1,0,0V0A0,0,0,0,1,0,0Z" transform="matrix(-1, 0.026, -0.026, -1, -11039.848, 4167.304)" fill="#f086ab"/>
      <path id="Rectangle_2636" data-name="Rectangle 2636" d="M18.809,0H31.564a0,0,0,0,1,0,0V18.809a0,0,0,0,1,0,0H0a0,0,0,0,1,0,0v0A18.809,18.809,0,0,1,18.809,0Z" transform="matrix(-0.026, -1, 1, -0.026, -11021.028, 4166.816)" fill="#feb33e"/>
      <circle id="Ellipse_499" data-name="Ellipse 499" cx="4.906" cy="4.906" r="4.906" transform="translate(-10984.575 4118.958) rotate(8)" fill="#fff"/>
      <circle id="Ellipse_500" data-name="Ellipse 500" cx="3.147" cy="3.147" r="3.147" transform="translate(-10983.078 4120.945) rotate(8)"/>
      <path id="Path_5860" data-name="Path 5860" d="M5028.449,5229.9a110.537,110.537,0,0,1-5.786-26.749,121.072,121.072,0,0,1,1.044-30.589" transform="translate(-15930.107 -1108.229)" fill="none" stroke="#93b82c" stroke-linecap="round" stroke-miterlimit="10" stroke-width="2"/>
      <path id="Path_5858-3" data-name="Path 5858" d="M5002.285,5156.259a9.427,9.427,0,1,1-4.712,17.592l-11.317-8.166,11.317-8.162A9.421,9.421,0,0,1,5002.285,5156.259Z" transform="translate(-15892.967 -1096.247)" fill="#93b82c"/>
      <path id="Path_5859-2" data-name="Path 5859" d="M5044.5,5157.5l11.314,8.166-11.314,8.163a9.427,9.427,0,1,1,0-16.329Z" transform="translate(-15962.355 -1096.236)" fill="#93b82c"/>
      <path id="Path_5860-2" data-name="Path 5860" d="M5022.146,5214.659a59.324,59.324,0,0,0,5.232-42.093" transform="translate(-15989.33 -1081.011)" fill="none" stroke="#93b82c" stroke-linecap="round" stroke-miterlimit="10" stroke-width="2"/>
      <path id="Path_5857-3" data-name="Path 5857" d="M5024.429,5128.466a10.406,10.406,0,0,0-9.011,15.6l9.011,12.483,9.011-12.483a10.4,10.4,0,0,0-9.011-15.6Z" transform="translate(-15986.463 -1064.774)" fill="#93b82c"/>
      <path id="Path_5858-4" data-name="Path 5858" d="M4996.658,5156.259a10.4,10.4,0,1,0,5.2,19.411l12.488-9.011-12.488-9.006A10.4,10.4,0,0,0,4996.658,5156.259Z" transform="translate(-15972.255 -1074.865)" fill="#93b82c"/>
      <path id="Path_5859-3" data-name="Path 5859" d="M5042.845,5157.627l-12.484,9.01,12.484,9.007a10.4,10.4,0,1,0,0-18.017Z" transform="translate(-15996.521 -1074.856)" fill="#93b82c"/>
      <path id="Path_5931" data-name="Path 5931" d="M4446.455,3882.616l2.724,4.718,2.724,4.718h-10.9l2.724-4.718Z" transform="translate(-15335.128 201.268)" fill="#f086ab"/>
      <path id="Path_5932" data-name="Path 5932" d="M4506.55,3882.616l2.724,4.718,2.724,4.718h-10.9l2.724-4.718Z" transform="translate(-15376.154 201.268)" fill="#f086ab"/>
      <rect id="Rectangle_2613" data-name="Rectangle 2613" width="6.329" height="18.956" rx="3.164" transform="translate(-10885.192 4150.703) rotate(2.374)" fill="#f086ab"/>
      <rect id="Rectangle_2614" data-name="Rectangle 2614" width="6.329" height="18.956" rx="3.164" transform="translate(-10876.909 4152.654) rotate(-21.582)" fill="#f086ab"/>
      <path id="Path_5933" data-name="Path 5933" d="M4487.148,3991.564a2.1,2.1,0,0,1,3.24,0,11.538,11.538,0,0,0,17.812,0,2.1,2.1,0,0,1,3.24,0,2.881,2.881,0,0,1,0,3.7c-6.7,7.641-17.594,7.641-24.291,0A2.88,2.88,0,0,1,4487.148,3991.564Z" transform="translate(-15366.17 127.412)" fill="#f086ab"/>
      <path id="Path_5934" data-name="Path 5934" d="M4437.087,3990.07a2.882,2.882,0,0,1,0,3.7l-.832.949c-6.7,7.641-17.595,7.641-24.292,0a2.88,2.88,0,0,1,0-3.7,2.1,2.1,0,0,1,3.24,0,11.538,11.538,0,0,0,17.812,0l.832-.949A2.1,2.1,0,0,1,4437.087,3990.07Z" transform="translate(-15314.842 128.433)" fill="#f086ab"/>
      <rect id="Rectangle_2615" data-name="Rectangle 2615" width="45.045" height="40.493" rx="20.246" transform="translate(-10901.661 4120.692)" fill="#59aac3"/>
      <rect id="Rectangle_2616" data-name="Rectangle 2616" width="39.114" height="32.047" rx="16.023" transform="translate(-10898.695 4088.602)" fill="#f086ab"/>
      <ellipse id="Ellipse_487" data-name="Ellipse 487" cx="4.891" cy="4.891" rx="4.891" ry="4.891" transform="translate(-10891.19 4098.96)" fill="#fff"/>
      <ellipse id="Ellipse_488" data-name="Ellipse 488" cx="4.891" cy="4.891" rx="4.891" ry="4.891" transform="translate(-10876.868 4098.96)" fill="#fff"/>
      <ellipse id="Ellipse_489" data-name="Ellipse 489" cx="3.137" cy="3.137" rx="3.137" ry="3.137" transform="translate(-10889.437 4100.714)"/>
      <ellipse id="Ellipse_490" data-name="Ellipse 490" cx="3.137" cy="3.137" rx="3.137" ry="3.137" transform="translate(-10875.114 4100.714)"/>
      <path id="Path_5935" data-name="Path 5935" d="M4484.61,3956.009a3.138,3.138,0,0,1-6.276,0" transform="translate(-15360.611 151.163)"/>
      <path id="パス_1299" data-name="パス 1299" d="M4864.412,4759.741v183.906h92.664c0-53.042,41.066-96.05,91.728-96.05s91.735,43.008,91.735,96.05h103.873V4759.741Z" transform="translate(-15981.412 -776.097)" fill="#ef4441"/>
      <path id="Path_5914" data-name="Path 5914" d="M2830.215,3283.958a1.857,1.857,0,0,1,2.869,0,10.22,10.22,0,0,0,15.776,0,1.857,1.857,0,0,1,2.87,0,2.552,2.552,0,0,1,0,3.274,13.937,13.937,0,0,1-21.515,0A2.55,2.55,0,0,1,2830.215,3283.958Z" transform="translate(-13948.302 838.744)" fill="#ffb33e"/>
      <ellipse id="Ellipse_478" data-name="Ellipse 478" cx="14.121" cy="14.121" rx="14.121" ry="14.121" transform="translate(-11127.148 4076.461)" fill="#ffb33e"/>
      <path id="Path_5857-4" data-name="Path 5857" d="M5024.429,5128.466a10.406,10.406,0,0,0-9.011,15.6l9.011,12.483,9.011-12.483a10.4,10.4,0,0,0-9.011-15.6Z" transform="translate(-16115.539 -1073.967)" fill="#93b82c"/>
      <path id="Path_5858-5" data-name="Path 5858" d="M4996.658,5156.259a10.4,10.4,0,1,0,5.2,19.411l12.488-9.011-12.488-9.006A10.4,10.4,0,0,0,4996.658,5156.259Z" transform="translate(-16105.456 -1084.058)" fill="#93b82c"/>
      <path id="Path_5859-4" data-name="Path 5859" d="M5042.845,5157.627l-12.484,9.01,12.484,9.007a10.4,10.4,0,1,0,0-18.017Z" transform="translate(-16121.471 -1084.049)" fill="#93b82c"/>
      <path id="Path_5860-3" data-name="Path 5860" d="M5022.146,5213.626a56.613,56.613,0,0,0,5.232-41.061" transform="translate(-16118.487 -1089.979)" fill="none" stroke="#93b82c" stroke-linecap="round" stroke-miterlimit="10" stroke-width="2"/>
      <path id="Path_5860-4" data-name="Path 5860" d="M5029.1,5232.211a109.439,109.439,0,0,1-6.384-27.825,118.842,118.842,0,0,1,1.152-31.821" transform="translate(-15891.152 -948.775) rotate(-2)" fill="none" stroke="#93b82c" stroke-linecap="round" stroke-miterlimit="10" stroke-width="2"/>
      <path id="Path_5857-5" data-name="Path 5857" d="M8.7,0a8.705,8.705,0,0,1,7.538,13.054L8.7,23.5,1.166,13.054A8.7,8.7,0,0,1,8.7,0Z" transform="translate(-10355.562 4003.462) rotate(14)" fill="#93b82c"/>
      <path id="Path_5859-5" data-name="Path 5859" d="M13.054,1.167,23.5,8.7,13.054,16.24a8.7,8.7,0,1,1,0-15.072Z" transform="translate(-10373.419 4014.257) rotate(14)" fill="#93b82c"/>
      <path id="Path_5858-6" data-name="Path 5858" d="M14.7,0a8.647,8.647,0,1,1-4.323,16.136L0,8.646,10.381,1.159A8.639,8.639,0,0,1,14.7,0Z" transform="matrix(0.985, 0.174, -0.174, 0.985, -10575.989, 4062.912)" fill="#93b82c"/>
      <path id="Path_5859-6" data-name="Path 5859" d="M12.971,1.16,23.349,8.65,12.971,16.137a8.647,8.647,0,1,1,0-14.977Z" transform="matrix(0.985, 0.174, -0.174, 0.985, -10598.825, 4058.871)" fill="#93b82c"/>
      <path id="Path_5860-5" data-name="Path 5860" d="M10.034,66.64C7.2,60.089,2.107,47.04.528,33.133-1.219,17.75,1.8,7.531,3.307,0" transform="matrix(0.985, 0.174, -0.174, 0.985, -10580.66, 4071.449)" fill="none" stroke="#93b82c" stroke-linecap="round" stroke-miterlimit="10" stroke-width="2"/>
      <path id="Path_5857-6" data-name="Path 5857" d="M5022.673,5128.466a8.65,8.65,0,0,1,7.49,12.971l-7.49,10.377-7.49-10.377a8.647,8.647,0,0,1,7.49-12.971Z" transform="translate(-15542.799 -1090.516)" fill="#93b82c"/>
      <path id="Path_5858-7" data-name="Path 5858" d="M5000.959,5156.259a8.647,8.647,0,1,1-4.323,16.136l-10.381-7.49,10.381-7.486A8.639,8.639,0,0,1,5000.959,5156.259Z" transform="translate(-15506.461 -1103.594)" fill="#93b82c"/>
      <path id="Path_5859-7" data-name="Path 5859" d="M5043.332,5157.393l10.377,7.49-10.377,7.487a8.647,8.647,0,1,1,0-14.977Z" transform="translate(-15573.758 -1103.582)" fill="#93b82c"/>
      <path id="Path_5857-7" data-name="Path 5857" d="M5022.673,5128.466a8.65,8.65,0,0,1,7.49,12.971l-7.49,10.377-7.49-10.377a8.647,8.647,0,0,1,7.49-12.971Z" transform="translate(-15466.799 -1109.516)" fill="#93b82c"/>
      <path id="Path_5858-8" data-name="Path 5858" d="M5000.959,5156.259a8.647,8.647,0,1,1-4.323,16.136l-10.381-7.49,10.381-7.486A8.639,8.639,0,0,1,5000.959,5156.259Z" transform="translate(-15430.461 -1122.594)" fill="#93b82c"/>
      <path id="Path_5859-8" data-name="Path 5859" d="M5043.332,5157.393l10.377,7.49-10.377,7.487a8.647,8.647,0,1,1,0-14.977Z" transform="translate(-15497.758 -1122.582)" fill="#93b82c"/>
      <path id="Path_5858-9" data-name="Path 5858" d="M5003.943,5156.259a10.4,10.4,0,1,1-5.2,19.411l-12.488-9.011,12.488-9.006A10.4,10.4,0,0,1,5003.943,5156.259Z" transform="matrix(0.995, -0.105, 0.105, 0.995, -16275.701, -549.265)" fill="#93b82c"/>
      <path id="Path_5859-9" data-name="Path 5859" d="M5045.965,5157.627l12.484,9.01-12.484,9.007a10.4,10.4,0,1,1,0-18.017Z" transform="matrix(0.995, -0.105, 0.105, 0.995, -16347.311, -541.729)" fill="#93b82c"/>
      <path id="Path_5860-6" data-name="Path 5860" d="M5029.1,5232.211a109.439,109.439,0,0,1-6.384-27.825,118.842,118.842,0,0,1,1.152-31.821" transform="matrix(0.995, -0.105, 0.105, 0.995, -16313.721, -552.001)" fill="none" stroke="#93b82c" stroke-linecap="round" stroke-miterlimit="10" stroke-width="2"/>
      <rect id="Rectangle_2601" data-name="Rectangle 2601" width="5.961" height="5.961" transform="translate(-10673.35 4079.344) rotate(178)"/>
      <path id="Path_5929" data-name="Path 5929" d="M4674.458,2995.052a2.148,2.148,0,0,1,0,3.038,17.3,17.3,0,0,1-24.43,0,2.149,2.149,0,0,1,3.039-3.038,12.993,12.993,0,0,0,18.354,0A2.148,2.148,0,0,1,4674.458,2995.052Z" transform="translate(-15434.653 1273.188) rotate(-2)" fill="#feb33e"/>
      <path id="Path_5930" data-name="Path 5930" d="M4817.279,2945.265a2.148,2.148,0,0,1,2.148,2.148,17.3,17.3,0,0,1-17.275,17.275,2.148,2.148,0,1,1,0-4.3,12.993,12.993,0,0,0,12.979-12.978A2.148,2.148,0,0,1,4817.279,2945.265Z" transform="translate(-15537.854 1310.907) rotate(-2)" fill="#feb33e"/>
      <rect id="Rectangle_2602" data-name="Rectangle 2602" width="5.011" height="20.075" transform="translate(-10653.02 4146.372) rotate(-2)" fill="#feb33e"/>
      <rect id="Rectangle_2603" data-name="Rectangle 2603" width="5.011" height="20.075" transform="translate(-10644.359 4147.229) rotate(-18.868)" fill="#feb33e"/>
      <rect id="Rectangle_2604" data-name="Rectangle 2604" width="27.295" height="55.36" transform="translate(-10661.975 4094.357) rotate(-2)" fill="#ef463a"/>
      <path id="Rectangle_2605" data-name="Rectangle 2605" d="M0,0H44.1a0,0,0,0,1,0,0V20.57a0,0,0,0,1,0,0H20.57A20.57,20.57,0,0,1,0,0V0A0,0,0,0,1,0,0Z" transform="translate(-10679.307 4079.552) rotate(-2)" fill="#ef463a"/>
      <circle id="Ellipse_483" data-name="Ellipse 483" cx="5.671" cy="5.671" r="5.671" transform="translate(-10664.338 4081.06) rotate(-2)" fill="#fff"/>
      <circle id="Ellipse_484" data-name="Ellipse 484" cx="5.671" cy="5.671" r="5.671" transform="translate(-10649.556 4080.543) rotate(-2)" fill="#fff"/>
      <circle id="Ellipse_485" data-name="Ellipse 485" cx="3.637" cy="3.637" r="3.637" transform="translate(-10662.234 4083.021) rotate(-2)"/>
      <circle id="Ellipse_486" data-name="Ellipse 486" cx="3.637" cy="3.637" r="3.637" transform="translate(-10647.452 4082.505) rotate(-2)"/>
      <path id="Rectangle_2606" data-name="Rectangle 2606" d="M0,0H8.757A16.174,16.174,0,0,1,24.931,16.174v0A16.174,16.174,0,0,1,8.757,32.349H0a0,0,0,0,1,0,0V0A0,0,0,0,1,0,0Z" transform="translate(-10637.582 4116.53) rotate(-2)" fill="#ef463a"/>
      <rect id="Rectangle_2607" data-name="Rectangle 2607" width="4.087" height="17.548" transform="translate(-10657.429 4061.229) rotate(-2)" fill="#feb33e"/>
      <rect id="Rectangle_2608" data-name="Rectangle 2608" width="4.087" height="17.548" transform="translate(-10639.93 4060.618) rotate(-2)" fill="#feb33e"/>
      <path id="Rectangle_2617" data-name="Rectangle 2617" d="M11.584,0h6.531a0,0,0,0,1,0,0V11.584a0,0,0,0,1,0,0H0a0,0,0,0,1,0,0v0A11.584,11.584,0,0,1,11.584,0Z" transform="translate(-10770.93 4129.471)" fill="#93b82c"/>
      <path id="Rectangle_2618" data-name="Rectangle 2618" d="M11.584,0h6.531a0,0,0,0,1,0,0V11.584a0,0,0,0,1,0,0H0a0,0,0,0,1,0,0v0A11.584,11.584,0,0,1,11.584,0Z" transform="translate(-10770.93 4118.077)" fill="#93b82c"/>
      <path id="Path_5936" data-name="Path 5936" d="M4047.9,3746.446h-14.8a13.121,13.121,0,0,1,0-26.242h14.8a13.121,13.121,0,0,1,0,26.242Z" transform="translate(-14778.125 371.631)" fill="#93b82c"/>
      <path id="Path_5937" data-name="Path 5937" d="M4031.429,3663.2a2.09,2.09,0,0,1-2.089-2.09,12.637,12.637,0,0,0-12.624-12.623,2.09,2.09,0,0,1,0-4.179,16.821,16.821,0,0,1,16.8,16.8A2.09,2.09,0,0,1,4031.429,3663.2Z" transform="translate(-14773.917 431.216)" fill="#93b82c"/>
      <path id="Path_5938" data-name="Path 5938" d="M4126.741,3660.527a2.09,2.09,0,0,1-2.09-2.09,16.821,16.821,0,0,1,16.8-16.8,2.09,2.09,0,0,1,0,4.179,12.637,12.637,0,0,0-12.623,12.623A2.09,2.09,0,0,1,4126.741,3660.527Z" transform="translate(-14860.294 433.313)" fill="#93b82c"/>
      <path id="Path_5939" data-name="Path 5939" d="M4146.336,4001.826a2.09,2.09,0,0,1-2.09-2.09,12.637,12.637,0,0,0-12.623-12.623,2.09,2.09,0,0,1,0-4.179,16.821,16.821,0,0,1,16.8,16.8A2.09,2.09,0,0,1,4146.336,4001.826Z" transform="translate(-14864.128 165.369)" fill="#93b82c"/>
      <path id="Path_5940" data-name="Path 5940" d="M4056.26,4001.826a2.09,2.09,0,0,0,2.089-2.09,12.638,12.638,0,0,1,12.624-12.623,2.09,2.09,0,0,0,0-4.179,16.821,16.821,0,0,0-16.8,16.8A2.09,2.09,0,0,0,4056.26,4001.826Z" transform="translate(-14804.962 165.369)" fill="#93b82c"/>
      <path id="Path_5941" data-name="Path 5941" d="M4037.629,3861.759a2.089,2.089,0,0,0,2.17,2,12.638,12.638,0,0,1,13.111,12.115,2.09,2.09,0,0,0,4.176-.165,16.822,16.822,0,0,0-17.453-16.126A2.09,2.09,0,0,0,4037.629,3861.759Z" transform="translate(-14791.975 262.215)" fill="#93b82c"/>
      <path id="Path_5942" data-name="Path 5942" d="M4037.629,3912.347a2.09,2.09,0,0,0,2.17,2.006,12.637,12.637,0,0,1,13.111,12.115,2.09,2.09,0,0,0,4.176-.165,16.821,16.821,0,0,0-17.453-16.126A2.089,2.089,0,0,0,4037.629,3912.347Z" transform="translate(-14791.975 222.5)" fill="#93b82c"/>
      <path id="Path_5943" data-name="Path 5943" d="M4198.17,3982.354a2.09,2.09,0,0,1,2.089-2.09,16.822,16.822,0,0,1,16.8,16.8,2.09,2.09,0,1,1-4.179,0,12.637,12.637,0,0,0-12.623-12.623A2.09,2.09,0,0,1,4198.17,3982.354Z" transform="translate(-14918.012 167.465)" fill="#93b82c"/>
      <circle id="Ellipse_491" data-name="Ellipse 491" cx="6.349" cy="6.349" r="6.349" transform="translate(-10753.902 4098.199)" fill="#fff"/>
      <circle id="Ellipse_492" data-name="Ellipse 492" cx="6.349" cy="6.349" r="6.349" transform="translate(-10734.033 4098.199)" fill="#fff"/>
      <circle id="Ellipse_493" data-name="Ellipse 493" cx="4.072" cy="4.072" r="4.072" transform="translate(-10751.626 4100.476)"/>
      <circle id="Ellipse_494" data-name="Ellipse 494" cx="4.072" cy="4.072" r="4.072" transform="translate(-10731.757 4100.476)"/>
      <path id="Rectangle_2619" data-name="Rectangle 2619" d="M0,0H11.725a0,0,0,0,1,0,0V36.346a0,0,0,0,1,0,0h0A11.725,11.725,0,0,1,0,24.621V0A0,0,0,0,1,0,0Z" transform="translate(-10743.481 4118.077)" fill="#feb33e"/>
      <path id="Rectangle_2620" data-name="Rectangle 2620" d="M0,0H38.1A12.781,12.781,0,0,1,50.879,12.781v0A12.781,12.781,0,0,1,38.1,25.561H0a0,0,0,0,1,0,0V0A0,0,0,0,1,0,0Z" transform="translate(-10731.879 4128.862)" fill="#feb33e"/>
      <rect id="Rectangle_2621" data-name="Rectangle 2621" width="37.199" height="23.787" rx="11.893" transform="matrix(0.985, 0.174, -0.174, 0.985, -10573.711, 4113.823)" fill="#ffb33e"/>
      <path id="Path_5951" data-name="Path 5951" d="M5.387,8.721V0H0V10.533c0,1.406,1.475,2.546,3.294,2.546H6.91A2.092,2.092,0,0,0,9.225,10.9h0A2.092,2.092,0,0,0,6.91,8.721Z" transform="matrix(0.985, 0.174, -0.174, 0.985, -10559.709, 4152.329)" fill="#ffb33e"/>
      <path id="Path_5952" data-name="Path 5952" d="M4.7,7.716,8.766,0l4.765,2.511L9.465,10.226l-.845,1.6c-.655,1.244-2.491,1.565-4.1.716L2.446,11.453,1.32,10.86A2.093,2.093,0,0,1,.288,7.853h0a2.093,2.093,0,0,1,3.064-.847Z" transform="matrix(0.985, 0.174, -0.174, 0.985, -10574.092, 4149.823)" fill="#ffb33e"/>
      <path id="Path_5954" data-name="Path 5954" d="M17.529.52a1.958,1.958,0,0,1,0,2.512l-.565.645a10.693,10.693,0,0,1-16.508,0,1.958,1.958,0,0,1,0-2.512,1.425,1.425,0,0,1,2.2,0,7.841,7.841,0,0,0,12.1,0L15.327.52A1.425,1.425,0,0,1,17.529.52Z" transform="matrix(0.985, 0.174, -0.174, 0.985, -10583.115, 4135.583)" fill="#ffb33e"/>
      <path id="Path_5955" data-name="Path 5955" d="M10.14,0A5.07,5.07,0,0,1,5.07,5.07,5.07,5.07,0,0,1,0,0" transform="matrix(0.985, 0.174, -0.174, 0.985, -10568.41, 4123.337)" fill="#fff"/>
      <path id="Path_5957" data-name="Path 5957" d="M6.5,0A3.252,3.252,0,0,1,3.252,3.252,3.252,3.252,0,0,1,0,0" transform="matrix(0.985, 0.174, -0.174, 0.985, -10566.619, 4123.653)"/>
      <path id="Path_5959" data-name="Path 5959" d="M3.4,0,5.1,2.945,6.8,5.89H0L1.7,2.945Z" transform="matrix(0.985, 0.174, -0.174, 0.985, -10563.112, 4110.01)" fill="#59aac3"/>
      <path id="Rectangle_2622" data-name="Rectangle 2622" d="M17.109,0H20.09A17.109,17.109,0,0,1,37.2,17.109v0a0,0,0,0,1,0,0H0a0,0,0,0,1,0,0v0A17.109,17.109,0,0,1,17.109,0Z" transform="matrix(0.985, 0.174, -0.174, 0.985, -10577.842, 4137.249)" fill="#ef463a"/>
      <path id="Rectangle_2623" data-name="Rectangle 2623" d="M25.4,0h4.427a25.4,25.4,0,0,1,25.4,25.4v0a0,0,0,0,1,0,0H0a0,0,0,0,1,0,0v0A25.4,25.4,0,0,1,25.4,0Z" transform="matrix(0.985, 0.174, -0.174, 0.985, -10579.648, 4095.559)" fill="#ef463a"/>
      <path id="長方形_2665" data-name="長方形 2665" d="M3334.241,5357.693l-.225,3.2h0l-13.428-.941h0l.224-3.2a6.732,6.732,0,0,1,7.186-6.244h0A6.73,6.73,0,0,1,3334.241,5357.693Z" transform="translate(-13739.938 -1287.018)" fill="#1f2e7e"/>
      <path id="長方形_2666" data-name="長方形 2666" d="M3360.443,5359.532l-.225,3.2h0l-13.428-.942h0l.224-3.2a6.731,6.731,0,0,1,7.186-6.244h0A6.731,6.731,0,0,1,3360.443,5359.532Z" transform="translate(-13745.909 -1287.437)" fill="#1f2e7e"/>
      <g id="Group_3339" data-name="Group 3339">
        <path id="Path_5857-8" data-name="Path 5857" d="M5023.453,5128.466a9.431,9.431,0,0,1,8.167,14.142l-8.167,11.313-8.166-11.313a9.428,9.428,0,0,1,8.166-14.142Z" transform="translate(-15930.078 -1084.497)" fill="#93b82c"/>
        <rect id="長方形_1202" data-name="長方形 1202" width="150.585" height="69.221" transform="translate(-11005.918 3914.422)" fill="#59aac3"/>
        <rect id="長方形_1203" data-name="長方形 1203" width="19.049" height="19.049" transform="translate(-10897.823 4022.637)" fill="#f6ede8"/>
        <rect id="長方形_1204" data-name="長方形 1204" width="19.049" height="19.049" transform="translate(-10825.896 4022.637)" fill="#f6ede8"/>
        <rect id="長方形_1205" data-name="長方形 1205" width="19.049" height="19.049" transform="translate(-11041.678 4022.637)" fill="#f6ede8"/>
        <rect id="長方形_1206" data-name="長方形 1206" width="19.049" height="19.049" transform="translate(-10969.751 4022.637)" fill="#f6ede8"/>
        <rect id="長方形_1207" data-name="長方形 1207" width="15.414" height="69.221" transform="translate(-11005.918 3914.422)" fill="#1f2e7e"/>
        <rect id="長方形_1208" data-name="長方形 1208" width="15.414" height="69.221" transform="translate(-10961.395 3914.422)" fill="#1f2e7e"/>
        <rect id="長方形_1209" data-name="長方形 1209" width="15.414" height="69.221" transform="translate(-10915.271 3914.422)" fill="#1f2e7e"/>
        <rect id="長方形_1210" data-name="長方形 1210" width="15.414" height="69.221" transform="translate(-10870.747 3914.422)" fill="#1f2e7e"/>
        <path id="Rectangle_2418" data-name="Rectangle 2418" d="M14.775,0h0A14.775,14.775,0,0,1,29.55,14.775v.077a0,0,0,0,1,0,0H0a0,0,0,0,1,0,0v-.077A14.775,14.775,0,0,1,14.775,0Z" transform="translate(-11321.647 4115.741) rotate(-2)" fill="#1e9846"/>
        <path id="Path_5653" data-name="Path 5653" d="M-146.531,5899.9l3.359,5.816,3.359,5.817h-13.434l3.359-5.817Z" transform="translate(-11344.753 -1783.728) rotate(-2)" fill="#1e9846"/>
        <path id="Path_5654" data-name="Path 5654" d="M-128.16,5899.9l3.359,5.816,3.359,5.817h-13.434l3.359-5.817Z" transform="translate(-11349.687 -1783.556) rotate(-2)" fill="#1e9846"/>
        <path id="Path_5655" data-name="Path 5655" d="M-109.789,5899.9l3.359,5.816,3.359,5.817h-13.434l3.359-5.817Z" transform="translate(-11354.62 -1783.383) rotate(-2)" fill="#1e9846"/>
        <path id="Path_5656" data-name="Path 5656" d="M-91.418,5899.9l3.359,5.816,3.359,5.817H-98.135l3.359-5.817Z" transform="translate(-11359.555 -1783.211) rotate(-2)" fill="#1e9846"/>
        <path id="Rectangle_2419" data-name="Rectangle 2419" d="M0,0H83.286a0,0,0,0,1,0,0V0a23.4,23.4,0,0,1-23.4,23.4H0a0,0,0,0,1,0,0V0A0,0,0,0,1,0,0Z" transform="translate(-11321.13 4130.584) rotate(-2)" fill="#1e9846"/>
        <rect id="Rectangle_2420" data-name="Rectangle 2420" width="35.617" height="23.4" transform="matrix(0.035, 0.999, -0.999, 0.035, -11284.648, 4129.311)" fill="#1e9846"/>
        <rect id="Rectangle_2421" data-name="Rectangle 2421" width="35.617" height="23.4" transform="matrix(-0.999, 0.035, -0.035, -0.999, -11324, 4154.099)" fill="#1e9846"/>
        <rect id="Rectangle_2422" data-name="Rectangle 2422" width="35.617" height="23.4" transform="matrix(0.035, 0.999, -0.999, 0.035, -11311.733, 4130.256)" fill="#1e9846"/>
        <rect id="Rectangle_2423" data-name="Rectangle 2423" width="35.617" height="23.4" transform="matrix(0.035, 0.999, -0.999, 0.035, -11341.181, 4131.285)" fill="#1e9846"/>
        <path id="Rectangle_2424" data-name="Rectangle 2424" d="M0,0H30.179a0,0,0,0,1,0,0V22.177a0,0,0,0,1,0,0h-8A22.177,22.177,0,0,1,0,0V0A0,0,0,0,1,0,0Z" transform="translate(-11394.728 4133.154) rotate(-2)" fill="#1e9846"/>
        <path id="Path_5657" data-name="Path 5657" d="M-108.449,5926.233l-3.009-5.213-3.009-5.212h12.037l-3.009,5.212Z" transform="translate(-11355.317 -1787.636) rotate(-2)" fill="#fff"/>
        <path id="Path_5658" data-name="Path 5658" d="M-124.91,5926.233l-3.009-5.213-3.009-5.212h12.037l-3.009,5.212Z" transform="translate(-11350.896 -1787.791) rotate(-2)" fill="#fff"/>
        <path id="Path_5659" data-name="Path 5659" d="M-141.371,5926.233l-3.009-5.213-3.009-5.212h12.037l-3.009,5.212Z" transform="translate(-11346.476 -1787.945) rotate(-2)" fill="#fff"/>
        <path id="Path_5660" data-name="Path 5660" d="M-157.832,5926.233l-3.009-5.213-3.009-5.212h12.037l-3.009,5.212Z" transform="translate(-11342.055 -1788.1) rotate(-2)" fill="#fff"/>
        <path id="Path_5661" data-name="Path 5661" d="M-186.979,5912.022a10.3,10.3,0,0,1,10.3-10.3,10.3,10.3,0,0,1,10.3,10.3" transform="translate(-11335.711 -1784.532) rotate(-2)" fill="#fff"/>
        <path id="Path_5662" data-name="Path 5662" d="M-181.926,5913.38a6.608,6.608,0,0,1,6.609-6.608,6.609,6.609,0,0,1,6.609,6.608" transform="translate(-11337.115 -1785.842) rotate(-2)"/>
        <rect id="Rectangle_2425" data-name="Rectangle 2425" width="34.663" height="3.348" transform="translate(-11314.817 4162.652) rotate(-2)" fill="#1e9846"/>
        <rect id="Rectangle_2426" data-name="Rectangle 2426" width="26.749" height="3.348" transform="translate(-11363.44 4164.35) rotate(-2)" fill="#1e9846"/>
        <g id="Group_2761" data-name="Group 2761" transform="translate(-11283.716 4072.301) rotate(-2)">
          <path id="Path_5857-9" data-name="Path 5857" d="M5022.4,5128.466a8.377,8.377,0,0,0-7.254,12.562l7.254,10.049,7.254-10.049a8.373,8.373,0,0,0-7.254-12.562Z" transform="translate(-4999.786 -5128.466)" fill="#93b82c"/>
          <path id="Path_5858-10" data-name="Path 5858" d="M4994.63,5156.259a8.374,8.374,0,1,0,4.187,15.626l10.053-7.254-10.053-7.251A8.379,8.379,0,0,0,4994.63,5156.259Z" transform="translate(-4986.255 -5142.008)" fill="#93b82c"/>
          <path id="Path_5859-10" data-name="Path 5859" d="M5040.412,5157.355l-10.05,7.254,10.05,7.25a8.374,8.374,0,1,0,0-14.5Z" transform="translate(-5007.747 -5141.995)" fill="#93b82c"/>
        </g>
        <path id="Path_5860-7" data-name="Path 5860" d="M5022.146,5205.621a45.572,45.572,0,0,0,4.212-33.055" transform="translate(-16464.141 -899.887) rotate(-2)" fill="none" stroke="#93b82c" stroke-linecap="round" stroke-miterlimit="10" stroke-width="2"/>
        <rect id="Rectangle_2588" data-name="Rectangle 2588" width="5.035" height="17.739" rx="2.517" transform="matrix(0.844, 0.536, -0.536, 0.844, -11193.315, 4150.169)" fill="#ffb33e"/>
        <rect id="Rectangle_2589" data-name="Rectangle 2589" width="5.035" height="16.966" rx="2.517" transform="translate(-11188.247 4150.344)" fill="#ffb33e"/>
        <path id="Path_5914-2" data-name="Path 5914" d="M2830.215,3283.958a1.857,1.857,0,0,1,2.869,0,10.22,10.22,0,0,0,15.776,0,1.857,1.857,0,0,1,2.87,0,2.552,2.552,0,0,1,0,3.274,13.937,13.937,0,0,1-21.515,0A2.55,2.55,0,0,1,2830.215,3283.958Z" transform="translate(-14010.759 838.744)" fill="#ffb33e"/>
        <path id="Path_5915" data-name="Path 5915" d="M2763.549,3284.1a2.552,2.552,0,0,1,0,3.274l-.737.84a13.937,13.937,0,0,1-21.514,0,2.551,2.551,0,0,1,0-3.274,1.857,1.857,0,0,1,2.869,0,10.22,10.22,0,0,0,15.776,0l.737-.84A1.857,1.857,0,0,1,2763.549,3284.1Z" transform="translate(-13961.703 838.666)" fill="#ffb33e"/>
        <path id="Path_5916" data-name="Path 5916" d="M2773.471,3337.058a2.01,2.01,0,0,1-1.48,2.113l-.855.209a10.981,10.981,0,0,1-13.882-9.727,2.01,2.01,0,0,1,1.48-2.112,1.462,1.462,0,0,1,1.851,1.3,8.052,8.052,0,0,0,10.179,7.132l.855-.209A1.463,1.463,0,0,1,2773.471,3337.058Z" transform="translate(-13970.828 814.352)" fill="#ffb33e"/>
        <rect id="Rectangle_2590" data-name="Rectangle 2590" width="38.148" height="31.002" rx="10" transform="translate(-11208.681 4091.374)" fill="#ffb33e"/>
        <ellipse id="Ellipse_477" data-name="Ellipse 477" cx="14.121" cy="14.121" rx="14.121" ry="14.121" transform="translate(-11217.848 4076.461)" fill="#ffb33e"/>
        <ellipse id="Ellipse_478-2" data-name="Ellipse 478" cx="14.121" cy="14.121" rx="14.121" ry="14.121" transform="translate(-11189.605 4076.461)" fill="#ffb33e"/>
        <ellipse id="Ellipse_479" data-name="Ellipse 479" cx="4.819" cy="4.819" rx="4.819" ry="4.819" transform="translate(-11200.497 4102.056)" fill="#fff"/>
        <ellipse id="Ellipse_480" data-name="Ellipse 480" cx="4.819" cy="4.819" rx="4.819" ry="4.819" transform="translate(-11187.46 4102.056)" fill="#fff"/>
        <ellipse id="Ellipse_481" data-name="Ellipse 481" cx="3.091" cy="3.091" rx="3.091" ry="3.091" transform="translate(-11198.769 4103.785)"/>
        <ellipse id="Ellipse_482" data-name="Ellipse 482" cx="3.091" cy="3.091" rx="3.091" ry="3.091" transform="translate(-11185.731 4103.785)"/>
        <rect id="Rectangle_2591" data-name="Rectangle 2591" width="31.821" height="21.994" transform="translate(-11178.162 4122.024) rotate(90)" fill="#ef463a"/>
        <path id="Path_5917" data-name="Path 5917" d="M2810.952,3257.923a3.365,3.365,0,0,1-6.73,0" transform="translate(-13996.746 852.733)"/>
        <rect id="Rectangle_2588-2" data-name="Rectangle 2588" width="5.035" height="17.739" rx="2.517" transform="matrix(0.844, 0.536, -0.536, 0.844, -11130.858, 4150.169)" fill="#ffb33e"/>
        <rect id="Rectangle_2589-2" data-name="Rectangle 2589" width="5.035" height="16.966" rx="2.517" transform="translate(-11125.79 4150.344)" fill="#ffb33e"/>
        <path id="Path_5915-2" data-name="Path 5915" d="M2763.549,3284.1a2.552,2.552,0,0,1,0,3.274l-.737.84a13.937,13.937,0,0,1-21.514,0,2.551,2.551,0,0,1,0-3.274,1.857,1.857,0,0,1,2.869,0,10.22,10.22,0,0,0,15.776,0l.737-.84A1.857,1.857,0,0,1,2763.549,3284.1Z" transform="translate(-13899.246 838.666)" fill="#ffb33e"/>
        <path id="Path_5916-2" data-name="Path 5916" d="M2773.471,3337.058a2.01,2.01,0,0,1-1.48,2.113l-.855.209a10.981,10.981,0,0,1-13.882-9.727,2.01,2.01,0,0,1,1.48-2.112,1.462,1.462,0,0,1,1.851,1.3,8.052,8.052,0,0,0,10.179,7.132l.855-.209A1.463,1.463,0,0,1,2773.471,3337.058Z" transform="translate(-13908.371 814.352)" fill="#ffb33e"/>
        <rect id="Rectangle_2590-2" data-name="Rectangle 2590" width="38.148" height="31.002" rx="11" transform="translate(-11146.224 4091.374)" fill="#ffb33e"/>
        <ellipse id="Ellipse_477-2" data-name="Ellipse 477" cx="14.121" cy="14.121" rx="14.121" ry="14.121" transform="translate(-11155.391 4076.461)" fill="#ffb33e"/>
        <ellipse id="Ellipse_479-2" data-name="Ellipse 479" cx="4.819" cy="4.819" rx="4.819" ry="4.819" transform="translate(-11138.04 4102.056)" fill="#fff"/>
        <ellipse id="Ellipse_480-2" data-name="Ellipse 480" cx="4.819" cy="4.819" rx="4.819" ry="4.819" transform="translate(-11125.003 4102.056)" fill="#fff"/>
        <ellipse id="Ellipse_481-2" data-name="Ellipse 481" cx="3.091" cy="3.091" rx="3.091" ry="3.091" transform="translate(-11136.312 4103.785)"/>
        <ellipse id="Ellipse_482-2" data-name="Ellipse 482" cx="3.091" cy="3.091" rx="3.091" ry="3.091" transform="translate(-11123.274 4103.785)"/>
        <rect id="Rectangle_2591-2" data-name="Rectangle 2591" width="31.821" height="21.994" transform="translate(-11115.705 4122.024) rotate(90)" fill="#1f2e7e"/>
        <path id="Path_5917-2" data-name="Path 5917" d="M2810.952,3257.923a3.365,3.365,0,0,1-6.73,0" transform="translate(-13934.289 852.733)"/>
        <path id="Path_5857-10" data-name="Path 5857" d="M5024.429,5128.466a10.406,10.406,0,0,0-9.011,15.6l9.011,12.483,9.011-12.483a10.4,10.4,0,0,0-9.011-15.6Z" transform="translate(-16178.518 -1073.967)" fill="#93b82c"/>
        <path id="Path_5858-11" data-name="Path 5858" d="M4996.658,5156.259a10.4,10.4,0,1,0,5.2,19.411l12.488-9.011-12.488-9.006A10.4,10.4,0,0,0,4996.658,5156.259Z" transform="translate(-16168.435 -1084.058)" fill="#93b82c"/>
        <path id="Path_5859-11" data-name="Path 5859" d="M5042.845,5157.627l-12.484,9.01,12.484,9.007a10.4,10.4,0,1,0,0-18.017Z" transform="translate(-16184.449 -1084.049)" fill="#93b82c"/>
        <path id="Path_5860-8" data-name="Path 5860" d="M5022.146,5213.626a56.613,56.613,0,0,0,5.232-41.061" transform="translate(-16181.466 -1089.979)" fill="none" stroke="#93b82c" stroke-linecap="round" stroke-miterlimit="10" stroke-width="2"/>
        <path id="Path_5860-9" data-name="Path 5860" d="M0,60.84A71.931,71.931,0,0,0,12.347,32.458,65.155,65.155,0,0,0,10.12,0" transform="translate(-11415.317 4051.691) rotate(-7)" fill="none" stroke="#93b82c" stroke-linecap="round" stroke-miterlimit="10" stroke-width="2"/>
        <path id="Path_5858-12" data-name="Path 5858" d="M10.349,0a10.347,10.347,0,1,0,5.173,19.309l12.422-8.963L15.522,1.387A10.344,10.344,0,0,0,10.349,0Z" transform="matrix(0.966, -0.259, 0.259, 0.966, -11529.419, 4064.133)" fill="#93b82c"/>
        <path id="Path_5859-12" data-name="Path 5859" d="M12.418,1.388,0,10.351l12.418,8.96a10.348,10.348,0,1,0,0-17.922Z" transform="matrix(0.966, -0.259, 0.259, 0.966, -11502.432, 4056.884)" fill="#93b82c"/>
        <path id="Path_5860-10" data-name="Path 5860" d="M0,70.829A90.974,90.974,0,0,0,12.347,37.787,87.71,87.71,0,0,0,10.12,0" transform="matrix(0.978, -0.208, 0.208, 0.978, -11510.05, 4068.691)" fill="none" stroke="#93b82c" stroke-linecap="round" stroke-miterlimit="10" stroke-width="2"/>
        <path id="Path_5857-11" data-name="Path 5857" d="M5024.429,5128.466a10.406,10.406,0,0,1,9.011,15.6l-9.011,12.483-9.011-12.483a10.4,10.4,0,0,1,9.011-15.6Z" transform="translate(-15891.119 -931.98) rotate(-2)" fill="#93b82c"/>
        <path id="Path_5858-13" data-name="Path 5858" d="M5003.943,5156.259a10.4,10.4,0,1,1-5.2,19.411l-12.488-9.011,12.488-9.006A10.4,10.4,0,0,1,5003.943,5156.259Z" transform="translate(-15853.416 -943.395) rotate(-2)" fill="#93b82c"/>
        <path id="Path_5859-13" data-name="Path 5859" d="M5045.965,5157.627l12.484,9.01-12.484,9.007a10.4,10.4,0,1,1,0-18.017Z" transform="translate(-15925.376 -940.872) rotate(-2)" fill="#93b82c"/>
        <path id="Path_5860-11" data-name="Path 5860" d="M5.819,49.9A91.55,91.55,0,0,1,.478,26.62,99.41,99.41,0,0,1,1.442,0" transform="translate(-10354.049 4027.389) rotate(14)" fill="none" stroke="#93b82c" stroke-linecap="round" stroke-miterlimit="10" stroke-width="2"/>
        <path id="Path_5857-12" data-name="Path 5857" d="M8.649,0a8.65,8.65,0,0,1,7.49,12.971L8.649,23.348,1.159,12.971A8.647,8.647,0,0,1,8.649,0Z" transform="matrix(0.985, 0.174, -0.174, 0.985, -10581.873, 4046.933)" fill="#93b82c"/>
        <path id="Path_5860-12" data-name="Path 5860" d="M5030.867,5239.206c-2.838-6.551-7.927-19.6-9.506-33.507-1.747-15.383,1.275-25.6,2.779-33.133" transform="translate(-15544.156 -1110.684)" fill="none" stroke="#93b82c" stroke-linecap="round" stroke-miterlimit="10" stroke-width="2"/>
        <path id="Path_5860-13" data-name="Path 5860" d="M5030.867,5239.206c-2.838-6.551-7.927-19.6-9.506-33.507-1.747-15.383,1.275-25.6,2.779-33.133" transform="translate(-15468.156 -1129.684)" fill="none" stroke="#93b82c" stroke-linecap="round" stroke-miterlimit="10" stroke-width="2"/>
        <path id="Path_5857-13" data-name="Path 5857" d="M5024.429,5128.466a10.406,10.406,0,0,1,9.011,15.6l-9.011,12.483-9.011-12.483a10.4,10.4,0,0,1,9.011-15.6Z" transform="matrix(0.995, -0.105, 0.105, 0.995, -16312.516, -535.249)" fill="#93b82c"/>
        <rect id="Rectangle_2609" data-name="Rectangle 2609" width="4.087" height="8.774" transform="translate(-10644.543 4060.779) rotate(88)" fill="#feb33e"/>
        <rect id="Rectangle_2610" data-name="Rectangle 2610" width="4.087" height="8.774" transform="translate(-10644.236 4069.547) rotate(88)" fill="#feb33e"/>
        <rect id="Rectangle_2611" data-name="Rectangle 2611" width="4.087" height="8.774" transform="translate(-10627.077 4060.168) rotate(88)" fill="#feb33e"/>
        <rect id="Rectangle_2612" data-name="Rectangle 2612" width="4.087" height="8.774" transform="translate(-10626.771 4068.937) rotate(88)" fill="#feb33e"/>
        <path id="Path_5953" data-name="Path 5953" d="M.456.52a1.425,1.425,0,0,1,2.2,0,7.841,7.841,0,0,0,12.1,0,1.425,1.425,0,0,1,2.2,0,1.957,1.957,0,0,1,0,2.512,10.693,10.693,0,0,1-16.507,0A1.957,1.957,0,0,1,.456.52Z" transform="matrix(0.985, 0.174, -0.174, 0.985, -10552.987, 4140.845)" fill="#ffb33e"/>
        <path id="Path_5956" data-name="Path 5956" d="M10.14,0A5.07,5.07,0,0,1,5.07,5.07,5.07,5.07,0,0,1,0,0" transform="matrix(0.985, 0.174, -0.174, 0.985, -10555.242, 4125.659)" fill="#fff"/>
        <path id="Path_5958" data-name="Path 5958" d="M6.5,0A3.252,3.252,0,0,1,3.252,3.252,3.252,3.252,0,0,1,0,0" transform="matrix(0.985, 0.174, -0.174, 0.985, -10553.451, 4125.975)"/>
        <path id="Path_5960" data-name="Path 5960" d="M3.4,0,5.1,2.945,6.8,5.89H0L1.7,2.945Z" transform="matrix(0.985, 0.174, -0.174, 0.985, -10552.266, 4111.923)" fill="#59aac3"/>
        <path id="Rectangle_2624" data-name="Rectangle 2624" d="M13.624,0h0a0,0,0,0,1,0,0V0A13.624,13.624,0,0,1,0,13.624H0a0,0,0,0,1,0,0v0A13.624,13.624,0,0,1,13.624,0Z" transform="matrix(0.985, 0.174, -0.174, 0.985, -10550.841, 4086.805)" fill="#1e9846"/>
        <rect id="Rectangle_2625" data-name="Rectangle 2625" width="38.299" height="24.49" rx="12.245" transform="matrix(0.995, -0.105, 0.105, 0.995, -10512.076, 4102.75)" fill="#feb33e"/>
        <path id="Path_5961" data-name="Path 5961" d="M5.545,8.979V0H0V10.844c0,1.447,1.518,2.621,3.391,2.621H7.114A2.154,2.154,0,0,0,9.5,11.222h0A2.154,2.154,0,0,0,7.114,8.979Z" transform="matrix(0.995, -0.105, 0.105, 0.995, -10487.291, 4136.886)" fill="#feb33e"/>
        <path id="Path_5962" data-name="Path 5962" d="M4.839,7.943,9.025,0l4.906,2.585L9.744,10.529l-.87,1.65c-.675,1.281-2.565,1.611-4.222.738L2.518,11.791l-1.159-.611A2.154,2.154,0,0,1,.3,8.085h0a2.154,2.154,0,0,1,3.155-.873Z" transform="matrix(0.995, -0.105, 0.105, 0.995, -10502.235, 4138.487)" fill="#feb33e"/>
        <path id="Path_5963" data-name="Path 5963" d="M.47.536a1.467,1.467,0,0,1,2.267,0A8.072,8.072,0,0,0,15.2.536a1.467,1.467,0,0,1,2.267,0,2.014,2.014,0,0,1,0,2.586,11.009,11.009,0,0,1-17,0A2.015,2.015,0,0,1,.47.536Z" transform="matrix(0.995, -0.105, 0.105, 0.995, -10483.896, 4123.612)" fill="#feb33e"/>
        <path id="Path_5964" data-name="Path 5964" d="M18.047.536a2.016,2.016,0,0,1,0,2.586l-.582.664a11.01,11.01,0,0,1-17,0A2.015,2.015,0,0,1,.47,1.2a1.467,1.467,0,0,1,2.267,0A8.073,8.073,0,0,0,15.2,1.2L15.78.536A1.466,1.466,0,0,1,18.047.536Z" transform="matrix(0.995, -0.105, 0.105, 0.995, -10515.208, 4126.954)" fill="#feb33e"/>
        <path id="Path_5965" data-name="Path 5965" d="M10.44,0A5.22,5.22,0,0,1,5.22,5.22,5.22,5.22,0,0,1,0,0" transform="matrix(0.995, -0.105, 0.105, 0.995, -10504.129, 4110.662)" fill="#fff"/>
        <path id="Path_5966" data-name="Path 5966" d="M10.439,0A5.22,5.22,0,0,1,5.22,5.22,5.22,5.22,0,0,1,0,0" transform="matrix(0.995, -0.105, 0.105, 0.995, -10490.438, 4109.223)" fill="#fff"/>
        <path id="Path_5967" data-name="Path 5967" d="M6.7,0A3.348,3.348,0,0,1,3.348,3.348,3.348,3.348,0,0,1,0,0" transform="matrix(0.995, -0.105, 0.105, 0.995, -10502.268, 4110.466)"/>
        <path id="Path_5968" data-name="Path 5968" d="M6.7,0A3.348,3.348,0,0,1,3.348,3.348,3.348,3.348,0,0,1,0,0" transform="matrix(0.995, -0.105, 0.105, 0.995, -10488.576, 4109.027)"/>
        <path id="Path_5969" data-name="Path 5969" d="M3.5,0,5.252,3.032,7,6.064H0L1.75,3.032Z" transform="matrix(0.995, -0.105, 0.105, 0.995, -10502.668, 4095.969)" fill="#59aac3"/>
        <path id="Path_5970" data-name="Path 5970" d="M3.5,0,5.252,3.032,7,6.064H0L1.751,3.032Z" transform="matrix(0.995, -0.105, 0.105, 0.995, -10491.391, 4094.784)" fill="#59aac3"/>
        <path id="Rectangle_2626" data-name="Rectangle 2626" d="M17.615,0h3.069A17.615,17.615,0,0,1,38.3,17.615v0a0,0,0,0,1,0,0H0a0,0,0,0,1,0,0v0A17.615,17.615,0,0,1,17.615,0Z" transform="matrix(0.995, -0.105, 0.105, 0.995, -10509.581, 4126.49)" fill="#f086ab"/>
        <path id="Rectangle_2627" data-name="Rectangle 2627" d="M26.156,0h4.558A26.156,26.156,0,0,1,56.869,26.156v0a0,0,0,0,1,0,0H0a0,0,0,0,1,0,0v0A26.156,26.156,0,0,1,26.156,0Z" transform="matrix(0.995, -0.105, 0.105, 0.995, -10523.135, 4086.36)" fill="#f086ab"/>
        <path id="Rectangle_2628" data-name="Rectangle 2628" d="M14.027,0h0a0,0,0,0,1,0,0V0A14.027,14.027,0,0,1,0,14.027H0a0,0,0,0,1,0,0v0A14.027,14.027,0,0,1,14.027,0Z" transform="matrix(0.995, -0.105, 0.105, 0.995, -10497.108, 4069.52)" fill="#1e9846"/>
        <rect id="Rectangle_2788" data-name="Rectangle 2788" width="8.362" height="25.046" rx="4.181" transform="translate(-10329.149 4139.803)" fill="#feb33e"/>
        <rect id="Rectangle_2789" data-name="Rectangle 2789" width="8.362" height="25.046" rx="4.181" transform="matrix(0.914, -0.407, 0.407, 0.914, -10321.522, 4142.586)" fill="#feb33e"/>
        <path id="長方形_2652" data-name="長方形 2652" d="M3329.725,6274.548h0c17.864,0,32.346,13.137,32.346,29.342h0V6349.6h-64.692v-45.707c0-16.205,14.481-29.342,32.346-29.342Z" transform="translate(-13649.071 -2224.462)" fill="#feb33e"/>
        <path id="パス_5983" data-name="パス 5983" d="M3300.652,6338.873a3.317,3.317,0,0,0-2.435-4.009h0a18.256,18.256,0,0,1-13.39-22.042,3.318,3.318,0,1,0-6.426-1.654q-.01.04-.019.081a24.9,24.9,0,0,0,18.262,30.06A3.316,3.316,0,0,0,3300.652,6338.873Z" transform="translate(-13642.051 -2238.465)" fill="#feb33e"/>
        <ellipse id="楕円形_515" data-name="楕円形 515" cx="7.42" cy="7.42" rx="7.42" ry="7.42" transform="translate(-10315.631 4070.844)" fill="#fff"/>
        <ellipse id="楕円形_516" data-name="楕円形 516" cx="7.42" cy="7.42" rx="7.42" ry="7.42" transform="translate(-10337.852 4070.844)" fill="#fff"/>
        <ellipse id="楕円形_517" data-name="楕円形 517" cx="4.759" cy="4.759" rx="4.759" ry="4.759" transform="translate(-10312.989 4073.427)"/>
        <ellipse id="楕円形_518" data-name="楕円形 518" cx="4.759" cy="4.759" rx="4.759" ry="4.759" transform="translate(-10335.176 4073.427)"/>
        <g id="グループ_3157" data-name="グループ 3157" transform="translate(-10328.417 4079.874)">
          <ellipse id="楕円形_519" data-name="楕円形 519" cx="9.097" cy="9.097" rx="9.097" ry="9.097" fill="#1e9846"/>
          <line id="線_13" data-name="線 13" x1="16.727" transform="translate(0.666 9.097)" fill="none" stroke="#000" stroke-linecap="round" stroke-miterlimit="10" stroke-width="3.027"/>
        </g>
        <path id="Rectangle_2664" data-name="Rectangle 2664" d="M0,0H64.692a0,0,0,0,1,0,0V16.592A28.623,28.623,0,0,1,36.069,45.216H28.623A28.623,28.623,0,0,1,0,16.592V0A0,0,0,0,1,0,0Z" transform="translate(-10351.692 4108.003)" fill="#1e9846"/>
        <rect id="長方形_122" data-name="長方形 122" width="1.912" height="11.831" transform="translate(-10935.046 3608.621) rotate(-0.058)" fill="#2a8648"/>
        <rect id="長方形_127" data-name="長方形 127" width="1.912" height="11.831" transform="translate(-10941.467 3608.628) rotate(-0.058)" fill="#2a8648"/>
        <rect id="長方形_128" data-name="長方形 128" width="1.912" height="11.831" transform="translate(-10938.217 3608.625) rotate(-0.058)" fill="#2a8648"/>
        <rect id="長方形_122-2" data-name="長方形 122" width="1.912" height="11.831" transform="translate(-10935.046 3633.071) rotate(-0.058)" fill="#2a8648"/>
        <rect id="長方形_123" data-name="長方形 123" width="1.912" height="11.831" transform="translate(-10933.747 3637.302) rotate(-0.058)" fill="#2a8648"/>
        <rect id="長方形_124" data-name="長方形 124" width="1.912" height="11.831" transform="translate(-10930.5 3637.299) rotate(-0.058)" fill="#2a8648"/>
        <rect id="長方形_127-2" data-name="長方形 127" width="1.912" height="11.831" transform="translate(-10941.467 3633.077) rotate(-0.058)" fill="#2a8648"/>
        <rect id="長方形_128-2" data-name="長方形 128" width="1.912" height="11.831" transform="translate(-10938.217 3633.074) rotate(-0.058)" fill="#2a8648"/>
        <rect id="長方形_129" data-name="長方形 129" width="1.912" height="11.831" transform="translate(-10914.395 3637.282) rotate(-0.058)" fill="#2a8648"/>
        <rect id="長方形_130" data-name="長方形 130" width="1.912" height="11.831" transform="translate(-10911.223 3637.279) rotate(-0.058)" fill="#2a8648"/>
        <rect id="長方形_131" data-name="長方形 131" width="1.912" height="11.831" transform="translate(-10907.977 3637.276) rotate(-0.058)" fill="#2a8648"/>
        <rect id="長方形_132" data-name="長方形 132" width="1.912" height="11.831" transform="translate(-10904.742 3637.272) rotate(-0.058)" fill="#2a8648"/>
        <rect id="長方形_135" data-name="長方形 135" width="1.912" height="11.831" transform="translate(-10923.983 3637.292) rotate(-0.058)" fill="#2a8648"/>
        <rect id="長方形_136" data-name="長方形 136" width="1.912" height="11.831" transform="translate(-10920.813 3637.289) rotate(-0.058)" fill="#2a8648"/>
        <rect id="長方形_137" data-name="長方形 137" width="1.912" height="11.831" transform="translate(-10927.293 3637.295) rotate(-0.058)" fill="#2a8648"/>
        <rect id="長方形_138" data-name="長方形 138" width="1.912" height="11.831" transform="translate(-10917.565 3637.286) rotate(-0.058)" fill="#2a8648"/>
        <rect id="長方形_124-2" data-name="長方形 124" width="1.912" height="11.831" transform="translate(-10930.5 3608.635) rotate(-0.058)" fill="#2a8648"/>
        <rect id="長方形_129-2" data-name="長方形 129" width="1.912" height="11.831" transform="translate(-10914.395 3608.618) rotate(-0.058)" fill="#2a8648"/>
        <rect id="長方形_130-2" data-name="長方形 130" width="1.912" height="11.831" transform="translate(-10911.223 3608.615) rotate(-0.058)" fill="#2a8648"/>
        <rect id="長方形_131-2" data-name="長方形 131" width="1.912" height="11.831" transform="translate(-10907.977 3608.611) rotate(-0.058)" fill="#2a8648"/>
        <rect id="長方形_132-2" data-name="長方形 132" width="1.912" height="11.831" transform="translate(-10904.742 3608.608) rotate(-0.058)" fill="#2a8648"/>
        <rect id="長方形_135-2" data-name="長方形 135" width="1.912" height="11.831" transform="translate(-10923.983 3608.628) rotate(-0.058)" fill="#2a8648"/>
        <rect id="長方形_136-2" data-name="長方形 136" width="1.912" height="11.831" transform="translate(-10920.813 3608.625) rotate(-0.058)" fill="#2a8648"/>
        <rect id="長方形_137-2" data-name="長方形 137" width="1.912" height="11.831" transform="translate(-10927.293 3608.631) rotate(-0.058)" fill="#2a8648"/>
        <rect id="長方形_138-2" data-name="長方形 138" width="1.912" height="11.831" transform="translate(-10917.565 3608.621) rotate(-0.058)" fill="#2a8648"/>
        <rect id="長方形_122-3" data-name="長方形 122" width="2.132" height="13.192" transform="translate(-10879.759 3608.65) rotate(-0.058)" fill="#2a8648"/>
        <rect id="長方形_123-2" data-name="長方形 123" width="2.132" height="13.192" transform="translate(-10876.223 3608.646) rotate(-0.058)" fill="#2a8648"/>
        <rect id="長方形_124-3" data-name="長方形 124" width="2.132" height="13.192" transform="translate(-10872.603 3608.642) rotate(-0.058)" fill="#2a8648"/>
        <rect id="長方形_126" data-name="長方形 126" width="2.132" height="23.188" transform="matrix(1, -0.001, 0.001, 1, -10890.451, 3608.661)" fill="#2a8648"/>
        <rect id="長方形_127-3" data-name="長方形 127" width="2.132" height="13.192" transform="translate(-10886.918 3608.657) rotate(-0.058)" fill="#2a8648"/>
        <rect id="長方形_128-3" data-name="長方形 128" width="2.132" height="13.192" transform="translate(-10883.295 3608.653) rotate(-0.058)" fill="#2a8648"/>
        <rect id="長方形_129-3" data-name="長方形 129" width="2.132" height="13.192" transform="translate(-10854.644 3608.624) rotate(-0.058)" fill="#2a8648"/>
        <rect id="長方形_130-3" data-name="長方形 130" width="2.132" height="13.192" transform="translate(-10851.107 3608.621) rotate(-0.058)" fill="#2a8648"/>
        <rect id="長方形_131-3" data-name="長方形 131" width="2.132" height="13.192" transform="translate(-10847.487 3608.617) rotate(-0.058)" fill="#2a8648"/>
        <rect id="長方形_132-3" data-name="長方形 132" width="2.132" height="13.192" transform="translate(-10843.88 3608.613) rotate(-0.058)" fill="#2a8648"/>
        <rect id="長方形_135-3" data-name="長方形 135" width="2.132" height="13.192" transform="translate(-10865.336 3608.635) rotate(-0.058)" fill="#2a8648"/>
        <rect id="長方形_136-3" data-name="長方形 136" width="2.132" height="13.192" transform="translate(-10861.8 3608.632) rotate(-0.058)" fill="#2a8648"/>
        <rect id="長方形_137-3" data-name="長方形 137" width="2.132" height="13.192" transform="translate(-10869.026 3608.639) rotate(-0.058)" fill="#2a8648"/>
        <rect id="長方形_138-3" data-name="長方形 138" width="2.132" height="13.192" transform="translate(-10858.18 3608.628) rotate(-0.058)" fill="#2a8648"/>
        <rect id="長方形_122-4" data-name="長方形 122" width="2.132" height="13.192" transform="translate(-10879.759 3635.912) rotate(-0.058)" fill="#2a8648"/>
        <rect id="長方形_123-3" data-name="長方形 123" width="2.132" height="13.192" transform="translate(-10876.223 3635.909) rotate(-0.058)" fill="#2a8648"/>
        <rect id="長方形_124-4" data-name="長方形 124" width="2.132" height="13.192" transform="translate(-10872.603 3635.905) rotate(-0.058)" fill="#2a8648"/>
        <rect id="長方形_127-4" data-name="長方形 127" width="2.132" height="13.192" transform="translate(-10886.918 3635.92) rotate(-0.058)" fill="#2a8648"/>
        <rect id="長方形_128-4" data-name="長方形 128" width="2.132" height="13.192" transform="translate(-10883.295 3635.916) rotate(-0.058)" fill="#2a8648"/>
        <rect id="長方形_129-4" data-name="長方形 129" width="2.132" height="13.192" transform="translate(-10854.644 3635.887) rotate(-0.058)" fill="#2a8648"/>
        <rect id="長方形_130-4" data-name="長方形 130" width="2.132" height="13.192" transform="translate(-10851.107 3635.883) rotate(-0.058)" fill="#2a8648"/>
        <rect id="長方形_131-4" data-name="長方形 131" width="2.132" height="13.192" transform="translate(-10847.487 3635.88) rotate(-0.058)" fill="#2a8648"/>
        <rect id="長方形_132-4" data-name="長方形 132" width="2.132" height="13.192" transform="translate(-10843.88 3635.876) rotate(-0.058)" fill="#2a8648"/>
        <rect id="長方形_135-4" data-name="長方形 135" width="2.132" height="13.192" transform="translate(-10865.336 3635.898) rotate(-0.058)" fill="#2a8648"/>
        <rect id="長方形_136-4" data-name="長方形 136" width="2.132" height="13.192" transform="translate(-10861.8 3635.894) rotate(-0.058)" fill="#2a8648"/>
        <rect id="長方形_137-4" data-name="長方形 137" width="2.132" height="13.192" transform="translate(-10869.026 3635.901) rotate(-0.058)" fill="#2a8648"/>
        <rect id="長方形_138-4" data-name="長方形 138" width="2.132" height="13.192" transform="translate(-10858.18 3635.89) rotate(-0.058)" fill="#2a8648"/>
        <rect id="Rectangle_2720" data-name="Rectangle 2720" width="40.508" height="19.583" transform="translate(-10877.612 3608.604) rotate(90)" fill="#2a8648"/>
        <rect id="Rectangle_2721" data-name="Rectangle 2721" width="40.508" height="19.583" transform="translate(-10841.734 3608.604) rotate(90)" fill="#2a8648"/>
        <rect id="長方形_123-4" data-name="長方形 123" width="2.136" height="9.685" transform="translate(-11046.838 3608.605)" fill="#2a8648"/>
        <rect id="長方形_124-5" data-name="長方形 124" width="2.136" height="9.685" transform="translate(-11043.212 3608.602)" fill="#2a8648"/>
        <rect id="長方形_125" data-name="長方形 125" width="2.136" height="9.681" transform="translate(-11064.631 3608.618)" fill="#2a8648"/>
        <rect id="長方形_126-2" data-name="長方形 126" width="2.136" height="9.681" transform="translate(-11061.089 3608.615)" fill="#2a8648"/>
        <rect id="長方形_127-5" data-name="長方形 127" width="2.136" height="9.685" transform="translate(-11057.551 3608.613)" fill="#2a8648"/>
        <rect id="長方形_128-5" data-name="長方形 128" width="2.136" height="9.685" transform="translate(-11053.921 3608.61)" fill="#2a8648"/>
        <rect id="長方形_129-5" data-name="長方形 129" width="2.136" height="9.685" transform="translate(-11025.224 3608.589)" fill="#2a8648"/>
        <rect id="長方形_130-5" data-name="長方形 130" width="2.136" height="9.685" transform="translate(-11021.682 3608.586)" fill="#2a8648"/>
        <rect id="長方形_131-5" data-name="長方形 131" width="2.136" height="9.685" transform="translate(-11018.056 3608.583)" fill="#2a8648"/>
        <rect id="長方形_135-5" data-name="長方形 135" width="2.136" height="9.685" transform="translate(-11035.933 3608.597)" fill="#2a8648"/>
        <rect id="長方形_137-5" data-name="長方形 137" width="2.136" height="9.685" transform="translate(-11039.63 3608.6)" fill="#2a8648"/>
        <rect id="長方形_138-5" data-name="長方形 138" width="2.136" height="9.685" transform="translate(-11028.766 3608.591)" fill="#2a8648"/>
        <rect id="長方形_138-6" data-name="長方形 138" width="2.136" height="9.685" transform="translate(-11032.35 3608.591)" fill="#2a8648"/>
        <rect id="長方形_123-5" data-name="長方形 123" width="2.136" height="9.685" transform="translate(-11046.838 3639.469)" fill="#2a8648"/>
        <rect id="長方形_124-6" data-name="長方形 124" width="2.136" height="9.685" transform="translate(-11043.212 3639.466)" fill="#2a8648"/>
        <rect id="長方形_129-6" data-name="長方形 129" width="2.136" height="9.685" transform="translate(-11025.499 3639.453)" fill="#2a8648"/>
        <rect id="長方形_130-6" data-name="長方形 130" width="2.136" height="9.685" transform="translate(-11021.957 3639.45)" fill="#2a8648"/>
        <rect id="長方形_131-6" data-name="長方形 131" width="2.136" height="9.685" transform="translate(-11018.331 3639.448)" fill="#2a8648"/>
        <rect id="長方形_135-6" data-name="長方形 135" width="2.136" height="9.685" transform="translate(-11035.933 3639.461)" fill="#2a8648"/>
        <rect id="長方形_137-6" data-name="長方形 137" width="2.136" height="9.685" transform="translate(-11039.63 3639.464)" fill="#2a8648"/>
        <rect id="長方形_138-7" data-name="長方形 138" width="2.136" height="9.685" transform="translate(-11028.766 3639.456)" fill="#2a8648"/>
        <rect id="長方形_124-7" data-name="長方形 124" width="2.136" height="9.685" transform="translate(-11064.506 3639.465)" fill="#2a8648"/>
        <rect id="長方形_129-7" data-name="長方形 129" width="2.136" height="9.685" transform="translate(-11046.794 3639.453)" fill="#2a8648"/>
        <rect id="長方形_135-7" data-name="長方形 135" width="2.136" height="9.685" transform="translate(-11057.228 3639.46)" fill="#2a8648"/>
        <rect id="長方形_136-5" data-name="長方形 136" width="2.136" height="9.685" transform="translate(-11053.686 3639.457)" fill="#2a8648"/>
        <rect id="長方形_137-7" data-name="長方形 137" width="2.136" height="9.685" transform="translate(-11060.924 3639.462)" fill="#2a8648"/>
        <rect id="長方形_123-6" data-name="長方形 123" width="2.136" height="9.685" transform="translate(-11046.838 3624.018)" fill="#2a8648"/>
        <rect id="長方形_124-8" data-name="長方形 124" width="2.136" height="9.685" transform="translate(-11043.212 3624.015)" fill="#2a8648"/>
        <rect id="長方形_125-2" data-name="長方形 125" width="2.136" height="9.681" transform="translate(-11064.631 3624.031)" fill="#2a8648"/>
        <rect id="長方形_126-3" data-name="長方形 126" width="2.136" height="9.681" transform="translate(-11061.089 3624.028)" fill="#2a8648"/>
        <rect id="長方形_127-6" data-name="長方形 127" width="2.136" height="9.685" transform="translate(-11057.551 3624.025)" fill="#2a8648"/>
        <rect id="長方形_128-6" data-name="長方形 128" width="2.136" height="9.685" transform="translate(-11053.921 3624.023)" fill="#2a8648"/>
        <rect id="長方形_129-8" data-name="長方形 129" width="2.136" height="9.685" transform="translate(-11025.224 3624.001)" fill="#2a8648"/>
        <rect id="長方形_130-7" data-name="長方形 130" width="2.136" height="9.685" transform="translate(-11021.682 3623.999)" fill="#2a8648"/>
        <rect id="長方形_131-7" data-name="長方形 131" width="2.136" height="9.685" transform="translate(-11018.056 3623.996)" fill="#2a8648"/>
        <rect id="長方形_135-8" data-name="長方形 135" width="2.136" height="9.685" transform="translate(-11035.933 3624.009)" fill="#2a8648"/>
        <rect id="長方形_137-8" data-name="長方形 137" width="2.136" height="9.685" transform="translate(-11039.63 3624.012)" fill="#2a8648"/>
        <rect id="長方形_135-9" data-name="長方形 135" width="2.136" height="9.685" transform="translate(-11032.236 3639.461)" fill="#2a8648"/>
        <rect id="長方形_138-8" data-name="長方形 138" width="2.136" height="9.685" transform="translate(-11028.766 3624.004)" fill="#2a8648"/>
        <rect id="長方形_138-9" data-name="長方形 138" width="2.136" height="9.685" transform="translate(-11032.35 3624.004)" fill="#2a8648"/>
        <rect id="Rectangle_2722" data-name="Rectangle 2722" width="40.566" height="19.615" transform="translate(-11048.565 3608.58) rotate(90)" fill="#2a8648"/>
        <rect id="長方形_123-7" data-name="長方形 123" width="2.136" height="9.685" transform="translate(-10740.3 3608.6)" fill="#2a8648"/>
        <rect id="長方形_124-9" data-name="長方形 124" width="2.136" height="9.685" transform="translate(-10736.674 3608.597)" fill="#2a8648"/>
        <rect id="長方形_125-3" data-name="長方形 125" width="2.136" height="9.681" transform="translate(-10758.093 3608.614)" fill="#2a8648"/>
        <rect id="長方形_126-4" data-name="長方形 126" width="2.136" height="9.681" transform="translate(-10754.551 3608.611)" fill="#2a8648"/>
        <rect id="長方形_127-7" data-name="長方形 127" width="2.136" height="9.685" transform="translate(-10751.013 3608.608)" fill="#2a8648"/>
        <rect id="長方形_128-7" data-name="長方形 128" width="2.136" height="9.685" transform="translate(-10747.383 3608.605)" fill="#2a8648"/>
        <rect id="長方形_129-9" data-name="長方形 129" width="2.136" height="9.685" transform="translate(-10718.686 3608.584)" fill="#2a8648"/>
        <rect id="長方形_130-8" data-name="長方形 130" width="2.136" height="9.685" transform="translate(-10715.144 3608.582)" fill="#2a8648"/>
        <rect id="長方形_131-8" data-name="長方形 131" width="2.136" height="9.685" transform="translate(-10711.518 3608.579)" fill="#2a8648"/>
        <rect id="長方形_135-10" data-name="長方形 135" width="2.136" height="9.685" transform="translate(-10729.396 3608.592)" fill="#2a8648"/>
        <rect id="長方形_137-9" data-name="長方形 137" width="2.136" height="9.685" transform="translate(-10733.092 3608.595)" fill="#2a8648"/>
        <rect id="長方形_138-10" data-name="長方形 138" width="2.136" height="9.685" transform="translate(-10722.228 3608.586)" fill="#2a8648"/>
        <rect id="長方形_138-11" data-name="長方形 138" width="2.136" height="9.685" transform="translate(-10725.812 3608.586)" fill="#2a8648"/>
        <rect id="長方形_123-8" data-name="長方形 123" width="2.136" height="9.685" transform="translate(-10740.3 3639.464)" fill="#2a8648"/>
        <rect id="長方形_124-10" data-name="長方形 124" width="2.136" height="9.685" transform="translate(-10736.674 3639.462)" fill="#2a8648"/>
        <rect id="長方形_129-10" data-name="長方形 129" width="2.136" height="9.685" transform="translate(-10718.961 3639.448)" fill="#2a8648"/>
        <rect id="長方形_130-9" data-name="長方形 130" width="2.136" height="9.685" transform="translate(-10715.419 3639.446)" fill="#2a8648"/>
        <rect id="長方形_131-9" data-name="長方形 131" width="2.136" height="9.685" transform="translate(-10711.794 3639.443)" fill="#2a8648"/>
        <rect id="長方形_135-11" data-name="長方形 135" width="2.136" height="9.685" transform="translate(-10729.396 3639.456)" fill="#2a8648"/>
        <rect id="長方形_137-10" data-name="長方形 137" width="2.136" height="9.685" transform="translate(-10733.092 3639.459)" fill="#2a8648"/>
        <rect id="長方形_138-12" data-name="長方形 138" width="2.136" height="9.685" transform="translate(-10722.228 3639.451)" fill="#2a8648"/>
        <rect id="長方形_124-11" data-name="長方形 124" width="2.136" height="9.685" transform="translate(-10757.969 3639.46)" fill="#2a8648"/>
        <rect id="長方形_129-11" data-name="長方形 129" width="2.136" height="9.685" transform="translate(-10740.256 3639.448)" fill="#2a8648"/>
        <rect id="長方形_135-12" data-name="長方形 135" width="2.136" height="9.685" transform="translate(-10750.689 3639.455)" fill="#2a8648"/>
        <rect id="長方形_136-6" data-name="長方形 136" width="2.136" height="9.685" transform="translate(-10747.147 3639.452)" fill="#2a8648"/>
        <rect id="長方形_137-11" data-name="長方形 137" width="2.136" height="9.685" transform="translate(-10754.386 3639.458)" fill="#2a8648"/>
        <rect id="長方形_123-9" data-name="長方形 123" width="2.136" height="9.685" transform="translate(-10740.3 3624.013)" fill="#2a8648"/>
        <rect id="長方形_124-12" data-name="長方形 124" width="2.136" height="9.685" transform="translate(-10736.674 3624.01)" fill="#2a8648"/>
        <rect id="長方形_125-4" data-name="長方形 125" width="2.136" height="9.681" transform="translate(-10758.093 3624.026)" fill="#2a8648"/>
        <rect id="長方形_126-5" data-name="長方形 126" width="2.136" height="9.681" transform="translate(-10754.551 3624.023)" fill="#2a8648"/>
        <rect id="長方形_127-8" data-name="長方形 127" width="2.136" height="9.685" transform="translate(-10751.013 3624.021)" fill="#2a8648"/>
        <rect id="長方形_128-8" data-name="長方形 128" width="2.136" height="9.685" transform="translate(-10747.383 3624.018)" fill="#2a8648"/>
        <rect id="長方形_129-12" data-name="長方形 129" width="2.136" height="9.685" transform="translate(-10718.686 3623.997)" fill="#2a8648"/>
        <rect id="長方形_130-10" data-name="長方形 130" width="2.136" height="9.685" transform="translate(-10715.144 3623.994)" fill="#2a8648"/>
        <rect id="長方形_131-10" data-name="長方形 131" width="2.136" height="9.685" transform="translate(-10711.518 3623.991)" fill="#2a8648"/>
        <rect id="長方形_135-13" data-name="長方形 135" width="2.136" height="9.685" transform="translate(-10729.396 3624.005)" fill="#2a8648"/>
        <rect id="長方形_137-12" data-name="長方形 137" width="2.136" height="9.685" transform="translate(-10733.092 3624.007)" fill="#2a8648"/>
        <rect id="長方形_135-14" data-name="長方形 135" width="2.136" height="9.685" transform="translate(-10725.698 3639.456)" fill="#2a8648"/>
        <rect id="長方形_138-13" data-name="長方形 138" width="2.136" height="9.685" transform="translate(-10722.228 3624)" fill="#2a8648"/>
        <rect id="長方形_138-14" data-name="長方形 138" width="2.136" height="9.685" transform="translate(-10725.812 3624)" fill="#2a8648"/>
        <rect id="Rectangle_2723" data-name="Rectangle 2723" width="40.566" height="19.615" transform="translate(-10742.027 3608.575) rotate(90)" fill="#2a8648"/>
        <rect id="長方形_126-6" data-name="長方形 126" width="2.136" height="9.681" transform="translate(-11001.878 3608.615)" fill="#2a8648"/>
        <rect id="長方形_127-9" data-name="長方形 127" width="2.136" height="9.685" transform="translate(-10998.339 3608.613)" fill="#2a8648"/>
        <rect id="長方形_128-9" data-name="長方形 128" width="2.136" height="9.685" transform="translate(-10994.71 3608.61)" fill="#2a8648"/>
        <rect id="長方形_123-10" data-name="長方形 123" width="2.136" height="15.428" transform="translate(-10987.63 3633.722)" fill="#2a8648"/>
        <rect id="長方形_124-13" data-name="長方形 124" width="2.136" height="15.428" transform="translate(-10984.004 3633.72)" fill="#2a8648"/>
        <rect id="長方形_129-13" data-name="長方形 129" width="2.136" height="15.428" transform="translate(-10966.292 3633.709)" fill="#2a8648"/>
        <rect id="長方形_130-11" data-name="長方形 130" width="2.136" height="15.428" transform="translate(-10962.75 3633.707)" fill="#2a8648"/>
        <rect id="長方形_131-11" data-name="長方形 131" width="2.136" height="15.428" transform="translate(-10959.124 3633.705)" fill="#2a8648"/>
        <rect id="長方形_135-15" data-name="長方形 135" width="2.136" height="15.428" transform="translate(-10976.726 3633.715)" fill="#2a8648"/>
        <rect id="長方形_137-13" data-name="長方形 137" width="2.136" height="15.428" transform="translate(-10980.422 3633.718)" fill="#2a8648"/>
        <rect id="長方形_138-15" data-name="長方形 138" width="2.136" height="15.428" transform="translate(-10969.558 3633.711)" fill="#2a8648"/>
        <rect id="長方形_129-14" data-name="長方形 129" width="2.136" height="15.428" transform="translate(-10987.586 3633.696)" fill="#2a8648"/>
        <rect id="長方形_135-16" data-name="長方形 135" width="2.136" height="9.685" transform="translate(-10998.017 3639.46)" fill="#2a8648"/>
        <rect id="長方形_136-7" data-name="長方形 136" width="2.136" height="9.685" transform="translate(-10994.475 3639.457)" fill="#2a8648"/>
        <rect id="長方形_137-14" data-name="長方形 137" width="2.136" height="9.685" transform="translate(-11001.713 3639.462)" fill="#2a8648"/>
        <rect id="長方形_126-7" data-name="長方形 126" width="2.136" height="9.681" transform="translate(-11001.878 3624.028)" fill="#2a8648"/>
        <rect id="長方形_127-10" data-name="長方形 127" width="2.136" height="9.685" transform="translate(-10998.339 3624.025)" fill="#2a8648"/>
        <rect id="長方形_128-10" data-name="長方形 128" width="2.136" height="9.685" transform="translate(-10994.71 3624.023)" fill="#2a8648"/>
        <rect id="長方形_135-17" data-name="長方形 135" width="2.136" height="15.428" transform="translate(-10973.029 3633.718)" fill="#2a8648"/>
        <rect id="Rectangle_2724" data-name="Rectangle 2724" width="40.566" height="19.615" transform="translate(-10989.354 3608.58) rotate(90)" fill="#2a8648"/>
        <rect id="Rectangle_2725" data-name="Rectangle 2725" width="40.566" height="19.615" transform="translate(-10931.659 3608.58) rotate(90)" fill="#2a8648"/>
        <g id="Group_3199" data-name="Group 3199" transform="translate(-11104.891 3608.642)" clip-path="url(#clip-path)">
          <path id="Path_6249" data-name="Path 6249" d="M513.248,2074.541l0-2.134,31.544-.032,0,2.136Zm.019,17.794,0-2.134,31.544-.032,0,2.136Zm0-3.538,0-2.136,31.544-.03,0,2.134Zm0-3.542,0-2.136,31.542-.031,0,2.136Zm0-3.54,0-2.136,31.544-.033,0,2.136Zm0-3.631,0-2.136,31.544-.031,0,2.136Zm-.017-17.793,0-2.136,31.544-.031,0,2.136Zm0-3.537,0-2.136,31.544-.032,0,2.136Zm0-3.629,0-2.136,31.544-.033,0,2.136Zm.02,17.88,0-2.136,31.544-.031,0,2.134Zm0-3.542,0-2.136,31.544-.031,0,2.136Zm0-3.629,0-2.136,31.544-.03,0,2.134Zm-.028-28.7,0-2.136,31.544-.033,0,2.136Zm0-3.542,0-2.136,31.544-.032,0,2.136Zm0-3.627,0-2.136,31.544-.03,0,2.136Zm0-3.611,0-2.136,31.544-.032,0,2.136Zm0-3.542,0-2.136,31.544-.033,0,2.136Zm0-3.629,0-2.136,31.544-.033,0,2.136Zm.03,28.664,0-2.136,31.544-.032,0,2.136Zm0-3.542,0-2.136,31.544-.032,0,2.136Zm.009,7.234,0-2.136,31.542-.03,0,2.136Zm-.011-10.863,0-2.136,31.544-.032,0,2.136Z" transform="translate(-513.982 -2036.494)" fill="#2a8648"/>
        </g>
        <g id="Group_3201" data-name="Group 3201" transform="translate(-11131.62 3608.642)" clip-path="url(#clip-path-2)">
          <path id="Path_6250" data-name="Path 6250" d="M500.91,2074.541l0-2.134,31.544-.032,0,2.136Zm.02,17.794,0-2.134,31.541-.032,0,2.136Zm0-3.538,0-2.136,31.544-.03,0,2.134Zm0-3.542,0-2.136,31.544-.031,0,2.136Zm0-3.54,0-2.136,31.542-.033,0,2.136Zm0-3.631,0-2.136,31.544-.031,0,2.136Zm-.017-17.793,0-2.136,31.542-.031,0,2.136Zm0-3.537,0-2.136,31.544-.032,0,2.136Zm0-3.629,0-2.136,31.544-.033,0,2.136Zm.02,17.88,0-2.136,31.542-.031,0,2.134Zm0-3.542,0-2.136,31.544-.031,0,2.136Zm0-3.629,0-2.136,31.544-.03,0,2.134Zm-.028-28.7,0-2.136,31.542-.033,0,2.136Zm0-3.542,0-2.136,31.544-.032,0,2.136Zm0-3.627,0-2.136,31.544-.03,0,2.136Zm0-3.611,0-2.136,31.541-.032,0,2.136Zm0-3.542,0-2.136,31.544-.033,0,2.136Zm0-3.629,0-2.136,31.544-.033,0,2.136Zm.03,28.664,0-2.136,31.541-.032,0,2.136Zm0-3.542,0-2.136,31.544-.032,0,2.136Zm.007,7.234,0-2.136,31.544-.03,0,2.136Zm-.011-10.863,0-2.136,31.544-.032,0,2.136Z" transform="translate(-501.644 -2036.494)" fill="#2a8648"/>
        </g>
        <path id="Path_6251" data-name="Path 6251" d="M525.432,2024.917H507.714L520,2065.425h17.717Z" transform="translate(-11625.256 1583.696)" fill="#2a8648"/>
        <path id="Path_6252" data-name="Path 6252" d="M513.219,2024.917H495.5l12.283,40.508H525.5Z" transform="translate(-11639.502 1583.696)" fill="#2a8648"/>
        <g id="Group_3203" data-name="Group 3203" transform="translate(-10835.769 3608.585)" clip-path="url(#clip-path-3)">
          <path id="Path_6253" data-name="Path 6253" d="M669.005,2035.623l0,2.136-31.542.032,0-2.136Zm-.017-17.793,0,2.136-31.544.033,0-2.136Zm0,3.54,0,2.136-31.544.03,0-2.136Zm0,3.542,0,2.134-31.542.032,0-2.136Zm0,3.54,0,2.136-31.544.033,0-2.136Zm0,3.631,0,2.134-31.544.033,0-2.136Zm.017,17.793,0,2.134-31.544.032,0-2.136Zm0,3.538,0,2.136-31.544.031,0-2.134Zm0,3.629,0,2.136-31.544.032,0-2.136Zm-.02-17.88,0,2.136-31.544.03,0-2.136Zm0,3.542,0,2.134-31.544.032,0-2.136Zm0,3.629,0,2.136-31.544.03,0-2.136Zm.028,28.7,0,2.136-31.544.033,0-2.136Zm0,3.542,0,2.136-31.544.033,0-2.136Zm0,3.627,0,2.136-31.541.03,0-2.136Zm0,3.611,0,2.136-31.544.032,0-2.135Zm0,3.542,0,2.136-31.544.032,0-2.136Zm0,3.629,0,2.136-31.544.032,0-2.136Zm-.03-28.665,0,2.136-31.544.032,0-2.136Zm0,3.542,0,2.136-31.544.032,0-2.136Zm-.009-7.234,0,2.134-31.544.032,0-2.136Zm.011,10.863,0,2.136-31.542.032,0-2.136Z" transform="translate(-638.163 -2033.156)" fill="#2a8648"/>
        </g>
        <g id="Group_3205" data-name="Group 3205" transform="translate(-10809.038 3608.585)" clip-path="url(#clip-path-4)">
          <path id="Path_6254" data-name="Path 6254" d="M681.345,2035.623l0,2.136-31.544.032,0-2.136Zm-.02-17.793,0,2.136-31.544.033,0-2.136Zm0,3.54,0,2.136-31.544.03,0-2.136Zm0,3.542,0,2.134-31.544.032,0-2.136Zm0,3.54,0,2.136-31.544.033,0-2.136Zm0,3.631,0,2.134-31.544.033,0-2.136Zm.017,17.793,0,2.134-31.541.032,0-2.136Zm0,3.538,0,2.136-31.544.031,0-2.134Zm0,3.629,0,2.136-31.544.032,0-2.136Zm-.02-17.88,0,2.136-31.542.03,0-2.136Zm0,3.542,0,2.134-31.544.032,0-2.136Zm0,3.629,0,2.136-31.544.03,0-2.136Zm.028,28.7,0,2.136-31.542.033,0-2.136Zm0,3.542,0,2.136-31.544.033,0-2.136Zm0,3.627,0,2.136-31.544.03,0-2.136Zm0,3.611,0,2.136-31.542.032,0-2.135Zm0,3.542,0,2.136-31.544.032,0-2.136Zm0,3.629,0,2.136-31.544.032,0-2.136Zm-.03-28.665,0,2.136-31.544.032,0-2.136Zm0,3.542,0,2.136-31.544.032,0-2.136Zm-.009-7.234,0,2.134-31.541.032,0-2.136Zm.013,10.863,0,2.136-31.544.032,0-2.136Z" transform="translate(-650.501 -2033.156)" fill="#2a8648"/>
        </g>
        <path id="Path_6255" data-name="Path 6255" d="M655.949,2065.429h17.717l-12.283-40.508H643.666Z" transform="translate(-11466.674 1583.701)" fill="#2a8648"/>
        <path id="Path_6256" data-name="Path 6256" d="M668.161,2065.429h17.717L673.6,2024.921H655.879Z" transform="translate(-11452.429 1583.701)" fill="#2a8648"/>
        <rect id="Rectangle_2758" data-name="Rectangle 2758" width="54.212" height="33.08" transform="translate(-11467.163 4084.602) rotate(3)" fill="#f086ab"/>
        <path id="Path_6301" data-name="Path 6301" d="M-675.425,1151.95l13.553,16.54,13.553,16.54h-54.212l13.553-16.54Z" transform="translate(-10705.307 2970.999) rotate(3)" fill="#fffcf3"/>
        <path id="Path_6302" data-name="Path 6302" d="M-679.527,1166.38a7.994,7.994,0,0,1-7.994,7.994,7.994,7.994,0,0,1-7.993-7.994" transform="translate(-10705.307 2970.999) rotate(3)" fill="#fff"/>
        <path id="Path_6303" data-name="Path 6303" d="M-693.34,1225.214a7.993,7.993,0,0,1-11.05-2.387A7.993,7.993,0,0,1-702,1211.778" transform="translate(-10705.307 2970.999) rotate(3)"/>
        <path id="Path_6304" data-name="Path 6304" d="M-655.173,1166.38a7.994,7.994,0,0,1-7.993,7.994,7.994,7.994,0,0,1-7.994-7.994" transform="translate(-10705.307 2970.999) rotate(3)" fill="#fff"/>
        <path id="Path_6305" data-name="Path 6305" d="M-682.394,1166.38a5.126,5.126,0,0,1-5.127,5.127,5.126,5.126,0,0,1-5.126-5.127" transform="translate(-10705.307 2970.999) rotate(3)"/>
        <path id="Path_6306" data-name="Path 6306" d="M-658.039,1166.38a5.127,5.127,0,0,1-5.127,5.127,5.126,5.126,0,0,1-5.127-5.127" transform="translate(-10705.307 2970.999) rotate(3)"/>
        <path id="Path_6307" data-name="Path 6307" d="M-695.514,1140.022l3.443,5.964,3.443,5.964H-702.4l3.443-5.964Z" transform="translate(-10705.307 2970.999) rotate(3)"/>
        <path id="Path_6308" data-name="Path 6308" d="M-655.173,1140.022l3.443,5.964,3.443,5.964H-662.06l3.443-5.964Z" transform="translate(-10705.307 2970.999) rotate(3)"/>
        <path id="Path_6309" data-name="Path 6309" d="M-670.239,1171.2a5.185,5.185,0,0,1-5.186,5.185,5.185,5.185,0,0,1-5.186-5.185" transform="translate(-10705.307 2970.999) rotate(3)" fill="#f086ab"/>
        <path id="Path_6310" data-name="Path 6310" d="M-662.077,1167.77" transform="translate(-10705.307 2970.999) rotate(3)" fill="#f086ab"/>
        <path id="Path_6311" data-name="Path 6311" d="M-672.133,1191.315l-19.273.025a14.238,14.238,0,0,0-10.129,4.211,14.234,14.234,0,0,0-4.184,10.139l0,1.338a2.607,2.607,0,0,1-2.6,2.61h0a2.607,2.607,0,0,1-2.607-2.6l0-1.339a19.414,19.414,0,0,1,5.707-13.827,19.416,19.416,0,0,1,13.813-5.743l19.273-.025" transform="translate(-10705.307 2970.999) rotate(3)" fill="#f086ab"/>
        <path id="Path_6312" data-name="Path 6312" d="M-677.439,1192.2l19.272-.024a14.235,14.235,0,0,0,10.129-4.211,14.238,14.238,0,0,0,4.185-10.139l0-1.339a2.607,2.607,0,0,1,2.6-2.61h0a2.607,2.607,0,0,1,2.607,2.6v1.338a19.415,19.415,0,0,1-5.707,13.828,19.413,19.413,0,0,1-13.813,5.742l-19.272.025" transform="translate(-10705.307 2970.999) rotate(3)" fill="#f086ab"/>
        <path id="Path_6313" data-name="Path 6313" d="M-684.394,1235.379h0a2.808,2.808,0,0,1-2.808-2.808v-13.437h7.07l-1.469,13.736A2.808,2.808,0,0,1-684.394,1235.379Z" transform="translate(-10705.307 2970.999) rotate(3)" fill="#f086ab"/>
        <path id="Path_6314" data-name="Path 6314" d="M-666.423,1235.592h0a2.807,2.807,0,0,1-2.792-2.509l-1.47-13.736h7.07v13.437A2.808,2.808,0,0,1-666.423,1235.592Z" transform="translate(-10705.307 2970.999) rotate(3)" fill="#f086ab"/>
        <path id="Rectangle_2759" data-name="Rectangle 2759" d="M0,0H54.244a0,0,0,0,1,0,0V24.148A19.979,19.979,0,0,1,34.265,44.127H19.979A19.979,19.979,0,0,1,0,24.148V0A0,0,0,0,1,0,0Z" transform="translate(-11468.895 4117.637) rotate(3)" fill="#f086ab"/>
        <circle id="Ellipse_596" data-name="Ellipse 596" cx="17.171" cy="17.171" r="17.171" transform="translate(-11459.129 4121.142) rotate(3)" fill="#fffcf3"/>
        <path id="Path_6522" data-name="Path 6522" d="M19.4,2.6a2.051,2.051,0,0,1-2.242,2.241,11.287,11.287,0,0,0-12.32,12.32A2.052,2.052,0,0,1,2.6,19.4,2.818,2.818,0,0,1,.039,16.842a15.394,15.394,0,0,1,16.8-16.8A2.819,2.819,0,0,1,19.4,2.6Z" transform="matrix(0.982, 0.191, -0.191, 0.982, -11560.613, 4138.275)" fill="#1f2e7e"/>
        <path id="Path_6523" data-name="Path 6523" d="M19.4,2.6a2.051,2.051,0,0,1-2.241,2.242A11.287,11.287,0,0,0,4.837,17.158,2.051,2.051,0,0,1,2.6,19.4,2.818,2.818,0,0,1,.039,16.842a15.394,15.394,0,0,1,16.8-16.8A2.818,2.818,0,0,1,19.4,2.6Z" transform="matrix(0.982, 0.191, -0.191, 0.982, -11544.75, 4147.012)" fill="#1f2e7e"/>
        <path id="Path_6524" data-name="Path 6524" d="M19.4,2.6a2.051,2.051,0,0,1-2.241,2.242A11.287,11.287,0,0,0,4.838,17.158,2.051,2.051,0,0,1,2.6,19.4,2.818,2.818,0,0,1,.039,16.842a15.394,15.394,0,0,1,16.8-16.8A2.818,2.818,0,0,1,19.4,2.6Z" transform="matrix(0.982, 0.191, -0.191, 0.982, -11537.521, 4148.417)" fill="#1f2e7e"/>
        <path id="Path_6525" data-name="Path 6525" d="M.005,2.6a2.051,2.051,0,0,0,2.24,2.242,11.287,11.287,0,0,1,12.321,12.32A2.051,2.051,0,0,0,16.809,19.4a2.818,2.818,0,0,0,2.556-2.557A15.394,15.394,0,0,0,2.562.039,2.818,2.818,0,0,0,.005,2.6Z" transform="matrix(0.982, 0.191, -0.191, 0.982, -11534.214, 4149.06)" fill="#1f2e7e"/>
        <path id="Path_6526" data-name="Path 6526" d="M.005,2.6a2.051,2.051,0,0,0,2.24,2.242,11.287,11.287,0,0,1,12.321,12.32A2.051,2.051,0,0,0,16.808,19.4a2.818,2.818,0,0,0,2.557-2.557A15.393,15.393,0,0,0,2.562.039,2.818,2.818,0,0,0,.005,2.6Z" transform="matrix(0.982, 0.191, -0.191, 0.982, -11541.501, 4147.644)" fill="#1f2e7e"/>
        <path id="Path_6527" data-name="Path 6527" d="M20.664.114a2.819,2.819,0,0,1,1.854,3.1L22.3,4.432A15.393,15.393,0,0,1,1.9,16.618a2.818,2.818,0,0,1-1.854-3.1,2.051,2.051,0,0,1,2.721-1.626A11.286,11.286,0,0,0,17.72,2.953l.222-1.214A2.051,2.051,0,0,1,20.664.114Z" transform="matrix(0.982, 0.191, -0.191, 0.982, -11514.592, 4133.689)" fill="#1f2e7e"/>
        <path id="Path_6528" data-name="Path 6528" d="M5.8,6.579V19.747H13.93V3.843C13.93,1.721,11.7,0,8.957,0H3.5A3.159,3.159,0,0,0,0,3.289H0a3.16,3.16,0,0,0,3.5,3.29Z" transform="matrix(0.982, 0.191, -0.191, 0.982, -11534.903, 4086.85)" fill="#ef463a"/>
        <path id="Path_6529" data-name="Path 6529" d="M8.133,6.579V19.747H0V3.843C0,1.721,2.227,0,4.973,0h5.46a3.159,3.159,0,0,1,3.5,3.288h0a3.16,3.16,0,0,1-3.5,3.29Z" transform="matrix(0.982, 0.191, -0.191, 0.982, -11515.916, 4090.541)" fill="#ef463a"/>
        <rect id="Rectangle_2779" data-name="Rectangle 2779" width="59.91" height="45.381" rx="22.691" transform="matrix(0.982, 0.191, -0.191, 0.982, -11550.43, 4096.651)" fill="#ffb33e"/>
        <path id="Path_6530" data-name="Path 6530" d="M18.242,0A9.121,9.121,0,0,1,9.121,9.12,9.121,9.121,0,0,1,0,0" transform="matrix(0.982, 0.191, -0.191, 0.982, -11547.421, 4115.992)" fill="#fff"/>
        <path id="Path_6531" data-name="Path 6531" d="M12.123,0A6.062,6.062,0,0,1,6.061,6.062,6.062,6.062,0,0,1,0,0" transform="matrix(0.982, 0.191, -0.191, 0.982, -11544.189, 4116.513)"/>
        <path id="Path_6532" data-name="Path 6532" d="M18.242,0A9.121,9.121,0,0,1,9.121,9.121,9.121,9.121,0,0,1,0,0" transform="matrix(0.982, 0.191, -0.191, 0.982, -11519.94, 4121.28)" fill="#fff"/>
        <path id="Path_6533" data-name="Path 6533" d="M11.7,0A5.851,5.851,0,0,1,5.85,5.85,5.85,5.85,0,0,1,0,0" transform="matrix(0.982, 0.191, -0.191, 0.982, -11516.729, 4121.905)"/>
        <path id="Path_6534" data-name="Path 6534" d="M16.205,32.409a16.2,16.2,0,1,1,16.2-16.2A16.223,16.223,0,0,1,16.205,32.409Zm0-26.076a9.872,9.872,0,1,0,9.871,9.872A9.883,9.883,0,0,0,16.205,6.333Z" transform="matrix(0.982, 0.191, -0.191, 0.982, -11551.623, 4101.96)" fill="#1e9846"/>
        <path id="Rectangle_2780" data-name="Rectangle 2780" d="M0,0H35.661a0,0,0,0,1,0,0V.167A17.831,17.831,0,0,1,17.831,18h0A17.831,17.831,0,0,1,0,.167V0A0,0,0,0,1,0,0Z" transform="matrix(0.982, 0.191, -0.191, 0.982, -11546.643, 4140.99)" fill="#1f2e7e"/>
        <path id="Path_6535" data-name="Path 6535" d="M16.2,32.409a16.2,16.2,0,1,1,16.2-16.2A16.223,16.223,0,0,1,16.2,32.409Zm0-26.076a9.872,9.872,0,1,0,9.872,9.872A9.883,9.883,0,0,0,16.2,6.333Z" transform="matrix(0.982, 0.191, -0.191, 0.982, -11524.473, 4107.239)" fill="#1e9846"/>
        <path id="Rectangle_2781" data-name="Rectangle 2781" d="M0,0H7.916a0,0,0,0,1,0,0V7.56a3.958,3.958,0,0,1-3.958,3.958h0A3.958,3.958,0,0,1,0,7.56V0A0,0,0,0,1,0,0Z" transform="matrix(0.982, 0.191, -0.191, 0.982, -11531.991, 4137.623)" fill="#ef463a"/>
        <path id="長方形_2667" data-name="長方形 2667" d="M3359.539,5380.69h0a16.866,16.866,0,0,1-18,15.645l-18.97-1.332a16.865,16.865,0,0,1-15.645-18h0a16.866,16.866,0,0,1,18-15.645l18.97,1.331A16.866,16.866,0,0,1,3359.539,5380.69Z" transform="translate(-13736.815 -1289.483)" fill="#1f2e7e"/>
        <path id="パス_5987" data-name="パス 5987" d="M3343.1,5388.2a3.76,3.76,0,1,1-7.5-.527" transform="translate(-13743.356 -1295.489)"/>
        <path id="パス_5988" data-name="パス 5988" d="M3335.525,5395.268l1.774-1.2,1.774-1.2,1.591,1.436,1.589,1.435" transform="translate(-13743.343 -1296.673)" fill="none" stroke="#000" stroke-linecap="round" stroke-miterlimit="10.005" stroke-width="1.984"/>
        <path id="長方形_2668" data-name="長方形 2668" d="M3349.032,5401.281l-3.27,46.62h0l-13.34-.935h0a14.675,14.675,0,0,1-13.612-15.666l2.243-31.98h0l27.979,1.962Z" transform="translate(-13739.525 -1298.143)" fill="#1f2e7e"/>
        <path id="長方形_2669" data-name="長方形 2669" d="M3361.055,5438.183a6.011,6.011,0,0,1,5.575,6.417l-.07,1h0a12.022,12.022,0,0,1-12.833,11.151h0l.912-13h0a6.01,6.01,0,0,1,6.417-5.576Z" transform="translate(-13747.489 -1306.995)" fill="#1f2e7e"/>
        <path id="長方形_2670" data-name="長方形 2670" d="M3342.01,5457.345l6.456,11.944a3.4,3.4,0,0,1-1.375,4.611h0a3.4,3.4,0,0,1-4.612-1.376l-6.456-11.943a3.4,3.4,0,0,1,1.375-4.611h0A3.4,3.4,0,0,1,3342.01,5457.345Z" transform="translate(-13743.362 -1310.958)" fill="#1f2e7e"/>
        <path id="長方形_2671" data-name="長方形 2671" d="M3330.336,5457l-.95,13.544a3.4,3.4,0,0,1-3.632,3.156h0a3.4,3.4,0,0,1-3.156-3.633l.95-13.544a3.4,3.4,0,0,1,3.631-3.156h0A3.4,3.4,0,0,1,3330.336,5457Z" transform="translate(-13740.396 -1310.457)" fill="#1f2e7e"/>
        <path id="パス_5989" data-name="パス 5989" d="M3320.488,5411.063c-7.758,7.692-19.446,6.873-26.055-1.828a3.1,3.1,0,0,1,.279-3.964,2.252,2.252,0,0,1,3.474.243,12.407,12.407,0,0,0,19.1,1.34,2.254,2.254,0,0,1,3.474.243A3.108,3.108,0,0,1,3320.488,5411.063Z" transform="translate(-13733.846 -1299.339)" fill="#1f2e7e"/>
        <path id="長方形_2672" data-name="長方形 2672" d="M3348.7,5406.5l-2.987,42.593h0L3330.135,5448a12.429,12.429,0,0,1-11.528-13.268l2.118-30.194h0l27.979,1.962Z" transform="translate(-13739.48 -1299.331)" fill="#f086ab"/>
        <path id="パス_5990" data-name="パス 5990" d="M3367.969,5426.931a2.255,2.255,0,0,1-2.023-2.464l.09-1.354a12.406,12.406,0,0,0-13.539-13.544,2.351,2.351,0,0,1-.439,0,2.254,2.254,0,0,1-2.024-2.463,3.1,3.1,0,0,1,2.811-2.81c10.9-.716,19.184,7.571,18.465,18.472l-.09,1.354a3.1,3.1,0,0,1-2.811,2.81A2.286,2.286,0,0,1,3367.969,5426.931Z" transform="translate(-13746.646 -1299.267)" fill="#1f2e7e"/>
        <circle id="楕円形_525" data-name="楕円形 525" cx="5.259" cy="5.259" r="5.259" transform="translate(-10401.312 4083.831)" fill="#fff"/>
        <circle id="楕円形_526" data-name="楕円形 526" cx="5.259" cy="5.259" r="5.259" transform="translate(-10416.673 4082.754)" fill="#fff"/>
        <circle id="楕円形_527" data-name="楕円形 527" cx="3.373" cy="3.373" r="3.373" transform="translate(-10399.425 4085.717)"/>
        <circle id="楕円形_528" data-name="楕円形 528" cx="3.373" cy="3.373" r="3.373" transform="translate(-10414.788 4084.639)"/>
      </g>
    </g>
  </g>
</svg>
