<svg xmlns="http://www.w3.org/2000/svg" width="204.646" height="114.217" viewBox="0 0 204.646 114.217">
  <g id="Group_3655" data-name="Group 3655" transform="translate(-890 -19606.207)">
    <g id="Group_2743" data-name="Group 2743" transform="translate(991.992 19606.207)">
      <path id="Path_5836" data-name="Path 5836" d="M-581.65-2528.884v-33.461a19.992,19.992,0,0,0-19.992-19.992h0a19.992,19.992,0,0,0-19.993,19.992v33.461h0a39.985,39.985,0,0,0,39.985,39.985h10.358a39.985,39.985,0,0,0,39.985-39.985H-581.65Z" transform="translate(633.313 2603.116)" fill="#fa0"/>
      <ellipse id="Ellipse_447" data-name="Ellipse 447" cx="32.539" cy="32.539" rx="32.539" ry="32.539" transform="translate(37.576 35.325)" fill="#ed592b"/>
      <rect id="Rectangle_2547" data-name="Rectangle 2547" width="3.679" height="29.098" transform="translate(22.593 4.477)" fill="#fa0"/>
      <rect id="Rectangle_2548" data-name="Rectangle 2548" width="3.679" height="29.098" transform="translate(35.728 4.477)" fill="#fa0"/>
      <ellipse id="Ellipse_448" data-name="Ellipse 448" cx="5.705" cy="5.705" rx="5.705" ry="5.705" transform="translate(31.863)" fill="#fa0"/>
      <ellipse id="Ellipse_449" data-name="Ellipse 449" cx="5.705" cy="5.705" rx="5.705" ry="5.705" transform="translate(18.727)" fill="#fa0"/>
      <ellipse id="Ellipse_450" data-name="Ellipse 450" cx="23.384" cy="23.384" rx="23.384" ry="23.384" transform="translate(46.731 44.48)" fill="#fa0"/>
      <ellipse id="Ellipse_451" data-name="Ellipse 451" cx="14.974" cy="14.974" rx="14.974" ry="14.974" transform="translate(55.141 52.89)" fill="#ed592b"/>
      <ellipse id="Ellipse_452" data-name="Ellipse 452" cx="7.037" cy="7.037" rx="7.037" ry="7.037" transform="translate(63.078 60.827)" fill="#fa0"/>
      <ellipse id="Ellipse_453" data-name="Ellipse 453" cx="7.003" cy="7.003" rx="7.003" ry="7.003" transform="translate(15.298 30.102)" fill="#fff"/>
      <ellipse id="Ellipse_454" data-name="Ellipse 454" cx="7.003" cy="7.003" rx="7.003" ry="7.003" transform="translate(33.564 30.102)" fill="#fff"/>
      <ellipse id="Ellipse_455" data-name="Ellipse 455" cx="4.492" cy="4.492" rx="4.492" ry="4.492" transform="translate(17.809 32.613)"/>
      <ellipse id="Ellipse_456" data-name="Ellipse 456" cx="4.492" cy="4.492" rx="4.492" ry="4.492" transform="translate(36.075 32.613)"/>
      <rect id="Rectangle_2549" data-name="Rectangle 2549" width="63.726" height="31.43" transform="translate(0 47.964)" fill="#fffcf3"/>
      <path id="Path_5837" data-name="Path 5837" d="M-717.279-2359.661l31.767,22.7,31.959-22.7" transform="translate(717.279 2407.625)" fill="#fffcf3" stroke="#231815" stroke-miterlimit="10" stroke-width="2.8"/>
    </g>
    <g id="Group_2742" data-name="Group 2742" transform="translate(890 19613.709)">
      <path id="Rectangle_2542" data-name="Rectangle 2542" d="M45.137,0h0A45.137,45.137,0,0,1,90.274,45.137V90.274a0,0,0,0,1,0,0H0a0,0,0,0,1,0,0V45.137A45.137,45.137,0,0,1,45.137,0Z" transform="translate(0.217 0)" fill="#2a8648"/>
      <path id="Rectangle_2543" data-name="Rectangle 2543" d="M15.088,0h0A15.088,15.088,0,0,1,30.176,15.088V57.68a0,0,0,0,1,0,0H0a0,0,0,0,1,0,0V15.088A15.088,15.088,0,0,1,15.088,0Z" transform="translate(30.266 32.594)" fill="#fa0"/>
      <path id="Rectangle_2544" data-name="Rectangle 2544" d="M0,0H30.176a0,0,0,0,1,0,0V4.905A15.088,15.088,0,0,1,15.088,19.993h0A15.088,15.088,0,0,1,0,4.905V0A0,0,0,0,1,0,0Z" transform="translate(0 86.64)" fill="#fa0"/>
      <rect id="Rectangle_2545" data-name="Rectangle 2545" width="63.225" height="31.183" transform="translate(13.837 52.157)" fill="#fffcf3"/>
      <path id="Rectangle_2546" data-name="Rectangle 2546" d="M0,0H30.176a0,0,0,0,1,0,0V4.905A15.088,15.088,0,0,1,15.088,19.993h0A15.088,15.088,0,0,1,0,4.905V0A0,0,0,0,1,0,0Z" transform="translate(60.443 86.64)" fill="#fa0"/>
      <path id="Path_5834" data-name="Path 5834" d="M1641.568-56.728l31.517,22.518,31.708-22.518" transform="translate(-1627.731 108.885)" fill="#fffcf3" stroke="#231815" stroke-miterlimit="10" stroke-width="2.8"/>
      <path id="Path_5835" data-name="Path 5835" d="M1777.2-56.728l15.184,6.985,14.992-6.985" transform="translate(-1746.938 108.885)" fill="#fa0"/>
      <ellipse id="Ellipse_443" data-name="Ellipse 443" cx="5.862" cy="5.862" rx="5.862" ry="5.862" transform="translate(31.849 39.276)" fill="#fff"/>
      <ellipse id="Ellipse_444" data-name="Ellipse 444" cx="5.862" cy="5.862" rx="5.862" ry="5.862" transform="translate(47.137 39.276)" fill="#fff"/>
      <ellipse id="Ellipse_445" data-name="Ellipse 445" cx="3.76" cy="3.76" rx="3.76" ry="3.76" transform="translate(33.951 41.378)"/>
      <ellipse id="Ellipse_446" data-name="Ellipse 446" cx="3.76" cy="3.76" rx="3.76" ry="3.76" transform="translate(49.239 41.378)"/>
    </g>
  </g>
</svg>
