<svg xmlns="http://www.w3.org/2000/svg" xmlns:xlink="http://www.w3.org/1999/xlink" width="636.738" height="194.424" viewBox="0 0 636.738 194.424">
  <defs>
    <clipPath id="clip-path">
      <path id="Path_5920" data-name="Path 5920" d="M7051.328-7214.963h-45.853l31.049-131.292h45.854Z" transform="translate(-7005.475 7346.255)" fill="none"/>
    </clipPath>
  </defs>
  <g id="Group_3652" data-name="Group 3652" transform="translate(-2564.97 13768.459)">
    <ellipse id="楕円形_26" data-name="楕円形 26" cx="15.403" cy="15.746" rx="15.403" ry="15.746" transform="translate(2819.325 -13765.605)" fill="#feb33e"/>
    <ellipse id="楕円形_27" data-name="楕円形 27" cx="15.403" cy="15.746" rx="15.403" ry="15.746" transform="translate(2853.734 -13765.641)" fill="#feb33e"/>
    <rect id="長方形_100" data-name="長方形 100" width="53.248" height="3.629" transform="translate(2610.479 -13735.326)" fill="#feb33e"/>
    <rect id="長方形_101" data-name="長方形 101" width="53.248" height="3.629" transform="translate(2610.448 -13765.563)" fill="#feb33e"/>
    <rect id="長方形_102" data-name="長方形 102" width="53.248" height="3.629" transform="translate(2610.455 -13759.55)" fill="#feb33e"/>
    <rect id="長方形_103" data-name="長方形 103" width="53.248" height="3.629" transform="translate(2610.461 -13753.531)" fill="#feb33e"/>
    <rect id="長方形_104" data-name="長方形 104" width="53.248" height="3.629" transform="translate(2610.467 -13747.513)" fill="#feb33e"/>
    <rect id="長方形_105" data-name="長方形 105" width="53.248" height="3.629" transform="translate(2610.473 -13741.345)" fill="#feb33e"/>
    <rect id="長方形_106" data-name="長方形 106" width="53.248" height="3.629" transform="translate(2610.504 -13711.108)" fill="#feb33e"/>
    <rect id="長方形_109" data-name="長方形 109" width="53.248" height="3.629" transform="translate(2610.486 -13729.313)" fill="#feb33e"/>
    <rect id="長方形_110" data-name="長方形 110" width="53.248" height="3.629" transform="translate(2610.492 -13723.295)" fill="#feb33e"/>
    <rect id="長方形_111" data-name="長方形 111" width="53.248" height="3.629" transform="translate(2610.498 -13717.128)" fill="#feb33e"/>
    <rect id="長方形_100-2" data-name="長方形 100-2" width="53.248" height="3.629" transform="translate(3073.148 -13735.326)" fill="#feb33e"/>
    <rect id="長方形_101-2" data-name="長方形 101-2" width="53.248" height="3.629" transform="translate(3073.119 -13765.563)" fill="#feb33e"/>
    <rect id="長方形_102-2" data-name="長方形 102-2" width="53.248" height="3.629" transform="translate(3073.125 -13759.55)" fill="#feb33e"/>
    <rect id="長方形_103-2" data-name="長方形 103-2" width="53.248" height="3.629" transform="translate(3073.131 -13753.531)" fill="#feb33e"/>
    <rect id="長方形_104-2" data-name="長方形 104-2" width="53.248" height="3.629" transform="translate(3073.136 -13747.513)" fill="#feb33e"/>
    <rect id="長方形_105-2" data-name="長方形 105-2" width="53.248" height="3.629" transform="translate(3073.142 -13741.345)" fill="#feb33e"/>
    <rect id="長方形_106-2" data-name="長方形 106-2" width="53.248" height="3.629" transform="translate(3073.173 -13711.108)" fill="#feb33e"/>
    <rect id="長方形_109-2" data-name="長方形 109-2" width="53.248" height="3.629" transform="translate(3073.155 -13729.313)" fill="#feb33e"/>
    <rect id="長方形_110-2" data-name="長方形 110-2" width="53.248" height="3.629" transform="translate(3073.161 -13723.295)" fill="#feb33e"/>
    <rect id="長方形_111-2" data-name="長方形 111-2" width="53.248" height="3.629" transform="translate(3073.167 -13717.128)" fill="#feb33e"/>
    <path id="パス_53" data-name="パス 53" d="M7140.215-7347.681h0c-25.156.029-45.528,20.9-45.5,46.619a47.439,47.439,0,0,0,2.887,16.242l1.055,2.926,65.571-.067Z" transform="translate(-4193.531 -6420.777)" fill="#feb33e"/>
    <path id="パス_53-2" data-name="パス 53-2" d="M6975.735-7346.277h0c-25.156.026-45.526,20.893-45.5,46.614a47.374,47.374,0,0,0,2.878,16.243l1.055,2.925,65.572-.067Z" transform="translate(-4365.268 -6419.313)" fill="#feb33e"/>
    <path id="パス_53-3" data-name="パス 53-3" d="M6990.672-7280.494h0c25.156-.026,45.529-20.9,45.5-46.616a47.529,47.529,0,0,0-2.876-16.245l-1.055-2.921-65.573.067Z" transform="translate(-4327.229 -6419.313)" fill="#feb33e"/>
    <rect id="長方形_107" data-name="長方形 107" width="53.248" height="3.629" transform="translate(2610.51 -13705.095)" fill="#feb33e"/>
    <rect id="長方形_108" data-name="長方形 108" width="53.248" height="3.629" transform="translate(2610.517 -13698.927)" fill="#feb33e"/>
    <rect id="長方形_112" data-name="長方形 112" width="53.248" height="3.629" transform="translate(2610.548 -13668.358)" fill="#feb33e"/>
    <rect id="長方形_113" data-name="長方形 113" width="53.248" height="3.629" transform="translate(2610.554 -13662.341)" fill="#feb33e"/>
    <rect id="長方形_114" data-name="長方形 114" width="53.248" height="3.629" transform="translate(2610.56 -13656.179)" fill="#feb33e"/>
    <rect id="長方形_115" data-name="長方形 115" width="53.248" height="3.629" transform="translate(2610.567 -13650.039)" fill="#feb33e"/>
    <rect id="長方形_116" data-name="長方形 116" width="53.248" height="3.629" transform="translate(2610.573 -13644.021)" fill="#feb33e"/>
    <rect id="長方形_117" data-name="長方形 117" width="53.248" height="3.629" transform="translate(2610.579 -13637.854)" fill="#feb33e"/>
    <rect id="長方形_118" data-name="長方形 118" width="53.248" height="3.629" transform="translate(2610.529 -13686.564)" fill="#feb33e"/>
    <rect id="長方形_119" data-name="長方形 119" width="53.248" height="3.629" transform="translate(2610.535 -13680.546)" fill="#feb33e"/>
    <rect id="長方形_120" data-name="長方形 120" width="53.248" height="3.629" transform="translate(2610.523 -13692.841)" fill="#feb33e"/>
    <rect id="長方形_121" data-name="長方形 121" width="53.248" height="3.629" transform="translate(2610.542 -13674.379)" fill="#feb33e"/>
    <path id="パス_53-4" data-name="パス 53-4" d="M7231.746-7249.209h0a45.5,45.5,0,0,0,45.453-45.555,45.541,45.541,0,0,0-2.874-15.873l-1.057-2.857-65.5.066Z" transform="translate(-4075.491 -6385.082)" fill="#feb33e"/>
    <rect id="長方形_107-2" data-name="長方形 107-2" width="53.248" height="3.629" transform="translate(3073.179 -13705.095)" fill="#feb33e"/>
    <rect id="長方形_108-2" data-name="長方形 108-2" width="53.248" height="3.629" transform="translate(3073.186 -13698.927)" fill="#feb33e"/>
    <rect id="長方形_112-2" data-name="長方形 112-2" width="53.248" height="3.629" transform="translate(3073.217 -13668.358)" fill="#feb33e"/>
    <rect id="長方形_113-2" data-name="長方形 113-2" width="53.248" height="3.629" transform="translate(3073.223 -13662.341)" fill="#feb33e"/>
    <rect id="長方形_114-2" data-name="長方形 114-2" width="53.248" height="3.629" transform="translate(3073.229 -13656.179)" fill="#feb33e"/>
    <rect id="長方形_115-2" data-name="長方形 115-2" width="53.248" height="3.629" transform="translate(3073.236 -13650.039)" fill="#feb33e"/>
    <rect id="長方形_116-2" data-name="長方形 116-2" width="53.248" height="3.629" transform="translate(3073.242 -13644.021)" fill="#feb33e"/>
    <rect id="長方形_117-2" data-name="長方形 117-2" width="53.248" height="3.629" transform="translate(3073.248 -13637.854)" fill="#feb33e"/>
    <rect id="長方形_118-2" data-name="長方形 118-2" width="53.248" height="3.629" transform="translate(3073.198 -13686.564)" fill="#feb33e"/>
    <rect id="長方形_119-2" data-name="長方形 119-2" width="53.248" height="3.629" transform="translate(3073.205 -13680.546)" fill="#feb33e"/>
    <rect id="長方形_120-2" data-name="長方形 120-2" width="53.248" height="3.629" transform="translate(3073.192 -13692.841)" fill="#feb33e"/>
    <rect id="長方形_121-2" data-name="長方形 121-2" width="53.248" height="3.629" transform="translate(3073.211 -13674.379)" fill="#feb33e"/>
    <rect id="長方形_154" data-name="長方形 154" width="3.633" height="40.39" transform="translate(2925.933 -13674.335)" fill="#feb33e"/>
    <rect id="長方形_155" data-name="長方形 155" width="3.633" height="40.39" transform="translate(2931.938 -13674.339) rotate(-0.06)" fill="#feb33e"/>
    <rect id="長方形_156" data-name="長方形 156" width="3.633" height="40.39" transform="translate(2938.111 -13674.346) rotate(-0.06)" fill="#feb33e"/>
    <rect id="長方形_157" data-name="長方形 157" width="3.633" height="40.39" transform="translate(2907.695 -13674.313) rotate(-0.06)" fill="#feb33e"/>
    <rect id="長方形_158" data-name="長方形 158" width="3.633" height="40.39" transform="translate(2913.74 -13674.321)" fill="#feb33e"/>
    <rect id="長方形_159" data-name="長方形 159" width="3.633" height="40.39" transform="translate(2901.407 -13674.307) rotate(-0.06)" fill="#feb33e"/>
    <rect id="長方形_160" data-name="長方形 160" width="3.633" height="40.39" transform="translate(2919.907 -13674.328)" fill="#feb33e"/>
    <rect id="長方形_161" data-name="長方形 161" width="3.633" height="40.39" transform="translate(2968.705 -13674.378) rotate(-0.06)" fill="#feb33e"/>
    <rect id="長方形_162" data-name="長方形 162" width="3.633" height="40.39" transform="translate(2974.73 -13674.384) rotate(-0.06)" fill="#feb33e"/>
    <rect id="長方形_163" data-name="長方形 163" width="3.633" height="40.39" transform="translate(2980.924 -13674.392)" fill="#feb33e"/>
    <rect id="長方形_164" data-name="長方形 164" width="3.633" height="40.39" transform="translate(2987.049 -13674.396) rotate(-0.06)" fill="#feb33e"/>
    <rect id="長方形_165" data-name="長方形 165" width="3.633" height="40.39" transform="translate(2993.069 -13674.402) rotate(-0.06)" fill="#feb33e"/>
    <rect id="長方形_166" data-name="長方形 166" width="3.633" height="40.39" transform="translate(2999.242 -13674.409) rotate(-0.06)" fill="#feb33e"/>
    <rect id="長方形_167" data-name="長方形 167" width="3.633" height="40.39" transform="translate(2950.507 -13674.36)" fill="#feb33e"/>
    <rect id="長方形_168" data-name="長方形 168" width="3.633" height="40.39" transform="translate(2956.512 -13674.364) rotate(-0.06)" fill="#feb33e"/>
    <rect id="長方形_169" data-name="長方形 169" width="3.633" height="40.39" transform="translate(2944.219 -13674.354)" fill="#feb33e"/>
    <rect id="長方形_170" data-name="長方形 170" width="3.633" height="40.39" transform="translate(2962.68 -13674.37) rotate(-0.06)" fill="#feb33e"/>
    <path id="パス_48" data-name="パス 48" d="M7178.414-7232.677l-53.594.056,34.053-96.407,53.6-.055Z" transform="translate(-4162.098 -6401.359)" fill="#feb33e"/>
    <path id="パス_48-2" data-name="パス 48-2" d="M7060.889-7216.417l59.1.063-39.423-129.9-59.1-.064Z" transform="translate(-4270.01 -6419.357)" fill="#feb33e"/>
    <g id="Group_2802" data-name="Group 2802" transform="translate(2718.767 -13765.545)">
      <g id="Group_2801" data-name="Group 2801" clip-path="url(#clip-path)">
        <g id="グループ_2499" data-name="グループ 2499" transform="translate(-25.124 -0.06)">
          <rect id="長方形_100-3" data-name="長方形 100-3" width="71.75" height="3.629" transform="translate(30.975 30.311) rotate(-0.058)" fill="#feb33e"/>
          <rect id="長方形_101-3" data-name="長方形 101-3" width="71.75" height="3.629" transform="translate(30.944 0.073) rotate(-0.058)" fill="#feb33e"/>
          <rect id="長方形_102-3" data-name="長方形 102-3" width="71.75" height="3.629" transform="translate(30.95 6.086) rotate(-0.058)" fill="#feb33e"/>
          <rect id="長方形_103-3" data-name="長方形 103-3" width="71.75" height="3.629" transform="translate(30.956 12.104) rotate(-0.058)" fill="#feb33e"/>
          <rect id="長方形_104-3" data-name="長方形 104-3" width="71.75" height="3.629" transform="translate(30.962 18.124) rotate(-0.058)" fill="#feb33e"/>
          <rect id="長方形_105-3" data-name="長方形 105-3" width="71.75" height="3.629" transform="translate(30.969 24.291) rotate(-0.058)" fill="#feb33e"/>
          <rect id="長方形_106-3" data-name="長方形 106-3" width="71.75" height="3.629" transform="translate(31 54.528) rotate(-0.058)" fill="#feb33e"/>
          <rect id="長方形_107-3" data-name="長方形 107-3" width="71.75" height="3.629" transform="translate(31.006 60.542) rotate(-0.058)" fill="#feb33e"/>
          <rect id="長方形_108-3" data-name="長方形 108-3" width="71.75" height="3.629" transform="translate(31.011 66.709) rotate(-0.058)" fill="#feb33e"/>
          <rect id="長方形_109-3" data-name="長方形 109-3" width="71.75" height="3.629" transform="translate(30.981 36.323) rotate(-0.058)" fill="#feb33e"/>
          <rect id="長方形_110-3" data-name="長方形 110-3" width="71.75" height="3.629" transform="translate(30.987 42.343) rotate(-0.058)" fill="#feb33e"/>
          <rect id="長方形_111-3" data-name="長方形 111-3" width="71.75" height="3.629" transform="translate(30.993 48.509) rotate(-0.058)" fill="#feb33e"/>
          <rect id="長方形_112-3" data-name="長方形 112-3" width="71.75" height="3.629" transform="translate(31.042 97.277) rotate(-0.058)" fill="#feb33e"/>
          <rect id="長方形_113-3" data-name="長方形 113-3" width="102.798" height="3.629" transform="translate(0 103.313) rotate(-0.058)" fill="#feb33e"/>
          <rect id="長方形_114-3" data-name="長方形 114-3" width="102.798" height="3.629" transform="translate(0.007 109.474) rotate(-0.058)" fill="#feb33e"/>
          <rect id="長方形_115-3" data-name="長方形 115-3" width="102.798" height="3.629" transform="translate(0.013 115.613) rotate(-0.058)" fill="#feb33e"/>
          <rect id="長方形_116-3" data-name="長方形 116-3" width="102.798" height="3.629" transform="translate(0.019 121.632) rotate(-0.058)" fill="#feb33e"/>
          <rect id="長方形_117-3" data-name="長方形 117-3" width="102.798" height="3.629" transform="translate(0.026 127.799) rotate(-0.058)" fill="#feb33e"/>
          <rect id="長方形_118-3" data-name="長方形 118-3" width="71.75" height="3.629" transform="translate(31.024 79.072) rotate(-0.058)" fill="#feb33e"/>
          <rect id="長方形_119-3" data-name="長方形 119-3" width="71.75" height="3.629" transform="translate(31.03 85.091) rotate(-0.058)" fill="#feb33e"/>
          <rect id="長方形_120-3" data-name="長方形 120-3" width="71.75" height="3.629" transform="translate(31.017 72.795) rotate(-0.058)" fill="#feb33e"/>
          <rect id="長方形_121-3" data-name="長方形 121-3" width="71.75" height="3.629" transform="translate(31.036 91.259) rotate(-0.058)" fill="#feb33e"/>
        </g>
      </g>
    </g>
    <rect id="長方形_2386" data-name="長方形 2386" width="53.317" height="65.78" transform="translate(2610.446 -13765.677)" fill="#feb33e"/>
    <text id="event" transform="translate(2812.709 -13584.035)" fill="#feb33e" font-size="35" font-family="SourceHanSansJP-Bold, Source Han Sans JP" font-weight="700" letter-spacing="0.18em" style="isolation: isolate"><tspan x="0" y="0">event</tspan></text>
  </g>
</svg>
