<svg xmlns="http://www.w3.org/2000/svg" width="1277.677" height="935.529" viewBox="0 0 1277.677 935.529">
  <g id="Group_3653" data-name="Group 3653" transform="translate(-2245 13334)">
    <path id="パス_5663-2" data-name="パス 5663-2" d="M-2743.764-613.049v-435.829c0-123.48-72.852-231.918-182.591-293.525v-206.174s-238.709,149.492-238.709,152.307h-435.082l-238.707-152.307v206.172c-109.737,61.6-182.588,170.041-182.588,293.539v435.818" transform="translate(6266.441 -11785.423)" fill="#feb33e"/>
    <path id="長方形_2356-3" data-name="長方形 2356-3" d="M-3974.457-613.049v-209.9h1180.375v209.9" transform="translate(6266.441 -11785.423)" fill="#ef4441"/>
    <g id="グループ_2435" data-name="グループ 2435" transform="translate(6266.441 -11785.423)">
      <path id="パス_5507" data-name="パス 5507" d="M-3573.8-1116.286a97.429,97.429,0,0,1-97.423,97.435h-.006a97.434,97.434,0,0,1-97.435-97.432h0" fill="#fff"/>
      <path id="パス_5508" data-name="パス 5508" d="M-3608.735-1116.286a62.492,62.492,0,0,1-62.333,62.651h0a62.49,62.49,0,0,1-62.651-62.33v-.316"/>
    </g>
    <g id="グループ_2436" data-name="グループ 2436" transform="translate(6266.441 -11785.423)">
      <path id="パス_5509" data-name="パス 5509" d="M-3005.854-1116.286a97.433,97.433,0,0,1-97.431,97.435,97.435,97.435,0,0,1-97.437-97.432h0" fill="#fff"/>
      <path id="パス_5510" data-name="パス 5510" d="M-3040.771-1116.286a62.5,62.5,0,0,1-62.333,62.651,62.5,62.5,0,0,1-62.652-62.334v-.312"/>
    </g>
    <path id="パス_5511" data-name="パス 5511" d="M-3091.635-997.266a545.419,545.419,0,0,0-82.278,3.533,1772.62,1772.62,0,0,1-420.776,0,544.858,544.858,0,0,0-82.186-3.524c-161.28,5.1-291.29,81.659-297.432,175.016-6.034,91.83,162.212,195.844,315.2,189.52,156.856-6.467,254.725-126.914,272.365-149.406,18.077,22.7,118.2,143.983,277.3,149.406,152.7,5.207,321.218-97.843,315.2-189.52C-2800.367-915.566-2930.36-992.133-3091.635-997.266Z" transform="translate(6266.441 -11785.423)" fill="#fff"/>
    <path id="パス_5512" data-name="パス 5512" d="M-3255.235-985.224c22.531,49.056-25.314,142.73-131.5,203.1-103.927-60.223-149.546-153.812-126.572-203.1C-3479.6-1057.572-3287.9-1056.368-3255.235-985.224Z" transform="translate(6266.441 -11785.423)" fill="#0a0a0a"/>
    <circle id="楕円形_315" data-name="楕円形 315" cx="32.576" cy="32.576" r="32.576" transform="translate(3081.331 -12654.177)" fill="#0a0a0a"/>
    <circle id="楕円形_316" data-name="楕円形 316" cx="32.576" cy="32.576" r="32.576" transform="translate(3183.44 -12589.025)" fill="#0a0a0a"/>
    <circle id="楕円形_316-2" data-name="楕円形 316-2" cx="32.576" cy="32.576" r="32.576" transform="translate(3256.256 -12673.593)" fill="#0a0a0a"/>
    <circle id="楕円形_318" data-name="楕円形 318" cx="32.576" cy="32.576" r="32.576" transform="translate(2623.356 -12654.177)" fill="#0a0a0a"/>
    <circle id="楕円形_319" data-name="楕円形 319" cx="32.576" cy="32.576" r="32.576" transform="translate(2521.246 -12589.025)" fill="#0a0a0a"/>
    <circle id="楕円形_320" data-name="楕円形 320" cx="32.576" cy="32.576" r="32.576" transform="translate(2445.108 -12674.884)" fill="#0a0a0a"/>
    <path id="パス_5664" data-name="パス 5664" d="M-3362.6-1308.541l.578,72.812h-209.706Z" transform="translate(6266.441 -11785.423)" fill="#0a0a0a"/>
    <path id="パス_5665" data-name="パス 5665" d="M-3362.6-1381.355l.578,72.809h-209.706Z" transform="translate(6266.441 -11785.423)" fill="#0a0a0a"/>
    <path id="パス_5666" data-name="パス 5666" d="M-3415.693-1308.541q-.289,36.4-.574,72.812h209.7Z" transform="translate(6266.441 -11785.423)" fill="#0a0a0a"/>
    <path id="パス_5667" data-name="パス 5667" d="M-3415.693-1381.355q-.289,36.4-.574,72.809h209.7Z" transform="translate(6266.441 -11785.423)" fill="#0a0a0a"/>
    <path id="パス_5668" data-name="パス 5668" d="M-3390.984-1162.869l27.27-116.831,27.273-116.828h-109.085l27.271,116.828Z" transform="translate(6266.441 -11785.423)" fill="#0a0a0a"/>
  </g>
</svg>
