<svg xmlns="http://www.w3.org/2000/svg" width="1277.678" height="391.867" viewBox="0 0 1277.678 391.867">
  <g id="Group_3570" data-name="Group 3570" transform="translate(-2245 12345)">
    <path id="パス_5663-2" data-name="パス 5663-2" d="M-4021.442-613.05v339.344a292.2,292.2,0,0,1,76.478,8.339c59.556,14.815,83.68,44.183,179.312,44.183,127.9,0,127.9-52.521,255.8-52.521s127.891,52.521,255.778,52.521S-3126.186-273.7-2998.3-273.7c127.46,0,127.921,52.152,254.534,52.5V-613.05" transform="translate(6266.442 -11731.949)" fill="#feb33e"/>
    <path id="Rectangle_2828" data-name="Rectangle 2828" d="M0,0H1179.659a0,0,0,0,1,0,0V0A213.041,213.041,0,0,1,966.619,213.041H213.041A213.041,213.041,0,0,1,0,0V0A0,0,0,0,1,0,0Z" transform="translate(2294 -12345)" fill="#ef4441"/>
    <path id="パス_5513" data-name="パス 5513" d="M-3577.383-510.764l32.9,55.875,32.9,55.879h-131.584l32.9-55.879Z" transform="translate(6266.442 -11731.949)" fill="#fff"/>
    <path id="パス_5514" data-name="パス 5514" d="M-3445.809-510.764l32.9,55.875,32.9,55.879H-3511.6l32.892-55.879Z" transform="translate(6266.442 -11731.949)" fill="#fff"/>
    <path id="パス_5515" data-name="パス 5515" d="M-3314.223-510.764l32.894,55.875,32.9,55.879h-131.587l32.9-55.879Z" transform="translate(6266.442 -11731.949)" fill="#fff"/>
    <path id="パス_5516" data-name="パス 5516" d="M-3182.647-510.764l32.9,55.875,32.893,55.879h-131.577l32.893-55.879Z" transform="translate(6266.442 -11731.949)" fill="#fff"/>
  </g>
</svg>
