<svg xmlns="http://www.w3.org/2000/svg" viewBox="0 0 1279.52 632.9"><defs><style>.cls-1{fill:#59aac3;}.cls-2,.cls-3{isolation:isolate;}.cls-3{font-size:22px;fill:#fff;font-family:SegoeUI, Segoe UI;letter-spacing:0.18em;}.cls-4{fill:#fffcf3;}</style></defs><g id="Layer_2" data-name="Layer 2"><g id="Layer_1-2" data-name="Layer 1"><path class="cls-1" d="M0,0V580.36c128,0,128,52.54,255.9,52.54s128-52.54,255.89-52.54,128,52.54,255.9,52.54,128-52.54,255.91-52.54,128,52.54,255.92,52.54V0Z"/><g id="exhibition"><g id="exhibition-2" class="cls-2"><text class="cls-3" transform="translate(567.72 258.71)">exhibition</text></g></g><g id="グループ_2591" data-name="グループ 2591"><path id="パス_49" data-name="パス 49" class="cls-4" d="M819.58,206.66l-58.45.06,24.14-66.27,58.46-.06Z"/><rect id="長方形_66" data-name="長方形 66" class="cls-4" x="618.52" y="83.34" width="3.77" height="41.02"/><rect id="長方形_67" data-name="長方形 67" class="cls-4" x="624.78" y="83.34" width="3.77" height="41.02"/><rect id="長方形_68" data-name="長方形 68" class="cls-4" x="631.18" y="83.33" width="3.77" height="41.02"/><rect id="長方形_69" data-name="長方形 69" class="cls-4" x="599.6" y="83.36" width="3.77" height="41.02"/><rect id="長方形_70" data-name="長方形 70" class="cls-4" x="605.86" y="83.36" width="3.77" height="41.02"/><rect id="長方形_71" data-name="長方形 71" class="cls-4" x="593.07" y="83.37" width="3.77" height="41.02"/><rect id="長方形_72" data-name="長方形 72" class="cls-4" x="612.26" y="83.35" width="3.77" height="41.02"/><rect id="長方形_73" data-name="長方形 73" class="cls-4" x="662.95" y="83.3" width="3.77" height="41.02"/><rect id="長方形_74" data-name="長方形 74" class="cls-4" x="669.21" y="83.29" width="3.77" height="41.02"/><rect id="長方形_75" data-name="長方形 75" class="cls-4" x="675.62" y="83.28" width="3.77" height="41.02"/><rect id="長方形_76" data-name="長方形 76" class="cls-4" x="682" y="83.28" width="3.77" height="41.02"/><rect id="長方形_77" data-name="長方形 77" class="cls-4" x="688.25" y="83.27" width="3.77" height="41.02"/><rect id="長方形_78" data-name="長方形 78" class="cls-4" x="694.66" y="83.27" width="3.77" height="41.02"/><rect id="長方形_79" data-name="長方形 79" class="cls-4" x="644.04" y="83.32" width="3.77" height="41.02"/><rect id="長方形_80" data-name="長方形 80" class="cls-4" x="650.29" y="83.31" width="3.77" height="41.02"/><rect id="長方形_81" data-name="長方形 81" class="cls-4" x="637.51" y="83.32" width="3.77" height="41.02"/><rect id="長方形_82" data-name="長方形 82" class="cls-4" x="656.7" y="83.3" width="3.77" height="41.02"/><path id="パス_51" data-name="パス 51" class="cls-4" d="M648,206.84l-55.65,0L622.26,124l55.67-.06Z"/><path id="パス_52" data-name="パス 52" class="cls-4" d="M319.65,207.17l58.45-.06-30.34-82.85-58.42.06Z"/><path id="パス_53" data-name="パス 53" class="cls-4" d="M951.83,206.46h0c33.78.63,57.2-36.38,43.16-66.82l-68.09.07Z"/><path id="パス_54" data-name="パス 54" class="cls-4" d="M591.33,146.09l-58.45.06,30.17-82.91,58.45-.06Z"/><path id="楕円形_26" data-name="楕円形 26" class="cls-4" d="M725,136.33c20.92.09,20.92,31.89,0,32C704.08,168.22,704.08,136.42,725,136.33Z"/><path id="楕円形_27" data-name="楕円形 27" class="cls-4" d="M759.85,136.29c20.91.1,20.91,31.9,0,32C738.93,168.19,738.93,136.38,759.85,136.29Z"/><rect id="長方形_83" data-name="長方形 83" class="cls-4" x="448.85" y="165.6" width="3.77" height="41.02"/><rect id="長方形_84" data-name="長方形 84" class="cls-4" x="455.1" y="165.59" width="3.77" height="41.02"/><rect id="長方形_85" data-name="長方形 85" class="cls-4" x="461.51" y="165.59" width="3.77" height="41.02"/><rect id="長方形_86" data-name="長方形 86" class="cls-4" x="429.92" y="165.62" width="3.77" height="41.02"/><rect id="長方形_87" data-name="長方形 87" class="cls-4" x="436.18" y="165.61" width="3.77" height="41.02"/><rect id="長方形_88" data-name="長方形 88" class="cls-4" x="423.4" y="165.62" width="3.77" height="41.02"/><rect id="長方形_89" data-name="長方形 89" class="cls-4" x="442.59" y="165.61" width="3.77" height="41.02"/><rect id="長方形_90" data-name="長方形 90" class="cls-4" x="493.28" y="165.56" width="3.77" height="41.02"/><rect id="長方形_91" data-name="長方形 91" class="cls-4" x="499.53" y="165.55" width="3.77" height="41.02"/><rect id="長方形_92" data-name="長方形 92" class="cls-4" x="505.94" y="165.54" width="3.77" height="41.02"/><rect id="長方形_93" data-name="長方形 93" class="cls-4" x="512.32" y="165.54" width="3.77" height="41.02"/><rect id="長方形_94" data-name="長方形 94" class="cls-4" x="518.58" y="165.53" width="3.77" height="41.02"/><rect id="長方形_95" data-name="長方形 95" class="cls-4" x="524.98" y="165.52" width="3.77" height="41.02"/><rect id="長方形_96" data-name="長方形 96" class="cls-4" x="474.36" y="165.57" width="3.77" height="41.02"/><rect id="長方形_97" data-name="長方形 97" class="cls-4" x="480.61" y="165.57" width="3.77" height="41.02"/><rect id="長方形_98" data-name="長方形 98" class="cls-4" x="467.83" y="165.58" width="3.77" height="41.02"/><rect id="長方形_99" data-name="長方形 99" class="cls-4" x="487.02" y="165.56" width="3.77" height="41.02"/><rect id="長方形_100" data-name="長方形 100" class="cls-4" x="865.44" y="101.44" width="55.35" height="3.77"/><rect id="長方形_101" data-name="長方形 101" class="cls-4" x="865.41" y="70.01" width="55.35" height="3.77"/><rect id="長方形_102" data-name="長方形 102" class="cls-4" x="865.42" y="76.26" width="55.35" height="3.77"/><rect id="長方形_103" data-name="長方形 103" class="cls-4" x="865.42" y="82.51" width="55.35" height="3.77"/><rect id="長方形_104" data-name="長方形 104" class="cls-4" x="865.43" y="88.77" width="55.35" height="3.77"/><rect id="長方形_105" data-name="長方形 105" class="cls-4" x="865.44" y="95.18" width="55.35" height="3.77"/><rect id="長方形_106" data-name="長方形 106" class="cls-4" x="865.47" y="126.61" width="55.35" height="3.77"/><rect id="長方形_107" data-name="長方形 107" class="cls-4" x="865.48" y="132.86" width="55.35" height="3.77"/><rect id="長方形_108" data-name="長方形 108" class="cls-4" x="865.48" y="139.27" width="55.35" height="3.77"/><rect id="長方形_109" data-name="長方形 109" class="cls-4" x="865.45" y="107.69" width="55.35" height="3.77"/><rect id="長方形_110" data-name="長方形 110" class="cls-4" x="865.46" y="113.94" width="55.35" height="3.77"/><rect id="長方形_111" data-name="長方形 111" class="cls-4" x="865.46" y="120.35" width="55.35" height="3.77"/><rect id="長方形_112" data-name="長方形 112" class="cls-4" x="865.51" y="171.04" width="55.35" height="3.77"/><rect id="長方形_113" data-name="長方形 113" class="cls-4" x="865.52" y="177.3" width="55.35" height="3.77"/><rect id="長方形_114" data-name="長方形 114" class="cls-4" x="865.53" y="183.7" width="55.35" height="3.77"/><rect id="長方形_115" data-name="長方形 115" class="cls-4" x="865.53" y="190.09" width="55.35" height="3.77"/><rect id="長方形_116" data-name="長方形 116" class="cls-4" x="865.54" y="196.34" width="55.35" height="3.77"/><rect id="長方形_117" data-name="長方形 117" class="cls-4" x="865.55" y="202.75" width="55.35" height="3.77"/><rect id="長方形_118" data-name="長方形 118" class="cls-4" x="865.49" y="152.12" width="55.35" height="3.77"/><rect id="長方形_119" data-name="長方形 119" class="cls-4" x="865.5" y="158.38" width="55.35" height="3.77"/><rect id="長方形_120" data-name="長方形 120" class="cls-4" x="865.49" y="145.6" width="55.35" height="3.77"/><rect id="長方形_121" data-name="長方形 121" class="cls-4" x="865.51" y="164.79" width="55.35" height="3.77"/><rect id="長方形_122" data-name="長方形 122" class="cls-4" x="311.57" y="68.73" width="3.77" height="41.02"/><rect id="長方形_123" data-name="長方形 123" class="cls-4" x="317.82" y="68.72" width="3.77" height="41.02"/><rect id="長方形_124" data-name="長方形 124" class="cls-4" x="324.23" y="68.71" width="3.77" height="41.02"/><rect id="長方形_125" data-name="長方形 125" class="cls-4" x="286.39" y="68.75" width="3.77" height="41.02"/><rect id="長方形_126" data-name="長方形 126" class="cls-4" x="292.65" y="68.75" width="3.77" height="41.02"/><rect id="長方形_127" data-name="長方形 127" class="cls-4" x="298.9" y="68.74" width="3.77" height="41.02"/><rect id="長方形_128" data-name="長方形 128" class="cls-4" x="305.31" y="68.73" width="3.77" height="41.02"/><rect id="長方形_129" data-name="長方形 129" class="cls-4" x="356" y="68.68" width="3.77" height="41.02"/><rect id="長方形_130" data-name="長方形 130" class="cls-4" x="362.26" y="68.67" width="3.77" height="41.02"/><rect id="長方形_131" data-name="長方形 131" class="cls-4" x="368.66" y="68.67" width="3.77" height="41.02"/><rect id="長方形_132" data-name="長方形 132" class="cls-4" x="375.04" y="68.66" width="3.77" height="41.02"/><rect id="長方形_133" data-name="長方形 133" class="cls-4" x="381.3" y="68.65" width="3.77" height="41.02"/><rect id="長方形_134" data-name="長方形 134" class="cls-4" x="387.71" y="68.65" width="3.77" height="41.02"/><rect id="長方形_135" data-name="長方形 135" class="cls-4" x="337.08" y="68.7" width="3.77" height="41.02"/><rect id="長方形_136" data-name="長方形 136" class="cls-4" x="343.34" y="68.7" width="3.77" height="41.02"/><rect id="長方形_137" data-name="長方形 137" class="cls-4" x="330.55" y="68.71" width="3.77" height="41.02"/><rect id="長方形_138" data-name="長方形 138" class="cls-4" x="349.74" y="68.69" width="3.77" height="41.02"/><path id="パス_55" data-name="パス 55" class="cls-4" d="M389.46,68.66h0c33.78-.71,57.29,36.26,43.3,66.73l-68.09.07Z"/></g></g></g></svg>